<?xml version="1.0" standalone="no"?>
<!DOCTYPE svg PUBLIC "-//W3C//DTD SVG 1.1//EN" "http://www.w3.org/Graphics/SVG/1.1/DTD/svg11.dtd" >
<svg xmlns="http://www.w3.org/2000/svg" xmlns:xlink="http://www.w3.org/1999/xlink" version="1.1">
<metadata>
Created by FontForge 20201107 at Thu Mar 14 13:12:04 2024
 By 
Copyright (c) 1989, 1991 Adobe Systems Incorporated.  All Rights Reserved. Utopia is either a registered trademark or trademark of Adobe Systems Incorporated in the United States and/or other countries. Used under license. The Utopia fonts are freely available; see http://tug.org/fonts/utopia.

Cyrillic: Copyright (c) 2008-2012 Andrey V. Panov (panov@canopus.iacp.dvo.ru). 

Greek: Copyright (C) 2003-2004 GUTenberg

All modifications and additions are Copyright (c) 2014--2020, Michael Sharpe
</metadata>
<defs>
<font id="Ezerovo-SemiBold" horiz-adv-x="0" >
  <font-face 
    font-family="Ezerovo SemiBold"
    font-weight="600"
    font-stretch="normal"
    units-per-em="1000"
    panose-1="2 2 6 3 5 7 5 2 2 4"
    ascent="750"
    descent="-250"
    x-height="461"
    cap-height="650"
    bbox="-467 -448 1518 1058"
    underline-thickness="50"
    underline-position="-125"
    unicode-range="U+000D-FB04"
  />
<missing-glyph horiz-adv-x="500" 
 />
    <glyph glyph-name="longs_longs" unicode="&#x17f;&#x17f;" horiz-adv-x="606" 
d="M26 0v33q21 2 33.5 3.5t19 6.5t8 14t1.5 25v407q0 90 38.5 142t112.5 52q30 0 53 -8t38 -20.5t23 -27t8 -27.5q0 -22 -19 -34t-39 -12q-15 0 -23 6.5t-12 17.5q-14 40 -25.5 53.5t-22.5 13.5q-9 0 -17.5 -10t-8.5 -39q0 -13 3 -30.5t6.5 -36t6.5 -36t3 -32.5v-384
q0 -28 11.5 -34.5t43.5 -9.5v-33h-242zM327 0v33q32 3 43.5 9.5t11.5 34.5v417q0 45 10.5 82t31.5 64t53 42t75 15q32 0 55.5 -8t38.5 -20t22.5 -26t7.5 -26t-6 -21.5t-15 -16.5t-20 -10.5t-21 -3.5q-14 0 -22.5 6.5t-13.5 17.5q-20 41 -31.5 55t-22.5 14t-22 -12.5
t-11 -46.5q0 -12 2.5 -29t5.5 -36t5.5 -38t2.5 -35v-379q0 -16 2 -25t9 -14t22 -6.5t40 -3.5v-33h-253z" />
    <glyph glyph-name=".notdef" horiz-adv-x="500" 
 />
    <glyph glyph-name="uni0000" horiz-adv-x="802" 
d="M0 725h802v-800h-802v800zM425 252h279v410h-279v-410zM287 662v-173l-116 173h-81v-410h81v252l116 -173v-79h82v410h-82zM90 0h125v110h-62v-37h25v-37h-52v111h89v36h-125v-183zM239 0h110v36h-72v147h-38v-183zM302 73h77v-73h37v183h-37v-73h-41v73h-36v-110zM446 0
h37v73h77v110h-114v-183zM589 0h37v73h41v-73h36v182h-36v-72h-41v73h-37v-183zM623 580v-246h-116v246h116zM523 147v-37h-40v37h40z" />
    <glyph glyph-name="uni0000" horiz-adv-x="802" 
d="M0 725h802v-800h-802v800zM425 252h279v410h-279v-410zM287 662v-173l-116 173h-81v-410h81v252l116 -173v-79h82v410h-82zM90 0h125v110h-62v-37h25v-37h-52v111h89v36h-125v-183zM239 0h110v36h-72v147h-38v-183zM302 73h77v-73h37v183h-37v-73h-41v73h-36v-110zM446 0
h37v73h77v110h-114v-183zM589 0h37v73h41v-73h36v182h-36v-72h-41v73h-37v-183zM623 580v-246h-116v246h116zM523 147v-37h-40v37h40z" />
    <glyph glyph-name="uni000D" unicode="&#xd;" horiz-adv-x="250" 
 />
    <glyph glyph-name="space" unicode=" " horiz-adv-x="208" 
 />
    <glyph glyph-name="exclam" unicode="!" horiz-adv-x="256" 
d="M50 67q0 35 22 57t57 22t56 -22t21 -57t-21 -56.5t-56 -21.5t-57 21.5t-22 56.5zM61 572q-3 24 -3 41.5t7 29t22 17t42 5.5t42.5 -5.5t22 -17t7 -29t-2.5 -41.5l-45 -369h-49z" />
    <glyph glyph-name="quotedbl" unicode="&#x22;" horiz-adv-x="446" 
d="M83 610q-6 33 5.5 49.5t49.5 16.5t50 -16t6 -50l-38 -209h-36zM254 610q-6 33 5.5 49.5t49.5 16.5q39 0 51 -16t6 -50l-38 -209h-36z" />
    <glyph glyph-name="numbersign" unicode="#" horiz-adv-x="523" 
d="M191 270h112l31 108h-112zM15 210l4 60h107l31 108h-94l3 59h108l53 191h65l-55 -191h114l54 191h63l-53 -191h93l-3 -59h-108l-29 -108h93l-3 -60h-107l-59 -210h-65l61 210h-113l-60 -210h-65l59 210h-94z" />
    <glyph glyph-name="dollar" unicode="$" horiz-adv-x="523" 
d="M283 40q37 0 65.5 23t28.5 72q0 50 -26 79t-68 44v-218zM146 496q0 -20 7.5 -35.5t19.5 -27t28 -19t34 -12.5v186q-35 -2 -62 -25.5t-27 -66.5zM41 111q0 14 6 25t15 19t19.5 12.5t19.5 4.5q14 0 22 -6.5t14 -20.5q27 -58 54 -80.5t44 -24.5v234q-41 12 -75.5 27.5
t-60 36.5t-39.5 49t-14 67q0 44 15 76t41 53.5t60 32.5t73 12v74h48v-74q45 0 78 -10t54.5 -25t32 -32.5t10.5 -32.5t-7 -25t-17 -16t-20.5 -8.5t-16.5 -2.5q-14 0 -20.5 5.5t-11.5 17.5q-18 48 -39 67t-43 22v-205q44 -14 80.5 -30t63.5 -39t42.5 -55t15.5 -78
q0 -53 -22 -88t-53 -55.5t-66 -29t-61 -8.5v-97h-48v97q-58 2 -95.5 15t-59.5 30.5t-30.5 35.5t-8.5 30z" />
    <glyph glyph-name="percent" unicode="%" horiz-adv-x="824" 
d="M557 163q0 -72 16.5 -105.5t48.5 -33.5q31 0 48 33.5t17 105.5q0 77 -18 108t-47 31t-47 -31t-18 -108zM139 465q0 -72 17 -105t49 -33t48 33t16 105q0 77 -17 108t-47 31t-48 -31t-18 -108zM45 465q0 85 39.5 129.5t120.5 44.5q39 0 63 -9t47 -23q8 -5 17 -8.5t24 -3.5
h143q35 1 50 8t28 26l21 30l40 -28l-407 -658l-42 32l343 553h-181q5 -16 8.5 -38t3.5 -55q0 -85 -41.5 -129t-121.5 -44q-77 0 -116 44t-39 129zM462 163q0 86 40 130t120 44t119.5 -44t39.5 -130q0 -85 -39.5 -129.5t-119.5 -44.5t-120 44.5t-40 129.5z" />
    <glyph glyph-name="ampersand" unicode="&#x26;" horiz-adv-x="696" 
d="M168 198q0 -33 11.5 -60t31 -46.5t46 -30t56.5 -10.5q34 0 61.5 10t45.5 27q-65 54 -120 111t-91 101q-12 -11 -26.5 -37t-14.5 -65zM286 386q28 21 46 52t18 73q0 40 -17.5 64t-43.5 24t-44.5 -23t-18.5 -61q0 -36 15.5 -67.5t44.5 -61.5zM46 171q0 34 13 60.5
t32.5 46.5t43.5 35t45 26q-22 29 -39 63.5t-17 73.5q0 35 12 65t34 52t53.5 34t69.5 12q33 0 61.5 -9.5t49 -27t32.5 -43t12 -57.5q0 -29 -10.5 -51.5t-28.5 -40t-41 -31.5t-48 -26q34 -40 78.5 -87t98.5 -98q23 30 32.5 69.5t9.5 77.5t-9 66q20 17 47 25.5t47 6.5
q14 -17 19.5 -36t5.5 -39q0 -25 -12 -53.5t-30 -56t-38 -51.5t-37 -40q17 -17 37 -35.5t40.5 -34.5t39 -28.5t32.5 -17.5l-5 -29l-35 2q-30 2 -54 6t-45.5 11.5t-41.5 19.5t-42 28q-45 -35 -93 -52.5t-107 -17.5q-43 0 -82 11.5t-67.5 34.5t-45.5 57t-17 79z" />
    <glyph glyph-name="quotesingle" unicode="'" horiz-adv-x="250" 
d="M71 610q-6 33 5.5 49.5t49.5 16.5t50 -16t6 -50l-38 -209h-35z" />
    <glyph glyph-name="parenleft" unicode="(" horiz-adv-x="377" 
d="M68 278q0 48 4 101t15 105t30.5 99.5t49 84t71 59t97.5 25.5l4 -35q-42 -12 -73.5 -53.5t-52 -102t-31 -134t-10.5 -149.5t10.5 -150t31.5 -134t52 -101t73 -53l-4 -35q-56 2 -97.5 24.5t-71 59t-49 84t-30.5 99.5t-15 105t-4 101z" />
    <glyph glyph-name="parenright" unicode=")" horiz-adv-x="375" 
d="M42 -195l-4 35q42 11 73 52.5t52 101.5t31.5 134t10.5 150t-10.5 150t-31 134.5t-52 102t-73.5 52.5l4 35q56 -2 97.5 -24.5t71 -59t48.5 -84.5t30 -100t15 -105t4 -101t-4 -101t-15 -105t-30 -99.5t-48.5 -84t-71 -59t-97.5 -24.5z" />
    <glyph glyph-name="asterisk" unicode="*" horiz-adv-x="412" 
d="M53 453q-5 18 2 29.5t24 13.5l87 -1q8 -1 9.5 4.5t-6.5 12.5l-68 51q-15 9 -16.5 21.5t15.5 27.5q13 11 25 11q13 0 22 -14l38 -70q5 -10 10.5 -7.5t4.5 12.5l11 73q0 12 8 19t20 7q7 0 16 -3q17 -4 24.5 -14.5t-2.5 -25.5l-43 -64q-6 -10 -3 -14.5t13 -0.5l75 28
q8 3 14 3q20 0 26 -25q8 -19 0.5 -29.5t-25.5 -11.5l-84 1q-10 0 -10.5 -6.5t5.5 -11.5l67 -48q16 -10 16.5 -25t-14.5 -28q-16 -14 -27 -14q-13 0 -24 20l-34 69q-5 9 -10 7t-6 -11l-9 -76q0 -17 -10.5 -25t-32.5 -3t-28 17.5t3 27.5l46 66q6 8 1.5 13t-14.5 1l-69 -28
q-10 -6 -19 -6q-17 0 -28 27z" />
    <glyph glyph-name="plus" unicode="+" horiz-adv-x="561" 
d="M54 201v69h187v192h81v-192h186v-69h-186v-201h-81v201h-187z" />
    <glyph glyph-name="comma" unicode="," horiz-adv-x="265" 
d="M45 -125q24 27 39.5 56t15.5 61q0 16 -5.5 28.5t-12 24.5t-12 24t-5.5 27q0 23 15.5 42t46.5 19q33 0 55.5 -26.5t22.5 -73.5q0 -31 -13 -60t-33 -55.5t-44 -49.5t-46 -41z" />
    <glyph glyph-name="hyphen" unicode="-" horiz-adv-x="374" 
d="M67 195v81h242v-81h-242z" />
    <glyph glyph-name="period" unicode="." horiz-adv-x="265" 
d="M55 67q0 35 21.5 57t56.5 22t56.5 -22t21.5 -57t-21.5 -56.5t-56.5 -21.5t-56.5 21.5t-21.5 56.5z" />
    <glyph glyph-name="slash" unicode="/" horiz-adv-x="387" 
d="M53 -14l198 679h84l-198 -679h-84z" />
    <glyph glyph-name="zero" unicode="0" horiz-adv-x="518" 
d="M164 314q0 -46 3.5 -96t13.5 -92t29 -69.5t49 -27.5t49 27.5t29 69.5t13.5 92t3.5 96t-3.5 96t-13.5 92t-29 69.5t-49 27.5t-49 -27.5t-29 -69.5t-13.5 -92t-3.5 -96zM33 314q0 66 11.5 125.5t38 103.5t70 70t106.5 26t106.5 -26t70 -70t38 -103.5t11.5 -125.5
t-11.5 -125.5t-38 -103.5t-70 -70t-106.5 -26t-106.5 26t-70 70t-38 103.5t-11.5 125.5z" />
    <glyph glyph-name="one" unicode="1" horiz-adv-x="383" 
d="M29 0v33l69 6q19 2 26 10.5t7 30.5v441q0 24 -6.5 32t-23.5 11l-68 12v28l214 35l8 -6v-553q0 -24 7.5 -31.5t24.5 -9.5l69 -6v-33h-327z" />
    <glyph glyph-name="two" unicode="2" horiz-adv-x="511" 
d="M31 14q3 25 13 51.5t31 56.5t54 64t80 74q36 30 60 58t38 55t19.5 54t5.5 55q0 50 -17 83.5t-59 33.5q-38 0 -62.5 -33.5t-36.5 -87.5q-7 -32 -35 -32q-10 0 -22.5 3.5t-23.5 10.5t-18.5 17.5t-7.5 24.5q0 27 15.5 51.5t43 43.5t66.5 30.5t86 11.5q42 0 79.5 -9.5
t65 -30.5t43.5 -54.5t16 -82.5q0 -37 -11.5 -65.5t-33 -52.5t-52.5 -46t-69 -45q-74 -43 -108.5 -83.5t-45.5 -69.5h240q14 0 24.5 1.5t19.5 7.5t17.5 17t17.5 30l30 -5l-36 -151h-415z" />
    <glyph glyph-name="three" unicode="3" horiz-adv-x="511" 
d="M29 107q0 15 7 26.5t17 20t22.5 12.5t22.5 4q14 0 23.5 -8.5t13.5 -21.5q34 -111 108 -111q46 0 73 35t27 110q0 39 -8 66.5t-22.5 44t-33.5 24t-41 7.5q-30 0 -52.5 -5.5t-35.5 -5.5t-17.5 9.5t-4.5 24.5q0 16 4.5 25t17.5 9t36 -6t52 -6q27 0 43.5 14t25.5 33.5
t11.5 41t2.5 37.5t-3 35.5t-11.5 36.5t-23 28.5t-38.5 11.5q-36 0 -58.5 -28t-37.5 -79q-9 -28 -34 -28q-7 0 -18 3t-21.5 10t-17.5 17t-7 24q0 23 14.5 44.5t41 38.5t62.5 27.5t79 10.5q37 0 73 -7.5t64.5 -25.5t46.5 -48.5t18 -75.5q0 -34 -13.5 -58t-33.5 -40t-42.5 -25
t-41.5 -14v-4q15 -2 42 -9.5t52.5 -26t44.5 -50t19 -80.5q0 -90 -63 -138t-174 -48q-59 0 -99.5 13t-65 32t-35.5 39t-11 34z" />
    <glyph glyph-name="four" unicode="4" horiz-adv-x="516" 
d="M281 222v295h-3q-48 -78 -90 -151t-79 -142l1 -2h171zM22 190q63 109 133.5 220.5t143.5 217.5h99v-406h94v-57h-94v-94q0 -20 5.5 -26.5t19.5 -7.5l44 -4v-33h-275v33l61 5q13 1 20.5 7t7.5 26v94h-245z" />
    <glyph glyph-name="five" unicode="5" horiz-adv-x="514" 
d="M43 107q0 14 6 25.5t15.5 19.5t21 12.5t21.5 4.5q16 0 25.5 -8.5t14.5 -22.5q18 -55 42.5 -82t61.5 -27q50 0 73 44.5t23 115.5q0 43 -9.5 73t-25 49.5t-37 28.5t-45.5 9q-35 0 -64 -15.5t-57 -49.5l-33 23l18 312l8 9h346l7 -11l-32 -89h-245q-18 0 -23 -5.5t-8 -27.5
l-20 -142l2 -2q26 20 63.5 36t82.5 16q56 0 95 -17.5t63.5 -45.5t35.5 -64t11 -74q0 -43 -13 -82t-41 -68t-72.5 -46t-107.5 -17q-57 0 -96 13.5t-62.5 32t-34 39t-10.5 33.5z" />
    <glyph glyph-name="six" unicode="6" horiz-adv-x="520" 
d="M166 221q0 -40 6.5 -75t19.5 -61t33 -41t47 -15q26 0 44.5 11.5t30.5 32t17.5 49t5.5 62.5q0 39 -8.5 67.5t-22.5 47t-32.5 27t-39.5 8.5q-25 0 -43.5 -10t-31.5 -26t-19.5 -36t-6.5 -41zM37 300q0 72 14.5 134t45.5 107.5t79.5 71.5t116.5 26q45 0 78 -11t54 -27.5
t31.5 -35.5t10.5 -36q0 -13 -7 -23t-16.5 -16.5t-20.5 -10t-20 -3.5q-15 0 -23.5 7.5t-12.5 18.5q-12 45 -32.5 71t-51.5 26q-33 0 -55.5 -25.5t-36 -65.5t-19 -89t-6.5 -96h3q12 15 27.5 29t33.5 25t39.5 17.5t46.5 6.5q37 0 70.5 -12t58.5 -36.5t39.5 -61.5t14.5 -86
q0 -44 -13.5 -83.5t-42 -69t-71.5 -46.5t-103 -17q-62 0 -106 21.5t-72 61.5t-41 97.5t-13 130.5z" />
    <glyph glyph-name="seven" unicode="7" horiz-adv-x="516" 
d="M38 478l37 150h405l11 -11q-8 -37 -20 -69t-29 -64.5t-39.5 -68.5t-52.5 -82q-35 -54 -50.5 -128.5t-15.5 -164.5q0 -16 -5.5 -26.5t-14 -15.5t-19.5 -7t-23 -2q-13 0 -25.5 2t-22.5 7.5t-16 16t-6 28.5q0 68 36.5 141t95.5 149q29 36 48 66.5t31 55t18.5 43t9.5 30.5
h-249q-30 0 -42.5 -10t-21.5 -27l-10 -19z" />
    <glyph glyph-name="eight" unicode="8" horiz-adv-x="514" 
d="M165 172q0 -62 24 -102.5t73 -40.5t73.5 40t24.5 103q0 60 -25 101t-73 41t-72.5 -41t-24.5 -101zM180 477q0 -25 5.5 -47t16 -38.5t25.5 -26.5t35 -10q21 0 36.5 10t26 26.5t15.5 38.5t5 47q0 53 -21 87.5t-62 34.5q-40 0 -61 -34.5t-21 -87.5zM34 176q0 66 35 105.5
t89 56.5v3q-43 13 -72.5 45.5t-29.5 86.5q0 80 56.5 123t149.5 43q94 0 150 -42.5t56 -123.5q0 -54 -29.5 -86.5t-71.5 -45.5v-3q54 -16 89 -56t35 -106q0 -47 -17 -82t-47 -58.5t-72 -35t-93 -11.5q-50 0 -92 11.5t-72 35t-47 58.5t-17 82z" />
    <glyph glyph-name="nine" unicode="9" horiz-adv-x="516" 
d="M167 451q0 -66 28 -104.5t75 -38.5q42 0 64 27t22 78q0 85 -26 135.5t-69 50.5q-44 0 -69 -39.5t-25 -108.5zM39 428q0 47 16 86t44.5 67t69 43t89.5 15q115 0 170.5 -75t55.5 -230q0 -176 -60.5 -260.5t-186.5 -84.5q-36 0 -69 8.5t-58 23.5t-39.5 34.5t-14.5 40.5
q0 11 5 22t13.5 19t19.5 13t23 5q28 0 37 -26q18 -54 39 -76.5t53 -22.5q54 0 82 70t30 209h-3q-27 -32 -60 -48.5t-68 -16.5q-42 0 -77 13t-59.5 37t-38 58t-13.5 76z" />
    <glyph glyph-name="colon" unicode=":" horiz-adv-x="265" 
d="M55 67q0 35 21.5 57t56.5 22t56.5 -22t21.5 -57t-21.5 -56.5t-56.5 -21.5t-56.5 21.5t-21.5 56.5zM55 382q0 35 21.5 57t56.5 22t56.5 -22t21.5 -57t-21.5 -56.5t-56.5 -21.5t-56.5 21.5t-21.5 56.5z" />
    <glyph glyph-name="semicolon" unicode=";" horiz-adv-x="265" 
d="M45 -125q24 27 39.5 55t15.5 57q0 18 -5.5 31.5t-12 26t-12 24.5t-5.5 27q0 23 15.5 42t46.5 19q33 0 55.5 -26t22.5 -70q0 -32 -13 -62t-33 -57t-44 -50t-46 -41zM55 382q0 35 21.5 57t56.5 22t56.5 -22t21.5 -57t-21.5 -56.5t-56.5 -21.5t-56.5 21.5t-21.5 56.5z" />
    <glyph glyph-name="less" unicode="&#x3c;" horiz-adv-x="561" 
d="M56 195v77l450 193v-78l-371 -153l371 -153v-77z" />
    <glyph glyph-name="equal" unicode="=" horiz-adv-x="561" 
d="M54 99v68h454v-68h-454zM54 302v68h454v-68h-454z" />
    <glyph glyph-name="greater" unicode="&#x3e;" horiz-adv-x="561" 
d="M57 4v77l369 153l-369 153v78l450 -193v-77z" />
    <glyph glyph-name="question" unicode="?" horiz-adv-x="414" 
d="M126 66q0 35 21.5 57t56.5 22q34 0 55.5 -22t21.5 -57t-21.5 -56t-55.5 -21q-35 0 -56.5 21t-21.5 56zM25 550q0 16 10.5 36t33 37.5t57.5 29.5t84 12q38 0 70.5 -8.5t56 -25t37 -42t13.5 -59.5q0 -26 -10 -45.5t-24 -34.5t-30.5 -25t-30.5 -17q-37 -19 -53.5 -43
t-16.5 -49q0 -27 18 -41.5t42 -14.5q13 0 22 1.5t16 3.5l9 -23q-25 -18 -57 -28.5t-66 -10.5q-24 0 -45.5 6t-38 18t-26.5 30t-10 42t16 48.5t63 55.5q42 27 64 64t22 78q0 35 -11 57.5t-34 22.5q-22 0 -38.5 -22.5t-29.5 -79.5q-7 -31 -43 -31q-10 0 -22 3.5t-22.5 11
t-18 18t-7.5 25.5z" />
    <glyph glyph-name="at" unicode="@" horiz-adv-x="777" 
d="M316 243q0 -41 25 -41q23 0 47.5 29t46.5 70t39 86.5t24 78.5q-7 5 -13.5 6.5t-14.5 2.5q-10 0 -15 -1q-31 -5 -56.5 -33.5t-44 -65.5t-28.5 -74t-10 -58zM46 288q0 89 32.5 158.5t87.5 118.5t126 74.5t148 25.5q70 0 125.5 -22t94 -59.5t59 -87.5t20.5 -107
q0 -42 -14.5 -84t-42.5 -75.5t-68.5 -54t-91.5 -20.5q-42 0 -59.5 17t-17.5 44q0 19 4.5 37.5t10.5 36.5l-3 1q-14 -28 -32.5 -53t-40.5 -43.5t-47 -29t-53 -10.5q-31 0 -50.5 21t-19.5 61q0 18 5.5 45t18 57t31.5 60t46.5 54.5t63.5 39.5t81 15q28 0 47 -10l3 7h89
l-66 -258q-3 -10 -3 -19q0 -29 33 -29q25 0 46 18.5t36 46.5t23.5 60t8.5 60q0 57 -19 100t-52 72t-77 44t-94 15q-64 0 -118.5 -27t-94 -72t-61.5 -104t-22 -123q0 -40 12.5 -85t43 -83.5t81.5 -63.5t127 -25q47 0 90.5 9t75.5 23l10 -30q-20 -13 -45 -22t-51 -15
t-51.5 -8.5t-46.5 -2.5q-66 0 -127.5 18t-108.5 55.5t-75 94.5t-28 134z" />
    <glyph glyph-name="A" unicode="A" horiz-adv-x="608" 
d="M267 532h-3l-79 -252h163zM-22 33q20 1 32.5 3.5t21 8.5t14 16t11.5 26q9 25 20.5 56t23.5 64.5t24 69.5t24 70l104 303h104l189 -568q5 -15 10.5 -24.5t14 -14.5t21 -7t31.5 -3v-33h-279v33l51 5q22 1 22 18q0 7 -3 17l-53 165h-189l-52 -165q-4 -9 -4 -18q0 -15 23 -18
l54 -4v-33h-215v33z" />
    <glyph glyph-name="B" unicode="B" horiz-adv-x="637" 
d="M245 105q0 -38 16 -51.5t58 -13.5q27 0 51 6.5t42 22t28.5 41t10.5 62.5q0 69 -37.5 111.5t-114.5 42.5h-54v-221zM245 366h51q70 0 103.5 32.5t33.5 90.5q0 60 -33.5 91t-93.5 31q-37 0 -49 -6.5t-12 -32.5v-206zM35 0v33q27 2 42.5 4t23.5 7.5t10 16t2 29.5v471
q0 18 -2 29t-10 16.5t-23.5 8t-42.5 3.5v32h298q50 0 92.5 -7t74 -24t49.5 -45.5t18 -71.5q0 -61 -35.5 -98t-103.5 -52v-3q33 -4 63 -16.5t53 -33.5t36.5 -52.5t13.5 -73.5q0 -52 -21 -86t-56.5 -53t-81.5 -26.5t-96 -7.5h-304z" />
    <glyph glyph-name="C" unicode="C" horiz-adv-x="652" 
d="M45 318q0 172 93.5 259.5t263.5 87.5q22 0 48.5 -2t53.5 -7t52.5 -12.5t44.5 -18.5v-161h-33q-8 31 -20.5 60t-33 51.5t-49 36t-69.5 13.5q-44 0 -76.5 -15t-55 -39.5t-37 -56t-22.5 -64.5t-11 -64.5t-3 -56.5q0 -27 3 -59.5t11 -66.5t22.5 -65.5t37.5 -56.5t55.5 -40
t76.5 -15q41 0 70.5 14t51 38t37 57t27.5 71h33l-12 -175q-19 -12 -45.5 -20.5t-56 -14t-59 -8t-56.5 -2.5q-175 0 -258.5 87.5t-83.5 244.5z" />
    <glyph glyph-name="D" unicode="D" horiz-adv-x="737" 
d="M245 96q0 -33 15.5 -44.5t62.5 -11.5q44 0 84.5 11t72 42.5t50 87t18.5 143.5q0 91 -22.5 155.5t-70 98t-122.5 33.5q-27 0 -44.5 -1t-27 -5t-13 -10.5t-3.5 -18.5v-480zM35 0v33q27 2 42.5 4t23.5 7.5t10 16t2 29.5v471q0 18 -2 29t-10 16.5t-23.5 8t-42.5 3.5v32h319
q177 0 258.5 -82.5t81.5 -235.5q0 -98 -31 -162.5t-83 -102t-119.5 -52.5t-140.5 -15h-285z" />
    <glyph glyph-name="E" unicode="E" horiz-adv-x="590" 
d="M35 0v33q27 2 42.5 4t23.5 7.5t10 16t2 29.5v470q0 19 -2 29.5t-10 16.5t-23.5 8.5t-42.5 3.5v32h497v-167h-34q-9 36 -18.5 60.5t-24.5 39.5t-38.5 21.5t-61.5 6.5h-77q-20 0 -26.5 -6.5t-6.5 -27.5v-215h102q25 0 40 4t24 13.5t14 25.5t10 40h33v-211h-33q-5 25 -10 41
t-14 25.5t-24 13.5t-40 4h-102v-206q0 -24 6 -38t20 -21.5t36.5 -10t54.5 -2.5q36 0 62 6t45 21.5t33 44t27 73.5h33l-11 -185h-516z" />
    <glyph glyph-name="F" unicode="F" horiz-adv-x="560" 
d="M37 0v33q27 2 43 4t23.5 7.5t9.5 16t2 29.5v471q0 18 -2 29t-9.5 16.5t-23.5 8t-43 3.5v32h492v-165h-33q-9 35 -18 59t-24 39t-39 21.5t-62 6.5h-74q-20 0 -26.5 -6.5t-6.5 -27.5v-230h116q25 0 40 4t24.5 13.5t14.5 25.5t10 41h33v-213h-33q-5 25 -10 41t-14.5 25.5
t-24.5 13.5t-40 4h-116v-212q0 -19 2.5 -29.5t11.5 -16t28 -7.5t52 -4v-33h-303z" />
    <glyph glyph-name="G" unicode="G" horiz-adv-x="691" 
d="M45 313q0 63 16.5 126t57 113t109 81.5t173.5 31.5q54 0 110 -9.5t97 -31.5v-163h-33q-9 33 -23.5 63t-36 52.5t-51 35.5t-69.5 13q-63 0 -103 -30t-62.5 -75t-30.5 -97t-8 -96q0 -20 2.5 -50.5t9.5 -63.5t20.5 -66.5t36.5 -60.5t56.5 -43.5t79.5 -16.5q45 0 67.5 9
t22.5 41v130q0 17 -2 27t-11 16t-26.5 8.5t-47.5 4.5v33h276v-33q-19 -2 -30.5 -4.5t-17.5 -8t-7.5 -15.5t-1.5 -27v-178q-24 -10 -52.5 -18t-58 -13.5t-59 -8.5t-55.5 -3q-82 0 -146.5 19.5t-109.5 59.5t-68.5 101.5t-23.5 146.5z" />
    <glyph glyph-name="H" unicode="H" horiz-adv-x="762" 
d="M35 0v33q27 2 42.5 4t23.5 7.5t10 16t2 29.5v471q0 18 -2 29t-10 16.5t-23.5 8t-42.5 3.5v32h287v-32q-27 -1 -42.5 -3.5t-23 -8t-9.5 -16.5t-2 -29v-198h274v198q0 18 -2 29t-10 16.5t-23.5 8t-42.5 3.5v32h286v-32q-27 -1 -42.5 -3.5t-23 -8t-9.5 -16.5t-2 -29v-471
q0 -19 2 -29.5t9.5 -16t23 -7.5t42.5 -4v-33h-286v33q27 2 42.5 4t23.5 7.5t10 16t2 29.5v231h-274v-231q0 -19 2 -29.5t9.5 -16t23 -7.5t42.5 -4v-33h-287z" />
    <glyph glyph-name="I" unicode="I" horiz-adv-x="356" 
d="M35 0v33q27 2 42.5 4t23.5 7.5t10 16t2 29.5v471q0 18 -2 29t-10 16.5t-23.5 8t-42.5 3.5v32h287v-32q-27 -1 -42.5 -3.5t-23 -8t-9.5 -16.5t-2 -29v-471q0 -19 2 -29.5t9.5 -16t23 -7.5t42.5 -4v-33h-287z" />
    <glyph glyph-name="J" unicode="J" horiz-adv-x="358" 
d="M8 -80q39 11 62 32t34.5 49.5t14.5 62t3 70.5v427q0 18 -2 29t-9.5 16.5t-23.5 8t-43 3.5v32h287v-32q-27 -1 -42.5 -3.5t-23.5 -8t-10 -16.5t-2 -29v-427q0 -128 -59 -183.5t-182 -57.5z" />
    <glyph glyph-name="K" unicode="K" horiz-adv-x="655" 
d="M35 0v33q27 2 42.5 4t23.5 7.5t10 16t2 29.5v471q0 18 -2 29t-10 16.5t-23.5 8t-42.5 3.5v32h287v-32q-27 -1 -42.5 -3.5t-23 -8t-9.5 -16.5t-2 -29v-222l175 194q20 23 34.5 42.5t14.5 29.5q0 7 -14 9l-39 5v31h248v-31q-24 -2 -41 -4.5t-30.5 -8t-25 -13.5t-26.5 -20
q-47 -38 -92.5 -83.5t-96.5 -101.5q21 -34 47 -72t55 -77.5t60 -77.5t61 -72q25 -27 43 -41t45 -22v-32l-62 3q-61 3 -102 18t-79 56q-24 26 -47.5 57.5t-45.5 65t-42 67t-37 62.5h-3v-233q0 -19 2 -29.5t9.5 -16t23 -7.5t42.5 -4v-33h-287z" />
    <glyph glyph-name="L" unicode="L" horiz-adv-x="550" 
d="M35 0v33q27 2 42.5 4t23.5 7.5t10 16t2 29.5v471q0 18 -2 29t-10 16.5t-23.5 8t-42.5 3.5v32h297v-32q-30 -1 -47.5 -3.5t-26.5 -8t-11 -16.5t-2 -29v-448q0 -24 5 -38.5t17 -22t33 -10t52 -2.5q37 0 63 6t44 22t31 43.5t23 70.5h33l-10 -182h-501z" />
    <glyph glyph-name="M" unicode="M" horiz-adv-x="877" 
d="M31 0v33l25 3q22 2 32 12.5t13 36.5q3 24 4 55t1 82v339q0 18 -2 29t-9.5 16.5t-23 8t-42.5 3.5v32h229q15 -41 33.5 -87t36.5 -88l110 -276h3l91 231q23 57 46 116.5t40 103.5h225v-32q-27 -1 -42.5 -3.5t-23 -8t-9.5 -16.5t-2 -29v-471q0 -19 2 -29.5t9.5 -16t23 -7.5
t42.5 -4v-33h-282v33q27 2 43 4t23.5 7.5t9.5 16t2 29.5v470h-3l-213 -545h-46l-214 545h-3v-338q0 -51 0.5 -81.5t4.5 -55.5q2 -26 13.5 -36.5t37.5 -12.5l39 -3v-33h-224z" />
    <glyph glyph-name="N" unicode="N" horiz-adv-x="714" 
d="M32 0v33l25 3q35 4 43 20.5t8 51.5v453q0 18 -2 29t-9.5 16.5t-23 8t-42.5 3.5v32h208q78 -118 158 -235t161 -236h3v361q0 17 -1 30.5t-6.5 22.5t-17 14.5t-32.5 6.5l-40 4v32h226v-32l-28 -4q-17 -2 -26.5 -7.5t-14 -15t-5.5 -22.5t-1 -29v-540h-90q-89 135 -178.5 270
t-181.5 270h-3v-432q0 -18 1 -31t6.5 -21.5t17 -13t31.5 -6.5l41 -3v-33h-227z" />
    <glyph glyph-name="O" unicode="O" horiz-adv-x="725" 
d="M191 328q0 -31 2.5 -65.5t9.5 -68t19 -64t31.5 -53.5t46.5 -37t63 -14q56 0 89.5 29.5t52.5 74.5t25 97.5t6 98.5q0 31 -2.5 65t-9.5 67t-19 63.5t-31.5 53.5t-46.5 36.5t-64 13.5q-55 0 -89 -29.5t-52.5 -74t-24.5 -96.5t-6 -97zM45 326q0 78 19.5 140.5t59 107t99.5 68
t140 23.5t140 -23.5t100 -68t59.5 -107t19.5 -140.5t-19.5 -141t-59.5 -107.5t-99.5 -68t-140.5 -23.5q-80 0 -140 23.5t-99.5 68t-59 107.5t-19.5 141z" />
    <glyph glyph-name="P" unicode="P" horiz-adv-x="602" 
d="M245 340q0 -26 13 -32t45 -6q34 0 58.5 12.5t41 33.5t24.5 49.5t8 60.5q0 80 -37 116.5t-93 36.5q-40 0 -50 -7.5t-10 -27.5v-236zM35 0v33q27 2 42.5 4t23.5 7.5t10 16t2 29.5v471q0 18 -2 29t-10 16.5t-23.5 8t-42.5 3.5v32h282q49 0 95.5 -7t82.5 -27.5t57.5 -56.5
t21.5 -95q0 -61 -24 -100.5t-63 -62t-88 -31t-100 -8.5h-54v-172q0 -19 2 -29.5t11 -16.5t27.5 -8t51.5 -4v-32h-302z" />
    <glyph glyph-name="Q" unicode="Q" horiz-adv-x="725" 
d="M191 326q0 -49 6.5 -102.5t25 -97.5t52 -72.5t88.5 -28.5t89 28.5t52.5 72.5t25 97.5t6.5 102.5q0 47 -6.5 100t-25 97t-52.5 73t-89 29t-88.5 -29t-52 -73t-25 -97t-6.5 -100zM45 326q0 78 19.5 140.5t59 107t99.5 68t140 23.5q81 0 140.5 -23.5t99.5 -68t59.5 -107
t19.5 -140.5q0 -64 -13.5 -118.5t-41 -97.5t-69 -72t-98.5 -42q11 -20 30.5 -44t43.5 -45t50 -35t50 -14h14l6 -20q-17 -10 -40.5 -14.5t-51.5 -4.5q-48 0 -88 15.5t-71.5 40t-53.5 54.5t-35 60q-68 7 -118.5 33.5t-84 70.5t-50 103t-16.5 130z" />
    <glyph glyph-name="R" unicode="R" horiz-adv-x="636" 
d="M245 340h56q70 0 100 36.5t30 98.5q0 39 -10 65.5t-27 42t-39.5 22t-47.5 6.5q-41 0 -51.5 -8.5t-10.5 -31.5v-231zM35 0v33q27 2 42.5 4t23.5 7.5t10 16t2 29.5v471q0 18 -2 29t-10 16.5t-23.5 8t-42.5 3.5v32h309q51 0 92.5 -8.5t71 -28t46 -50.5t16.5 -77
q0 -32 -11.5 -59t-32.5 -47t-50 -33.5t-63 -19.5v-3q37 -9 60 -25t36.5 -37t20.5 -46t11 -52q3 -22 9 -44.5t16 -41t26.5 -31t40.5 -14.5v-33h-72q-48 0 -76.5 12t-45 35t-24.5 55.5t-16 72.5q-6 32 -13 55.5t-19 39t-29.5 23.5t-43.5 8h-49v-211q0 -19 2 -29.5t9.5 -16.5
t21.5 -8t39 -3v-33h-282z" />
    <glyph glyph-name="S" unicode="S" horiz-adv-x="527" 
d="M46 206h33q24 -86 71.5 -133t110.5 -47q48 0 79 27.5t31 79.5q0 27 -10 49t-27 39t-40 31t-50 25l-14 6q-32 14 -63.5 30.5t-56.5 39.5t-40.5 54.5t-15.5 73.5q0 83 59.5 133.5t167.5 50.5q46 0 93 -10.5t79 -31.5v-147h-32q-17 80 -54.5 114.5t-87.5 34.5q-48 0 -77 -28
t-29 -73q0 -25 10.5 -44.5t28 -34.5t39.5 -26.5t44 -20.5l21 -8q35 -13 67.5 -30.5t57.5 -41.5t39.5 -56.5t14.5 -76.5q0 -37 -12 -72.5t-39.5 -63.5t-72.5 -45.5t-111 -17.5q-25 0 -53.5 3t-55.5 10t-51.5 18t-41.5 27z" />
    <glyph glyph-name="T" unicode="T" horiz-adv-x="591" 
d="M20 481v169h553v-169h-33q-9 36 -18 61t-23 40.5t-36 22t-57 6.5h-45v-523q0 -15 1.5 -24.5t7.5 -15.5t17 -9t29 -4l40 -2v-33h-320v33l41 2q36 2 44.5 13t8.5 40v523h-44q-34 0 -55.5 -6.5t-35.5 -22t-23.5 -40.5t-18.5 -61h-33z" />
    <glyph glyph-name="U" unicode="U" horiz-adv-x="746" 
d="M31 618v32h284v-32q-26 -1 -41.5 -3.5t-23.5 -8t-10 -16.5t-2 -29v-343q0 -41 6.5 -76.5t22 -61t41.5 -40t65 -14.5t65.5 14.5t42 40t22.5 61t7 76.5v343q0 18 -2 29t-10 16.5t-23.5 8t-41.5 3.5v32h283v-32q-26 -1 -41 -3.5t-22.5 -8t-9.5 -16.5t-2 -29v-339
q0 -125 -68 -180.5t-205 -55.5q-135 0 -198 55t-63 180v340q0 18 -2 29t-9.5 16.5t-23 8t-41.5 3.5z" />
    <glyph glyph-name="V" unicode="V" horiz-adv-x="608" 
d="M-12 618v32h271v-32l-46 -5q-21 -1 -21 -16q0 -9 4 -18l150 -451h4l84 251q19 56 34.5 103.5t24.5 78.5q3 10 4.5 17.5t1.5 18.5q0 15 -19 16l-53 5v32h215v-32q-20 -1 -32.5 -3.5t-21 -8t-14.5 -15.5t-13 -27q-13 -31 -36.5 -95t-50.5 -142l-115 -327h-102l-194 568
q-5 15 -10.5 24.5t-13.5 15t-20.5 7.5t-30.5 3z" />
    <glyph glyph-name="W" unicode="W" horiz-adv-x="886" 
d="M-6 619v31h257v-31l-44 -6q-10 -2 -15.5 -5t-5.5 -12q0 -6 3 -20l114 -439h3l125 498h93l136 -498h4l58 231q5 18 11 43.5t12.5 52.5t12.5 53t10 45q2 9 3 16.5t1 12.5q0 18 -20 21l-56 7v31h215v-31q-20 -2 -32.5 -5t-20.5 -9t-13 -16t-11 -28q-13 -39 -31 -101
t-36 -131l-90 -329h-102l-129 467h-3l-124 -467h-102l-82 309q-20 73 -38.5 139.5t-33.5 120.5q-4 15 -8.5 24.5t-11.5 14.5t-18.5 7.5t-30.5 3.5z" />
    <glyph glyph-name="X" unicode="X" horiz-adv-x="599" 
d="M-15 0v33q23 2 37 4t24 6.5t17.5 13t17.5 21.5q17 22 37 51t41 60.5t43 64t41 61.5l-154 251q-10 16 -18 25.5t-17 15t-22 8t-33 3.5v32h272v-32l-41 -5q-17 -2 -17 -14q0 -8 7 -18l100 -165h3l106 168q6 7 6 15q0 11 -15 14l-42 5v32h215v-32q-19 -1 -32.5 -3t-24.5 -7
t-21 -14t-22 -24q-29 -36 -66.5 -88t-74.5 -108l178 -286q10 -17 18 -27t18.5 -16t25.5 -8t38 -4v-33h-300v33l49 5q20 3 20 15q0 8 -6 15l-120 200h-4l-114 -200q-4 -8 -4 -15q0 -13 17 -16l56 -4v-33h-239z" />
    <glyph glyph-name="Y" unicode="Y" horiz-adv-x="577" 
d="M-7 618v32h279v-32l-53 -6q-14 -2 -15.5 -10t4.5 -20q9 -21 25.5 -56.5t34.5 -74t35.5 -75t29.5 -60.5h2q16 34 33 70.5t33.5 71t30.5 66t23 54.5q13 32 -12 35l-50 5v32h219v-32q-21 -2 -34 -4.5t-23 -8.5t-18 -16t-17 -26q-15 -25 -32 -57t-35.5 -67t-37 -71t-35.5 -71
q-7 -16 -11 -30t-4 -33v-144q0 -19 2 -29.5t11 -16t27.5 -7.5t51.5 -4v-33h-318v33q33 2 52 4t28.5 7.5t12 16t2.5 29.5v136q0 17 -5.5 32t-12.5 29q-11 23 -30 60.5t-40 78.5t-41 79t-32 61q-8 16 -14.5 25.5t-15 15t-20 8t-30.5 3.5z" />
    <glyph glyph-name="Z" unicode="Z" horiz-adv-x="582" 
d="M6 18q101 149 199 296.5t196 296.5h-136q-45 0 -74.5 -6t-48 -21.5t-29 -42t-17.5 -67.5h-33v176h494l10 -17q-101 -149 -200 -296t-197 -297h164q53 0 86.5 7.5t55.5 25t35 45.5t24 69h35l-11 -187h-543z" />
    <glyph glyph-name="bracketleft" unicode="[" horiz-adv-x="341" 
d="M104 -189v935h202v-35l-59 -7q-33 -3 -40 -15t-7 -40v-741q0 -14 1 -24t6 -16.5t14.5 -10.5t25.5 -5l59 -6v-35h-202z" />
    <glyph glyph-name="backslash" unicode="\" horiz-adv-x="387" 
d="M53 665h84l198 -679h-84z" />
    <glyph glyph-name="bracketright" unicode="]" horiz-adv-x="341" 
d="M35 -189v35l58 6q33 3 40.5 15t7.5 41v741q0 28 -7.5 40t-40.5 15l-58 7v35h201v-935h-201z" />
    <glyph glyph-name="asciicircum" unicode="^" horiz-adv-x="561" 
d="M57 206l185 422h83l180 -422h-87l-135 330l-140 -330h-86z" />
    <glyph glyph-name="underscore" unicode="_" horiz-adv-x="476" 
d="M3 -70h471v-48h-471v48z" />
    <glyph glyph-name="grave" unicode="`" horiz-adv-x="401" 
d="M59 653q2 10 12.5 19t26.5 9q8 0 15 -3q10 -2 32.5 -22.5t48.5 -46.5l85 -100l-59 7q-12 7 -32.5 18.5t-41 23.5t-37 23t-22.5 17q-17 14 -25 28.5t-3 26.5z" />
    <glyph glyph-name="a" unicode="a" horiz-adv-x="511" 
d="M172 130q0 -35 16.5 -55.5t47.5 -20.5q13 0 27.5 4t26.5 13t20 23t8 34v135q-17 -11 -38.5 -21t-39.5 -18q-37 -14 -52.5 -36.5t-15.5 -57.5zM45 125q0 32 12 53t32 36t47.5 24.5t58.5 18.5q35 11 69.5 24t53.5 27v46q0 46 -19.5 62t-42.5 16t-46 -18t-42 -75
q-5 -16 -13 -25t-23 -9q-8 0 -20.5 3t-24.5 10t-20.5 18t-8.5 27q0 20 15.5 39.5t43.5 35t67.5 25t88.5 9.5q59 0 92 -12t49 -31t20 -42t4 -45v-221q0 -39 11 -58.5t47 -19.5q4 0 10.5 0.5t10.5 1.5l2 -28q-24 -11 -59 -19.5t-63 -8.5q-36 0 -51.5 16t-25.5 39
q-24 -21 -58.5 -38t-80.5 -17q-34 0 -59.5 11.5t-42.5 30t-25.5 43t-8.5 51.5z" />
    <glyph glyph-name="b" unicode="b" horiz-adv-x="572" 
d="M202 148q0 -23 3 -44.5t12 -38t26 -26.5t44 -10q62 0 88 52t26 143q0 60 -10 96t-26 55.5t-34.5 25.5t-36.5 6q-25 0 -43 -9t-28.5 -24t-15.5 -35t-5 -43v-148zM19 642v31l177 24l6 -5v-286q31 25 68.5 45.5t87.5 20.5q44 0 77 -18.5t55 -50t33 -73t11 -87.5
q0 -76 -19.5 -125.5t-52.5 -78t-76 -39.5t-90 -11q-52 0 -86.5 10t-60.5 24l-45 -34l-25 14v587q0 29 -6 37.5t-20 10.5z" />
    <glyph glyph-name="c" unicode="c" horiz-adv-x="471" 
d="M40 223q0 55 14.5 100.5t43 78.5t71.5 51.5t101 18.5q36 0 68.5 -7.5t56.5 -20.5t38.5 -31t14.5 -40q0 -15 -7 -25.5t-17 -17.5t-22 -10t-23 -3q-31 0 -42 32q-11 40 -28 61.5t-43 21.5q-18 0 -35 -10.5t-30 -33t-21 -56.5t-8 -82q0 -99 34.5 -148t96.5 -49q40 0 69 21
t52 69l31 -14q-12 -42 -34 -69t-48 -42.5t-55.5 -22t-56.5 -6.5q-103 0 -162 58.5t-59 175.5z" />
    <glyph glyph-name="d" unicode="d" horiz-adv-x="572" 
d="M378 0l-7 6v43q-75 -60 -141 -60q-43 0 -78 16.5t-60 47t-38.5 73.5t-13.5 96q0 118 65 184t179 66q53 0 88 -16v134q0 26 -5.5 36t-20.5 12l-34 4v31l177 24l6 -5v-612q0 -15 2 -23.5t8.5 -13t19 -6.5t34.5 -4v-33h-181zM173 241q0 -89 30.5 -138t86.5 -49
q39 0 60.5 24.5t21.5 70.5v191q0 44 -21.5 68t-59.5 24q-56 0 -87 -50t-31 -141z" />
    <glyph glyph-name="e" unicode="e" horiz-adv-x="492" 
d="M172 282h137q17 0 23.5 7t6.5 30q0 13 -2.5 32.5t-11 37.5t-23.5 30.5t-40 12.5q-27 0 -44.5 -15.5t-27.5 -38t-14 -48.5t-4 -48zM40 228q0 51 12.5 95.5t40.5 77.5t71.5 52t104.5 19q66 0 105.5 -20.5t60.5 -50.5t28 -63.5t7 -59.5q0 -23 -11.5 -30.5t-34.5 -7.5h-252
q0 -37 6 -70.5t21 -59.5t40 -41.5t63 -15.5q48 0 78.5 24t50.5 65l32 -18q-22 -60 -69.5 -97.5t-133.5 -37.5q-60 0 -102 19t-68.5 51.5t-38 76t-11.5 92.5z" />
    <glyph glyph-name="f" unicode="f" horiz-adv-x="320" 
d="M30 0v33q22 2 35 3.5t19.5 6.5t8 14t1.5 25v335h-64v44h64v38q0 90 41.5 144t123.5 54q35 0 59.5 -8t40.5 -20t23 -26t7 -26t-6 -21t-15 -16t-19.5 -10.5t-20.5 -3.5q-15 0 -23.5 6.5t-13.5 17.5q-20 41 -32.5 54.5t-25.5 13.5q-11 0 -20 -10.5t-9 -36.5q0 -13 2 -30
t5 -36t5 -37.5t2 -35.5v-11h104v-44h-104v-335q0 -16 2 -25t10.5 -14t24.5 -7t43 -3v-33h-268z" />
    <glyph glyph-name="g" unicode="g" horiz-adv-x="503" 
d="M171 315q0 -53 23 -82.5t56 -29.5q35 0 57.5 29.5t22.5 82.5q0 62 -24.5 89.5t-54.5 27.5q-32 0 -56 -27t-24 -90zM146 -83q0 -25 10 -44.5t27 -33t40 -20.5t49 -7q24 0 46 6t39 18t27 31t10 45q0 46 -36.5 63t-97.5 17q-21 0 -41 -2t-36.5 -9.5t-26.5 -22.5t-10 -41z
M33 -90q0 24 11.5 40t28 26.5t35 16.5t33.5 10v2q-16 3 -31 11t-27 19.5t-19.5 25t-7.5 27.5q0 29 26 51.5t70 35.5v2q-20 4 -40 14t-35.5 27t-25.5 41t-10 54q0 27 10.5 55t35 51t65 38t100.5 15q36 0 72 -8.5t58 -22.5l119 40l9 -9l-19 -68l-66 -11q10 -12 17.5 -33
t7.5 -45q0 -42 -17.5 -71t-46 -47t-65.5 -26t-76 -8h-19t-25 2q-10 -3 -25 -12t-15 -27q0 -13 13.5 -24t53.5 -11h83q38 0 71.5 -7t58.5 -24t40 -44.5t15 -68.5q0 -49 -22 -82.5t-56.5 -53.5t-77.5 -29t-84 -9q-47 0 -88 8.5t-71 25.5t-47 42.5t-17 60.5z" />
    <glyph glyph-name="h" unicode="h" horiz-adv-x="589" 
d="M22 1v33q22 2 34.5 4t19 7t8.5 14t2 24v509q0 27 -5.5 36t-19.5 11l-33 4v31l172 25l7 -6v-287h2q43 31 79.5 49t83.5 18q69 0 104.5 -39.5t35.5 -107.5v-245q0 -15 2 -23.5t9 -13t19.5 -6.5t33.5 -4v-33h-244v33l20 2q22 2 29.5 9t7.5 33v233q0 97 -83 97
q-49 0 -73 -31.5t-24 -75.5v-223q0 -26 7 -33t28 -9l22 -2v-33h-244z" />
    <glyph glyph-name="i" unicode="i" horiz-adv-x="296" 
d="M30 0v33q22 2 34.5 3.5t19 6.5t8.5 14t2 25v284q0 27 -6 35t-19 10l-34 5v30l176 26l6 -6v-384q0 -16 2 -25t9 -14t20 -6.5t35 -3.5v-33h-253zM76 601q0 31 20.5 52.5t55.5 21.5t56.5 -21.5t21.5 -52.5t-22 -52.5t-56 -21.5q-35 0 -55.5 21.5t-20.5 52.5z" />
    <glyph glyph-name="j" unicode="j" horiz-adv-x="292" 
d="M-13 -194q27 8 46.5 19t33.5 31q31 48 31 175v335q0 27 -5 35t-19 10l-34 5v30l175 26l7 -6v-447q0 -81 -22 -136.5t-84 -79.5q-30 -14 -62.5 -19t-64.5 -5zM81 601q0 31 20.5 52.5t55.5 21.5q36 0 56 -21.5t20 -52.5t-20.5 -52.5t-55.5 -21.5t-55.5 21.5t-20.5 52.5z
" />
    <glyph glyph-name="k" unicode="k" horiz-adv-x="543" 
d="M22 0v33q22 2 35 3.5t19.5 6.5t8 14t1.5 25v508q0 29 -5.5 37.5t-19.5 10.5l-33 4v31l174 24l8 -5v-437h3l70 98q10 14 24 33t29.5 35.5t32 28t31.5 11.5h123v-29q-64 -11 -110.5 -44t-86.5 -75l-17 -17q16 -24 44.5 -65t62 -83t67.5 -76t61 -45v-29l-80 1q-42 1 -71 12
t-55 41q-34 42 -66.5 91t-58.5 96h-3v-157q0 -16 1.5 -25t8 -14t19 -6.5t34.5 -3.5v-33h-251z" />
    <glyph glyph-name="l" unicode="l" horiz-adv-x="287" 
d="M22 0v33q21 2 33.5 3.5t19.5 6.5t9 13.5t2 23.5v510q0 29 -5.5 37.5t-19.5 10.5l-33 4v31l175 24l6 -5v-610q0 -16 1.5 -25t8 -14t19 -6.5t34.5 -3.5v-33h-250z" />
    <glyph glyph-name="m" unicode="m" horiz-adv-x="890" 
d="M30 0v33q22 2 34.5 3.5t19 6.5t8.5 14t2 25v283q0 28 -6 36t-20 10l-33 5v30l171 26l11 -67q32 26 71.5 46.5t89.5 20.5q51 0 80.5 -21.5t44.5 -49.5q15 12 33 25t39 23t45.5 16.5t51.5 6.5q69 0 105 -39.5t36 -107.5v-243q0 -16 1.5 -25t8 -14t19.5 -6.5t35 -3.5v-33
h-246v33l20 2q23 2 30 9t7 33v230q0 48 -21 74t-59 26t-65 -27t-27 -85v-218q0 -26 7 -33t28 -9l21 -2v-33h-238v33l19 2q11 1 18.5 2.5t12 6t6 12.5t1.5 21v230q0 20 -3.5 38.5t-12.5 32t-23.5 21.5t-36.5 8q-39 0 -68.5 -27t-29.5 -85v-218q0 -26 8 -33t30 -9l19 -2v-33
h-244z" />
    <glyph glyph-name="n" unicode="n" horiz-adv-x="600" 
d="M342 0v33l20 2q22 2 29.5 9t7.5 33v234q0 48 -21.5 72t-60.5 24q-24 0 -43 -8.5t-31.5 -23.5t-19 -34.5t-6.5 -41.5v-222q0 -26 8 -33t29 -9l20 -2v-33h-244v33q22 2 34.5 3.5t19 6.5t8.5 14t2 25v283q0 28 -6 36t-20 10l-33 5v30l169 26l13 -67q43 32 81.5 49.5
t84.5 17.5q69 0 104 -39t35 -108v-243q0 -16 2 -25t9 -14t19.5 -6.5t34.5 -3.5v-33h-245z" />
    <glyph glyph-name="o" unicode="o" horiz-adv-x="553" 
d="M172 230q0 -96 25 -148.5t81 -52.5q55 0 80 52.5t25 148.5t-25 149t-80 53q-56 0 -81 -53t-25 -149zM40 230q0 56 14 101t43 76.5t74 48t107 16.5q123 0 180 -64.5t57 -177.5q0 -56 -14 -101t-43 -76t-73.5 -47.5t-106.5 -16.5t-107 16.5t-74 47.5t-43 76t-14 101z" />
    <glyph glyph-name="p" unicode="p" horiz-adv-x="582" 
d="M212 145q0 -22 3.5 -43t13 -37t26.5 -26t43 -10q61 0 87 52t26 143q0 59 -10 95t-26 55.5t-34 26t-35 6.5q-25 0 -42.5 -9.5t-29 -25t-17 -35.5t-5.5 -42v-150zM23 -183q22 1 34.5 3t19 7t8.5 14t2 25v499q0 28 -5.5 36t-19.5 10l-33 5v30l168 26l15 -67q35 29 70 48
t83 19q45 0 78 -18t55.5 -49t33.5 -73t11 -89q0 -76 -19.5 -125t-52.5 -77.5t-77.5 -40t-94.5 -11.5q-26 0 -50 4t-37 10v-137q0 -16 2 -25t10.5 -14t24.5 -7t43 -3v-33h-269v33z" />
    <glyph glyph-name="q" unicode="q" horiz-adv-x="566" 
d="M291 54q24 0 39.5 8t24.5 21t13 30t4 36v179q0 21 -3.5 40t-12 33t-23.5 22.5t-38 8.5q-58 0 -90 -50.5t-32 -142.5q0 -88 30 -136.5t88 -48.5zM40 222q0 117 64 183.5t181 66.5q40 0 73.5 -7.5t59.5 -21.5l41 29h37v-606q0 -16 2 -25t8.5 -14t19 -7t34.5 -3v-33h-260v33
q25 1 39 3t21.5 7t9.5 14t2 25v180q-37 -31 -70 -44t-69 -13q-43 0 -79 16.5t-61 46.5t-39 73t-14 97z" />
    <glyph glyph-name="r" unicode="r" horiz-adv-x="404" 
d="M30 0v33q22 2 34.5 3.5t19 6.5t8.5 14t2 25v283q0 28 -6 36t-20 10l-33 5v30l169 26l12 -80q22 21 39 36t31 25t27 14.5t27 4.5q29 0 44.5 -17.5t15.5 -43.5t-14 -47t-43 -21q-12 0 -21 4t-17 9q-29 19 -47 19t-29.5 -19t-11.5 -61v-213q0 -16 2.5 -25t11 -14t25.5 -6.5
t45 -3.5v-33h-271z" />
    <glyph glyph-name="s" unicode="s" horiz-adv-x="441" 
d="M49 168h33q9 -29 22 -54.5t30.5 -44t39.5 -29.5t47 -11q32 0 51.5 17t19.5 46q0 20 -8.5 34.5t-22.5 26t-31.5 19.5t-35.5 14q-30 11 -55.5 24t-43.5 30.5t-28.5 40.5t-10.5 52q0 66 48.5 102.5t132.5 36.5q35 0 71 -7.5t63 -25.5v-120h-32q-11 50 -38 81.5t-69 31.5
q-31 0 -49 -17.5t-18 -43.5q0 -16 8 -29t21.5 -22.5t31 -17.5t35.5 -14q68 -23 105 -56.5t37 -93.5q0 -72 -50.5 -110.5t-135.5 -38.5q-21 0 -43 2.5t-43 8t-39.5 14t-31.5 20.5z" />
    <glyph glyph-name="t" unicode="t" horiz-adv-x="346" 
d="M33 417v44h64l74 118h44v-118h106v-44h-106v-276q0 -48 18 -68.5t47 -20.5t54 11l9 -27q-33 -21 -70.5 -34t-68.5 -13q-18 0 -37.5 5.5t-36 19t-27.5 36t-11 55.5v312h-59z" />
    <glyph glyph-name="u" unicode="u" horiz-adv-x="590" 
d="M27 416v30l174 26l7 -6v-307q0 -55 23.5 -79.5t64.5 -24.5q50 0 71.5 30.5t21.5 76.5v204q0 27 -5.5 35t-19.5 10l-34 5v30l174 26l8 -6v-384q0 -16 2 -25t8.5 -14t19 -6.5t34.5 -3.5v-33h-179l-8 54q-13 -10 -29.5 -21.5t-37.5 -21t-46 -16t-54 -6.5q-27 0 -51.5 6.5
t-43.5 23t-30.5 43.5t-11.5 68v236q0 27 -5 35t-19 10z" />
    <glyph glyph-name="v" unicode="v" horiz-adv-x="489" 
d="M204 0l-73 202q-19 51 -35 94.5t-33 89.5q-9 24 -22 32t-43 10v33h237v-33l-37 -5q-17 -4 -17 -14q0 -5 3 -14l99 -284h4l46 131q3 9 11 34t16.5 53t15 51.5t6.5 28.5q0 10 -18 13l-42 6v33h189v-33q-15 -1 -25 -3t-17 -6.5t-13 -12.5t-12 -22q-11 -23 -30 -68t-36 -93
l-83 -223h-91z" />
    <glyph glyph-name="w" unicode="w" horiz-adv-x="732" 
d="M-3 461h228v-33l-28 -3q-19 -3 -19 -16q0 -5 2 -15l79 -278h3l94 341h89l104 -341h4l34 126q12 47 20.5 82t11.5 48q2 8 3.5 19t1.5 16q0 12 -16 15l-46 6v33h193v-33q-18 -1 -29 -3.5t-18.5 -7.5t-12.5 -14.5t-11 -24.5q-10 -27 -24.5 -71t-30.5 -96l-65 -211h-93
l-101 312h-4l-94 -312h-92l-72 224q-11 35 -23.5 75.5t-27.5 87.5q-8 25 -19.5 32t-40.5 9v33z" />
    <glyph glyph-name="x" unicode="x" horiz-adv-x="485" 
d="M-6 0v33q18 2 31 4.5t23.5 7t19.5 12t19 20.5l109 139l-124 177q-14 19 -27 25.5t-43 9.5v33h229v-33l-24 -4q-11 -3 -11 -10q0 -6 4 -11l66 -99h3l60 96q7 8 7 15t-11 9l-29 4v33h182v-33q-32 -2 -50.5 -11t-35.5 -30l-99 -120l132 -190q17 -26 34.5 -34t47.5 -10v-33
h-246v33l25 4q17 3 17 13q0 5 -5 13l-74 113h-3l-70 -112q-6 -9 -6 -15q0 -11 13 -12l35 -4v-33h-199z" />
    <glyph glyph-name="y" unicode="y" horiz-adv-x="493" 
d="M-5 428v33h247v-33l-38 -6q-15 -1 -15 -13q0 -8 4 -17l101 -279h3l91 280q2 10 2 13q0 15 -16 16l-42 6v33h187v-33l-18 -2q-22 -3 -33 -15.5t-22 -41.5l-169 -432q-20 -51 -38 -83t-35 -50t-34.5 -24.5t-35.5 -6.5q-33 0 -56.5 16t-23.5 42q0 11 5 23t12.5 21.5t18 15.5
t20.5 6q9 0 16 -4.5t15 -11.5q13 -11 22 -14.5t16 -3.5q11 0 20 9.5t15 22.5t9.5 27.5t3.5 25.5q0 20 -8 42l-156 392q-8 23 -17.5 31t-26.5 11z" />
    <glyph glyph-name="z" unicode="z" horiz-adv-x="459" 
d="M9 18l281 403h-84q-35 0 -56 -6t-33.5 -19.5t-19.5 -35t-13 -51.5h-34v152h385l9 -18l-278 -403h100q38 0 62.5 5.5t41 19.5t26.5 37.5t19 58.5h34l-10 -161h-420z" />
    <glyph glyph-name="braceleft" unicode="{" horiz-adv-x="367" 
d="M45 297q60 0 80 21.5t20 59.5q0 5 -1 19.5t-2 28.5l-11 107q-3 27 -3 57t6 58t22 50t45.5 35t75.5 13h42v-35q-28 -1 -46 -8.5t-28.5 -20t-14.5 -29.5t-4 -38v-21t2 -21l10 -89q3 -23 5 -46t2 -40q0 -45 -23 -73t-88 -42v-9q65 -13 88 -42.5t23 -77.5q0 -14 -2 -34.5
t-4 -39.5l-11 -98q-1 -8 -1.5 -22t-0.5 -22q0 -38 18.5 -63.5t74.5 -28.5v-35h-42q-46 0 -75.5 13t-46 34t-22.5 48.5t-6 57.5q0 15 1 30t3 29l11 108q1 10 2 21.5t1 19.5q0 42 -22 65t-78 23v37z" />
    <glyph glyph-name="bar" unicode="|" horiz-adv-x="255" 
d="M87 -235v940h81v-940h-81z" />
    <glyph glyph-name="braceright" unicode="}" horiz-adv-x="371" 
d="M301 260q-57 0 -79.5 -24.5t-22.5 -69.5q0 -17 3 -35l11 -108q2 -14 3 -29t1 -29q0 -30 -6 -57.5t-22.5 -49t-45.5 -34.5t-76 -13h-40v35q28 1 45.5 8.5t27.5 19.5t14 29t4 37q0 21 -3 45l-11 103q-2 17 -3.5 36t-1.5 33q0 20 4.5 38.5t17 33.5t34.5 26.5t56 18.5v9
q-34 7 -56 18.5t-34.5 26.5t-17 33.5t-4.5 38.5q0 17 1.5 34.5t3.5 34.5l11 104q3 24 3 44t-4 37t-14 29t-27.5 19.5t-45.5 8.5v35h40q47 0 76 -13t45.5 -35t22.5 -49.5t6 -57.5q0 -14 -1 -29t-3 -29l-12 -107q-2 -13 -2.5 -24.5t-0.5 -21.5q0 -40 21 -61.5t82 -21.5v-37z
" />
    <glyph glyph-name="asciitilde" unicode="~" horiz-adv-x="561" 
d="M58 178q9 20 20 41.5t27 39.5t38.5 29.5t52.5 11.5q24 0 48 -8t47 -18t45.5 -18t42.5 -8q25 0 42 14t37 51l46 -27q-10 -23 -22 -44t-28 -36.5t-37 -25t-48 -9.5q-26 0 -50 8t-47 18t-45 17.5t-45 7.5q-25 0 -42 -17t-34 -51z" />
    <glyph glyph-name="uni00A0" unicode="&#xa0;" horiz-adv-x="208" 
 />
    <glyph glyph-name="exclamdown" unicode="&#xa1;" horiz-adv-x="256" 
d="M60 -111l45 369h49l44 -369q3 -24 2.5 -41.5t-7.5 -29t-22 -17t-42 -5.5t-42.5 5.5t-22 17t-7 29t2.5 41.5zM51 394q0 35 21.5 56.5t56.5 21.5t55.5 -21.5t21.5 -56.5q0 -35 -21 -57t-56 -22t-56.5 22t-21.5 57z" />
    <glyph glyph-name="cent" unicode="&#xa2;" horiz-adv-x="523" 
d="M165 342q0 -36 5 -69.5t17 -61.5t32 -47t50 -26v385q-15 -1 -33 -8t-33.5 -26t-26.5 -54t-11 -93zM40 321q0 62 16.5 106.5t46.5 74t72.5 44.5t94.5 17v73h47v-73q33 0 64 -7.5t56 -20.5t40 -30.5t15 -38.5q0 -13 -6 -22.5t-15.5 -16t-20.5 -9.5t-22 -3q-15 0 -23 7
t-15 24q-19 45 -37.5 60t-35.5 17v-389q43 0 80.5 17.5t68.5 72.5l32 -18q-13 -34 -34 -57.5t-45.5 -38t-51 -21.5t-50.5 -7v-94h-48v94q-63 0 -107 18t-71 50t-39 76t-12 95z" />
    <glyph glyph-name="sterling" unicode="&#xa3;" horiz-adv-x="523" 
d="M31 0l-6 8l19 51q30 10 56.5 22t45.5 27t30 34t11 43q0 20 -7 42t-20 46h-116v42h91q-22 36 -36 71.5t-14 76.5q0 36 12.5 68t37.5 56t62.5 38t88.5 14q47 0 79.5 -11t53 -27.5t30 -35t9.5 -33.5q0 -13 -6.5 -23t-16 -16.5t-20.5 -10t-20 -3.5q-15 0 -22.5 7.5
t-13.5 19.5q-20 42 -39 67.5t-48 25.5q-32 0 -52.5 -25t-20.5 -64q0 -47 17 -88.5t49 -89.5q7 -8 11 -17h140v-42h-123q5 -22 5 -41q0 -39 -21 -73t-68 -60v-3h189q23 0 37 8t28 27l19 23l30 -10l-51 -144h-430z" />
    <glyph glyph-name="currency" unicode="&#xa4;" horiz-adv-x="523" 
d="M132 314q0 -31 10 -58t27 -46.5t40.5 -30.5t51.5 -11t52 11t41.5 30.5t27.5 46.5t10 58t-10 58t-27.5 46.5t-41.5 30.5t-52 11t-51.5 -11t-40.5 -30.5t-27 -46.5t-10 -58zM42 87q-20 18 -17 35t20 31l42 34q-22 26 -32 59t-10 68t10 68t32 59l-42 34q-17 14 -20 31t17 35
q14 13 30 13q20 0 34 -19l32 -43q25 21 58.5 30.5t64.5 9.5q32 0 66 -9.5t58 -30.5l33 43q14 19 34 19q17 0 31 -13q20 -18 17 -35t-20 -31l-43 -34q22 -26 31.5 -59t9.5 -68t-9.5 -68t-31.5 -59l43 -34q17 -14 20 -31t-17 -35q-14 -13 -31 -13q-20 0 -34 19l-33 43
q-24 -21 -58 -31t-66 -10q-31 0 -64.5 10t-58.5 31l-32 -43q-14 -19 -34 -19q-16 0 -30 13z" />
    <glyph glyph-name="yen" unicode="&#xa5;" horiz-adv-x="523" 
d="M120 0v32l42 4q27 2 32.5 11.5t5.5 28.5v117h-152v42h152v22q0 19 -3 32.5t-11 26.5h-138v42h121l-100 200q-16 31 -40 34l-24 4v32h245v-34l-44 -4q-14 -1 -14 -13q0 -4 4 -14l96 -212h2l74 172q6 13 12 28t6 22q0 15 -19 17l-46 6v32h199v-32l-30 -4q-13 -1 -23.5 -9
t-23 -27.5t-29 -53t-40.5 -85.5l-27 -59h126v-42h-144q-8 -20 -8 -59v-22h152v-42h-152v-117q0 -18 5.5 -28t31.5 -12l43 -4v-32h-281z" />
    <glyph glyph-name="brokenbar" unicode="&#xa6;" horiz-adv-x="255" 
d="M88 -164v328h81v-328h-81zM88 306v328h81v-328h-81z" />
    <glyph glyph-name="section" unicode="&#xa7;" horiz-adv-x="535" 
d="M97 398q0 -42 34.5 -80.5t116.5 -82.5q60 -32 101.5 -64.5t60.5 -67.5q11 10 20 27t9 43q0 90 -139 166q-54 30 -98 60t-64 73q-16 -9 -28.5 -30t-12.5 -44zM40 351q0 48 23.5 93.5t63.5 77.5q0 22 8.5 47t27.5 46.5t51 35.5t78 14q26 0 50 -6t43 -16.5t30 -24.5t11 -30
q0 -22 -18 -35t-35 -13q-13 0 -19.5 6t-12.5 15q-23 36 -41 49t-39 13q-26 0 -41 -17t-15 -38q0 -9 2.5 -20.5t13 -26t32 -31.5t60.5 -38q48 -25 82.5 -49t56.5 -50t32.5 -57.5t10.5 -71.5q0 -48 -19.5 -92t-49.5 -83q0 -33 -10.5 -61.5t-32 -50t-53.5 -34t-75 -12.5
q-33 0 -61 7t-49 19t-33 27.5t-12 31.5q0 28 18 41.5t38 13.5q24 0 36 -25q24 -46 48 -59.5t47 -13.5q22 0 39.5 16t17.5 44q0 14 -4.5 29.5t-18.5 32.5t-40.5 37t-71.5 43q-49 26 -82 51.5t-52 51.5t-27 54t-8 59z" />
    <glyph glyph-name="dieresis" unicode="&#xa8;" horiz-adv-x="401" 
d="M25 594q0 28 19.5 46t49.5 18q29 0 48.5 -18t19.5 -46q0 -29 -19.5 -47t-48.5 -18q-30 0 -49.5 18t-19.5 47zM241 594q0 28 19 46t49 18q29 0 48.5 -18t19.5 -46q0 -29 -19.5 -47t-48.5 -18q-30 0 -49 18t-19 47z" />
    <glyph glyph-name="copyright" unicode="&#xa9;" horiz-adv-x="763" 
d="M112 326q0 -61 21 -113.5t57.5 -91t86 -60.5t105.5 -22t105.5 22t86.5 60.5t58 91t21 113.5q0 60 -21 112.5t-58 90.5t-86.5 60t-105.5 22t-105.5 -22t-86 -60t-57.5 -90.5t-21 -112.5zM202 324q0 41 12 76.5t36.5 61t63 40t90.5 14.5q35 0 69.5 -7t56.5 -21v-96h-24
q-4 17 -11.5 34t-19.5 30.5t-28.5 22t-39.5 8.5q-28 0 -47.5 -12t-32 -33t-18.5 -49t-6 -60q0 -31 5.5 -60.5t18.5 -52t33 -36.5t50 -14q43 0 66.5 29.5t38.5 70.5h23l-10 -100q-20 -14 -55 -21.5t-74 -7.5q-54 0 -91.5 14.5t-61 39t-34 58t-10.5 71.5zM40 326
q0 71 27 132.5t73.5 107.5t108.5 72.5t133 26.5t133.5 -26.5t109 -72.5t73.5 -107.5t27 -132.5q0 -70 -27 -132t-73.5 -108.5t-109 -73t-133.5 -26.5t-133 26.5t-108.5 73t-73.5 108.5t-27 132z" />
    <glyph glyph-name="ordfeminine" unicode="&#xaa;" horiz-adv-x="382" 
d="M134 346q0 -26 13.5 -39t30.5 -13q14 0 27.5 9.5t13.5 34.5v76l-25 -8q-28 -8 -44 -21t-16 -39zM33 335q0 24 15.5 42.5t53.5 30.5l117 37v34q0 23 -11.5 33.5t-26.5 10.5q-13 0 -27 -9t-26 -40q-7 -15 -14 -23t-19 -8q-7 0 -16.5 2.5t-17.5 7t-14 12.5t-6 18
q0 27 41 49.5t111 22.5q41 0 64.5 -8t35.5 -20.5t15 -28t3 -29.5v-131q0 -26 8.5 -39t31.5 -13q8 0 12 1l2 -20q-17 -8 -42 -13t-51 -5q-23 0 -34 10.5t-17 24.5q-18 -14 -41.5 -24.5t-52.5 -10.5q-24 0 -41.5 7.5t-29 19.5t-17.5 27.5t-6 31.5z" />
    <glyph glyph-name="guillemotleft" unicode="&#xab;" horiz-adv-x="450" 
d="M42 232q0 10 7 17l156 178l25 -19l-75 -160q-4 -10 -4 -16q0 -9 4 -17l75 -160l-25 -19l-156 179q-7 7 -7 17zM225 232q0 10 7 17l157 178l25 -19l-75 -160q-4 -10 -4 -16q0 -9 4 -17l75 -160l-25 -19l-157 179q-7 7 -7 17z" />
    <glyph glyph-name="logicalnot" unicode="&#xac;" horiz-adv-x="561" 
d="M54 302v68h453v-279h-81v211h-372z" />
    <glyph glyph-name="uni00AD" unicode="&#xad;" horiz-adv-x="374" 
d="M67 195v81h242v-81h-242z" />
    <glyph glyph-name="registered" unicode="&#xae;" horiz-adv-x="763" 
d="M112 326q0 -61 21 -113.5t57.5 -91t86 -60.5t105.5 -22t105.5 22t86.5 60.5t58 91t21 113.5q0 60 -21 112.5t-58 90.5t-86.5 60t-105.5 22t-105.5 -22t-86 -60t-57.5 -90.5t-21 -112.5zM346 341h27q35 0 51.5 18t16.5 51q0 39 -19.5 54t-49.5 15q-17 0 -21.5 -4t-4.5 -15
v-119zM40 326q0 71 27 132.5t73.5 107.5t108.5 72.5t133 26.5t133.5 -26.5t109 -72.5t73.5 -107.5t27 -132.5q0 -70 -27 -132t-73.5 -108.5t-109 -73t-133.5 -26.5t-133 26.5t-108.5 73t-73.5 108.5t-27 132zM219 149v23l26 4q11 2 14.5 8.5t3.5 18.5v251q0 12 -3.5 18.5
t-14.5 8.5l-26 4v24h187q69 0 95.5 -25.5t26.5 -61.5q0 -38 -23.5 -61t-61.5 -30v-3q18 -6 29.5 -15t19 -20.5t11.5 -25t8 -28.5q6 -24 16.5 -43.5t35.5 -24.5v-22h-47q-43 0 -63 23.5t-32 72.5q-7 29 -18 48t-35 19h-22v-109q0 -12 4 -18.5t16 -8.5l26 -4v-23h-173z" />
    <glyph glyph-name="macron" unicode="&#xaf;" horiz-adv-x="401" 
d="M59 555v73h285v-73h-285z" />
    <glyph glyph-name="degree" unicode="&#xb0;" horiz-adv-x="364" 
d="M89 496q0 -40 25 -66t61 -26q18 0 33.5 7t27.5 19t19 29t7 37q0 40 -26 66t-62 26q-35 0 -60 -26t-25 -66zM30 496q0 30 11.5 56t31 45.5t46 30.5t56.5 11t56.5 -11t46.5 -30.5t31.5 -45.5t11.5 -56t-11.5 -56t-31.5 -45.5t-46.5 -31t-56.5 -11.5t-56.5 11.5t-46 31
t-31 45.5t-11.5 56z" />
    <glyph glyph-name="plusminus" unicode="&#xb1;" horiz-adv-x="561" 
d="M54 0v68h454v-68h-454zM54 284v68h188v166h81v-166h185v-68h-185v-167h-81v167h-188z" />
    <glyph glyph-name="twosuperior" unicode="&#xb2;" horiz-adv-x="377" 
d="M31 364q3 39 34.5 77t85.5 77q48 35 62.5 67t14.5 60q0 26 -9.5 43.5t-29.5 17.5q-37 0 -53 -74q-7 -31 -36 -31q-8 0 -17.5 3t-17.5 8.5t-13.5 14t-5.5 19.5q0 17 10 34t28.5 30t45.5 21t61 8q64 0 103.5 -26.5t39.5 -83.5q0 -24 -8.5 -42t-23.5 -32.5t-35 -26.5
t-44 -23q-41 -19 -66.5 -39t-33.5 -41h157q19 0 28 5.5t20 24.5l24 -6l-28 -93h-282z" />
    <glyph glyph-name="threesuperior" unicode="&#xb3;" horiz-adv-x="377" 
d="M33 426q0 11 5.5 20.5t13.5 16t17.5 10t17.5 3.5q14 0 21.5 -7t11.5 -19q13 -37 28.5 -53t32.5 -16q23 0 37.5 19t14.5 61q0 26 -6 41t-14 23.5t-17.5 11t-17.5 2.5q-19 0 -35 -5.5t-24 -5.5q-10 0 -14.5 8t-4.5 19q0 12 4 19.5t15 7.5q8 0 24.5 -4.5t34.5 -4.5
q14 0 22.5 7.5t13 18t5.5 23t1 22.5q0 21 -8.5 41.5t-31.5 20.5q-18 0 -30 -17t-20 -47q-7 -26 -33 -26q-16 0 -33 10.5t-18 31.5q1 31 36.5 56t103.5 25q24 0 49 -5t44.5 -16t32 -29.5t12.5 -45.5q0 -20 -8 -34.5t-20 -24t-26.5 -15.5t-28.5 -9v-2q17 -2 35 -9.5t32 -19.5
t23 -29.5t9 -40.5t-8.5 -43.5t-28 -35.5t-51 -23.5t-76.5 -8.5q-27 0 -52.5 5.5t-46 15.5t-32.5 24.5t-12 32.5z" />
    <glyph glyph-name="acute" unicode="&#xb4;" horiz-adv-x="401" 
d="M118 516l128 131q24 25 38 34.5t28 9.5q8 0 16 -5t14.5 -12.5t11 -16.5t4.5 -18q0 -17 -18 -30.5t-42 -27.5l-162 -91z" />
    <glyph glyph-name="uni00B5" unicode="&#xb5;" horiz-adv-x="590" 
d="M85 -182v548q0 27 -5 35t-19 10l-34 5v30l175 26l7 -6v-307q0 -55 23 -79.5t64 -24.5q45 0 69 27.5t24 79.5v204q0 27 -5.5 35t-19.5 10l-34 5v30l176 26l8 -6v-384q0 -15 2 -24t8.5 -14t19 -7t34.5 -4v-33h-181l-8 54q-25 -23 -63 -44t-85 -21q-28 0 -48 8.5t-35 21.5
h-3v-29q0 -23 8 -50t18 -45q10 -17 17.5 -33t7.5 -29q0 -14 -9 -25t-22.5 -19t-29 -12.5t-28.5 -4.5q-14 0 -23 8.5t-9 37.5z" />
    <glyph glyph-name="paragraph" unicode="&#xb6;" horiz-adv-x="525" 
d="M45 438q0 48 15 87t43.5 67t70 43t94.5 15v-422q-51 0 -92 14.5t-70.5 41.5t-45 66t-15.5 88zM237 -67l75 11q14 2 17.5 13t3.5 31v662h166v-27l-62 -10q-13 -2 -17 -9.5t-4 -27.5v-671h-179v28z" />
    <glyph glyph-name="periodcentered" unicode="&#xb7;" horiz-adv-x="265" 
d="M55 235q0 35 21.5 56.5t56.5 21.5t56.5 -21.5t21.5 -56.5t-21.5 -56.5t-56.5 -21.5t-56.5 21.5t-21.5 56.5z" />
    <glyph glyph-name="cedilla" unicode="&#xb8;" horiz-adv-x="401" 
d="M140 -195q38 0 62 11.5t24 40.5q0 16 -7 26t-17 15.5t-20.5 7.5t-17.5 3l-5 7l59 94h49l-41 -64q12 -2 27.5 -6t29.5 -13t23.5 -24.5t9.5 -38.5q0 -30 -15 -47.5t-36.5 -27t-45 -12.5t-39.5 -3q-17 0 -40 3v28z" />
    <glyph glyph-name="onesuperior" unicode="&#xb9;" horiz-adv-x="377" 
d="M73 356v23l41 6q13 2 19 8t6 23v245q0 15 -4.5 21t-15.5 8l-45 5v22l156 22l7 -6v-317q0 -17 5.5 -23t19.5 -8l42 -6v-23h-231z" />
    <glyph glyph-name="ordmasculine" unicode="&#xba;" horiz-adv-x="398" 
d="M137 401q1 -56 15.5 -88.5t46.5 -32.5q33 0 48 32.5t16 88.5q-1 56 -16 89t-48 33q-32 0 -46.5 -33t-15.5 -89zM32 401q0 34 9.5 62.5t30 48.5t52 31.5t75.5 11.5q45 0 77 -11.5t52 -31.5t29.5 -48.5t9.5 -62.5q0 -68 -39 -110t-129 -42q-88 0 -127.5 42t-39.5 110z" />
    <glyph glyph-name="guillemotright" unicode="&#xbb;" horiz-adv-x="450" 
d="M38 55l75 160q4 8 4 17t-4 16l-75 160l24 19l157 -178q7 -9 7 -17t-7 -17l-157 -179zM222 55l73 160q4 8 4 17t-4 16l-73 160l23 19l157 -178q7 -9 7 -17t-7 -17l-157 -179z" />
    <glyph glyph-name="onequarter" unicode="&#xbc;" horiz-adv-x="840" 
d="M501 131h104v167h-3q-26 -37 -51.5 -78.5t-50.5 -86.5zM218 3l357 650l46 -24l-359 -655zM439 112q44 71 92.5 142t89.5 123h79v-246h62v-41h-62v-36q0 -15 5.5 -20t16.5 -7l26 -3v-24h-200v24l37 3q10 2 15 7t5 20v36h-154zM70 256v23l41 5q14 2 19.5 8t5.5 23v246
q0 15 -5 21t-15 8l-45 5v23l155 21l7 -5v-319q0 -17 6.5 -23t19.5 -8l41 -5v-23h-230z" />
    <glyph glyph-name="onehalf" unicode="&#xbd;" horiz-adv-x="840" 
d="M468 9q4 39 35 77.5t85 77.5q47 35 61.5 66.5t14.5 58.5t-9.5 44.5t-29.5 17.5q-36 0 -52 -73q-7 -31 -33 -31q-18 0 -38 11.5t-20 36.5q0 16 10 32t29.5 28.5t47 20.5t63.5 8q60 0 99 -26.5t39 -81.5q0 -49 -31 -77.5t-82 -50.5q-38 -17 -63.5 -37t-33.5 -41h156
q18 0 28 5.5t21 24.5l24 -6l-28 -94h-283zM55 256v23l41 5q14 2 19.5 8t5.5 23v246q0 15 -4.5 21t-14.5 8l-45 5v23l155 21l8 -5v-319q0 -17 5 -23t19 -8l42 -5v-23h-231zM195 3l357 650l45 -24l-358 -655z" />
    <glyph glyph-name="threequarters" unicode="&#xbe;" horiz-adv-x="840" 
d="M525 131h102v154h-3q-29 -38 -52.5 -74t-48.5 -77zM242 3l358 650l44 -25l-358 -654zM462 112q22 35 45.5 71.5t46.5 71t46 66t43 56.5h78v-246h63v-41h-63v-36q0 -15 5 -20.5t16 -6.5l28 -3v-24h-201v24l37 3q10 1 15.5 6.5t5.5 20.5v36h-154zM45 326q0 23 18 37t37 14
q13 0 20.5 -8.5t13.5 -26.5q11 -31 26.5 -45.5t33.5 -14.5q21 0 35.5 19t14.5 60q0 26 -6 41.5t-14.5 23.5t-18.5 10.5t-18 2.5q-17 0 -32.5 -5t-23.5 -5q-10 0 -15 7.5t-5 18.5q0 12 4.5 20t15.5 8q8 0 23.5 -5t29.5 -5q15 0 24.5 7.5t14.5 18t6.5 22t1.5 19.5
q0 25 -8 45.5t-31 20.5q-19 0 -30 -16t-19 -42q-5 -17 -12 -24t-20 -7q-9 0 -18.5 2.5t-17.5 8t-13.5 13.5t-5.5 20q0 14 9.5 28t27.5 25t43.5 18t58.5 7q25 0 50 -4.5t45 -15.5t32.5 -29t12.5 -44q0 -27 -13 -44t-31 -26.5t-37 -13.5v-3q17 -3 34.5 -10.5t31.5 -19.5
t23 -30t9 -42q0 -22 -9 -41.5t-28.5 -34.5t-50.5 -23.5t-75 -8.5q-28 0 -54 5.5t-46 15t-32 24t-12 32.5z" />
    <glyph glyph-name="questiondown" unicode="&#xbf;" horiz-adv-x="414" 
d="M28 -68q0 26 10 45t24.5 33.5t31 24.5t29.5 18q71 41 71 91q0 27 -19 41.5t-42 14.5q-25 0 -40 -5l-9 23q26 19 58 29.5t67 10.5q23 0 45 -6t38.5 -18t26.5 -30.5t10 -42.5t-16 -48.5t-64 -55.5q-41 -27 -63.5 -63t-22.5 -78q0 -34 11 -57t34 -23q22 0 38 23t29 80
q7 30 45 30q10 0 22 -3.5t22.5 -11t17.5 -18t7 -25.5t-10.5 -35t-33 -37.5t-57.5 -30t-84 -12.5q-76 0 -125.5 33.5t-50.5 102.5zM129 394q0 35 21 56.5t56 21.5t56.5 -21.5t21.5 -56.5t-21.5 -56.5t-56.5 -21.5t-56 21.5t-21 56.5z" />
    <glyph glyph-name="Agrave" unicode="&#xc0;" horiz-adv-x="608" 
d="M267 532h-3l-79 -252h163zM-22 33q20 1 32.5 3.5t21 8.5t14 16t11.5 26q9 25 20.5 56t23.5 64.5t24 69.5t24 70l104 303h104l189 -568q5 -15 10.5 -24.5t14 -14.5t21 -7t31.5 -3v-33h-279v33l51 5q22 1 22 18q0 7 -3 17l-53 165h-189l-52 -165q-4 -9 -4 -18q0 -15 23 -18
l54 -4v-33h-215v33zM219 898q11 0 25 -9.5t38 -34.5l128 -131l-18 -26l-162 91q-24 14 -42.5 27.5t-18.5 30.5q0 9 4.5 18t11.5 16.5t16 12.5t18 5z" />
    <glyph glyph-name="Aacute" unicode="&#xc1;" horiz-adv-x="608" 
d="M267 532h-3l-79 -252h163zM-22 33q20 1 32.5 3.5t21 8.5t14 16t11.5 26q9 25 20.5 56t23.5 64.5t24 69.5t24 70l104 303h104l189 -568q5 -15 10.5 -24.5t14 -14.5t21 -7t31.5 -3v-33h-279v33l51 5q22 1 22 18q0 7 -3 17l-53 165h-189l-52 -165q-4 -9 -4 -18q0 -15 23 -18
l54 -4v-33h-215v33zM181 723l127 131q25 25 38.5 34.5t24.5 9.5q9 0 18 -5t15.5 -12.5t11 -16.5t4.5 -18q0 -17 -18 -30.5t-42 -27.5l-162 -91z" />
    <glyph glyph-name="Acircumflex" unicode="&#xc2;" horiz-adv-x="608" 
d="M267 532h-3l-79 -252h163zM-22 33q20 1 32.5 3.5t21 8.5t14 16t11.5 26q9 25 20.5 56t23.5 64.5t24 69.5t24 70l104 303h104l189 -568q5 -15 10.5 -24.5t14 -14.5t21 -7t31.5 -3v-33h-279v33l51 5q22 1 22 18q0 7 -3 17l-53 165h-189l-52 -165q-4 -9 -4 -18q0 -15 23 -18
l54 -4v-33h-215v33zM137 720l127 148q10 11 19.5 19t19.5 8q9 0 18.5 -8t19.5 -19l127 -148l-21 -23l-110 82q-9 7 -18 12t-16 5t-16 -5t-18 -12l-111 -82z" />
    <glyph glyph-name="Atilde" unicode="&#xc3;" horiz-adv-x="608" 
d="M267 532h-3l-79 -252h163zM-22 33q20 1 32.5 3.5t21 8.5t14 16t11.5 26q9 25 20.5 56t23.5 64.5t24 69.5t24 70l104 303h104l189 -568q5 -15 10.5 -24.5t14 -14.5t21 -7t31.5 -3v-33h-279v33l51 5q22 1 22 18q0 7 -3 17l-53 165h-189l-52 -165q-4 -9 -4 -18q0 -15 23 -18
l54 -4v-33h-215v33zM113 712q20 48 49 78t72 30q14 0 32.5 -4t45.5 -14t47.5 -15.5t38.5 -5.5q21 0 34 10t32 40l26 -15q-25 -56 -52.5 -81.5t-62.5 -25.5q-14 0 -32.5 4t-47.5 15q-55 20 -88 20q-23 0 -37 -10.5t-31 -40.5z" />
    <glyph glyph-name="Adieresis" unicode="&#xc4;" horiz-adv-x="608" 
d="M267 532h-3l-79 -252h163zM-22 33q20 1 32.5 3.5t21 8.5t14 16t11.5 26q9 25 20.5 56t23.5 64.5t24 69.5t24 70l104 303h104l189 -568q5 -15 10.5 -24.5t14 -14.5t21 -7t31.5 -3v-33h-279v33l51 5q22 1 22 18q0 7 -3 17l-53 165h-189l-52 -165q-4 -9 -4 -18q0 -15 23 -18
l54 -4v-33h-215v33zM125 762q0 28 19.5 46t49.5 18q29 0 48.5 -18t19.5 -46q0 -29 -19.5 -47t-48.5 -18q-30 0 -49.5 18t-19.5 47zM341 762q0 28 19 46t49 18q29 0 48.5 -18t19.5 -46q0 -29 -19.5 -47t-48.5 -18q-30 0 -49 18t-19 47z" />
    <glyph glyph-name="Aring" unicode="&#xc5;" horiz-adv-x="608" 
d="M267 532h-3l-79 -252h163zM-22 33q20 1 32.5 3.5t21 8.5t14 16t11.5 26q9 25 20.5 56t23.5 64.5t24 69.5t24 70l104 303h104l189 -568q5 -15 10.5 -24.5t14 -14.5t21 -7t31.5 -3v-33h-279v33l51 5q22 1 22 18q0 7 -3 17l-53 165h-189l-52 -165q-4 -9 -4 -18q0 -15 23 -18
l54 -4v-33h-215v33zM253 718q0 -34 14 -49.5t34 -15.5t34 15.5t14 49.5t-14 49.5t-34 15.5t-34 -15.5t-14 -49.5zM193 718q0 28 9.5 47t24.5 31t34.5 17.5t39.5 5.5t39.5 -5.5t34.5 -17.5t24.5 -31t9.5 -47t-9.5 -47t-24.5 -31t-34.5 -17t-39.5 -5t-39.5 5t-34.5 17
t-24.5 31t-9.5 47z" />
    <glyph glyph-name="AE" unicode="&#xc6;" horiz-adv-x="832" 
d="M224 362h133v244h-8q-34 -64 -67.5 -129.5t-57.5 -114.5zM-64 0v33q20 1 33 3.5t22 8t16 14.5t15 24q33 60 76 142t88 170l91 180q7 13 7 22q0 12 -18 15l-62 6v32h569v-167h-33q-9 36 -18.5 60.5t-24.5 39.5t-38.5 21.5t-61.5 6.5h-77q-21 0 -27.5 -7t-6.5 -27v-215h103
q25 0 40 4t24 13.5t14 25.5t10 40h33v-211h-33q-5 25 -10 41t-14 25.5t-24 13.5t-40 4h-103v-204q0 -23 6 -37.5t20 -22.5t36.5 -11t55.5 -3q39 0 66 8t45.5 25t31.5 44.5t24 67.5h34l-12 -185h-513v33q27 2 42.5 4t23 7.5t9.5 16t2 29.5v228h-154q-48 -98 -74 -156.5
t-38 -88.5q-5 -13 -5 -19q0 -13 20 -15l60 -6v-33h-230z" />
    <glyph glyph-name="Ccedilla" unicode="&#xc7;" horiz-adv-x="652" 
d="M45 318q0 172 93.5 259.5t263.5 87.5q22 0 48.5 -2t53.5 -7t52.5 -12.5t44.5 -18.5v-161h-33q-8 31 -20.5 60t-33 51.5t-49 36t-69.5 13.5q-44 0 -76.5 -15t-55 -39.5t-37 -56t-22.5 -64.5t-11 -64.5t-3 -56.5q0 -27 3 -59.5t11 -66.5t22.5 -65.5t37.5 -56.5t55.5 -40
t76.5 -15q41 0 70.5 14t51 38t37 57t27.5 71h33l-12 -175q-19 -12 -45.5 -20.5t-56 -14t-59 -8t-56.5 -2.5q-175 0 -258.5 87.5t-83.5 244.5zM290 -195q38 0 62 11.5t24 40.5q0 16 -7 26t-17 15.5t-20.5 7.5t-17.5 3l-5 7l59 94h49l-41 -64q12 -2 27.5 -6t29.5 -13
t23.5 -24.5t9.5 -38.5q0 -30 -15 -47.5t-36.5 -27t-45 -12.5t-39.5 -3q-17 0 -40 3v28z" />
    <glyph glyph-name="Egrave" unicode="&#xc8;" horiz-adv-x="590" 
d="M35 0v33q27 2 42.5 4t23.5 7.5t10 16t2 29.5v470q0 19 -2 29.5t-10 16.5t-23.5 8.5t-42.5 3.5v32h497v-167h-34q-9 36 -18.5 60.5t-24.5 39.5t-38.5 21.5t-61.5 6.5h-77q-20 0 -26.5 -6.5t-6.5 -27.5v-215h102q25 0 40 4t24 13.5t14 25.5t10 40h33v-211h-33q-5 25 -10 41
t-14 25.5t-24 13.5t-40 4h-102v-206q0 -24 6 -38t20 -21.5t36.5 -10t54.5 -2.5q36 0 62 6t45 21.5t33 44t27 73.5h33l-11 -185h-516zM216 898q11 0 25 -9.5t38 -34.5l128 -131l-18 -26l-162 91q-24 14 -42.5 27.5t-18.5 30.5q0 9 4.5 18t11.5 16.5t16 12.5t18 5z" />
    <glyph glyph-name="Eacute" unicode="&#xc9;" horiz-adv-x="590" 
d="M35 0v33q27 2 42.5 4t23.5 7.5t10 16t2 29.5v470q0 19 -2 29.5t-10 16.5t-23.5 8.5t-42.5 3.5v32h497v-167h-34q-9 36 -18.5 60.5t-24.5 39.5t-38.5 21.5t-61.5 6.5h-77q-20 0 -26.5 -6.5t-6.5 -27.5v-215h102q25 0 40 4t24 13.5t14 25.5t10 40h33v-211h-33q-5 25 -10 41
t-14 25.5t-24 13.5t-40 4h-102v-206q0 -24 6 -38t20 -21.5t36.5 -10t54.5 -2.5q36 0 62 6t45 21.5t33 44t27 73.5h33l-11 -185h-516zM178 723l127 131q25 25 38.5 34.5t24.5 9.5q9 0 18 -5t15.5 -12.5t11 -16.5t4.5 -18q0 -17 -18 -30.5t-42 -27.5l-162 -91z" />
    <glyph glyph-name="Ecircumflex" unicode="&#xca;" horiz-adv-x="590" 
d="M35 0v33q27 2 42.5 4t23.5 7.5t10 16t2 29.5v470q0 19 -2 29.5t-10 16.5t-23.5 8.5t-42.5 3.5v32h497v-167h-34q-9 36 -18.5 60.5t-24.5 39.5t-38.5 21.5t-61.5 6.5h-77q-20 0 -26.5 -6.5t-6.5 -27.5v-215h102q25 0 40 4t24 13.5t14 25.5t10 40h33v-211h-33q-5 25 -10 41
t-14 25.5t-24 13.5t-40 4h-102v-206q0 -24 6 -38t20 -21.5t36.5 -10t54.5 -2.5q36 0 62 6t45 21.5t33 44t27 73.5h33l-11 -185h-516zM133 720l127 148q10 11 19.5 19t19.5 8q9 0 18.5 -8t19.5 -19l127 -148l-21 -23l-110 82q-9 7 -18 12t-16 5t-16 -5t-18 -12l-111 -82z" />
    <glyph glyph-name="Edieresis" unicode="&#xcb;" horiz-adv-x="590" 
d="M35 0v33q27 2 42.5 4t23.5 7.5t10 16t2 29.5v470q0 19 -2 29.5t-10 16.5t-23.5 8.5t-42.5 3.5v32h497v-167h-34q-9 36 -18.5 60.5t-24.5 39.5t-38.5 21.5t-61.5 6.5h-77q-20 0 -26.5 -6.5t-6.5 -27.5v-215h102q25 0 40 4t24 13.5t14 25.5t10 40h33v-211h-33q-5 25 -10 41
t-14 25.5t-24 13.5t-40 4h-102v-206q0 -24 6 -38t20 -21.5t36.5 -10t54.5 -2.5q36 0 62 6t45 21.5t33 44t27 73.5h33l-11 -185h-516zM122 762q0 28 19.5 46t49.5 18q29 0 48.5 -18t19.5 -46q0 -29 -19.5 -47t-48.5 -18q-30 0 -49.5 18t-19.5 47zM338 762q0 28 19 46t49 18
q29 0 48.5 -18t19.5 -46q0 -29 -19.5 -47t-48.5 -18q-30 0 -49 18t-19 47z" />
    <glyph glyph-name="Igrave" unicode="&#xcc;" horiz-adv-x="356" 
d="M35 0v33q27 2 42.5 4t23.5 7.5t10 16t2 29.5v471q0 18 -2 29t-10 16.5t-23.5 8t-42.5 3.5v32h287v-32q-27 -1 -42.5 -3.5t-23 -8t-9.5 -16.5t-2 -29v-471q0 -19 2 -29.5t9.5 -16t23 -7.5t42.5 -4v-33h-287zM96 898q11 0 25 -9.5t38 -34.5l128 -131l-18 -26l-162 91
q-24 14 -42.5 27.5t-18.5 30.5q0 9 4.5 18t11.5 16.5t16 12.5t18 5z" />
    <glyph glyph-name="Iacute" unicode="&#xcd;" horiz-adv-x="356" 
d="M35 0v33q27 2 42.5 4t23.5 7.5t10 16t2 29.5v471q0 18 -2 29t-10 16.5t-23.5 8t-42.5 3.5v32h287v-32q-27 -1 -42.5 -3.5t-23 -8t-9.5 -16.5t-2 -29v-471q0 -19 2 -29.5t9.5 -16t23 -7.5t42.5 -4v-33h-287zM58 723l127 131q25 25 38.5 34.5t24.5 9.5q9 0 18 -5
t15.5 -12.5t11 -16.5t4.5 -18q0 -17 -18 -30.5t-42 -27.5l-162 -91z" />
    <glyph glyph-name="Icircumflex" unicode="&#xce;" horiz-adv-x="356" 
d="M35 0v33q27 2 42.5 4t23.5 7.5t10 16t2 29.5v471q0 18 -2 29t-10 16.5t-23.5 8t-42.5 3.5v32h287v-32q-27 -1 -42.5 -3.5t-23 -8t-9.5 -16.5t-2 -29v-471q0 -19 2 -29.5t9.5 -16t23 -7.5t42.5 -4v-33h-287zM14 720l127 148q10 11 19.5 19t19.5 8q9 0 18.5 -8t19.5 -19
l127 -148l-21 -23l-110 82q-9 7 -18 12t-16 5t-16 -5t-18 -12l-111 -82z" />
    <glyph glyph-name="Idieresis" unicode="&#xcf;" horiz-adv-x="356" 
d="M35 0v33q27 2 42.5 4t23.5 7.5t10 16t2 29.5v471q0 18 -2 29t-10 16.5t-23.5 8t-42.5 3.5v32h287v-32q-27 -1 -42.5 -3.5t-23 -8t-9.5 -16.5t-2 -29v-471q0 -19 2 -29.5t9.5 -16t23 -7.5t42.5 -4v-33h-287zM3 762q0 28 19.5 46t49.5 18q29 0 48.5 -18t19.5 -46
q0 -29 -19.5 -47t-48.5 -18q-30 0 -49.5 18t-19.5 47zM219 762q0 28 19 46t49 18q29 0 48.5 -18t19.5 -46q0 -29 -19.5 -47t-48.5 -18q-30 0 -49 18t-19 47z" />
    <glyph glyph-name="Eth" unicode="&#xd0;" horiz-adv-x="742" 
d="M32 363h86v198q0 18 -2 29t-10 16.5t-24 8t-43 3.5v32h320q176 0 257.5 -82.5t81.5 -235.5q0 -98 -31 -162.5t-82.5 -102t-119 -52.5t-140.5 -15h-286v33q27 2 43 4t24 7.5t10 16t2 29.5v231h-86v42zM250 96q0 -33 15.5 -44.5t61.5 -11.5q44 0 85 11t72.5 42t50 86.5
t18.5 143.5q0 137 -51.5 212.5t-164.5 75.5q-27 0 -44 -1t-26.5 -5t-13 -10.5t-3.5 -18.5v-213h133v-42h-133v-225z" />
    <glyph glyph-name="Ntilde" unicode="&#xd1;" horiz-adv-x="714" 
d="M32 0v33l25 3q35 4 43 20.5t8 51.5v453q0 18 -2 29t-9.5 16.5t-23 8t-42.5 3.5v32h208q78 -118 158 -235t161 -236h3v361q0 17 -1 30.5t-6.5 22.5t-17 14.5t-32.5 6.5l-40 4v32h226v-32l-28 -4q-17 -2 -26.5 -7.5t-14 -15t-5.5 -22.5t-1 -29v-540h-90q-89 135 -178.5 270
t-181.5 270h-3v-432q0 -18 1 -31t6.5 -21.5t17 -13t31.5 -6.5l41 -3v-33h-227zM170 712q20 48 49 78t72 30q14 0 32.5 -4t45.5 -14t47.5 -15.5t38.5 -5.5q21 0 34 10t32 40l26 -15q-25 -56 -52.5 -81.5t-62.5 -25.5q-14 0 -32.5 4t-47.5 15q-55 20 -88 20q-23 0 -37 -10.5
t-31 -40.5z" />
    <glyph glyph-name="Ograve" unicode="&#xd2;" horiz-adv-x="725" 
d="M191 328q0 -31 2.5 -65.5t9.5 -68t19 -64t31.5 -53.5t46.5 -37t63 -14q56 0 89.5 29.5t52.5 74.5t25 97.5t6 98.5q0 31 -2.5 65t-9.5 67t-19 63.5t-31.5 53.5t-46.5 36.5t-64 13.5q-55 0 -89 -29.5t-52.5 -74t-24.5 -96.5t-6 -97zM45 326q0 78 19.5 140.5t59 107t99.5 68
t140 23.5t140 -23.5t100 -68t59.5 -107t19.5 -140.5t-19.5 -141t-59.5 -107.5t-99.5 -68t-140.5 -23.5q-80 0 -140 23.5t-99.5 68t-59 107.5t-19.5 141zM285 898q11 0 25 -9.5t38 -34.5l128 -131l-18 -26l-162 91q-24 14 -42.5 27.5t-18.5 30.5q0 9 4.5 18t11.5 16.5
t16 12.5t18 5z" />
    <glyph glyph-name="Oacute" unicode="&#xd3;" horiz-adv-x="725" 
d="M191 328q0 -31 2.5 -65.5t9.5 -68t19 -64t31.5 -53.5t46.5 -37t63 -14q56 0 89.5 29.5t52.5 74.5t25 97.5t6 98.5q0 31 -2.5 65t-9.5 67t-19 63.5t-31.5 53.5t-46.5 36.5t-64 13.5q-55 0 -89 -29.5t-52.5 -74t-24.5 -96.5t-6 -97zM45 326q0 78 19.5 140.5t59 107t99.5 68
t140 23.5t140 -23.5t100 -68t59.5 -107t19.5 -140.5t-19.5 -141t-59.5 -107.5t-99.5 -68t-140.5 -23.5q-80 0 -140 23.5t-99.5 68t-59 107.5t-19.5 141zM247 723l127 131q25 25 38.5 34.5t24.5 9.5q9 0 18 -5t15.5 -12.5t11 -16.5t4.5 -18q0 -17 -18 -30.5t-42 -27.5
l-162 -91z" />
    <glyph glyph-name="Ocircumflex" unicode="&#xd4;" horiz-adv-x="725" 
d="M191 328q0 -31 2.5 -65.5t9.5 -68t19 -64t31.5 -53.5t46.5 -37t63 -14q56 0 89.5 29.5t52.5 74.5t25 97.5t6 98.5q0 31 -2.5 65t-9.5 67t-19 63.5t-31.5 53.5t-46.5 36.5t-64 13.5q-55 0 -89 -29.5t-52.5 -74t-24.5 -96.5t-6 -97zM45 326q0 78 19.5 140.5t59 107t99.5 68
t140 23.5t140 -23.5t100 -68t59.5 -107t19.5 -140.5t-19.5 -141t-59.5 -107.5t-99.5 -68t-140.5 -23.5q-80 0 -140 23.5t-99.5 68t-59 107.5t-19.5 141zM203 720l127 148q10 11 19.5 19t19.5 8q9 0 18.5 -8t19.5 -19l127 -148l-21 -23l-110 82q-9 7 -18 12t-16 5t-16 -5
t-18 -12l-111 -82z" />
    <glyph glyph-name="Otilde" unicode="&#xd5;" horiz-adv-x="725" 
d="M191 328q0 -31 2.5 -65.5t9.5 -68t19 -64t31.5 -53.5t46.5 -37t63 -14q56 0 89.5 29.5t52.5 74.5t25 97.5t6 98.5q0 31 -2.5 65t-9.5 67t-19 63.5t-31.5 53.5t-46.5 36.5t-64 13.5q-55 0 -89 -29.5t-52.5 -74t-24.5 -96.5t-6 -97zM45 326q0 78 19.5 140.5t59 107t99.5 68
t140 23.5t140 -23.5t100 -68t59.5 -107t19.5 -140.5t-19.5 -141t-59.5 -107.5t-99.5 -68t-140.5 -23.5q-80 0 -140 23.5t-99.5 68t-59 107.5t-19.5 141zM179 712q20 48 49 78t72 30q14 0 32.5 -4t45.5 -14t47.5 -15.5t38.5 -5.5q21 0 34 10t32 40l26 -15
q-25 -56 -52.5 -81.5t-62.5 -25.5q-14 0 -32.5 4t-47.5 15q-55 20 -88 20q-23 0 -37 -10.5t-31 -40.5z" />
    <glyph glyph-name="Odieresis" unicode="&#xd6;" horiz-adv-x="725" 
d="M191 328q0 -31 2.5 -65.5t9.5 -68t19 -64t31.5 -53.5t46.5 -37t63 -14q56 0 89.5 29.5t52.5 74.5t25 97.5t6 98.5q0 31 -2.5 65t-9.5 67t-19 63.5t-31.5 53.5t-46.5 36.5t-64 13.5q-55 0 -89 -29.5t-52.5 -74t-24.5 -96.5t-6 -97zM45 326q0 78 19.5 140.5t59 107t99.5 68
t140 23.5t140 -23.5t100 -68t59.5 -107t19.5 -140.5t-19.5 -141t-59.5 -107.5t-99.5 -68t-140.5 -23.5q-80 0 -140 23.5t-99.5 68t-59 107.5t-19.5 141zM191 762q0 28 19.5 46t49.5 18q29 0 48.5 -18t19.5 -46q0 -29 -19.5 -47t-48.5 -18q-30 0 -49.5 18t-19.5 47zM407 762
q0 28 19 46t49 18q29 0 48.5 -18t19.5 -46q0 -29 -19.5 -47t-48.5 -18q-30 0 -49 18t-19 47z" />
    <glyph glyph-name="multiply" unicode="&#xd7;" horiz-adv-x="561" 
d="M120 20l-50 51l160 162l-160 161l50 54l161 -163l161 163l50 -54l-160 -161l160 -162l-50 -51l-161 162z" />
    <glyph glyph-name="Oslash" unicode="&#xd8;" horiz-adv-x="725" 
d="M129 -28l39 67q-63 43 -93 115.5t-30 171.5q0 78 19.5 140.5t59 107t99.5 68t140 23.5q88 0 154 -29l37 64l40 -23l-38 -63q64 -43 95 -116t31 -172q0 -78 -19.5 -141t-59.5 -107.5t-99.5 -68t-140.5 -23.5q-90 0 -155 30l-41 -71zM363 26q56 0 89.5 29.5t52.5 74.5
t25 97.5t6 98.5t-6 99t-26 98l-256 -440q20 -26 48 -41.5t67 -15.5zM191 328q0 -47 6 -99t25 -97l255 438q-19 25 -47 40t-67 15q-55 0 -89 -29.5t-52.5 -74t-24.5 -96.5t-6 -97z" />
    <glyph glyph-name="Ugrave" unicode="&#xd9;" horiz-adv-x="746" 
d="M31 618v32h284v-32q-26 -1 -41.5 -3.5t-23.5 -8t-10 -16.5t-2 -29v-343q0 -41 6.5 -76.5t22 -61t41.5 -40t65 -14.5t65.5 14.5t42 40t22.5 61t7 76.5v343q0 18 -2 29t-10 16.5t-23.5 8t-41.5 3.5v32h283v-32q-26 -1 -41 -3.5t-22.5 -8t-9.5 -16.5t-2 -29v-339
q0 -125 -68 -180.5t-205 -55.5q-135 0 -198 55t-63 180v340q0 18 -2 29t-9.5 16.5t-23 8t-41.5 3.5zM290 898q11 0 25 -9.5t38 -34.5l128 -131l-18 -26l-162 91q-24 14 -42.5 27.5t-18.5 30.5q0 9 4.5 18t11.5 16.5t16 12.5t18 5z" />
    <glyph glyph-name="Uacute" unicode="&#xda;" horiz-adv-x="746" 
d="M31 618v32h284v-32q-26 -1 -41.5 -3.5t-23.5 -8t-10 -16.5t-2 -29v-343q0 -41 6.5 -76.5t22 -61t41.5 -40t65 -14.5t65.5 14.5t42 40t22.5 61t7 76.5v343q0 18 -2 29t-10 16.5t-23.5 8t-41.5 3.5v32h283v-32q-26 -1 -41 -3.5t-22.5 -8t-9.5 -16.5t-2 -29v-339
q0 -125 -68 -180.5t-205 -55.5q-135 0 -198 55t-63 180v340q0 18 -2 29t-9.5 16.5t-23 8t-41.5 3.5zM252 723l127 131q25 25 38.5 34.5t24.5 9.5q9 0 18 -5t15.5 -12.5t11 -16.5t4.5 -18q0 -17 -18 -30.5t-42 -27.5l-162 -91z" />
    <glyph glyph-name="Ucircumflex" unicode="&#xdb;" horiz-adv-x="746" 
d="M31 618v32h284v-32q-26 -1 -41.5 -3.5t-23.5 -8t-10 -16.5t-2 -29v-343q0 -41 6.5 -76.5t22 -61t41.5 -40t65 -14.5t65.5 14.5t42 40t22.5 61t7 76.5v343q0 18 -2 29t-10 16.5t-23.5 8t-41.5 3.5v32h283v-32q-26 -1 -41 -3.5t-22.5 -8t-9.5 -16.5t-2 -29v-339
q0 -125 -68 -180.5t-205 -55.5q-135 0 -198 55t-63 180v340q0 18 -2 29t-9.5 16.5t-23 8t-41.5 3.5zM208 720l127 148q10 11 19.5 19t19.5 8q9 0 18.5 -8t19.5 -19l127 -148l-21 -23l-110 82q-9 7 -18 12t-16 5t-16 -5t-18 -12l-111 -82z" />
    <glyph glyph-name="Udieresis" unicode="&#xdc;" horiz-adv-x="746" 
d="M31 618v32h284v-32q-26 -1 -41.5 -3.5t-23.5 -8t-10 -16.5t-2 -29v-343q0 -41 6.5 -76.5t22 -61t41.5 -40t65 -14.5t65.5 14.5t42 40t22.5 61t7 76.5v343q0 18 -2 29t-10 16.5t-23.5 8t-41.5 3.5v32h283v-32q-26 -1 -41 -3.5t-22.5 -8t-9.5 -16.5t-2 -29v-339
q0 -125 -68 -180.5t-205 -55.5q-135 0 -198 55t-63 180v340q0 18 -2 29t-9.5 16.5t-23 8t-41.5 3.5zM197 762q0 28 19.5 46t49.5 18q29 0 48.5 -18t19.5 -46q0 -29 -19.5 -47t-48.5 -18q-30 0 -49.5 18t-19.5 47zM413 762q0 28 19 46t49 18q29 0 48.5 -18t19.5 -46
q0 -29 -19.5 -47t-48.5 -18q-30 0 -49 18t-19 47z" />
    <glyph glyph-name="Yacute" unicode="&#xdd;" horiz-adv-x="577" 
d="M-7 618v32h279v-32l-53 -6q-14 -2 -15.5 -10t4.5 -20q9 -21 25.5 -56.5t34.5 -74t35.5 -75t29.5 -60.5h2q16 34 33 70.5t33.5 71t30.5 66t23 54.5q13 32 -12 35l-50 5v32h219v-32q-21 -2 -34 -4.5t-23 -8.5t-18 -16t-17 -26q-15 -25 -32 -57t-35.5 -67t-37 -71t-35.5 -71
q-7 -16 -11 -30t-4 -33v-144q0 -19 2 -29.5t11 -16t27.5 -7.5t51.5 -4v-33h-318v33q33 2 52 4t28.5 7.5t12 16t2.5 29.5v136q0 17 -5.5 32t-12.5 29q-11 23 -30 60.5t-40 78.5t-41 79t-32 61q-8 16 -14.5 25.5t-15 15t-20 8t-30.5 3.5zM192 723l127 131q25 25 38.5 34.5
t24.5 9.5q9 0 18 -5t15.5 -12.5t11 -16.5t4.5 -18q0 -17 -18 -30.5t-42 -27.5l-162 -91z" />
    <glyph glyph-name="Thorn" unicode="&#xde;" horiz-adv-x="592" 
d="M245 243q0 -20 10.5 -28t40.5 -8q71 0 102 35.5t31 97.5q0 37 -9.5 63t-26.5 42.5t-39 24t-48 7.5q-40 0 -50.5 -7.5t-10.5 -28.5v-198zM35 0v33q27 2 42.5 4t23.5 7.5t10 16t2 29.5v471q0 18 -2 29t-10 16.5t-23.5 8t-42.5 3.5v32h286v-32q-27 -1 -42 -3.5t-22.5 -8
t-9.5 -16.5t-2 -29v-44h79q52 0 96.5 -8t77.5 -27.5t51.5 -52.5t18.5 -82q0 -58 -25.5 -93.5t-65.5 -54.5t-88.5 -25.5t-95.5 -6.5h-48v-77q0 -19 2 -29.5t11 -16.5t27 -8t50 -4v-32h-300z" />
    <glyph glyph-name="germandbls" unicode="&#xdf;" horiz-adv-x="609" 
d="M28 0v32q22 2 34.5 4t19 7t8 14t1.5 24v369q0 247 227 247q97 0 152.5 -41.5t55.5 -111.5q0 -42 -25 -71q-47 -5 -73 -27.5t-26 -55.5q0 -26 18.5 -51.5t60.5 -52.5q20 -13 39 -29.5t34.5 -36t25 -43t9.5 -52.5q0 -63 -44 -99.5t-121 -36.5q-54 0 -89 18t-35 46
q0 17 13.5 30.5t30.5 13.5q8 0 15 -5t15 -20q24 -43 61 -43q22 0 36 15.5t14 41.5q0 30 -22 56.5t-73 59.5q-100 64 -100 146q0 45 27.5 78.5t74.5 46.5q8 11 13 29t5 41q0 51 -25.5 83t-67.5 32q-51 0 -76.5 -50t-25.5 -147v-380q0 -15 1.5 -24t8.5 -14t20 -7t35 -4v-32
h-252z" />
    <glyph glyph-name="agrave" unicode="&#xe0;" horiz-adv-x="511" 
d="M172 130q0 -35 16.5 -55.5t47.5 -20.5q13 0 27.5 4t26.5 13t20 23t8 34v135q-17 -11 -38.5 -21t-39.5 -18q-37 -14 -52.5 -36.5t-15.5 -57.5zM45 125q0 32 12 53t32 36t47.5 24.5t58.5 18.5q35 11 69.5 24t53.5 27v46q0 46 -19.5 62t-42.5 16t-46 -18t-42 -75
q-5 -16 -13 -25t-23 -9q-8 0 -20.5 3t-24.5 10t-20.5 18t-8.5 27q0 20 15.5 39.5t43.5 35t67.5 25t88.5 9.5q59 0 92 -12t49 -31t20 -42t4 -45v-221q0 -39 11 -58.5t47 -19.5q4 0 10.5 0.5t10.5 1.5l2 -28q-24 -11 -59 -19.5t-63 -8.5q-36 0 -51.5 16t-25.5 39
q-24 -21 -58.5 -38t-80.5 -17q-34 0 -59.5 11.5t-42.5 30t-25.5 43t-8.5 51.5zM175 698q11 0 25 -9.5t38 -34.5l128 -131l-18 -26l-162 91q-24 14 -42.5 27.5t-18.5 30.5q0 9 4.5 18t11.5 16.5t16 12.5t18 5z" />
    <glyph glyph-name="aacute" unicode="&#xe1;" horiz-adv-x="511" 
d="M172 130q0 -35 16.5 -55.5t47.5 -20.5q13 0 27.5 4t26.5 13t20 23t8 34v135q-17 -11 -38.5 -21t-39.5 -18q-37 -14 -52.5 -36.5t-15.5 -57.5zM45 125q0 32 12 53t32 36t47.5 24.5t58.5 18.5q35 11 69.5 24t53.5 27v46q0 46 -19.5 62t-42.5 16t-46 -18t-42 -75
q-5 -16 -13 -25t-23 -9q-8 0 -20.5 3t-24.5 10t-20.5 18t-8.5 27q0 20 15.5 39.5t43.5 35t67.5 25t88.5 9.5q59 0 92 -12t49 -31t20 -42t4 -45v-221q0 -39 11 -58.5t47 -19.5q4 0 10.5 0.5t10.5 1.5l2 -28q-24 -11 -59 -19.5t-63 -8.5q-36 0 -51.5 16t-25.5 39
q-24 -21 -58.5 -38t-80.5 -17q-34 0 -59.5 11.5t-42.5 30t-25.5 43t-8.5 51.5zM137 522l127 131q25 25 38.5 34.5t24.5 9.5q9 0 18 -5t15.5 -12.5t11 -16.5t4.5 -18q0 -17 -18 -30.5t-42 -27.5l-162 -91z" />
    <glyph glyph-name="acircumflex" unicode="&#xe2;" horiz-adv-x="511" 
d="M172 130q0 -35 16.5 -55.5t47.5 -20.5q13 0 27.5 4t26.5 13t20 23t8 34v135q-17 -11 -38.5 -21t-39.5 -18q-37 -14 -52.5 -36.5t-15.5 -57.5zM45 125q0 32 12 53t32 36t47.5 24.5t58.5 18.5q35 11 69.5 24t53.5 27v46q0 46 -19.5 62t-42.5 16t-46 -18t-42 -75
q-5 -16 -13 -25t-23 -9q-8 0 -20.5 3t-24.5 10t-20.5 18t-8.5 27q0 20 15.5 39.5t43.5 35t67.5 25t88.5 9.5q59 0 92 -12t49 -31t20 -42t4 -45v-221q0 -39 11 -58.5t47 -19.5q4 0 10.5 0.5t10.5 1.5l2 -28q-24 -11 -59 -19.5t-63 -8.5q-36 0 -51.5 16t-25.5 39
q-24 -21 -58.5 -38t-80.5 -17q-34 0 -59.5 11.5t-42.5 30t-25.5 43t-8.5 51.5zM93 519l127 148q10 11 19.5 19t19.5 8q9 0 18.5 -8t19.5 -19l127 -148l-21 -23l-110 82q-9 7 -18 12t-16 5t-16 -5t-18 -12l-111 -82z" />
    <glyph glyph-name="atilde" unicode="&#xe3;" horiz-adv-x="511" 
d="M172 130q0 -35 16.5 -55.5t47.5 -20.5q13 0 27.5 4t26.5 13t20 23t8 34v135q-17 -11 -38.5 -21t-39.5 -18q-37 -14 -52.5 -36.5t-15.5 -57.5zM45 125q0 32 12 53t32 36t47.5 24.5t58.5 18.5q35 11 69.5 24t53.5 27v46q0 46 -19.5 62t-42.5 16t-46 -18t-42 -75
q-5 -16 -13 -25t-23 -9q-8 0 -20.5 3t-24.5 10t-20.5 18t-8.5 27q0 20 15.5 39.5t43.5 35t67.5 25t88.5 9.5q59 0 92 -12t49 -31t20 -42t4 -45v-221q0 -39 11 -58.5t47 -19.5q4 0 10.5 0.5t10.5 1.5l2 -28q-24 -11 -59 -19.5t-63 -8.5q-36 0 -51.5 16t-25.5 39
q-24 -21 -58.5 -38t-80.5 -17q-34 0 -59.5 11.5t-42.5 30t-25.5 43t-8.5 51.5zM69 511q20 48 49 78t72 30q14 0 32.5 -4t45.5 -14t47.5 -15.5t38.5 -5.5q21 0 34 10t32 40l26 -15q-25 -56 -52.5 -81.5t-62.5 -25.5q-14 0 -32.5 4t-47.5 15q-55 20 -88 20q-23 0 -37 -10.5
t-31 -40.5z" />
    <glyph glyph-name="adieresis" unicode="&#xe4;" horiz-adv-x="511" 
d="M172 130q0 -35 16.5 -55.5t47.5 -20.5q13 0 27.5 4t26.5 13t20 23t8 34v135q-17 -11 -38.5 -21t-39.5 -18q-37 -14 -52.5 -36.5t-15.5 -57.5zM45 125q0 32 12 53t32 36t47.5 24.5t58.5 18.5q35 11 69.5 24t53.5 27v46q0 46 -19.5 62t-42.5 16t-46 -18t-42 -75
q-5 -16 -13 -25t-23 -9q-8 0 -20.5 3t-24.5 10t-20.5 18t-8.5 27q0 20 15.5 39.5t43.5 35t67.5 25t88.5 9.5q59 0 92 -12t49 -31t20 -42t4 -45v-221q0 -39 11 -58.5t47 -19.5q4 0 10.5 0.5t10.5 1.5l2 -28q-24 -11 -59 -19.5t-63 -8.5q-36 0 -51.5 16t-25.5 39
q-24 -21 -58.5 -38t-80.5 -17q-34 0 -59.5 11.5t-42.5 30t-25.5 43t-8.5 51.5zM82 561q0 28 19.5 46t49.5 18q29 0 48.5 -18t19.5 -46q0 -29 -19.5 -47t-48.5 -18q-30 0 -49.5 18t-19.5 47zM298 561q0 28 19 46t49 18q29 0 48.5 -18t19.5 -46q0 -29 -19.5 -47t-48.5 -18
q-30 0 -49 18t-19 47z" />
    <glyph glyph-name="aring" unicode="&#xe5;" horiz-adv-x="511" 
d="M172 130q0 -35 16.5 -55.5t47.5 -20.5q13 0 27.5 4t26.5 13t20 23t8 34v135q-17 -11 -38.5 -21t-39.5 -18q-37 -14 -52.5 -36.5t-15.5 -57.5zM45 125q0 32 12 53t32 36t47.5 24.5t58.5 18.5q35 11 69.5 24t53.5 27v46q0 46 -19.5 62t-42.5 16t-46 -18t-42 -75
q-5 -16 -13 -25t-23 -9q-8 0 -20.5 3t-24.5 10t-20.5 18t-8.5 27q0 20 15.5 39.5t43.5 35t67.5 25t88.5 9.5q59 0 92 -12t49 -31t20 -42t4 -45v-221q0 -39 11 -58.5t47 -19.5q4 0 10.5 0.5t10.5 1.5l2 -28q-24 -11 -59 -19.5t-63 -8.5q-36 0 -51.5 16t-25.5 39
q-24 -21 -58.5 -38t-80.5 -17q-34 0 -59.5 11.5t-42.5 30t-25.5 43t-8.5 51.5zM210 597q0 -34 14 -49.5t34 -15.5t34 15.5t14 49.5t-14 49.5t-34 15.5t-34 -15.5t-14 -49.5zM150 597q0 28 9.5 47t24.5 31t34.5 17.5t39.5 5.5t39.5 -5.5t34.5 -17.5t24.5 -31t9.5 -47
t-9.5 -47t-24.5 -31t-34.5 -17t-39.5 -5t-39.5 5t-34.5 17t-24.5 31t-9.5 47z" />
    <glyph glyph-name="ae" unicode="&#xe6;" horiz-adv-x="761" 
d="M172 139q0 -39 21.5 -62t54.5 -23q11 0 23.5 3.5t22.5 12t17 22.5t7 36v135q-17 -8 -42.5 -18.5t-49.5 -22.5q-28 -13 -41 -31.5t-13 -51.5zM439 282h139q17 0 23.5 6.5t6.5 24.5q0 15 -2.5 35.5t-11 39t-23.5 31.5t-40 13q-28 0 -46 -15t-28 -37.5t-14 -48.5t-4 -49z
M45 124q0 38 20 67.5t74 48.5q25 9 51 17t50 16.5t44.5 17t33.5 17.5v47q0 23 -5.5 37.5t-14.5 23.5t-20 12.5t-22 3.5t-23 -4t-23.5 -14t-22 -28t-19.5 -47q-6 -16 -13.5 -25t-22.5 -9q-8 0 -20.5 3t-24.5 9.5t-20.5 17t-8.5 24.5q0 22 15 42.5t42.5 36t66 25t85.5 9.5
q50 0 81 -15t48 -41q29 26 65 41t80 15q69 0 108.5 -23t59.5 -54.5t25 -64t5 -52.5q0 -23 -11.5 -30.5t-34.5 -7.5h-254q0 -37 5.5 -71t20.5 -59.5t40.5 -41t64.5 -15.5q48 0 78.5 23.5t51.5 65.5l32 -18q-26 -71 -76.5 -103t-125.5 -32q-64 0 -105 21.5t-64 59.5l-41 -28
q-22 -15 -57 -33.5t-79 -19.5q-35 0 -61 11.5t-43.5 30t-26 43t-8.5 50.5z" />
    <glyph glyph-name="ccedilla" unicode="&#xe7;" horiz-adv-x="471" 
d="M40 223q0 55 14.5 100.5t43 78.5t71.5 51.5t101 18.5q36 0 68.5 -7.5t56.5 -20.5t38.5 -31t14.5 -40q0 -15 -7 -25.5t-17 -17.5t-22 -10t-23 -3q-31 0 -42 32q-11 40 -28 61.5t-43 21.5q-18 0 -35 -10.5t-30 -33t-21 -56.5t-8 -82q0 -99 34.5 -148t96.5 -49q40 0 69 21
t52 69l31 -14q-12 -42 -34 -69t-48 -42.5t-55.5 -22t-56.5 -6.5q-103 0 -162 58.5t-59 175.5zM171 -195q38 0 62 11.5t24 40.5q0 16 -7 26t-17 15.5t-20.5 7.5t-17.5 3l-5 7l59 94h49l-41 -64q12 -2 27.5 -6t29.5 -13t23.5 -24.5t9.5 -38.5q0 -30 -15 -47.5t-36.5 -27
t-45 -12.5t-39.5 -3q-17 0 -40 3v28z" />
    <glyph glyph-name="egrave" unicode="&#xe8;" horiz-adv-x="492" 
d="M172 282h137q17 0 23.5 7t6.5 30q0 13 -2.5 32.5t-11 37.5t-23.5 30.5t-40 12.5q-27 0 -44.5 -15.5t-27.5 -38t-14 -48.5t-4 -48zM40 228q0 51 12.5 95.5t40.5 77.5t71.5 52t104.5 19q66 0 105.5 -20.5t60.5 -50.5t28 -63.5t7 -59.5q0 -23 -11.5 -30.5t-34.5 -7.5h-252
q0 -37 6 -70.5t21 -59.5t40 -41.5t63 -15.5q48 0 78.5 24t50.5 65l32 -18q-22 -60 -69.5 -97.5t-133.5 -37.5q-60 0 -102 19t-68.5 51.5t-38 76t-11.5 92.5zM188 698q11 0 25 -9.5t38 -34.5l128 -131l-18 -26l-162 91q-24 14 -42.5 27.5t-18.5 30.5q0 9 4.5 18t11.5 16.5
t16 12.5t18 5z" />
    <glyph glyph-name="eacute" unicode="&#xe9;" horiz-adv-x="492" 
d="M172 282h137q17 0 23.5 7t6.5 30q0 13 -2.5 32.5t-11 37.5t-23.5 30.5t-40 12.5q-27 0 -44.5 -15.5t-27.5 -38t-14 -48.5t-4 -48zM40 228q0 51 12.5 95.5t40.5 77.5t71.5 52t104.5 19q66 0 105.5 -20.5t60.5 -50.5t28 -63.5t7 -59.5q0 -23 -11.5 -30.5t-34.5 -7.5h-252
q0 -37 6 -70.5t21 -59.5t40 -41.5t63 -15.5q48 0 78.5 24t50.5 65l32 -18q-22 -60 -69.5 -97.5t-133.5 -37.5q-60 0 -102 19t-68.5 51.5t-38 76t-11.5 92.5zM150 522l127 131q25 25 38.5 34.5t24.5 9.5q9 0 18 -5t15.5 -12.5t11 -16.5t4.5 -18q0 -17 -18 -30.5t-42 -27.5
l-162 -91z" />
    <glyph glyph-name="ecircumflex" unicode="&#xea;" horiz-adv-x="492" 
d="M172 282h137q17 0 23.5 7t6.5 30q0 13 -2.5 32.5t-11 37.5t-23.5 30.5t-40 12.5q-27 0 -44.5 -15.5t-27.5 -38t-14 -48.5t-4 -48zM40 228q0 51 12.5 95.5t40.5 77.5t71.5 52t104.5 19q66 0 105.5 -20.5t60.5 -50.5t28 -63.5t7 -59.5q0 -23 -11.5 -30.5t-34.5 -7.5h-252
q0 -37 6 -70.5t21 -59.5t40 -41.5t63 -15.5q48 0 78.5 24t50.5 65l32 -18q-22 -60 -69.5 -97.5t-133.5 -37.5q-60 0 -102 19t-68.5 51.5t-38 76t-11.5 92.5zM106 519l127 148q10 11 19.5 19t19.5 8q9 0 18.5 -8t19.5 -19l127 -148l-21 -23l-110 82q-9 7 -18 12t-16 5t-16 -5
t-18 -12l-111 -82z" />
    <glyph glyph-name="edieresis" unicode="&#xeb;" horiz-adv-x="492" 
d="M172 282h137q17 0 23.5 7t6.5 30q0 13 -2.5 32.5t-11 37.5t-23.5 30.5t-40 12.5q-27 0 -44.5 -15.5t-27.5 -38t-14 -48.5t-4 -48zM40 228q0 51 12.5 95.5t40.5 77.5t71.5 52t104.5 19q66 0 105.5 -20.5t60.5 -50.5t28 -63.5t7 -59.5q0 -23 -11.5 -30.5t-34.5 -7.5h-252
q0 -37 6 -70.5t21 -59.5t40 -41.5t63 -15.5q48 0 78.5 24t50.5 65l32 -18q-22 -60 -69.5 -97.5t-133.5 -37.5q-60 0 -102 19t-68.5 51.5t-38 76t-11.5 92.5zM94 561q0 28 19.5 46t49.5 18q29 0 48.5 -18t19.5 -46q0 -29 -19.5 -47t-48.5 -18q-30 0 -49.5 18t-19.5 47z
M310 561q0 28 19 46t49 18q29 0 48.5 -18t19.5 -46q0 -29 -19.5 -47t-48.5 -18q-30 0 -49 18t-19 47z" />
    <glyph glyph-name="igrave" unicode="&#xec;" horiz-adv-x="296" 
d="M30 0v33q22 2 34.5 3.5t19 6.5t8.5 14t2 25v284q0 27 -6 35t-20 10l-33 5v30l176 26l6 -6v-384q0 -16 2 -25t9 -14t19.5 -6.5t34.5 -3.5v-33h-252zM59 698q11 0 25 -9.5t38 -34.5l128 -131l-18 -26l-162 91q-24 14 -42.5 27.5t-18.5 30.5q0 9 4.5 18t11.5 16.5t16 12.5
t18 5z" />
    <glyph glyph-name="iacute" unicode="&#xed;" horiz-adv-x="296" 
d="M30 0v33q22 2 34.5 3.5t19 6.5t8.5 14t2 25v284q0 27 -6 35t-20 10l-33 5v30l176 26l6 -6v-384q0 -16 2 -25t9 -14t19.5 -6.5t34.5 -3.5v-33h-252zM21 522l127 131q25 25 38.5 34.5t24.5 9.5q9 0 18 -5t15.5 -12.5t11 -16.5t4.5 -18q0 -17 -18 -30.5t-42 -27.5l-162 -91z
" />
    <glyph glyph-name="icircumflex" unicode="&#xee;" horiz-adv-x="296" 
d="M30 0v33q22 2 34.5 3.5t19 6.5t8.5 14t2 25v284q0 27 -6 35t-20 10l-33 5v30l176 26l6 -6v-384q0 -16 2 -25t9 -14t19.5 -6.5t34.5 -3.5v-33h-252zM-23 519l127 148q10 11 19.5 19t19.5 8q9 0 18.5 -8t19.5 -19l127 -148l-21 -23l-110 82q-9 7 -18 12t-16 5t-16 -5
t-18 -12l-111 -82z" />
    <glyph glyph-name="idieresis" unicode="&#xef;" horiz-adv-x="296" 
d="M30 0v33q22 2 34.5 3.5t19 6.5t8.5 14t2 25v284q0 27 -6 35t-20 10l-33 5v30l176 26l6 -6v-384q0 -16 2 -25t9 -14t19.5 -6.5t34.5 -3.5v-33h-252zM-34 561q0 28 19.5 46t49.5 18q29 0 48.5 -18t19.5 -46q0 -29 -19.5 -47t-48.5 -18q-30 0 -49.5 18t-19.5 47zM182 561
q0 28 19 46t49 18q29 0 48.5 -18t19.5 -46q0 -29 -19.5 -47t-48.5 -18q-30 0 -49 18t-19 47z" />
    <glyph glyph-name="eth" unicode="&#xf0;" horiz-adv-x="553" 
d="M172 230q0 -95 24 -148t81 -53t81 53t24 148q0 98 -23 150t-82 52q-57 0 -81 -53.5t-24 -148.5zM40 230q0 113 57.5 177.5t180.5 64.5q10 0 18 -1t17 -3v3q-28 37 -74 80l-122 -54l-24 35l113 50q-20 19 -45 39.5t-54 42.5v9l43 24q35 -20 69 -40.5t63 -42.5l136 59
l23 -35l-121 -53q28 -20 50.5 -42t42.5 -44q50 -57 75.5 -119.5t25.5 -142.5q0 -121 -57 -184.5t-180 -63.5q-61 0 -106 16.5t-74 47.5t-43 76t-14 101z" />
    <glyph glyph-name="ntilde" unicode="&#xf1;" horiz-adv-x="600" 
d="M342 0v33l20 2q22 2 29.5 9t7.5 33v234q0 48 -21.5 72t-60.5 24q-24 0 -43 -8.5t-31.5 -23.5t-19 -34.5t-6.5 -41.5v-222q0 -26 8 -33t29 -9l20 -2v-33h-244v33q22 2 34.5 3.5t19 6.5t8.5 14t2 25v283q0 28 -6 36t-20 10l-33 5v30l169 26l13 -67q43 32 81.5 49.5
t84.5 17.5q69 0 104 -39t35 -108v-243q0 -16 2 -25t9 -14t19.5 -6.5t34.5 -3.5v-33h-245zM124 511q20 48 49 78t72 30q14 0 32.5 -4t45.5 -14t47.5 -15.5t38.5 -5.5q21 0 34 10t32 40l26 -15q-25 -56 -52.5 -81.5t-62.5 -25.5q-14 0 -32.5 4t-47.5 15q-55 20 -88 20
q-23 0 -37 -10.5t-31 -40.5z" />
    <glyph glyph-name="ograve" unicode="&#xf2;" horiz-adv-x="553" 
d="M172 230q0 -96 25 -148.5t81 -52.5q55 0 80 52.5t25 148.5t-25 149t-80 53q-56 0 -81 -53t-25 -149zM40 230q0 56 14 101t43 76.5t74 48t107 16.5q123 0 180 -64.5t57 -177.5q0 -56 -14 -101t-43 -76t-73.5 -47.5t-106.5 -16.5t-107 16.5t-74 47.5t-43 76t-14 101z
M198 698q11 0 25 -9.5t38 -34.5l128 -131l-18 -26l-162 91q-24 14 -42.5 27.5t-18.5 30.5q0 9 4.5 18t11.5 16.5t16 12.5t18 5z" />
    <glyph glyph-name="oacute" unicode="&#xf3;" horiz-adv-x="553" 
d="M172 230q0 -96 25 -148.5t81 -52.5q55 0 80 52.5t25 148.5t-25 149t-80 53q-56 0 -81 -53t-25 -149zM40 230q0 56 14 101t43 76.5t74 48t107 16.5q123 0 180 -64.5t57 -177.5q0 -56 -14 -101t-43 -76t-73.5 -47.5t-106.5 -16.5t-107 16.5t-74 47.5t-43 76t-14 101z
M160 522l127 131q25 25 38.5 34.5t24.5 9.5q9 0 18 -5t15.5 -12.5t11 -16.5t4.5 -18q0 -17 -18 -30.5t-42 -27.5l-162 -91z" />
    <glyph glyph-name="ocircumflex" unicode="&#xf4;" horiz-adv-x="553" 
d="M172 230q0 -96 25 -148.5t81 -52.5q55 0 80 52.5t25 148.5t-25 149t-80 53q-56 0 -81 -53t-25 -149zM40 230q0 56 14 101t43 76.5t74 48t107 16.5q123 0 180 -64.5t57 -177.5q0 -56 -14 -101t-43 -76t-73.5 -47.5t-106.5 -16.5t-107 16.5t-74 47.5t-43 76t-14 101z
M115 519l127 148q10 11 19.5 19t19.5 8q9 0 18.5 -8t19.5 -19l127 -148l-21 -23l-110 82q-9 7 -18 12t-16 5t-16 -5t-18 -12l-111 -82z" />
    <glyph glyph-name="otilde" unicode="&#xf5;" horiz-adv-x="553" 
d="M172 230q0 -96 25 -148.5t81 -52.5q55 0 80 52.5t25 148.5t-25 149t-80 53q-56 0 -81 -53t-25 -149zM40 230q0 56 14 101t43 76.5t74 48t107 16.5q123 0 180 -64.5t57 -177.5q0 -56 -14 -101t-43 -76t-73.5 -47.5t-106.5 -16.5t-107 16.5t-74 47.5t-43 76t-14 101z
M91 511q20 48 49 78t72 30q14 0 32.5 -4t45.5 -14t47.5 -15.5t38.5 -5.5q21 0 34 10t32 40l26 -15q-25 -56 -52.5 -81.5t-62.5 -25.5q-14 0 -32.5 4t-47.5 15q-55 20 -88 20q-23 0 -37 -10.5t-31 -40.5z" />
    <glyph glyph-name="odieresis" unicode="&#xf6;" horiz-adv-x="553" 
d="M172 230q0 -96 25 -148.5t81 -52.5q55 0 80 52.5t25 148.5t-25 149t-80 53q-56 0 -81 -53t-25 -149zM40 230q0 56 14 101t43 76.5t74 48t107 16.5q123 0 180 -64.5t57 -177.5q0 -56 -14 -101t-43 -76t-73.5 -47.5t-106.5 -16.5t-107 16.5t-74 47.5t-43 76t-14 101z
M104 561q0 28 19.5 46t49.5 18q29 0 48.5 -18t19.5 -46q0 -29 -19.5 -47t-48.5 -18q-30 0 -49.5 18t-19.5 47zM320 561q0 28 19 46t49 18q29 0 48.5 -18t19.5 -46q0 -29 -19.5 -47t-48.5 -18q-30 0 -49 18t-19 47z" />
    <glyph glyph-name="divide" unicode="&#xf7;" horiz-adv-x="561" 
d="M54 201v69h453v-69h-453zM219 74q0 26 17.5 44t43.5 18q27 0 44.5 -19t17.5 -43q0 -26 -17.5 -44t-44.5 -18q-26 0 -43.5 18t-17.5 44zM219 396q0 26 17.5 44t43.5 18q27 0 44.5 -18.5t17.5 -43.5q0 -26 -17.5 -44t-44.5 -18q-26 0 -43.5 18t-17.5 44z" />
    <glyph glyph-name="oslash" unicode="&#xf8;" horiz-adv-x="553" 
d="M168 227q0 -31 3 -58t10 -49l169 273q-27 39 -73 39q-57 0 -83 -53.5t-26 -151.5zM200 72q27 -43 77 -43q58 0 83.5 52.5t25.5 148.5q0 73 -15 119zM40 230q0 113 57 177.5t178 64.5q63 0 112 -19l31 49l34 -22l-28 -45q47 -29 68.5 -81t21.5 -123q0 -114 -56.5 -178
t-177.5 -64q-36 0 -65 5.5t-53 16.5l-34 -56l-33 25l31 49q-45 30 -65.5 81t-20.5 120z" />
    <glyph glyph-name="ugrave" unicode="&#xf9;" horiz-adv-x="590" 
d="M27 416v30l174 26l7 -6v-307q0 -55 23.5 -79.5t64.5 -24.5q50 0 71.5 30.5t21.5 76.5v204q0 27 -5.5 35t-19.5 10l-34 5v30l174 26l8 -6v-384q0 -16 2 -25t8.5 -14t19 -6.5t34.5 -3.5v-33h-179l-8 54q-13 -10 -29.5 -21.5t-37.5 -21t-46 -16t-54 -6.5q-27 0 -51.5 6.5
t-43.5 23t-30.5 43.5t-11.5 68v236q0 27 -5 35t-19 10zM212 698q11 0 25 -9.5t38 -34.5l128 -131l-18 -26l-162 91q-24 14 -42.5 27.5t-18.5 30.5q0 9 4.5 18t11.5 16.5t16 12.5t18 5z" />
    <glyph glyph-name="uacute" unicode="&#xfa;" horiz-adv-x="590" 
d="M27 416v30l174 26l7 -6v-307q0 -55 23.5 -79.5t64.5 -24.5q50 0 71.5 30.5t21.5 76.5v204q0 27 -5.5 35t-19.5 10l-34 5v30l174 26l8 -6v-384q0 -16 2 -25t8.5 -14t19 -6.5t34.5 -3.5v-33h-179l-8 54q-13 -10 -29.5 -21.5t-37.5 -21t-46 -16t-54 -6.5q-27 0 -51.5 6.5
t-43.5 23t-30.5 43.5t-11.5 68v236q0 27 -5 35t-19 10zM174 522l127 131q25 25 38.5 34.5t24.5 9.5q9 0 18 -5t15.5 -12.5t11 -16.5t4.5 -18q0 -17 -18 -30.5t-42 -27.5l-162 -91z" />
    <glyph glyph-name="ucircumflex" unicode="&#xfb;" horiz-adv-x="590" 
d="M27 416v30l174 26l7 -6v-307q0 -55 23.5 -79.5t64.5 -24.5q50 0 71.5 30.5t21.5 76.5v204q0 27 -5.5 35t-19.5 10l-34 5v30l174 26l8 -6v-384q0 -16 2 -25t8.5 -14t19 -6.5t34.5 -3.5v-33h-179l-8 54q-13 -10 -29.5 -21.5t-37.5 -21t-46 -16t-54 -6.5q-27 0 -51.5 6.5
t-43.5 23t-30.5 43.5t-11.5 68v236q0 27 -5 35t-19 10zM130 519l127 148q10 11 19.5 19t19.5 8q9 0 18.5 -8t19.5 -19l127 -148l-21 -23l-110 82q-9 7 -18 12t-16 5t-16 -5t-18 -12l-111 -82z" />
    <glyph glyph-name="udieresis" unicode="&#xfc;" horiz-adv-x="590" 
d="M27 416v30l174 26l7 -6v-307q0 -55 23.5 -79.5t64.5 -24.5q50 0 71.5 30.5t21.5 76.5v204q0 27 -5.5 35t-19.5 10l-34 5v30l174 26l8 -6v-384q0 -16 2 -25t8.5 -14t19 -6.5t34.5 -3.5v-33h-179l-8 54q-13 -10 -29.5 -21.5t-37.5 -21t-46 -16t-54 -6.5q-27 0 -51.5 6.5
t-43.5 23t-30.5 43.5t-11.5 68v236q0 27 -5 35t-19 10zM118 561q0 28 19.5 46t49.5 18q29 0 48.5 -18t19.5 -46q0 -29 -19.5 -47t-48.5 -18q-30 0 -49.5 18t-19.5 47zM334 561q0 28 19 46t49 18q29 0 48.5 -18t19.5 -46q0 -29 -19.5 -47t-48.5 -18q-30 0 -49 18t-19 47z" />
    <glyph glyph-name="yacute" unicode="&#xfd;" horiz-adv-x="493" 
d="M-5 428v33h247v-33l-38 -6q-15 -1 -15 -13q0 -8 4 -17l101 -279h3l91 280q2 10 2 13q0 15 -16 16l-42 6v33h187v-33l-18 -2q-22 -3 -33 -15.5t-22 -41.5l-169 -432q-20 -51 -38 -83t-35 -50t-34.5 -24.5t-35.5 -6.5q-33 0 -56.5 16t-23.5 42q0 11 5 23t12.5 21.5t18 15.5
t20.5 6q9 0 16 -4.5t15 -11.5q13 -11 22 -14.5t16 -3.5q11 0 20 9.5t15 22.5t9.5 27.5t3.5 25.5q0 20 -8 42l-156 392q-8 23 -17.5 31t-26.5 11zM159 522l127 131q25 25 38.5 34.5t24.5 9.5q9 0 18 -5t15.5 -12.5t11 -16.5t4.5 -18q0 -17 -18 -30.5t-42 -27.5l-162 -91z" />
    <glyph glyph-name="thorn" unicode="&#xfe;" horiz-adv-x="577" 
d="M206 145q0 -22 4 -43t13.5 -37t27 -26t44.5 -10q60 0 86 52t26 146q0 58 -10.5 93.5t-26 54.5t-33.5 25.5t-34 6.5q-24 0 -42.5 -9.5t-30.5 -25t-18 -35.5t-6 -42v-150zM18 -183q22 1 35 3.5t19.5 7.5t8.5 14t2 24v705q0 29 -5.5 37t-19.5 10l-34 5v30l176 25l6 -6v-266
q16 12 33.5 23.5t36.5 21t41 15.5t47 6q44 0 76.5 -18t54.5 -49.5t33 -73t11 -89.5q0 -76 -19.5 -125t-52.5 -77.5t-78 -39.5t-96 -11q-24 0 -49 4t-38 10v-137q0 -15 2.5 -24t10.5 -14t24.5 -7.5t43.5 -3.5v-33h-269v33z" />
    <glyph glyph-name="ydieresis" unicode="&#xff;" horiz-adv-x="493" 
d="M-5 428v33h247v-33l-38 -6q-15 -1 -15 -13q0 -8 4 -17l101 -279h3l91 280q2 10 2 13q0 15 -16 16l-42 6v33h187v-33l-18 -2q-22 -3 -33 -15.5t-22 -41.5l-169 -432q-20 -51 -38 -83t-35 -50t-34.5 -24.5t-35.5 -6.5q-33 0 -56.5 16t-23.5 42q0 11 5 23t12.5 21.5t18 15.5
t20.5 6q9 0 16 -4.5t15 -11.5q13 -11 22 -14.5t16 -3.5q11 0 20 9.5t15 22.5t9.5 27.5t3.5 25.5q0 20 -8 42l-156 392q-8 23 -17.5 31t-26.5 11zM103 561q0 28 19.5 46t49.5 18q29 0 48.5 -18t19.5 -46q0 -29 -19.5 -47t-48.5 -18q-30 0 -49.5 18t-19.5 47zM319 561
q0 28 19 46t49 18q29 0 48.5 -18t19.5 -46q0 -29 -19.5 -47t-48.5 -18q-30 0 -49 18t-19 47z" />
    <glyph glyph-name="Amacron" unicode="&#x100;" horiz-adv-x="608" 
d="M267 532h-3l-79 -252h163zM-22 33q20 1 32.5 3.5t21 8.5t14 16t11.5 26q9 25 20.5 56t23.5 64.5t24 69.5t24 70l104 303h104l189 -568q5 -15 10.5 -24.5t14 -14.5t21 -7t31.5 -3v-33h-279v33l51 5q22 1 22 18q0 7 -3 17l-53 165h-189l-52 -165q-4 -9 -4 -18q0 -15 23 -18
l54 -4v-33h-215v33zM158 697v73h285v-73h-285z" />
    <glyph glyph-name="amacron" unicode="&#x101;" horiz-adv-x="511" 
d="M172 130q0 -35 16.5 -55.5t47.5 -20.5q13 0 27.5 4t26.5 13t20 23t8 34v135q-17 -11 -38.5 -21t-39.5 -18q-37 -14 -52.5 -36.5t-15.5 -57.5zM45 125q0 32 12 53t32 36t47.5 24.5t58.5 18.5q35 11 69.5 24t53.5 27v46q0 46 -19.5 62t-42.5 16t-46 -18t-42 -75
q-5 -16 -13 -25t-23 -9q-8 0 -20.5 3t-24.5 10t-20.5 18t-8.5 27q0 20 15.5 39.5t43.5 35t67.5 25t88.5 9.5q59 0 92 -12t49 -31t20 -42t4 -45v-221q0 -39 11 -58.5t47 -19.5q4 0 10.5 0.5t10.5 1.5l2 -28q-24 -11 -59 -19.5t-63 -8.5q-36 0 -51.5 16t-25.5 39
q-24 -21 -58.5 -38t-80.5 -17q-34 0 -59.5 11.5t-42.5 30t-25.5 43t-8.5 51.5zM115 496v73h285v-73h-285z" />
    <glyph glyph-name="Abreve" unicode="&#x102;" horiz-adv-x="608" 
d="M267 532h-3l-79 -252h163zM-22 33q20 1 32.5 3.5t21 8.5t14 16t11.5 26q9 25 20.5 56t23.5 64.5t24 69.5t24 70l104 303h104l189 -568q5 -15 10.5 -24.5t14 -14.5t21 -7t31.5 -3v-33h-279v33l51 5q22 1 22 18q0 7 -3 17l-53 165h-189l-52 -165q-4 -9 -4 -18q0 -15 23 -18
l54 -4v-33h-215v33zM158 840h31q1 -8 5 -20t16 -23t33.5 -18.5t56.5 -7.5t56.5 7.5t33.5 18.5t16 23t5 20h32q0 -24 -4 -49.5t-19 -46t-43.5 -34t-77.5 -13.5q-48 0 -76 13t-42.5 33.5t-18.5 46t-4 50.5z" />
    <glyph glyph-name="abreve" unicode="&#x103;" horiz-adv-x="511" 
d="M172 130q0 -35 16.5 -55.5t47.5 -20.5q13 0 27.5 4t26.5 13t20 23t8 34v135q-17 -11 -38.5 -21t-39.5 -18q-37 -14 -52.5 -36.5t-15.5 -57.5zM45 125q0 32 12 53t32 36t47.5 24.5t58.5 18.5q35 11 69.5 24t53.5 27v46q0 46 -19.5 62t-42.5 16t-46 -18t-42 -75
q-5 -16 -13 -25t-23 -9q-8 0 -20.5 3t-24.5 10t-20.5 18t-8.5 27q0 20 15.5 39.5t43.5 35t67.5 25t88.5 9.5q59 0 92 -12t49 -31t20 -42t4 -45v-221q0 -39 11 -58.5t47 -19.5q4 0 10.5 0.5t10.5 1.5l2 -28q-24 -11 -59 -19.5t-63 -8.5q-36 0 -51.5 16t-25.5 39
q-24 -21 -58.5 -38t-80.5 -17q-34 0 -59.5 11.5t-42.5 30t-25.5 43t-8.5 51.5zM114 640h31q1 -8 5 -20t16 -23t33.5 -18.5t56.5 -7.5t56.5 7.5t33.5 18.5t16 23t5 20h32q0 -24 -4 -49.5t-19 -46t-43.5 -34t-77.5 -13.5q-48 0 -76 13t-42.5 33.5t-18.5 46t-4 50.5z" />
    <glyph glyph-name="Aogonek" unicode="&#x104;" horiz-adv-x="608" 
d="M267 532h-3l-79 -252h163zM-22 33q20 1 32.5 3.5t21 8.5t14 16t11.5 26q9 25 20.5 56t23.5 64.5t24 69.5t24 70l104 303h104l189 -568q5 -15 10.5 -24.5t14 -14.5t21 -7t31.5 -3v-33h-279v33l51 5q22 1 22 18q0 7 -3 17l-53 165h-189l-52 -165q-4 -9 -4 -18q0 -15 23 -18
l54 -4v-33h-215v33zM375 -144q0 39 30 78.5t77 65.5h49q-36 -30 -55 -60.5t-19 -59.5q0 -28 15.5 -43.5t42.5 -15.5q13 0 25.5 3.5t20.5 8.5l12 -23q-42 -36 -95 -36q-48 0 -75.5 23t-27.5 59z" />
    <glyph glyph-name="aogonek" unicode="&#x105;" horiz-adv-x="511" 
d="M172 130q0 -35 16.5 -55.5t47.5 -20.5q13 0 27.5 4t26.5 13t20 23t8 34v135q-17 -11 -38.5 -21t-39.5 -18q-37 -14 -52.5 -36.5t-15.5 -57.5zM45 125q0 32 12 53t32 36t47.5 24.5t58.5 18.5q35 11 69.5 24t53.5 27v46q0 46 -19.5 62t-42.5 16t-46 -18t-42 -75
q-5 -16 -13 -25t-23 -9q-8 0 -20.5 3t-24.5 10t-20.5 18t-8.5 27q0 20 15.5 39.5t43.5 35t67.5 25t88.5 9.5q59 0 92 -12t49 -31t20 -42t4 -45v-221q0 -39 11 -58.5t47 -19.5q4 0 10.5 0.5t10.5 1.5l2 -28q-24 -11 -59 -19.5t-63 -8.5q-36 0 -51.5 16t-25.5 39
q-24 -21 -58.5 -38t-80.5 -17q-34 0 -59.5 11.5t-42.5 30t-25.5 43t-8.5 51.5zM310 -144q0 39 30 78.5t77 65.5h49q-36 -30 -55 -60.5t-19 -59.5q0 -28 15.5 -43.5t42.5 -15.5q13 0 25.5 3.5t20.5 8.5l12 -23q-42 -36 -95 -36q-48 0 -75.5 23t-27.5 59z" />
    <glyph glyph-name="Cacute" unicode="&#x106;" horiz-adv-x="652" 
d="M45 318q0 172 93.5 259.5t263.5 87.5q22 0 48.5 -2t53.5 -7t52.5 -12.5t44.5 -18.5v-161h-33q-8 31 -20.5 60t-33 51.5t-49 36t-69.5 13.5q-44 0 -76.5 -15t-55 -39.5t-37 -56t-22.5 -64.5t-11 -64.5t-3 -56.5q0 -27 3 -59.5t11 -66.5t22.5 -65.5t37.5 -56.5t55.5 -40
t76.5 -15q41 0 70.5 14t51 38t37 57t27.5 71h33l-12 -175q-19 -12 -45.5 -20.5t-56 -14t-59 -8t-56.5 -2.5q-175 0 -258.5 87.5t-83.5 244.5zM251 723l127 131q25 25 38.5 34.5t24.5 9.5q9 0 18 -5t15.5 -12.5t11 -16.5t4.5 -18q0 -17 -18 -30.5t-42 -27.5l-162 -91z" />
    <glyph glyph-name="cacute" unicode="&#x107;" horiz-adv-x="471" 
d="M40 223q0 55 14.5 100.5t43 78.5t71.5 51.5t101 18.5q36 0 68.5 -7.5t56.5 -20.5t38.5 -31t14.5 -40q0 -15 -7 -25.5t-17 -17.5t-22 -10t-23 -3q-31 0 -42 32q-11 40 -28 61.5t-43 21.5q-18 0 -35 -10.5t-30 -33t-21 -56.5t-8 -82q0 -99 34.5 -148t96.5 -49q40 0 69 21
t52 69l31 -14q-12 -42 -34 -69t-48 -42.5t-55.5 -22t-56.5 -6.5q-103 0 -162 58.5t-59 175.5zM145 522l127 131q25 25 38.5 34.5t24.5 9.5q9 0 18 -5t15.5 -12.5t11 -16.5t4.5 -18q0 -17 -18 -30.5t-42 -27.5l-162 -91z" />
    <glyph glyph-name="Ccircumflex" unicode="&#x108;" horiz-adv-x="652" 
d="M45 318q0 172 93.5 259.5t263.5 87.5q22 0 48.5 -2t53.5 -7t52.5 -12.5t44.5 -18.5v-161h-33q-8 31 -20.5 60t-33 51.5t-49 36t-69.5 13.5q-44 0 -76.5 -15t-55 -39.5t-37 -56t-22.5 -64.5t-11 -64.5t-3 -56.5q0 -27 3 -59.5t11 -66.5t22.5 -65.5t37.5 -56.5t55.5 -40
t76.5 -15q41 0 70.5 14t51 38t37 57t27.5 71h33l-12 -175q-19 -12 -45.5 -20.5t-56 -14t-59 -8t-56.5 -2.5q-175 0 -258.5 87.5t-83.5 244.5zM207 720l127 148q10 11 19.5 19t19.5 8q9 0 18.5 -8t19.5 -19l127 -148l-21 -23l-110 82q-9 7 -18 12t-16 5t-16 -5t-18 -12
l-111 -82z" />
    <glyph glyph-name="ccircumflex" unicode="&#x109;" horiz-adv-x="471" 
d="M40 223q0 55 14.5 100.5t43 78.5t71.5 51.5t101 18.5q36 0 68.5 -7.5t56.5 -20.5t38.5 -31t14.5 -40q0 -15 -7 -25.5t-17 -17.5t-22 -10t-23 -3q-31 0 -42 32q-11 40 -28 61.5t-43 21.5q-18 0 -35 -10.5t-30 -33t-21 -56.5t-8 -82q0 -99 34.5 -148t96.5 -49q40 0 69 21
t52 69l31 -14q-12 -42 -34 -69t-48 -42.5t-55.5 -22t-56.5 -6.5q-103 0 -162 58.5t-59 175.5zM101 519l127 148q10 11 19.5 19t19.5 8q9 0 18.5 -8t19.5 -19l127 -148l-21 -23l-110 82q-9 7 -18 12t-16 5t-16 -5t-18 -12l-111 -82z" />
    <glyph glyph-name="Cdotaccent" unicode="&#x10a;" horiz-adv-x="652" 
d="M45 318q0 172 93.5 259.5t263.5 87.5q22 0 48.5 -2t53.5 -7t52.5 -12.5t44.5 -18.5v-161h-33q-8 31 -20.5 60t-33 51.5t-49 36t-69.5 13.5q-44 0 -76.5 -15t-55 -39.5t-37 -56t-22.5 -64.5t-11 -64.5t-3 -56.5q0 -27 3 -59.5t11 -66.5t22.5 -65.5t37.5 -56.5t55.5 -40
t76.5 -15q41 0 70.5 14t51 38t37 57t27.5 71h33l-12 -175q-19 -12 -45.5 -20.5t-56 -14t-59 -8t-56.5 -2.5q-175 0 -258.5 87.5t-83.5 244.5zM303 762q0 25 17.5 44.5t50.5 19.5t50.5 -19.5t17.5 -44.5t-17.5 -45t-50.5 -20t-50.5 20t-17.5 45z" />
    <glyph glyph-name="cdotaccent" unicode="&#x10b;" horiz-adv-x="471" 
d="M40 223q0 55 14.5 100.5t43 78.5t71.5 51.5t101 18.5q36 0 68.5 -7.5t56.5 -20.5t38.5 -31t14.5 -40q0 -15 -7 -25.5t-17 -17.5t-22 -10t-23 -3q-31 0 -42 32q-11 40 -28 61.5t-43 21.5q-18 0 -35 -10.5t-30 -33t-21 -56.5t-8 -82q0 -99 34.5 -148t96.5 -49q40 0 69 21
t52 69l31 -14q-12 -42 -34 -69t-48 -42.5t-55.5 -22t-56.5 -6.5q-103 0 -162 58.5t-59 175.5zM197 561q0 25 17.5 44.5t50.5 19.5t50.5 -19.5t17.5 -44.5t-17.5 -45t-50.5 -20t-50.5 20t-17.5 45z" />
    <glyph glyph-name="Ccaron" unicode="&#x10c;" horiz-adv-x="652" 
d="M45 318q0 172 93.5 259.5t263.5 87.5q22 0 48.5 -2t53.5 -7t52.5 -12.5t44.5 -18.5v-161h-33q-8 31 -20.5 60t-33 51.5t-49 36t-69.5 13.5q-44 0 -76.5 -15t-55 -39.5t-37 -56t-22.5 -64.5t-11 -64.5t-3 -56.5q0 -27 3 -59.5t11 -66.5t22.5 -65.5t37.5 -56.5t55.5 -40
t76.5 -15q41 0 70.5 14t51 38t37 57t27.5 71h33l-12 -175q-19 -12 -45.5 -20.5t-56 -14t-59 -8t-56.5 -2.5q-175 0 -258.5 87.5t-83.5 244.5zM206 872l21 23l111 -82q9 -7 18 -12t16 -5t16 5t18 12l110 82l21 -23l-127 -147q-10 -11 -19.5 -19t-18.5 -8q-10 0 -19.5 7.5
t-19.5 19.5z" />
    <glyph glyph-name="ccaron" unicode="&#x10d;" horiz-adv-x="471" 
d="M40 223q0 55 14.5 100.5t43 78.5t71.5 51.5t101 18.5q36 0 68.5 -7.5t56.5 -20.5t38.5 -31t14.5 -40q0 -15 -7 -25.5t-17 -17.5t-22 -10t-23 -3q-31 0 -42 32q-11 40 -28 61.5t-43 21.5q-18 0 -35 -10.5t-30 -33t-21 -56.5t-8 -82q0 -99 34.5 -148t96.5 -49q40 0 69 21
t52 69l31 -14q-12 -42 -34 -69t-48 -42.5t-55.5 -22t-56.5 -6.5q-103 0 -162 58.5t-59 175.5zM99 671l21 23l111 -82q9 -7 18 -12t16 -5t16 5t18 12l110 82l21 -23l-127 -147q-10 -11 -19.5 -19t-18.5 -8q-10 0 -19.5 7.5t-19.5 19.5z" />
    <glyph glyph-name="Dcaron" unicode="&#x10e;" horiz-adv-x="737" 
d="M245 96q0 -33 15.5 -44.5t62.5 -11.5q44 0 84.5 11t72 42.5t50 87t18.5 143.5q0 91 -22.5 155.5t-70 98t-122.5 33.5q-27 0 -44.5 -1t-27 -5t-13 -10.5t-3.5 -18.5v-480zM35 0v33q27 2 42.5 4t23.5 7.5t10 16t2 29.5v471q0 18 -2 29t-10 16.5t-23.5 8t-42.5 3.5v32h319
q177 0 258.5 -82.5t81.5 -235.5q0 -98 -31 -162.5t-83 -102t-119.5 -52.5t-140.5 -15h-285zM174 872l21 23l111 -82q9 -7 18 -12t16 -5t16 5t18 12l110 82l21 -23l-127 -147q-10 -11 -19.5 -19t-18.5 -8q-10 0 -19.5 7.5t-19.5 19.5z" />
    <glyph glyph-name="dcaron" unicode="&#x10f;" horiz-adv-x="684" 
d="M378 0l-7 6v43q-75 -60 -141 -60q-43 0 -78 16.5t-60 47t-38.5 73.5t-13.5 96q0 118 65 184t179 66q53 0 88 -16v134q0 26 -5.5 36t-20.5 12l-34 4v31l177 24l6 -5v-612q0 -15 2 -23.5t8.5 -13t19 -6.5t34.5 -4v-33h-181zM173 241q0 -89 30.5 -138t86.5 -49
q39 0 60.5 24.5t21.5 70.5v191q0 44 -21.5 68t-59.5 24q-56 0 -87 -50t-31 -141zM530 480q23 26 38 53t15 53q0 16 -5.5 28.5t-11.5 23.5t-11.5 22.5t-5.5 25.5q0 23 15 40t42 17q31 0 52.5 -24t21.5 -65q0 -30 -12.5 -58t-31 -53t-41 -46.5t-43.5 -38.5z" />
    <glyph glyph-name="Dcroat" unicode="&#x110;" horiz-adv-x="742" 
d="M32 363h86v198q0 18 -2 29t-10 16.5t-24 8t-43 3.5v32h320q176 0 257.5 -82.5t81.5 -235.5q0 -98 -31 -162.5t-82.5 -102t-119 -52.5t-140.5 -15h-286v33q27 2 43 4t24 7.5t10 16t2 29.5v231h-86v42zM250 96q0 -33 15.5 -44.5t61.5 -11.5q44 0 85 11t72.5 42t50 86.5
t18.5 143.5q0 137 -51.5 212.5t-164.5 75.5q-27 0 -44 -1t-26.5 -5t-13 -10.5t-3.5 -18.5v-213h133v-42h-133v-225z" />
    <glyph glyph-name="dcroat" unicode="&#x111;" horiz-adv-x="572" 
d="M281 545v40h91v5q0 26 -5.5 36t-19.5 12l-34 4v31l176 24l6 -5v-107h63v-40h-63v-465q0 -15 2 -23.5t8.5 -13t19 -6.5t34.5 -4v-33h-181l-6 6v43q-77 -60 -142 -60q-43 0 -78 16.5t-60 47t-38.5 73.5t-13.5 96q0 118 65 184t179 66q53 0 88 -16v89h-91zM173 241
q0 -89 30.5 -138t86.5 -49q39 0 60.5 24.5t21.5 70.5v191q0 44 -21 68t-59 24q-56 0 -87.5 -50t-31.5 -141z" />
    <glyph glyph-name="Emacron" unicode="&#x112;" horiz-adv-x="590" 
d="M35 0v33q27 2 42.5 4t23.5 7.5t10 16t2 29.5v470q0 19 -2 29.5t-10 16.5t-23.5 8.5t-42.5 3.5v32h497v-167h-34q-9 36 -18.5 60.5t-24.5 39.5t-38.5 21.5t-61.5 6.5h-77q-20 0 -26.5 -6.5t-6.5 -27.5v-215h102q25 0 40 4t24 13.5t14 25.5t10 40h33v-211h-33q-5 25 -10 41
t-14 25.5t-24 13.5t-40 4h-102v-206q0 -24 6 -38t20 -21.5t36.5 -10t54.5 -2.5q36 0 62 6t45 21.5t33 44t27 73.5h33l-11 -185h-516zM155 697v73h285v-73h-285z" />
    <glyph glyph-name="emacron" unicode="&#x113;" horiz-adv-x="492" 
d="M172 282h137q17 0 23.5 7t6.5 30q0 13 -2.5 32.5t-11 37.5t-23.5 30.5t-40 12.5q-27 0 -44.5 -15.5t-27.5 -38t-14 -48.5t-4 -48zM40 228q0 51 12.5 95.5t40.5 77.5t71.5 52t104.5 19q66 0 105.5 -20.5t60.5 -50.5t28 -63.5t7 -59.5q0 -23 -11.5 -30.5t-34.5 -7.5h-252
q0 -37 6 -70.5t21 -59.5t40 -41.5t63 -15.5q48 0 78.5 24t50.5 65l32 -18q-22 -60 -69.5 -97.5t-133.5 -37.5q-60 0 -102 19t-68.5 51.5t-38 76t-11.5 92.5zM127 496v73h285v-73h-285z" />
    <glyph glyph-name="Ebreve" unicode="&#x114;" horiz-adv-x="590" 
d="M35 0v33q27 2 42.5 4t23.5 7.5t10 16t2 29.5v470q0 19 -2 29.5t-10 16.5t-23.5 8.5t-42.5 3.5v32h497v-167h-34q-9 36 -18.5 60.5t-24.5 39.5t-38.5 21.5t-61.5 6.5h-77q-20 0 -26.5 -6.5t-6.5 -27.5v-215h102q25 0 40 4t24 13.5t14 25.5t10 40h33v-211h-33q-5 25 -10 41
t-14 25.5t-24 13.5t-40 4h-102v-206q0 -24 6 -38t20 -21.5t36.5 -10t54.5 -2.5q36 0 62 6t45 21.5t33 44t27 73.5h33l-11 -185h-516zM155 840h31q1 -8 5 -20t16 -23t33.5 -18.5t56.5 -7.5t56.5 7.5t33.5 18.5t16 23t5 20h32q0 -24 -4 -49.5t-19 -46t-43.5 -34t-77.5 -13.5
q-48 0 -76 13t-42.5 33.5t-18.5 46t-4 50.5z" />
    <glyph glyph-name="ebreve" unicode="&#x115;" horiz-adv-x="492" 
d="M172 282h137q17 0 23.5 7t6.5 30q0 13 -2.5 32.5t-11 37.5t-23.5 30.5t-40 12.5q-27 0 -44.5 -15.5t-27.5 -38t-14 -48.5t-4 -48zM40 228q0 51 12.5 95.5t40.5 77.5t71.5 52t104.5 19q66 0 105.5 -20.5t60.5 -50.5t28 -63.5t7 -59.5q0 -23 -11.5 -30.5t-34.5 -7.5h-252
q0 -37 6 -70.5t21 -59.5t40 -41.5t63 -15.5q48 0 78.5 24t50.5 65l32 -18q-22 -60 -69.5 -97.5t-133.5 -37.5q-60 0 -102 19t-68.5 51.5t-38 76t-11.5 92.5zM127 640h31q1 -8 5 -20t16 -23t33.5 -18.5t56.5 -7.5t56.5 7.5t33.5 18.5t16 23t5 20h32q0 -24 -4 -49.5t-19 -46
t-43.5 -34t-77.5 -13.5q-48 0 -76 13t-42.5 33.5t-18.5 46t-4 50.5z" />
    <glyph glyph-name="Edotaccent" unicode="&#x116;" horiz-adv-x="590" 
d="M35 0v33q27 2 42.5 4t23.5 7.5t10 16t2 29.5v470q0 19 -2 29.5t-10 16.5t-23.5 8.5t-42.5 3.5v32h497v-167h-34q-9 36 -18.5 60.5t-24.5 39.5t-38.5 21.5t-61.5 6.5h-77q-20 0 -26.5 -6.5t-6.5 -27.5v-215h102q25 0 40 4t24 13.5t14 25.5t10 40h33v-211h-33q-5 25 -10 41
t-14 25.5t-24 13.5t-40 4h-102v-206q0 -24 6 -38t20 -21.5t36.5 -10t54.5 -2.5q36 0 62 6t45 21.5t33 44t27 73.5h33l-11 -185h-516zM230 762q0 25 17.5 44.5t50.5 19.5t50.5 -19.5t17.5 -44.5t-17.5 -45t-50.5 -20t-50.5 20t-17.5 45z" />
    <glyph glyph-name="edotaccent" unicode="&#x117;" horiz-adv-x="492" 
d="M172 282h137q17 0 23.5 7t6.5 30q0 13 -2.5 32.5t-11 37.5t-23.5 30.5t-40 12.5q-27 0 -44.5 -15.5t-27.5 -38t-14 -48.5t-4 -48zM40 228q0 51 12.5 95.5t40.5 77.5t71.5 52t104.5 19q66 0 105.5 -20.5t60.5 -50.5t28 -63.5t7 -59.5q0 -23 -11.5 -30.5t-34.5 -7.5h-252
q0 -37 6 -70.5t21 -59.5t40 -41.5t63 -15.5q48 0 78.5 24t50.5 65l32 -18q-22 -60 -69.5 -97.5t-133.5 -37.5q-60 0 -102 19t-68.5 51.5t-38 76t-11.5 92.5zM202 561q0 25 17.5 44.5t50.5 19.5t50.5 -19.5t17.5 -44.5t-17.5 -45t-50.5 -20t-50.5 20t-17.5 45z" />
    <glyph glyph-name="Eogonek" unicode="&#x118;" horiz-adv-x="590" 
d="M35 0v33q27 2 42.5 4t23.5 7.5t10 16t2 29.5v470q0 19 -2 29.5t-10 16.5t-23.5 8.5t-42.5 3.5v32h497v-167h-34q-9 36 -18.5 60.5t-24.5 39.5t-38.5 21.5t-61.5 6.5h-77q-20 0 -26.5 -6.5t-6.5 -27.5v-215h102q25 0 40 4t24 13.5t14 25.5t10 40h33v-211h-33q-5 25 -10 41
t-14 25.5t-24 13.5t-40 4h-102v-206q0 -24 6 -38t20 -21.5t36.5 -10t54.5 -2.5q36 0 62 6t45 21.5t33 44t27 73.5h33l-11 -185h-516zM213 -144q0 39 30 78.5t77 65.5h49q-36 -30 -55 -60.5t-19 -59.5q0 -28 15.5 -43.5t42.5 -15.5q13 0 25.5 3.5t20.5 8.5l12 -23
q-42 -36 -95 -36q-48 0 -75.5 23t-27.5 59z" />
    <glyph glyph-name="eogonek" unicode="&#x119;" horiz-adv-x="492" 
d="M172 282h137q17 0 23.5 7t6.5 30q0 13 -2.5 32.5t-11 37.5t-23.5 30.5t-40 12.5q-27 0 -44.5 -15.5t-27.5 -38t-14 -48.5t-4 -48zM40 228q0 51 12.5 95.5t40.5 77.5t71.5 52t104.5 19q66 0 105.5 -20.5t60.5 -50.5t28 -63.5t7 -59.5q0 -23 -11.5 -30.5t-34.5 -7.5h-252
q0 -37 6 -70.5t21 -59.5t40 -41.5t63 -15.5q48 0 78.5 24t50.5 65l32 -18q-22 -60 -69.5 -97.5t-133.5 -37.5q-60 0 -102 19t-68.5 51.5t-38 76t-11.5 92.5zM176 -144q0 39 30 78.5t77 65.5h49q-36 -30 -55 -60.5t-19 -59.5q0 -28 15.5 -43.5t42.5 -15.5q13 0 25.5 3.5
t20.5 8.5l12 -23q-42 -36 -95 -36q-48 0 -75.5 23t-27.5 59z" />
    <glyph glyph-name="Ecaron" unicode="&#x11a;" horiz-adv-x="590" 
d="M35 0v33q27 2 42.5 4t23.5 7.5t10 16t2 29.5v470q0 19 -2 29.5t-10 16.5t-23.5 8.5t-42.5 3.5v32h497v-167h-34q-9 36 -18.5 60.5t-24.5 39.5t-38.5 21.5t-61.5 6.5h-77q-20 0 -26.5 -6.5t-6.5 -27.5v-215h102q25 0 40 4t24 13.5t14 25.5t10 40h33v-211h-33q-5 25 -10 41
t-14 25.5t-24 13.5t-40 4h-102v-206q0 -24 6 -38t20 -21.5t36.5 -10t54.5 -2.5q36 0 62 6t45 21.5t33 44t27 73.5h33l-11 -185h-516zM132 872l21 23l111 -82q9 -7 18 -12t16 -5t16 5t18 12l110 82l21 -23l-127 -147q-10 -11 -19.5 -19t-18.5 -8q-10 0 -19.5 7.5t-19.5 19.5z
" />
    <glyph glyph-name="ecaron" unicode="&#x11b;" horiz-adv-x="492" 
d="M172 282h137q17 0 23.5 7t6.5 30q0 13 -2.5 32.5t-11 37.5t-23.5 30.5t-40 12.5q-27 0 -44.5 -15.5t-27.5 -38t-14 -48.5t-4 -48zM40 228q0 51 12.5 95.5t40.5 77.5t71.5 52t104.5 19q66 0 105.5 -20.5t60.5 -50.5t28 -63.5t7 -59.5q0 -23 -11.5 -30.5t-34.5 -7.5h-252
q0 -37 6 -70.5t21 -59.5t40 -41.5t63 -15.5q48 0 78.5 24t50.5 65l32 -18q-22 -60 -69.5 -97.5t-133.5 -37.5q-60 0 -102 19t-68.5 51.5t-38 76t-11.5 92.5zM104 671l21 23l111 -82q9 -7 18 -12t16 -5t16 5t18 12l110 82l21 -23l-127 -147q-10 -11 -19.5 -19t-18.5 -8
q-10 0 -19.5 7.5t-19.5 19.5z" />
    <glyph glyph-name="Gcircumflex" unicode="&#x11c;" horiz-adv-x="691" 
d="M45 313q0 63 16.5 126t57 113t109 81.5t173.5 31.5q54 0 110 -9.5t97 -31.5v-163h-33q-9 33 -23.5 63t-36 52.5t-51 35.5t-69.5 13q-63 0 -103 -30t-62.5 -75t-30.5 -97t-8 -96q0 -20 2.5 -50.5t9.5 -63.5t20.5 -66.5t36.5 -60.5t56.5 -43.5t79.5 -16.5q45 0 67.5 9
t22.5 41v130q0 17 -2 27t-11 16t-26.5 8.5t-47.5 4.5v33h276v-33q-19 -2 -30.5 -4.5t-17.5 -8t-7.5 -15.5t-1.5 -27v-178q-24 -10 -52.5 -18t-58 -13.5t-59 -8.5t-55.5 -3q-82 0 -146.5 19.5t-109.5 59.5t-68.5 101.5t-23.5 146.5zM218 720l127 148q10 11 19.5 19t19.5 8
q9 0 18.5 -8t19.5 -19l127 -148l-21 -23l-110 82q-9 7 -18 12t-16 5t-16 -5t-18 -12l-111 -82z" />
    <glyph glyph-name="gcircumflex" unicode="&#x11d;" horiz-adv-x="503" 
d="M171 315q0 -53 23 -82.5t56 -29.5q35 0 57.5 29.5t22.5 82.5q0 62 -24.5 89.5t-54.5 27.5q-32 0 -56 -27t-24 -90zM146 -83q0 -25 10 -44.5t27 -33t40 -20.5t49 -7q24 0 46 6t39 18t27 31t10 45q0 46 -36.5 63t-97.5 17q-21 0 -41 -2t-36.5 -9.5t-26.5 -22.5t-10 -41z
M33 -90q0 24 11.5 40t28 26.5t35 16.5t33.5 10v2q-16 3 -31 11t-27 19.5t-19.5 25t-7.5 27.5q0 29 26 51.5t70 35.5v2q-20 4 -40 14t-35.5 27t-25.5 41t-10 54q0 27 10.5 55t35 51t65 38t100.5 15q36 0 72 -8.5t58 -22.5l119 40l9 -9l-19 -68l-66 -11q10 -12 17.5 -33
t7.5 -45q0 -42 -17.5 -71t-46 -47t-65.5 -26t-76 -8h-19t-25 2q-10 -3 -25 -12t-15 -27q0 -13 13.5 -24t53.5 -11h83q38 0 71.5 -7t58.5 -24t40 -44.5t15 -68.5q0 -49 -22 -82.5t-56.5 -53.5t-77.5 -29t-84 -9q-47 0 -88 8.5t-71 25.5t-47 42.5t-17 60.5zM85 519l127 148
q10 11 19.5 19t19.5 8q9 0 18.5 -8t19.5 -19l127 -148l-21 -23l-110 82q-9 7 -18 12t-16 5t-16 -5t-18 -12l-111 -82z" />
    <glyph glyph-name="Gbreve" unicode="&#x11e;" horiz-adv-x="691" 
d="M45 313q0 63 16.5 126t57 113t109 81.5t173.5 31.5q54 0 110 -9.5t97 -31.5v-163h-33q-9 33 -23.5 63t-36 52.5t-51 35.5t-69.5 13q-63 0 -103 -30t-62.5 -75t-30.5 -97t-8 -96q0 -20 2.5 -50.5t9.5 -63.5t20.5 -66.5t36.5 -60.5t56.5 -43.5t79.5 -16.5q45 0 67.5 9
t22.5 41v130q0 17 -2 27t-11 16t-26.5 8.5t-47.5 4.5v33h276v-33q-19 -2 -30.5 -4.5t-17.5 -8t-7.5 -15.5t-1.5 -27v-178q-24 -10 -52.5 -18t-58 -13.5t-59 -8.5t-55.5 -3q-82 0 -146.5 19.5t-109.5 59.5t-68.5 101.5t-23.5 146.5zM239 840h31q1 -8 5 -20t16 -23t33.5 -18.5
t56.5 -7.5t56.5 7.5t33.5 18.5t16 23t5 20h32q0 -24 -4 -49.5t-19 -46t-43.5 -34t-77.5 -13.5q-48 0 -76 13t-42.5 33.5t-18.5 46t-4 50.5z" />
    <glyph glyph-name="gbreve" unicode="&#x11f;" horiz-adv-x="503" 
d="M171 315q0 -53 23 -82.5t56 -29.5q35 0 57.5 29.5t22.5 82.5q0 62 -24.5 89.5t-54.5 27.5q-32 0 -56 -27t-24 -90zM146 -83q0 -25 10 -44.5t27 -33t40 -20.5t49 -7q24 0 46 6t39 18t27 31t10 45q0 46 -36.5 63t-97.5 17q-21 0 -41 -2t-36.5 -9.5t-26.5 -22.5t-10 -41z
M33 -90q0 24 11.5 40t28 26.5t35 16.5t33.5 10v2q-16 3 -31 11t-27 19.5t-19.5 25t-7.5 27.5q0 29 26 51.5t70 35.5v2q-20 4 -40 14t-35.5 27t-25.5 41t-10 54q0 27 10.5 55t35 51t65 38t100.5 15q36 0 72 -8.5t58 -22.5l119 40l9 -9l-19 -68l-66 -11q10 -12 17.5 -33
t7.5 -45q0 -42 -17.5 -71t-46 -47t-65.5 -26t-76 -8h-19t-25 2q-10 -3 -25 -12t-15 -27q0 -13 13.5 -24t53.5 -11h83q38 0 71.5 -7t58.5 -24t40 -44.5t15 -68.5q0 -49 -22 -82.5t-56.5 -53.5t-77.5 -29t-84 -9q-47 0 -88 8.5t-71 25.5t-47 42.5t-17 60.5zM106 640h31
q1 -8 5 -20t16 -23t33.5 -18.5t56.5 -7.5t56.5 7.5t33.5 18.5t16 23t5 20h32q0 -24 -4 -49.5t-19 -46t-43.5 -34t-77.5 -13.5q-48 0 -76 13t-42.5 33.5t-18.5 46t-4 50.5z" />
    <glyph glyph-name="Gdotaccent" unicode="&#x120;" horiz-adv-x="691" 
d="M45 313q0 63 16.5 126t57 113t109 81.5t173.5 31.5q54 0 110 -9.5t97 -31.5v-163h-33q-9 33 -23.5 63t-36 52.5t-51 35.5t-69.5 13q-63 0 -103 -30t-62.5 -75t-30.5 -97t-8 -96q0 -20 2.5 -50.5t9.5 -63.5t20.5 -66.5t36.5 -60.5t56.5 -43.5t79.5 -16.5q45 0 67.5 9
t22.5 41v130q0 17 -2 27t-11 16t-26.5 8.5t-47.5 4.5v33h276v-33q-19 -2 -30.5 -4.5t-17.5 -8t-7.5 -15.5t-1.5 -27v-178q-24 -10 -52.5 -18t-58 -13.5t-59 -8.5t-55.5 -3q-82 0 -146.5 19.5t-109.5 59.5t-68.5 101.5t-23.5 146.5zM314 762q0 25 17.5 44.5t50.5 19.5
t50.5 -19.5t17.5 -44.5t-17.5 -45t-50.5 -20t-50.5 20t-17.5 45z" />
    <glyph glyph-name="gdotaccent" unicode="&#x121;" horiz-adv-x="503" 
d="M171 315q0 -53 23 -82.5t56 -29.5q35 0 57.5 29.5t22.5 82.5q0 62 -24.5 89.5t-54.5 27.5q-32 0 -56 -27t-24 -90zM146 -83q0 -25 10 -44.5t27 -33t40 -20.5t49 -7q24 0 46 6t39 18t27 31t10 45q0 46 -36.5 63t-97.5 17q-21 0 -41 -2t-36.5 -9.5t-26.5 -22.5t-10 -41z
M33 -90q0 24 11.5 40t28 26.5t35 16.5t33.5 10v2q-16 3 -31 11t-27 19.5t-19.5 25t-7.5 27.5q0 29 26 51.5t70 35.5v2q-20 4 -40 14t-35.5 27t-25.5 41t-10 54q0 27 10.5 55t35 51t65 38t100.5 15q36 0 72 -8.5t58 -22.5l119 40l9 -9l-19 -68l-66 -11q10 -12 17.5 -33
t7.5 -45q0 -42 -17.5 -71t-46 -47t-65.5 -26t-76 -8h-19t-25 2q-10 -3 -25 -12t-15 -27q0 -13 13.5 -24t53.5 -11h83q38 0 71.5 -7t58.5 -24t40 -44.5t15 -68.5q0 -49 -22 -82.5t-56.5 -53.5t-77.5 -29t-84 -9q-47 0 -88 8.5t-71 25.5t-47 42.5t-17 60.5zM181 561
q0 25 17.5 44.5t50.5 19.5t50.5 -19.5t17.5 -44.5t-17.5 -45t-50.5 -20t-50.5 20t-17.5 45z" />
    <glyph glyph-name="Hcircumflex" unicode="&#x124;" horiz-adv-x="762" 
d="M35 0v33q27 2 42.5 4t23.5 7.5t10 16t2 29.5v471q0 18 -2 29t-10 16.5t-23.5 8t-42.5 3.5v32h287v-32q-27 -1 -42.5 -3.5t-23 -8t-9.5 -16.5t-2 -29v-198h274v198q0 18 -2 29t-10 16.5t-23.5 8t-42.5 3.5v32h286v-32q-27 -1 -42.5 -3.5t-23 -8t-9.5 -16.5t-2 -29v-471
q0 -19 2 -29.5t9.5 -16t23 -7.5t42.5 -4v-33h-286v33q27 2 42.5 4t23.5 7.5t10 16t2 29.5v231h-274v-231q0 -19 2 -29.5t9.5 -16t23 -7.5t42.5 -4v-33h-287zM219 720l127 148q10 11 19.5 19t19.5 8q9 0 18.5 -8t19.5 -19l127 -148l-21 -23l-110 82q-9 7 -18 12t-16 5t-16 -5
t-18 -12l-111 -82z" />
    <glyph glyph-name="hcircumflex" unicode="&#x125;" horiz-adv-x="589" 
d="M22 1v33q22 2 34.5 4t19 7t8.5 14t2 24v509q0 27 -5.5 36t-19.5 11l-33 4v31l172 25l7 -6v-287h2q43 31 79.5 49t83.5 18q69 0 104.5 -39.5t35.5 -107.5v-245q0 -15 2 -23.5t9 -13t19.5 -6.5t33.5 -4v-33h-244v33l20 2q22 2 29.5 9t7.5 33v233q0 97 -83 97
q-49 0 -73 -31.5t-24 -75.5v-223q0 -26 7 -33t28 -9l22 -2v-33h-244zM144 720l127 148q10 11 19.5 19t19.5 8q9 0 18.5 -8t19.5 -19l127 -148l-21 -23l-110 82q-9 7 -18 12t-16 5t-16 -5t-18 -12l-111 -82z" />
    <glyph glyph-name="Hbar" unicode="&#x126;" horiz-adv-x="762" 
d="M245 363h274v160h-274v-160zM717 563v-40h-67v-433q0 -19 2 -29.5t9.5 -16t23 -7.5t42.5 -4v-33h-286v33q27 2 42.5 4t23.5 7.5t10 16t2 29.5v231h-274v-231q0 -19 2 -29.5t9.5 -16t23 -7.5t42.5 -4v-33h-287v33q27 2 42.5 4t23.5 7.5t10 16t2 29.5v433h-68v40h68
q0 18 -2 28t-10 15.5t-23.5 8t-42.5 3.5v32h287v-32q-27 -1 -42 -3.5t-23 -8t-10 -15.5t-2 -28h274q0 18 -2 28t-10 15.5t-23.5 8t-42.5 3.5v32h286v-32q-26 -1 -41.5 -3.5t-23.5 -8t-10 -15.5t-2 -28h67z" />
    <glyph glyph-name="hbar" unicode="&#x127;" horiz-adv-x="592" 
d="M406 567v-40h-199v-121h2q43 31 79.5 49t83.5 18q69 0 104.5 -39.5t35.5 -107.5v-245q0 -15 2 -23.5t9 -13t19.5 -6.5t33.5 -4v-33h-244v33l20 2q22 2 29.5 9t7.5 33v233q0 97 -83 97q-49 0 -73 -31.5t-24 -75.5v-223q0 -26 7 -33t28 -9l22 -2v-33h-244v33q22 2 34.5 4
t19 7t8.5 14t2 24v444h-65v40h65v24q0 28 -5.5 37t-19.5 11l-33 4v31l172 25l7 -6v-126h199z" />
    <glyph glyph-name="Itilde" unicode="&#x128;" horiz-adv-x="356" 
d="M35 0v33q27 2 42.5 4t23.5 7.5t10 16t2 29.5v471q0 18 -2 29t-10 16.5t-23.5 8t-42.5 3.5v32h287v-32q-27 -1 -42.5 -3.5t-23 -8t-9.5 -16.5t-2 -29v-471q0 -19 2 -29.5t9.5 -16t23 -7.5t42.5 -4v-33h-287zM-10 712q20 48 49 78t72 30q14 0 32.5 -4t45.5 -14t47.5 -15.5
t38.5 -5.5q21 0 34 10t32 40l26 -15q-25 -56 -52.5 -81.5t-62.5 -25.5q-14 0 -32.5 4t-47.5 15q-55 20 -88 20q-23 0 -37 -10.5t-31 -40.5z" />
    <glyph glyph-name="itilde" unicode="&#x129;" horiz-adv-x="296" 
d="M30 0v33q22 2 34.5 3.5t19 6.5t8.5 14t2 25v284q0 27 -6 35t-20 10l-33 5v30l176 26l6 -6v-384q0 -16 2 -25t9 -14t19.5 -6.5t34.5 -3.5v-33h-252zM-47 511q20 48 49 78t72 30q14 0 32.5 -4t45.5 -14t47.5 -15.5t38.5 -5.5q21 0 34 10t32 40l26 -15q-25 -56 -52.5 -81.5
t-62.5 -25.5q-14 0 -32.5 4t-47.5 15q-55 20 -88 20q-23 0 -37 -10.5t-31 -40.5z" />
    <glyph glyph-name="Imacron" unicode="&#x12a;" horiz-adv-x="356" 
d="M35 0v33q27 2 42.5 4t23.5 7.5t10 16t2 29.5v471q0 18 -2 29t-10 16.5t-23.5 8t-42.5 3.5v32h287v-32q-27 -1 -42.5 -3.5t-23 -8t-9.5 -16.5t-2 -29v-471q0 -19 2 -29.5t9.5 -16t23 -7.5t42.5 -4v-33h-287zM36 697v73h285v-73h-285z" />
    <glyph glyph-name="imacron" unicode="&#x12b;" horiz-adv-x="296" 
d="M30 0v33q22 2 34.5 3.5t19 6.5t8.5 14t2 25v284q0 27 -6 35t-20 10l-33 5v30l176 26l6 -6v-384q0 -16 2 -25t9 -14t19.5 -6.5t34.5 -3.5v-33h-252zM-1 496v73h285v-73h-285z" />
    <glyph glyph-name="Ibreve" unicode="&#x12c;" horiz-adv-x="356" 
d="M35 0v33q27 2 42.5 4t23.5 7.5t10 16t2 29.5v471q0 18 -2 29t-10 16.5t-23.5 8t-42.5 3.5v32h287v-32q-27 -1 -42.5 -3.5t-23 -8t-9.5 -16.5t-2 -29v-471q0 -19 2 -29.5t9.5 -16t23 -7.5t42.5 -4v-33h-287zM35 840h31q1 -8 5 -20t16 -23t33.5 -18.5t56.5 -7.5t56.5 7.5
t33.5 18.5t16 23t5 20h32q0 -24 -4 -49.5t-19 -46t-43.5 -34t-77.5 -13.5q-48 0 -76 13t-42.5 33.5t-18.5 46t-4 50.5z" />
    <glyph glyph-name="ibreve" unicode="&#x12d;" horiz-adv-x="296" 
d="M30 0v33q22 2 34.5 3.5t19 6.5t8.5 14t2 25v284q0 27 -6 35t-20 10l-33 5v30l176 26l6 -6v-384q0 -16 2 -25t9 -14t19.5 -6.5t34.5 -3.5v-33h-252zM5 670h31q1 -8 5 -20t16 -23t33.5 -18.5t56.5 -7.5t56.5 7.5t33.5 18.5t16 23t5 20h32q0 -24 -4 -49.5t-19 -46t-43.5 -34
t-77.5 -13.5q-48 0 -76 13t-42.5 33.5t-18.5 46t-4 50.5z" />
    <glyph glyph-name="Idotaccent" unicode="&#x130;" horiz-adv-x="356" 
d="M35 0v33q27 2 42.5 4t23.5 7.5t10 16t2 29.5v471q0 18 -2 29t-10 16.5t-23.5 8t-42.5 3.5v32h287v-32q-27 -1 -42.5 -3.5t-23 -8t-9.5 -16.5t-2 -29v-471q0 -19 2 -29.5t9.5 -16t23 -7.5t42.5 -4v-33h-287zM110 762q0 25 17.5 44.5t50.5 19.5t50.5 -19.5t17.5 -44.5
t-17.5 -45t-50.5 -20t-50.5 20t-17.5 45z" />
    <glyph glyph-name="dotlessi" unicode="&#x131;" horiz-adv-x="296" 
d="M30 0v33q22 2 34.5 3.5t19 6.5t8.5 14t2 25v284q0 27 -6 35t-20 10l-33 5v30l176 26l6 -6v-384q0 -16 2 -25t9 -14t19.5 -6.5t34.5 -3.5v-33h-252z" />
    <glyph glyph-name="Jcircumflex" unicode="&#x134;" horiz-adv-x="358" 
d="M8 -80q39 11 62 32t34.5 49.5t14.5 62t3 70.5v427q0 18 -2 29t-9.5 16.5t-23.5 8t-43 3.5v32h287v-32q-27 -1 -42.5 -3.5t-23.5 -8t-10 -16.5t-2 -29v-427q0 -128 -59 -183.5t-182 -57.5zM25 720l127 148q10 11 19.5 19t19.5 8q9 0 18.5 -8t19.5 -19l127 -148l-21 -23
l-110 82q-9 7 -18 12t-16 5t-16 -5t-18 -12l-111 -82z" />
    <glyph glyph-name="jcircumflex" unicode="&#x135;" horiz-adv-x="292" 
d="M-14 -194q39 12 61.5 33t34 49.5t14 64.5t2.5 78v335q0 27 -5 35t-19 10l-34 5v30l175 26l7 -6v-447q0 -65 -13 -110.5t-41.5 -74t-72.5 -42t-107 -13.5zM-16 519l127 148q10 11 19.5 19t19.5 8q9 0 18.5 -8t19.5 -19l127 -148l-21 -23l-110 82q-9 7 -18 12t-16 5t-16 -5
t-18 -12l-111 -82z" />
    <glyph glyph-name="Lacute" unicode="&#x139;" horiz-adv-x="550" 
d="M35 0v33q27 2 42.5 4t23.5 7.5t10 16t2 29.5v471q0 18 -2 29t-10 16.5t-23.5 8t-42.5 3.5v32h297v-32q-30 -1 -47.5 -3.5t-26.5 -8t-11 -16.5t-2 -29v-448q0 -24 5 -38.5t17 -22t33 -10t52 -2.5q37 0 63 6t44 22t31 43.5t23 70.5h33l-10 -182h-501zM154 723l127 131
q25 25 38.5 34.5t24.5 9.5q9 0 18 -5t15.5 -12.5t11 -16.5t4.5 -18q0 -17 -18 -30.5t-42 -27.5l-162 -91z" />
    <glyph glyph-name="lacute" unicode="&#x13a;" horiz-adv-x="287" 
d="M22 0v33q21 2 33.5 3.5t19.5 6.5t9 13.5t2 23.5v510q0 29 -5.5 37.5t-19.5 10.5l-33 4v31l175 24l6 -5v-610q0 -16 1.5 -25t8 -14t19 -6.5t34.5 -3.5v-33h-250zM28 743l127 131q25 25 38.5 34.5t24.5 9.5q9 0 18 -5t15.5 -12.5t11 -16.5t4.5 -18q0 -17 -18 -30.5
t-42 -27.5l-162 -91z" />
    <glyph glyph-name="Lcaron" unicode="&#x13d;" horiz-adv-x="561" 
d="M35 0v33q27 2 42.5 4t23.5 7.5t10 16t2 29.5v471q0 18 -2 29t-10 16.5t-23.5 8t-42.5 3.5v32h297v-32q-30 -1 -47.5 -3.5t-26.5 -8t-11 -16.5t-2 -29v-448q0 -24 5 -38.5t17 -22t33 -10t52 -2.5q37 0 63 6t44 22t31 43.5t23 70.5h33l-10 -182h-501zM390 480q23 26 38 53
t15 53q0 16 -5.5 28.5t-11.5 23.5t-11.5 22.5t-5.5 25.5q0 23 15 40t42 17q31 0 52.5 -24t21.5 -65q0 -30 -12.5 -58t-31 -53t-41 -46.5t-43.5 -38.5z" />
    <glyph glyph-name="lcaron" unicode="&#x13e;" horiz-adv-x="434" 
d="M22 0v33q21 2 33.5 3.5t19.5 6.5t9 13.5t2 23.5v510q0 29 -5.5 37.5t-19.5 10.5l-33 4v31l175 24l6 -5v-610q0 -16 1.5 -25t8 -14t19 -6.5t34.5 -3.5v-33h-250zM264 480q23 26 38 53t15 53q0 16 -5.5 28.5t-11.5 23.5t-11.5 22.5t-5.5 25.5q0 23 15 40t42 17
q31 0 52.5 -24t21.5 -65q0 -30 -12.5 -58t-31 -53t-41 -46.5t-43.5 -38.5z" />
    <glyph glyph-name="Lslash" unicode="&#x141;" horiz-adv-x="556" 
d="M380 480v-52l-135 -96v-220q0 -24 5 -38t17 -21.5t33 -10t52 -2.5q37 0 63 6t44.5 22t31 43.5t22.5 70.5h34l-11 -182h-501v33q27 2 42.5 4t23.5 7.5t10 16t2 29.5v147l-80 -57v52l80 57v271q0 19 -2 29.5t-10 16.5t-23.5 8.5t-42.5 3.5v32h297v-32q-30 -1 -47.5 -3.5
t-26.5 -8.5t-11 -16.5t-2 -29.5v-176z" />
    <glyph glyph-name="lslash" unicode="&#x142;" horiz-adv-x="299" 
d="M303 481v-52l-94 -72v-277q0 -15 2 -23.5t8.5 -13.5t19 -6.5t33.5 -3.5v-33h-250v33q22 2 34.5 3.5t19 6.5t8.5 14t2 25v179l-68 -52v52l68 52v277q0 29 -5.5 37.5t-19.5 10.5l-33 4v31l175 24l6 -5v-283z" />
    <glyph glyph-name="Nacute" unicode="&#x143;" horiz-adv-x="714" 
d="M32 0v33l25 3q35 4 43 20.5t8 51.5v453q0 18 -2 29t-9.5 16.5t-23 8t-42.5 3.5v32h208q78 -118 158 -235t161 -236h3v361q0 17 -1 30.5t-6.5 22.5t-17 14.5t-32.5 6.5l-40 4v32h226v-32l-28 -4q-17 -2 -26.5 -7.5t-14 -15t-5.5 -22.5t-1 -29v-540h-90q-89 135 -178.5 270
t-181.5 270h-3v-432q0 -18 1 -31t6.5 -21.5t17 -13t31.5 -6.5l41 -3v-33h-227zM238 723l127 131q25 25 38.5 34.5t24.5 9.5q9 0 18 -5t15.5 -12.5t11 -16.5t4.5 -18q0 -17 -18 -30.5t-42 -27.5l-162 -91z" />
    <glyph glyph-name="nacute" unicode="&#x144;" horiz-adv-x="600" 
d="M342 0v33l20 2q22 2 29.5 9t7.5 33v234q0 48 -21.5 72t-60.5 24q-24 0 -43 -8.5t-31.5 -23.5t-19 -34.5t-6.5 -41.5v-222q0 -26 8 -33t29 -9l20 -2v-33h-244v33q22 2 34.5 3.5t19 6.5t8.5 14t2 25v283q0 28 -6 36t-20 10l-33 5v30l169 26l13 -67q43 32 81.5 49.5
t84.5 17.5q69 0 104 -39t35 -108v-243q0 -16 2 -25t9 -14t19.5 -6.5t34.5 -3.5v-33h-245zM193 522l127 131q25 25 38.5 34.5t24.5 9.5q9 0 18 -5t15.5 -12.5t11 -16.5t4.5 -18q0 -17 -18 -30.5t-42 -27.5l-162 -91z" />
    <glyph glyph-name="uni0145" unicode="&#x145;" horiz-adv-x="714" 
d="M32 0v33l25 3q35 4 43 20.5t8 51.5v453q0 18 -2 29t-9.5 16.5t-23 8t-42.5 3.5v32h208q78 -118 158 -235t161 -236h3v361q0 17 -1 30.5t-6.5 22.5t-17 14.5t-32.5 6.5l-40 4v32h226v-32l-28 -4q-17 -2 -26.5 -7.5t-14 -15t-5.5 -22.5t-1 -29v-540h-90q-89 135 -178.5 270
t-181.5 270h-3v-432q0 -18 1 -31t6.5 -21.5t17 -13t31.5 -6.5l41 -3v-33h-227zM299 -250q20 22 30.5 40t10.5 42q0 11 -5 20t-11 18t-11 19t-5 22q0 19 14.5 34t38.5 15q26 0 44.5 -20.5t18.5 -55.5q0 -24 -9.5 -45.5t-24.5 -40.5t-34.5 -35t-38.5 -31z" />
    <glyph glyph-name="uni0146" unicode="&#x146;" horiz-adv-x="600" 
d="M342 0v33l20 2q22 2 29.5 9t7.5 33v234q0 48 -21.5 72t-60.5 24q-24 0 -43 -8.5t-31.5 -23.5t-19 -34.5t-6.5 -41.5v-222q0 -26 8 -33t29 -9l20 -2v-33h-244v33q22 2 34.5 3.5t19 6.5t8.5 14t2 25v283q0 28 -6 36t-20 10l-33 5v30l169 26l13 -67q43 32 81.5 49.5
t84.5 17.5q69 0 104 -39t35 -108v-243q0 -16 2 -25t9 -14t19.5 -6.5t34.5 -3.5v-33h-245zM247 -250q20 22 30.5 40t10.5 42q0 11 -5 20t-11 18t-11 19t-5 22q0 19 14.5 34t38.5 15q26 0 44.5 -20.5t18.5 -55.5q0 -24 -9.5 -45.5t-24.5 -40.5t-34.5 -35t-38.5 -31z" />
    <glyph glyph-name="Ncaron" unicode="&#x147;" horiz-adv-x="714" 
d="M32 0v33l25 3q35 4 43 20.5t8 51.5v453q0 18 -2 29t-9.5 16.5t-23 8t-42.5 3.5v32h208q78 -118 158 -235t161 -236h3v361q0 17 -1 30.5t-6.5 22.5t-17 14.5t-32.5 6.5l-40 4v32h226v-32l-28 -4q-17 -2 -26.5 -7.5t-14 -15t-5.5 -22.5t-1 -29v-540h-90q-89 135 -178.5 270
t-181.5 270h-3v-432q0 -18 1 -31t6.5 -21.5t17 -13t31.5 -6.5l41 -3v-33h-227zM193 872l21 23l111 -82q9 -7 18 -12t16 -5t16 5t18 12l110 82l21 -23l-127 -147q-10 -11 -19.5 -19t-18.5 -8q-10 0 -19.5 7.5t-19.5 19.5z" />
    <glyph glyph-name="ncaron" unicode="&#x148;" horiz-adv-x="600" 
d="M342 0v33l20 2q22 2 29.5 9t7.5 33v234q0 48 -21.5 72t-60.5 24q-24 0 -43 -8.5t-31.5 -23.5t-19 -34.5t-6.5 -41.5v-222q0 -26 8 -33t29 -9l20 -2v-33h-244v33q22 2 34.5 3.5t19 6.5t8.5 14t2 25v283q0 28 -6 36t-20 10l-33 5v30l169 26l13 -67q43 32 81.5 49.5
t84.5 17.5q69 0 104 -39t35 -108v-243q0 -16 2 -25t9 -14t19.5 -6.5t34.5 -3.5v-33h-245zM147 671l21 23l111 -82q9 -7 18 -12t16 -5t16 5t18 12l110 82l21 -23l-127 -147q-10 -11 -19.5 -19t-18.5 -8q-10 0 -19.5 7.5t-19.5 19.5z" />
    <glyph glyph-name="Eng" unicode="&#x14a;" horiz-adv-x="731" 
d="M35 0v33q27 2 42.5 4t23.5 7.5t10 16t2 29.5v470q0 19 -2 29.5t-10 16.5t-23.5 8.5t-42.5 3.5v32h210v-83q45 40 104.5 69t128.5 29q93 0 134.5 -52t41.5 -160v-423q0 -77 -19 -126.5t-50 -78.5t-69.5 -40.5t-76.5 -11.5q-70 0 -110 26t-40 66q0 14 7 25t17 18.5t22 11
t21 3.5q15 0 24 -8t14.5 -20.5t9.5 -27t9 -27t13.5 -20.5t23.5 -8q23 0 37.5 17t22.5 46.5t10.5 69.5t2.5 87v443q0 63 -26 91t-81 28q-28 0 -58.5 -9.5t-55.5 -27t-41 -42t-16 -54.5v-371q0 -19 2 -29.5t9.5 -16t22.5 -7.5t41 -4v-33h-285z" />
    <glyph glyph-name="eng" unicode="&#x14b;" horiz-adv-x="592" 
d="M30 0v33q22 2 34.5 3.5t19 6.5t8.5 14t2 25v283q0 28 -6 36t-20 10l-33 5v30l169 26l13 -67q40 33 78 50t85 17q73 0 107.5 -39.5t34.5 -107.5v-354q0 -44 -9.5 -80.5t-29 -62.5t-48.5 -40.5t-69 -14.5q-36 0 -61 7t-40.5 18t-22.5 23.5t-7 24.5q0 11 5 21t13.5 17.5
t18.5 12t20 4.5q11 0 20 -5.5t14 -16.5q5 -10 12.5 -22t16 -22t17.5 -16.5t16 -6.5q26 0 26 46q0 13 -2.5 31.5t-5 38.5t-5 40.5t-2.5 37.5v305q0 47 -21.5 71.5t-60.5 24.5q-17 0 -35 -5.5t-32.5 -18.5t-23.5 -33.5t-9 -50.5v-222q0 -28 12.5 -34.5t44.5 -9.5v-33h-244z
" />
    <glyph glyph-name="Omacron" unicode="&#x14c;" horiz-adv-x="725" 
d="M191 328q0 -31 2.5 -65.5t9.5 -68t19 -64t31.5 -53.5t46.5 -37t63 -14q56 0 89.5 29.5t52.5 74.5t25 97.5t6 98.5q0 31 -2.5 65t-9.5 67t-19 63.5t-31.5 53.5t-46.5 36.5t-64 13.5q-55 0 -89 -29.5t-52.5 -74t-24.5 -96.5t-6 -97zM45 326q0 78 19.5 140.5t59 107t99.5 68
t140 23.5t140 -23.5t100 -68t59.5 -107t19.5 -140.5t-19.5 -141t-59.5 -107.5t-99.5 -68t-140.5 -23.5q-80 0 -140 23.5t-99.5 68t-59 107.5t-19.5 141zM224 697v73h285v-73h-285z" />
    <glyph glyph-name="omacron" unicode="&#x14d;" horiz-adv-x="553" 
d="M172 230q0 -96 25 -148.5t81 -52.5q55 0 80 52.5t25 148.5t-25 149t-80 53q-56 0 -81 -53t-25 -149zM40 230q0 56 14 101t43 76.5t74 48t107 16.5q123 0 180 -64.5t57 -177.5q0 -56 -14 -101t-43 -76t-73.5 -47.5t-106.5 -16.5t-107 16.5t-74 47.5t-43 76t-14 101z
M137 496v73h285v-73h-285z" />
    <glyph glyph-name="Obreve" unicode="&#x14e;" horiz-adv-x="725" 
d="M191 328q0 -31 2.5 -65.5t9.5 -68t19 -64t31.5 -53.5t46.5 -37t63 -14q56 0 89.5 29.5t52.5 74.5t25 97.5t6 98.5q0 31 -2.5 65t-9.5 67t-19 63.5t-31.5 53.5t-46.5 36.5t-64 13.5q-55 0 -89 -29.5t-52.5 -74t-24.5 -96.5t-6 -97zM45 326q0 78 19.5 140.5t59 107t99.5 68
t140 23.5t140 -23.5t100 -68t59.5 -107t19.5 -140.5t-19.5 -141t-59.5 -107.5t-99.5 -68t-140.5 -23.5q-80 0 -140 23.5t-99.5 68t-59 107.5t-19.5 141zM224 840h31q1 -8 5 -20t16 -23t33.5 -18.5t56.5 -7.5t56.5 7.5t33.5 18.5t16 23t5 20h32q0 -24 -4 -49.5t-19 -46
t-43.5 -34t-77.5 -13.5q-48 0 -76 13t-42.5 33.5t-18.5 46t-4 50.5z" />
    <glyph glyph-name="obreve" unicode="&#x14f;" horiz-adv-x="553" 
d="M172 230q0 -96 25 -148.5t81 -52.5q55 0 80 52.5t25 148.5t-25 149t-80 53q-56 0 -81 -53t-25 -149zM40 230q0 56 14 101t43 76.5t74 48t107 16.5q123 0 180 -64.5t57 -177.5q0 -56 -14 -101t-43 -76t-73.5 -47.5t-106.5 -16.5t-107 16.5t-74 47.5t-43 76t-14 101z
M137 640h31q1 -8 5 -20t16 -23t33.5 -18.5t56.5 -7.5t56.5 7.5t33.5 18.5t16 23t5 20h32q0 -24 -4 -49.5t-19 -46t-43.5 -34t-77.5 -13.5q-48 0 -76 13t-42.5 33.5t-18.5 46t-4 50.5z" />
    <glyph glyph-name="Ohungarumlaut" unicode="&#x150;" horiz-adv-x="725" 
d="M191 328q0 -31 2.5 -65.5t9.5 -68t19 -64t31.5 -53.5t46.5 -37t63 -14q56 0 89.5 29.5t52.5 74.5t25 97.5t6 98.5q0 31 -2.5 65t-9.5 67t-19 63.5t-31.5 53.5t-46.5 36.5t-64 13.5q-55 0 -89 -29.5t-52.5 -74t-24.5 -96.5t-6 -97zM45 326q0 78 19.5 140.5t59 107t99.5 68
t140 23.5t140 -23.5t100 -68t59.5 -107t19.5 -140.5t-19.5 -141t-59.5 -107.5t-99.5 -68t-140.5 -23.5q-80 0 -140 23.5t-99.5 68t-59 107.5t-19.5 141zM231 714l54 143q8 20 17.5 34t29.5 14q9 0 18.5 -3.5t17.5 -9t13 -13.5t5 -17q0 -23 -32 -59l-94 -106zM405 714l53 143
q8 20 17.5 34t28.5 14q18 0 36 -12.5t18 -30.5q0 -23 -32 -59l-94 -106z" />
    <glyph glyph-name="ohungarumlaut" unicode="&#x151;" horiz-adv-x="553" 
d="M172 230q0 -96 25 -148.5t81 -52.5q55 0 80 52.5t25 148.5t-25 149t-80 53q-56 0 -81 -53t-25 -149zM40 230q0 56 14 101t43 76.5t74 48t107 16.5q123 0 180 -64.5t57 -177.5q0 -56 -14 -101t-43 -76t-73.5 -47.5t-106.5 -16.5t-107 16.5t-74 47.5t-43 76t-14 101z
M127 513l54 143q8 20 17.5 34t29.5 14q9 0 18.5 -3.5t17.5 -9t13 -13.5t5 -17q0 -23 -32 -59l-94 -106zM301 513l53 143q8 20 17.5 34t28.5 14q18 0 36 -12.5t18 -30.5q0 -23 -32 -59l-94 -106z" />
    <glyph glyph-name="OE" unicode="&#x152;" horiz-adv-x="984" 
d="M187 332q0 -52 11 -104t38 -94t72.5 -68t114.5 -26q40 0 62 9t22 37v476q0 31 -20 40t-58 9q-74 0 -121 -25.5t-74 -65.5t-37 -90t-10 -98zM45 322q0 95 29.5 158t82 100.5t124 53.5t156.5 16h488v-167h-33q-9 36 -18 60.5t-24 39.5t-38.5 21.5t-61.5 6.5h-78
q-21 0 -27.5 -7t-6.5 -27v-215h105q25 0 39.5 4t23.5 13.5t14 25.5t10 40h33v-211h-33q-5 25 -10 41t-14 25.5t-23.5 13.5t-39.5 4h-105v-204q0 -44 27.5 -59t91.5 -15q37 0 62.5 5.5t44.5 21t33 44t27 74.5h33l-12 -185h-513q-82 0 -153 15t-123 52t-81.5 99t-29.5 156z
" />
    <glyph glyph-name="oe" unicode="&#x153;" horiz-adv-x="826" 
d="M172 230q0 -96 25 -148.5t80 -52.5t80 52.5t25 148.5t-25 149t-80 53t-80 -53t-25 -149zM505 282h138q17 0 23.5 6.5t6.5 24.5q0 15 -2.5 35.5t-10.5 39t-23 31.5t-40 13q-28 0 -46 -15t-28 -37.5t-14 -48.5t-4 -49zM40 230q0 113 57 177.5t180 64.5q54 0 97 -17t69 -48
q27 26 66.5 45.5t90.5 19.5q48 0 82 -10.5t56.5 -28t35.5 -39t20 -43t8.5 -41t1.5 -32.5q0 -23 -12 -30.5t-35 -7.5h-252q0 -37 5.5 -70.5t20 -59.5t40 -41.5t64.5 -15.5q48 0 78.5 24t51.5 65l31 -18q-23 -60 -69.5 -97.5t-127.5 -37.5q-57 0 -96 17.5t-63 46.5
q-27 -29 -69 -46.5t-94 -17.5q-123 0 -180 64t-57 177z" />
    <glyph glyph-name="Racute" unicode="&#x154;" horiz-adv-x="636" 
d="M245 340h56q70 0 100 36.5t30 98.5q0 39 -10 65.5t-27 42t-39.5 22t-47.5 6.5q-41 0 -51.5 -8.5t-10.5 -31.5v-231zM35 0v33q27 2 42.5 4t23.5 7.5t10 16t2 29.5v471q0 18 -2 29t-10 16.5t-23.5 8t-42.5 3.5v32h309q51 0 92.5 -8.5t71 -28t46 -50.5t16.5 -77
q0 -32 -11.5 -59t-32.5 -47t-50 -33.5t-63 -19.5v-3q37 -9 60 -25t36.5 -37t20.5 -46t11 -52q3 -22 9 -44.5t16 -41t26.5 -31t40.5 -14.5v-33h-72q-48 0 -76.5 12t-45 35t-24.5 55.5t-16 72.5q-6 32 -13 55.5t-19 39t-29.5 23.5t-43.5 8h-49v-211q0 -19 2 -29.5t9.5 -16.5
t21.5 -8t39 -3v-33h-282zM181 723l127 131q25 25 38.5 34.5t24.5 9.5q9 0 18 -5t15.5 -12.5t11 -16.5t4.5 -18q0 -17 -18 -30.5t-42 -27.5l-162 -91z" />
    <glyph glyph-name="racute" unicode="&#x155;" horiz-adv-x="404" 
d="M30 0v33q22 2 34.5 3.5t19 6.5t8.5 14t2 25v283q0 28 -6 36t-20 10l-33 5v30l169 26l12 -80q22 21 39 36t31 25t27 14.5t27 4.5q29 0 44.5 -17.5t15.5 -43.5t-14 -47t-43 -21q-12 0 -21 4t-17 9q-29 19 -47 19t-29.5 -19t-11.5 -61v-213q0 -16 2.5 -25t11 -14t25.5 -6.5
t45 -3.5v-33h-271zM101 522l127 131q25 25 38.5 34.5t24.5 9.5q9 0 18 -5t15.5 -12.5t11 -16.5t4.5 -18q0 -17 -18 -30.5t-42 -27.5l-162 -91z" />
    <glyph glyph-name="Rcaron" unicode="&#x158;" horiz-adv-x="636" 
d="M245 340h56q70 0 100 36.5t30 98.5q0 39 -10 65.5t-27 42t-39.5 22t-47.5 6.5q-41 0 -51.5 -8.5t-10.5 -31.5v-231zM35 0v33q27 2 42.5 4t23.5 7.5t10 16t2 29.5v471q0 18 -2 29t-10 16.5t-23.5 8t-42.5 3.5v32h309q51 0 92.5 -8.5t71 -28t46 -50.5t16.5 -77
q0 -32 -11.5 -59t-32.5 -47t-50 -33.5t-63 -19.5v-3q37 -9 60 -25t36.5 -37t20.5 -46t11 -52q3 -22 9 -44.5t16 -41t26.5 -31t40.5 -14.5v-33h-72q-48 0 -76.5 12t-45 35t-24.5 55.5t-16 72.5q-6 32 -13 55.5t-19 39t-29.5 23.5t-43.5 8h-49v-211q0 -19 2 -29.5t9.5 -16.5
t21.5 -8t39 -3v-33h-282zM136 872l21 23l111 -82q9 -7 18 -12t16 -5t16 5t18 12l110 82l21 -23l-127 -147q-10 -11 -19.5 -19t-18.5 -8q-10 0 -19.5 7.5t-19.5 19.5z" />
    <glyph glyph-name="rcaron" unicode="&#x159;" horiz-adv-x="404" 
d="M30 0v33q22 2 34.5 3.5t19 6.5t8.5 14t2 25v283q0 28 -6 36t-20 10l-33 5v30l169 26l12 -80q22 21 39 36t31 25t27 14.5t27 4.5q29 0 44.5 -17.5t15.5 -43.5t-14 -47t-43 -21q-12 0 -21 4t-17 9q-29 19 -47 19t-29.5 -19t-11.5 -61v-213q0 -16 2.5 -25t11 -14t25.5 -6.5
t45 -3.5v-33h-271zM55 671l21 23l111 -82q9 -7 18 -12t16 -5t16 5t18 12l110 82l21 -23l-127 -147q-10 -11 -19.5 -19t-18.5 -8q-10 0 -19.5 7.5t-19.5 19.5z" />
    <glyph glyph-name="Sacute" unicode="&#x15a;" horiz-adv-x="527" 
d="M46 206h33q24 -86 71.5 -133t110.5 -47q48 0 79 27.5t31 79.5q0 27 -10 49t-27 39t-40 31t-50 25l-14 6q-32 14 -63.5 30.5t-56.5 39.5t-40.5 54.5t-15.5 73.5q0 83 59.5 133.5t167.5 50.5q46 0 93 -10.5t79 -31.5v-147h-32q-17 80 -54.5 114.5t-87.5 34.5q-48 0 -77 -28
t-29 -73q0 -25 10.5 -44.5t28 -34.5t39.5 -26.5t44 -20.5l21 -8q35 -13 67.5 -30.5t57.5 -41.5t39.5 -56.5t14.5 -76.5q0 -37 -12 -72.5t-39.5 -63.5t-72.5 -45.5t-111 -17.5q-25 0 -53.5 3t-55.5 10t-51.5 18t-41.5 27zM158 723l127 131q25 25 38.5 34.5t24.5 9.5
q9 0 18 -5t15.5 -12.5t11 -16.5t4.5 -18q0 -17 -18 -30.5t-42 -27.5l-162 -91z" />
    <glyph glyph-name="sacute" unicode="&#x15b;" horiz-adv-x="441" 
d="M49 168h33q9 -29 22 -54.5t30.5 -44t39.5 -29.5t47 -11q32 0 51.5 17t19.5 46q0 20 -8.5 34.5t-22.5 26t-31.5 19.5t-35.5 14q-30 11 -55.5 24t-43.5 30.5t-28.5 40.5t-10.5 52q0 66 48.5 102.5t132.5 36.5q35 0 71 -7.5t63 -25.5v-120h-32q-11 50 -38 81.5t-69 31.5
q-31 0 -49 -17.5t-18 -43.5q0 -16 8 -29t21.5 -22.5t31 -17.5t35.5 -14q68 -23 105 -56.5t37 -93.5q0 -72 -50.5 -110.5t-135.5 -38.5q-21 0 -43 2.5t-43 8t-39.5 14t-31.5 20.5zM101 522l127 131q25 25 38.5 34.5t24.5 9.5q9 0 18 -5t15.5 -12.5t11 -16.5t4.5 -18
q0 -17 -18 -30.5t-42 -27.5l-162 -91z" />
    <glyph glyph-name="Scircumflex" unicode="&#x15c;" horiz-adv-x="527" 
d="M46 206h33q24 -86 71.5 -133t110.5 -47q48 0 79 27.5t31 79.5q0 27 -10 49t-27 39t-40 31t-50 25l-14 6q-32 14 -63.5 30.5t-56.5 39.5t-40.5 54.5t-15.5 73.5q0 83 59.5 133.5t167.5 50.5q46 0 93 -10.5t79 -31.5v-147h-32q-17 80 -54.5 114.5t-87.5 34.5q-48 0 -77 -28
t-29 -73q0 -25 10.5 -44.5t28 -34.5t39.5 -26.5t44 -20.5l21 -8q35 -13 67.5 -30.5t57.5 -41.5t39.5 -56.5t14.5 -76.5q0 -37 -12 -72.5t-39.5 -63.5t-72.5 -45.5t-111 -17.5q-25 0 -53.5 3t-55.5 10t-51.5 18t-41.5 27zM114 720l127 148q10 11 19.5 19t19.5 8q9 0 18.5 -8
t19.5 -19l127 -148l-21 -23l-110 82q-9 7 -18 12t-16 5t-16 -5t-18 -12l-111 -82z" />
    <glyph glyph-name="scircumflex" unicode="&#x15d;" horiz-adv-x="441" 
d="M49 168h33q9 -29 22 -54.5t30.5 -44t39.5 -29.5t47 -11q32 0 51.5 17t19.5 46q0 20 -8.5 34.5t-22.5 26t-31.5 19.5t-35.5 14q-30 11 -55.5 24t-43.5 30.5t-28.5 40.5t-10.5 52q0 66 48.5 102.5t132.5 36.5q35 0 71 -7.5t63 -25.5v-120h-32q-11 50 -38 81.5t-69 31.5
q-31 0 -49 -17.5t-18 -43.5q0 -16 8 -29t21.5 -22.5t31 -17.5t35.5 -14q68 -23 105 -56.5t37 -93.5q0 -72 -50.5 -110.5t-135.5 -38.5q-21 0 -43 2.5t-43 8t-39.5 14t-31.5 20.5zM57 519l127 148q10 11 19.5 19t19.5 8q9 0 18.5 -8t19.5 -19l127 -148l-21 -23l-110 82
q-9 7 -18 12t-16 5t-16 -5t-18 -12l-111 -82z" />
    <glyph glyph-name="Scedilla" unicode="&#x15e;" horiz-adv-x="527" 
d="M46 206h33q24 -86 71.5 -133t110.5 -47q48 0 79 27.5t31 79.5q0 27 -10 49t-27 39t-40 31t-50 25l-14 6q-32 14 -63.5 30.5t-56.5 39.5t-40.5 54.5t-15.5 73.5q0 83 59.5 133.5t167.5 50.5q46 0 93 -10.5t79 -31.5v-147h-32q-17 80 -54.5 114.5t-87.5 34.5q-48 0 -77 -28
t-29 -73q0 -25 10.5 -44.5t28 -34.5t39.5 -26.5t44 -20.5l21 -8q35 -13 67.5 -30.5t57.5 -41.5t39.5 -56.5t14.5 -76.5q0 -37 -12 -72.5t-39.5 -63.5t-72.5 -45.5t-111 -17.5q-25 0 -53.5 3t-55.5 10t-51.5 18t-41.5 27zM172 -195q38 0 62 11.5t24 40.5q0 16 -7 26t-17 15.5
t-20.5 7.5t-17.5 3l-5 7l59 94h49l-41 -64q12 -2 27.5 -6t29.5 -13t23.5 -24.5t9.5 -38.5q0 -30 -15 -47.5t-36.5 -27t-45 -12.5t-39.5 -3q-17 0 -40 3v28z" />
    <glyph glyph-name="scedilla" unicode="&#x15f;" horiz-adv-x="441" 
d="M49 168h33q9 -29 22 -54.5t30.5 -44t39.5 -29.5t47 -11q32 0 51.5 17t19.5 46q0 20 -8.5 34.5t-22.5 26t-31.5 19.5t-35.5 14q-30 11 -55.5 24t-43.5 30.5t-28.5 40.5t-10.5 52q0 66 48.5 102.5t132.5 36.5q35 0 71 -7.5t63 -25.5v-120h-32q-11 50 -38 81.5t-69 31.5
q-31 0 -49 -17.5t-18 -43.5q0 -16 8 -29t21.5 -22.5t31 -17.5t35.5 -14q68 -23 105 -56.5t37 -93.5q0 -72 -50.5 -110.5t-135.5 -38.5q-21 0 -43 2.5t-43 8t-39.5 14t-31.5 20.5zM120 -195q38 0 62 11.5t24 40.5q0 16 -7 26t-17 15.5t-20.5 7.5t-17.5 3l-5 7l59 94h49
l-41 -64q12 -2 27.5 -6t29.5 -13t23.5 -24.5t9.5 -38.5q0 -30 -15 -47.5t-36.5 -27t-45 -12.5t-39.5 -3q-17 0 -40 3v28z" />
    <glyph glyph-name="Scaron" unicode="&#x160;" horiz-adv-x="527" 
d="M46 206h33q24 -86 71.5 -133t110.5 -47q48 0 79 27.5t31 79.5q0 27 -10 49t-27 39t-40 31t-50 25l-14 6q-32 14 -63.5 30.5t-56.5 39.5t-40.5 54.5t-15.5 73.5q0 83 59.5 133.5t167.5 50.5q46 0 93 -10.5t79 -31.5v-147h-32q-17 80 -54.5 114.5t-87.5 34.5q-48 0 -77 -28
t-29 -73q0 -25 10.5 -44.5t28 -34.5t39.5 -26.5t44 -20.5l21 -8q35 -13 67.5 -30.5t57.5 -41.5t39.5 -56.5t14.5 -76.5q0 -37 -12 -72.5t-39.5 -63.5t-72.5 -45.5t-111 -17.5q-25 0 -53.5 3t-55.5 10t-51.5 18t-41.5 27zM113 872l21 23l111 -82q9 -7 18 -12t16 -5t16 5
t18 12l110 82l21 -23l-127 -147q-10 -11 -19.5 -19t-18.5 -8q-10 0 -19.5 7.5t-19.5 19.5z" />
    <glyph glyph-name="scaron" unicode="&#x161;" horiz-adv-x="441" 
d="M49 168h33q9 -29 22 -54.5t30.5 -44t39.5 -29.5t47 -11q32 0 51.5 17t19.5 46q0 20 -8.5 34.5t-22.5 26t-31.5 19.5t-35.5 14q-30 11 -55.5 24t-43.5 30.5t-28.5 40.5t-10.5 52q0 66 48.5 102.5t132.5 36.5q35 0 71 -7.5t63 -25.5v-120h-32q-11 50 -38 81.5t-69 31.5
q-31 0 -49 -17.5t-18 -43.5q0 -16 8 -29t21.5 -22.5t31 -17.5t35.5 -14q68 -23 105 -56.5t37 -93.5q0 -72 -50.5 -110.5t-135.5 -38.5q-21 0 -43 2.5t-43 8t-39.5 14t-31.5 20.5zM55 671l21 23l111 -82q9 -7 18 -12t16 -5t16 5t18 12l110 82l21 -23l-127 -147
q-10 -11 -19.5 -19t-18.5 -8q-10 0 -19.5 7.5t-19.5 19.5z" />
    <glyph glyph-name="uni0162" unicode="&#x162;" horiz-adv-x="591" 
d="M20 481v169h553v-169h-33q-9 36 -18 61t-23 40.5t-36 22t-57 6.5h-45v-523q0 -15 1.5 -24.5t7.5 -15.5t17 -9t29 -4l40 -2v-33h-320v33l41 2q36 2 44.5 13t8.5 40v523h-44q-34 0 -55.5 -6.5t-35.5 -22t-23.5 -40.5t-18.5 -61h-33zM197 -195q38 0 62 11.5t24 40.5
q0 16 -7 26t-17 15.5t-20.5 7.5t-17.5 3l-5 7l59 94h49l-41 -64q12 -2 27.5 -6t29.5 -13t23.5 -24.5t9.5 -38.5q0 -30 -15 -47.5t-36.5 -27t-45 -12.5t-39.5 -3q-17 0 -40 3v28z" />
    <glyph glyph-name="uni0163" unicode="&#x163;" horiz-adv-x="346" 
d="M33 417v44h64l74 118h44v-118h106v-44h-106v-276q0 -48 18 -68.5t47 -20.5t54 11l9 -27q-33 -21 -70.5 -34t-68.5 -13q-18 0 -37.5 5.5t-36 19t-27.5 36t-11 55.5v312h-59zM98 -195q38 0 62 11.5t24 40.5q0 16 -7 26t-17 15.5t-20.5 7.5t-17.5 3l-5 7l59 94h49l-41 -64
q12 -2 27.5 -6t29.5 -13t23.5 -24.5t9.5 -38.5q0 -30 -15 -47.5t-36.5 -27t-45 -12.5t-39.5 -3q-17 0 -40 3v28z" />
    <glyph glyph-name="Tcaron" unicode="&#x164;" horiz-adv-x="591" 
d="M20 481v169h553v-169h-33q-9 36 -18 61t-23 40.5t-36 22t-57 6.5h-45v-523q0 -15 1.5 -24.5t7.5 -15.5t17 -9t29 -4l40 -2v-33h-320v33l41 2q36 2 44.5 13t8.5 40v523h-44q-34 0 -55.5 -6.5t-35.5 -22t-23.5 -40.5t-18.5 -61h-33zM136 872l21 23l111 -82q9 -7 18 -12
t16 -5t16 5t18 12l110 82l21 -23l-127 -147q-10 -11 -19.5 -19t-18.5 -8q-10 0 -19.5 7.5t-19.5 19.5z" />
    <glyph glyph-name="tcaron" unicode="&#x165;" horiz-adv-x="390" 
d="M33 417v44h64l74 118h44v-118h106v-44h-106v-276q0 -48 18 -68.5t47 -20.5t54 11l9 -27q-33 -21 -70.5 -34t-68.5 -13q-18 0 -37.5 5.5t-36 19t-27.5 36t-11 55.5v312h-59zM264 480q23 26 38 53t15 53q0 16 -5.5 28.5t-11.5 23.5t-11.5 22.5t-5.5 25.5q0 23 15 40t42 17
q31 0 52.5 -24t21.5 -65q0 -30 -12.5 -58t-31 -53t-41 -46.5t-43.5 -38.5z" />
    <glyph glyph-name="Utilde" unicode="&#x168;" horiz-adv-x="746" 
d="M31 618v32h284v-32q-26 -1 -41.5 -3.5t-23.5 -8t-10 -16.5t-2 -29v-343q0 -41 6.5 -76.5t22 -61t41.5 -40t65 -14.5t65.5 14.5t42 40t22.5 61t7 76.5v343q0 18 -2 29t-10 16.5t-23.5 8t-41.5 3.5v32h283v-32q-26 -1 -41 -3.5t-22.5 -8t-9.5 -16.5t-2 -29v-339
q0 -125 -68 -180.5t-205 -55.5q-135 0 -198 55t-63 180v340q0 18 -2 29t-9.5 16.5t-23 8t-41.5 3.5zM184 712q20 48 49 78t72 30q14 0 32.5 -4t45.5 -14t47.5 -15.5t38.5 -5.5q21 0 34 10t32 40l26 -15q-25 -56 -52.5 -81.5t-62.5 -25.5q-14 0 -32.5 4t-47.5 15
q-55 20 -88 20q-23 0 -37 -10.5t-31 -40.5z" />
    <glyph glyph-name="utilde" unicode="&#x169;" horiz-adv-x="590" 
d="M27 416v30l174 26l7 -6v-307q0 -55 23.5 -79.5t64.5 -24.5q50 0 71.5 30.5t21.5 76.5v204q0 27 -5.5 35t-19.5 10l-34 5v30l174 26l8 -6v-384q0 -16 2 -25t8.5 -14t19 -6.5t34.5 -3.5v-33h-179l-8 54q-13 -10 -29.5 -21.5t-37.5 -21t-46 -16t-54 -6.5q-27 0 -51.5 6.5
t-43.5 23t-30.5 43.5t-11.5 68v236q0 27 -5 35t-19 10zM106 511q20 48 49 78t72 30q14 0 32.5 -4t45.5 -14t47.5 -15.5t38.5 -5.5q21 0 34 10t32 40l26 -15q-25 -56 -52.5 -81.5t-62.5 -25.5q-14 0 -32.5 4t-47.5 15q-55 20 -88 20q-23 0 -37 -10.5t-31 -40.5z" />
    <glyph glyph-name="Umacron" unicode="&#x16a;" horiz-adv-x="746" 
d="M31 618v32h284v-32q-26 -1 -41.5 -3.5t-23.5 -8t-10 -16.5t-2 -29v-343q0 -41 6.5 -76.5t22 -61t41.5 -40t65 -14.5t65.5 14.5t42 40t22.5 61t7 76.5v343q0 18 -2 29t-10 16.5t-23.5 8t-41.5 3.5v32h283v-32q-26 -1 -41 -3.5t-22.5 -8t-9.5 -16.5t-2 -29v-339
q0 -125 -68 -180.5t-205 -55.5q-135 0 -198 55t-63 180v340q0 18 -2 29t-9.5 16.5t-23 8t-41.5 3.5zM230 697v73h285v-73h-285z" />
    <glyph glyph-name="umacron" unicode="&#x16b;" horiz-adv-x="590" 
d="M27 416v30l174 26l7 -6v-307q0 -55 23.5 -79.5t64.5 -24.5q50 0 71.5 30.5t21.5 76.5v204q0 27 -5.5 35t-19.5 10l-34 5v30l174 26l8 -6v-384q0 -16 2 -25t8.5 -14t19 -6.5t34.5 -3.5v-33h-179l-8 54q-13 -10 -29.5 -21.5t-37.5 -21t-46 -16t-54 -6.5q-27 0 -51.5 6.5
t-43.5 23t-30.5 43.5t-11.5 68v236q0 27 -5 35t-19 10zM151 496v73h285v-73h-285z" />
    <glyph glyph-name="Ubreve" unicode="&#x16c;" horiz-adv-x="746" 
d="M31 618v32h284v-32q-26 -1 -41.5 -3.5t-23.5 -8t-10 -16.5t-2 -29v-343q0 -41 6.5 -76.5t22 -61t41.5 -40t65 -14.5t65.5 14.5t42 40t22.5 61t7 76.5v343q0 18 -2 29t-10 16.5t-23.5 8t-41.5 3.5v32h283v-32q-26 -1 -41 -3.5t-22.5 -8t-9.5 -16.5t-2 -29v-339
q0 -125 -68 -180.5t-205 -55.5q-135 0 -198 55t-63 180v340q0 18 -2 29t-9.5 16.5t-23 8t-41.5 3.5zM229 840h31q1 -8 5 -20t16 -23t33.5 -18.5t56.5 -7.5t56.5 7.5t33.5 18.5t16 23t5 20h32q0 -24 -4 -49.5t-19 -46t-43.5 -34t-77.5 -13.5q-48 0 -76 13t-42.5 33.5
t-18.5 46t-4 50.5z" />
    <glyph glyph-name="ubreve" unicode="&#x16d;" horiz-adv-x="590" 
d="M27 416v30l174 26l7 -6v-307q0 -55 23.5 -79.5t64.5 -24.5q50 0 71.5 30.5t21.5 76.5v204q0 27 -5.5 35t-19.5 10l-34 5v30l174 26l8 -6v-384q0 -16 2 -25t8.5 -14t19 -6.5t34.5 -3.5v-33h-179l-8 54q-13 -10 -29.5 -21.5t-37.5 -21t-46 -16t-54 -6.5q-27 0 -51.5 6.5
t-43.5 23t-30.5 43.5t-11.5 68v236q0 27 -5 35t-19 10zM151 640h31q1 -8 5 -20t16 -23t33.5 -18.5t56.5 -7.5t56.5 7.5t33.5 18.5t16 23t5 20h32q0 -24 -4 -49.5t-19 -46t-43.5 -34t-77.5 -13.5q-48 0 -76 13t-42.5 33.5t-18.5 46t-4 50.5z" />
    <glyph glyph-name="Uring" unicode="&#x16e;" horiz-adv-x="746" 
d="M31 618v32h284v-32q-26 -1 -41.5 -3.5t-23.5 -8t-10 -16.5t-2 -29v-343q0 -41 6.5 -76.5t22 -61t41.5 -40t65 -14.5t65.5 14.5t42 40t22.5 61t7 76.5v343q0 18 -2 29t-10 16.5t-23.5 8t-41.5 3.5v32h283v-32q-26 -1 -41 -3.5t-22.5 -8t-9.5 -16.5t-2 -29v-339
q0 -125 -68 -180.5t-205 -55.5q-135 0 -198 55t-63 180v340q0 18 -2 29t-9.5 16.5t-23 8t-41.5 3.5zM324 799q0 -34 14 -49.5t34 -15.5t34 15.5t14 49.5t-14 49.5t-34 15.5t-34 -15.5t-14 -49.5zM264 799q0 28 9.5 47t24.5 31t34.5 17.5t39.5 5.5t39.5 -5.5t34.5 -17.5
t24.5 -31t9.5 -47t-9.5 -47t-24.5 -31t-34.5 -17t-39.5 -5t-39.5 5t-34.5 17t-24.5 31t-9.5 47z" />
    <glyph glyph-name="uring" unicode="&#x16f;" horiz-adv-x="590" 
d="M27 416v30l174 26l7 -6v-307q0 -55 23.5 -79.5t64.5 -24.5q50 0 71.5 30.5t21.5 76.5v204q0 27 -5.5 35t-19.5 10l-34 5v30l174 26l8 -6v-384q0 -16 2 -25t8.5 -14t19 -6.5t34.5 -3.5v-33h-179l-8 54q-13 -10 -29.5 -21.5t-37.5 -21t-46 -16t-54 -6.5q-27 0 -51.5 6.5
t-43.5 23t-30.5 43.5t-11.5 68v236q0 27 -5 35t-19 10zM246 597q0 -34 14 -49.5t34 -15.5t34 15.5t14 49.5t-14 49.5t-34 15.5t-34 -15.5t-14 -49.5zM186 597q0 28 9.5 47t24.5 31t34.5 17.5t39.5 5.5t39.5 -5.5t34.5 -17.5t24.5 -31t9.5 -47t-9.5 -47t-24.5 -31t-34.5 -17
t-39.5 -5t-39.5 5t-34.5 17t-24.5 31t-9.5 47z" />
    <glyph glyph-name="Uhungarumlaut" unicode="&#x170;" horiz-adv-x="746" 
d="M31 618v32h284v-32q-26 -1 -41.5 -3.5t-23.5 -8t-10 -16.5t-2 -29v-343q0 -41 6.5 -76.5t22 -61t41.5 -40t65 -14.5t65.5 14.5t42 40t22.5 61t7 76.5v343q0 18 -2 29t-10 16.5t-23.5 8t-41.5 3.5v32h283v-32q-26 -1 -41 -3.5t-22.5 -8t-9.5 -16.5t-2 -29v-339
q0 -125 -68 -180.5t-205 -55.5q-135 0 -198 55t-63 180v340q0 18 -2 29t-9.5 16.5t-23 8t-41.5 3.5zM237 714l54 143q8 20 17.5 34t29.5 14q9 0 18.5 -3.5t17.5 -9t13 -13.5t5 -17q0 -23 -32 -59l-94 -106zM411 714l53 143q8 20 17.5 34t28.5 14q18 0 36 -12.5t18 -30.5
q0 -23 -32 -59l-94 -106z" />
    <glyph glyph-name="uhungarumlaut" unicode="&#x171;" horiz-adv-x="590" 
d="M27 416v30l174 26l7 -6v-307q0 -55 23.5 -79.5t64.5 -24.5q50 0 71.5 30.5t21.5 76.5v204q0 27 -5.5 35t-19.5 10l-34 5v30l174 26l8 -6v-384q0 -16 2 -25t8.5 -14t19 -6.5t34.5 -3.5v-33h-179l-8 54q-13 -10 -29.5 -21.5t-37.5 -21t-46 -16t-54 -6.5q-27 0 -51.5 6.5
t-43.5 23t-30.5 43.5t-11.5 68v236q0 27 -5 35t-19 10zM141 513l54 143q8 20 17.5 34t29.5 14q9 0 18.5 -3.5t17.5 -9t13 -13.5t5 -17q0 -23 -32 -59l-94 -106zM315 513l53 143q8 20 17.5 34t28.5 14q18 0 36 -12.5t18 -30.5q0 -23 -32 -59l-94 -106z" />
    <glyph glyph-name="Wcircumflex" unicode="&#x174;" horiz-adv-x="886" 
d="M-6 619v31h257v-31l-44 -6q-10 -2 -15.5 -5t-5.5 -12q0 -6 3 -20l114 -439h3l125 498h93l136 -498h4l58 231q5 18 11 43.5t12.5 52.5t12.5 53t10 45q2 9 3 16.5t1 12.5q0 18 -20 21l-56 7v31h215v-31q-20 -2 -32.5 -5t-20.5 -9t-13 -16t-11 -28q-13 -39 -31 -101
t-36 -131l-90 -329h-102l-129 467h-3l-124 -467h-102l-82 309q-20 73 -38.5 139.5t-33.5 120.5q-4 15 -8.5 24.5t-11.5 14.5t-18.5 7.5t-30.5 3.5zM305 720l127 148q10 11 19.5 19t19.5 8q9 0 18.5 -8t19.5 -19l127 -148l-21 -23l-110 82q-9 7 -18 12t-16 5t-16 -5t-18 -12
l-111 -82z" />
    <glyph glyph-name="wcircumflex" unicode="&#x175;" horiz-adv-x="732" 
d="M-3 461h228v-33l-28 -3q-19 -3 -19 -16q0 -5 2 -15l79 -278h3l94 341h89l104 -341h4l34 126q12 47 20.5 82t11.5 48q2 8 3.5 19t1.5 16q0 12 -16 15l-46 6v33h193v-33q-18 -1 -29 -3.5t-18.5 -7.5t-12.5 -14.5t-11 -24.5q-10 -27 -24.5 -71t-30.5 -96l-65 -211h-93
l-101 312h-4l-94 -312h-92l-72 224q-11 35 -23.5 75.5t-27.5 87.5q-8 25 -19.5 32t-40.5 9v33zM222 519l127 148q10 11 19.5 19t19.5 8q9 0 18.5 -8t19.5 -19l127 -148l-21 -23l-110 82q-9 7 -18 12t-16 5t-16 -5t-18 -12l-111 -82z" />
    <glyph glyph-name="Ycircumflex" unicode="&#x176;" horiz-adv-x="577" 
d="M-7 618v32h279v-32l-53 -6q-14 -2 -15.5 -10t4.5 -20q9 -21 25.5 -56.5t34.5 -74t35.5 -75t29.5 -60.5h2q16 34 33 70.5t33.5 71t30.5 66t23 54.5q13 32 -12 35l-50 5v32h219v-32q-21 -2 -34 -4.5t-23 -8.5t-18 -16t-17 -26q-15 -25 -32 -57t-35.5 -67t-37 -71t-35.5 -71
q-7 -16 -11 -30t-4 -33v-144q0 -19 2 -29.5t11 -16t27.5 -7.5t51.5 -4v-33h-318v33q33 2 52 4t28.5 7.5t12 16t2.5 29.5v136q0 17 -5.5 32t-12.5 29q-11 23 -30 60.5t-40 78.5t-41 79t-32 61q-8 16 -14.5 25.5t-15 15t-20 8t-30.5 3.5zM148 720l127 148q10 11 19.5 19
t19.5 8q9 0 18.5 -8t19.5 -19l127 -148l-21 -23l-110 82q-9 7 -18 12t-16 5t-16 -5t-18 -12l-111 -82z" />
    <glyph glyph-name="ycircumflex" unicode="&#x177;" horiz-adv-x="493" 
d="M-5 428v33h247v-33l-38 -6q-15 -1 -15 -13q0 -8 4 -17l101 -279h3l91 280q2 10 2 13q0 15 -16 16l-42 6v33h187v-33l-18 -2q-22 -3 -33 -15.5t-22 -41.5l-169 -432q-20 -51 -38 -83t-35 -50t-34.5 -24.5t-35.5 -6.5q-33 0 -56.5 16t-23.5 42q0 11 5 23t12.5 21.5t18 15.5
t20.5 6q9 0 16 -4.5t15 -11.5q13 -11 22 -14.5t16 -3.5q11 0 20 9.5t15 22.5t9.5 27.5t3.5 25.5q0 20 -8 42l-156 392q-8 23 -17.5 31t-26.5 11zM114 519l127 148q10 11 19.5 19t19.5 8q9 0 18.5 -8t19.5 -19l127 -148l-21 -23l-110 82q-9 7 -18 12t-16 5t-16 -5t-18 -12
l-111 -82z" />
    <glyph glyph-name="Ydieresis" unicode="&#x178;" horiz-adv-x="577" 
d="M-7 618v32h279v-32l-53 -6q-14 -2 -15.5 -10t4.5 -20q9 -21 25.5 -56.5t34.5 -74t35.5 -75t29.5 -60.5h2q16 34 33 70.5t33.5 71t30.5 66t23 54.5q13 32 -12 35l-50 5v32h219v-32q-21 -2 -34 -4.5t-23 -8.5t-18 -16t-17 -26q-15 -25 -32 -57t-35.5 -67t-37 -71t-35.5 -71
q-7 -16 -11 -30t-4 -33v-144q0 -19 2 -29.5t11 -16t27.5 -7.5t51.5 -4v-33h-318v33q33 2 52 4t28.5 7.5t12 16t2.5 29.5v136q0 17 -5.5 32t-12.5 29q-11 23 -30 60.5t-40 78.5t-41 79t-32 61q-8 16 -14.5 25.5t-15 15t-20 8t-30.5 3.5zM137 762q0 28 19.5 46t49.5 18
q29 0 48.5 -18t19.5 -46q0 -29 -19.5 -47t-48.5 -18q-30 0 -49.5 18t-19.5 47zM353 762q0 28 19 46t49 18q29 0 48.5 -18t19.5 -46q0 -29 -19.5 -47t-48.5 -18q-30 0 -49 18t-19 47z" />
    <glyph glyph-name="Zacute" unicode="&#x179;" horiz-adv-x="582" 
d="M6 18q101 149 199 296.5t196 296.5h-136q-45 0 -74.5 -6t-48 -21.5t-29 -42t-17.5 -67.5h-33v176h494l10 -17q-101 -149 -200 -296t-197 -297h164q53 0 86.5 7.5t55.5 25t35 45.5t24 69h35l-11 -187h-543zM186 723l127 131q25 25 38.5 34.5t24.5 9.5q9 0 18 -5
t15.5 -12.5t11 -16.5t4.5 -18q0 -17 -18 -30.5t-42 -27.5l-162 -91z" />
    <glyph glyph-name="zacute" unicode="&#x17a;" horiz-adv-x="459" 
d="M9 18l281 403h-84q-35 0 -56 -6t-33.5 -19.5t-19.5 -35t-13 -51.5h-34v152h385l9 -18l-278 -403h100q38 0 62.5 5.5t41 19.5t26.5 37.5t19 58.5h34l-10 -161h-420zM131 522l127 131q25 25 38.5 34.5t24.5 9.5q9 0 18 -5t15.5 -12.5t11 -16.5t4.5 -18q0 -17 -18 -30.5
t-42 -27.5l-162 -91z" />
    <glyph glyph-name="Zdotaccent" unicode="&#x17b;" horiz-adv-x="582" 
d="M6 18q101 149 199 296.5t196 296.5h-136q-45 0 -74.5 -6t-48 -21.5t-29 -42t-17.5 -67.5h-33v176h494l10 -17q-101 -149 -200 -296t-197 -297h164q53 0 86.5 7.5t55.5 25t35 45.5t24 69h35l-11 -187h-543zM238 762q0 25 17.5 44.5t50.5 19.5t50.5 -19.5t17.5 -44.5
t-17.5 -45t-50.5 -20t-50.5 20t-17.5 45z" />
    <glyph glyph-name="zdotaccent" unicode="&#x17c;" horiz-adv-x="459" 
d="M9 18l281 403h-84q-35 0 -56 -6t-33.5 -19.5t-19.5 -35t-13 -51.5h-34v152h385l9 -18l-278 -403h100q38 0 62.5 5.5t41 19.5t26.5 37.5t19 58.5h34l-10 -161h-420zM183 561q0 25 17.5 44.5t50.5 19.5t50.5 -19.5t17.5 -44.5t-17.5 -45t-50.5 -20t-50.5 20t-17.5 45z" />
    <glyph glyph-name="Zcaron" unicode="&#x17d;" horiz-adv-x="582" 
d="M6 18q101 149 199 296.5t196 296.5h-136q-45 0 -74.5 -6t-48 -21.5t-29 -42t-17.5 -67.5h-33v176h494l10 -17q-101 -149 -200 -296t-197 -297h164q53 0 86.5 7.5t55.5 25t35 45.5t24 69h35l-11 -187h-543zM140 872l21 23l111 -82q9 -7 18 -12t16 -5t16 5t18 12l110 82
l21 -23l-127 -147q-10 -11 -19.5 -19t-18.5 -8q-10 0 -19.5 7.5t-19.5 19.5z" />
    <glyph glyph-name="zcaron" unicode="&#x17e;" horiz-adv-x="459" 
d="M9 18l281 403h-84q-35 0 -56 -6t-33.5 -19.5t-19.5 -35t-13 -51.5h-34v152h385l9 -18l-278 -403h100q38 0 62.5 5.5t41 19.5t26.5 37.5t19 58.5h34l-10 -161h-420zM85 671l21 23l111 -82q9 -7 18 -12t16 -5t16 5t18 12l110 82l21 -23l-127 -147q-10 -11 -19.5 -19
t-18.5 -8q-10 0 -19.5 7.5t-19.5 19.5z" />
    <glyph glyph-name="longs" unicode="&#x17f;" horiz-adv-x="309" 
d="M26 0v33q21 2 33.5 3.5t19 6.5t8 14t1.5 25v417q0 90 40.5 144t125.5 54q33 0 56.5 -8t38.5 -20t22 -26t7 -26q0 -23 -20.5 -37t-41.5 -14q-14 0 -22.5 6.5t-13.5 17.5q-18 40 -30 54t-24 14q-14 0 -22 -14t-8 -38q0 -13 2.5 -31.5t6 -38.5t6 -39.5t2.5 -35.5v-379
q0 -16 2 -25t9 -14t21 -6.5t38 -3.5v-33h-257z" />
    <glyph glyph-name="uni0186" unicode="&#x186;" horiz-adv-x="652" 
d="M41 188h33q9 -32 23.5 -61.5t36.5 -52t52.5 -35.5t70.5 -13q44 0 76.5 15t55 39.5t37 56t22.5 64t11 64t3 55.5q0 41 -7.5 93.5t-29.5 99.5t-61.5 79.5t-103.5 32.5q-43 0 -72.5 -13t-50 -36.5t-33.5 -56.5t-24 -74h-33v174q45 22 103.5 34t115.5 12q174 0 258 -88
t84 -244q0 -167 -90 -257t-263 -90q-24 0 -52 2t-55.5 6.5t-53 12.5t-44.5 19z" />
    <glyph glyph-name="uni0189" unicode="&#x189;" horiz-adv-x="742" 
d="M32 363h86v198q0 18 -2 29t-10 16.5t-24 8t-43 3.5v32h320q176 0 257.5 -82.5t81.5 -235.5q0 -98 -31 -162.5t-82.5 -102t-119 -52.5t-140.5 -15h-286v33q27 2 43 4t24 7.5t10 16t2 29.5v231h-86v42zM250 96q0 -33 15.5 -44.5t61.5 -11.5q44 0 85 11t72.5 42t50 86.5
t18.5 143.5q0 137 -51.5 212.5t-164.5 75.5q-27 0 -44 -1t-26.5 -5t-13 -10.5t-3.5 -18.5v-213h133v-42h-133v-225z" />
    <glyph glyph-name="uni018E" unicode="&#x18e;" horiz-adv-x="590" 
d="M28 185h33q11 -39 23.5 -67t31.5 -45t46 -25t67 -8q32 0 54 2t36 9.5t20.5 21.5t6.5 39v206h-103q-25 0 -40 -4t-24 -13.5t-14 -25.5t-10 -41h-33v211h33q5 -24 10 -40t14 -25.5t24 -13.5t40 -4h103v215q0 21 -6.5 27.5t-26.5 6.5h-78q-37 0 -60.5 -6.5t-38.5 -21.5
t-24.5 -39.5t-18.5 -60.5h-33v167h495v-32q-27 -1 -43 -3.5t-23.5 -8.5t-9.5 -16.5t-2 -29.5v-470q0 -19 2 -29.5t9.5 -16t23.5 -7.5t43 -4v-33h-516z" />
    <glyph glyph-name="uni018F" unicode="&#x18f;" horiz-adv-x="691" 
d="M192 263q0 -42 8.5 -84.5t26.5 -76t47 -55t70 -21.5q44 0 73.5 24t47 62t25.5 84t9 90h-285q-11 0 -16.5 -4.5t-5.5 -18.5zM44 292q0 16 10.5 26t30.5 10h416q0 47 -6.5 99t-25 96t-51 73t-84.5 29q-39 0 -72.5 -12.5t-59.5 -34.5t-45 -51.5t-28 -64.5h-34v154
q24 12 56 21t65.5 15.5t65.5 9.5t57 3q81 0 139.5 -26t96 -71.5t55 -107t17.5 -133.5t-17.5 -134.5t-54.5 -108.5t-94 -72t-137 -26q-78 0 -134.5 22t-93 62.5t-54.5 96.5t-18 125z" />
    <glyph glyph-name="uni0190" unicode="&#x190;" horiz-adv-x="579" 
d="M43 172q0 37 14 67t37 53.5t53.5 38.5t64.5 22q-136 24 -136 147q0 45 24 76.5t61 51t82 28.5t86 9q23 0 49.5 -2.5t52.5 -8.5t50 -14.5t43 -20.5v-154h-33q-7 36 -19.5 65.5t-31 50.5t-44.5 32.5t-62 11.5q-57 0 -90.5 -36t-33.5 -91q0 -29 10 -52.5t27 -40t40.5 -25.5
t50.5 -9h71v-42h-74q-32 0 -59.5 -12t-47.5 -33t-31 -49.5t-11 -61.5q0 -35 11.5 -62.5t32 -46t47 -28.5t56.5 -10q41 0 69.5 11.5t48.5 33t34 52.5t25 70h33l-11 -168q-39 -23 -93 -31t-103 -8q-67 0 -121 11.5t-92.5 35t-59 58.5t-20.5 81z" />
    <glyph glyph-name="uni0191" unicode="&#x191;" horiz-adv-x="560" 
d="M-112 -133q0 14 7 24.5t17.5 17.5t23 10.5t22.5 3.5q22 0 32.5 -17t18.5 -38t17.5 -38t28.5 -17q21 0 33.5 11t19 28.5t8.5 39.5t2 43v29t-0.5 51.5t-1 62t-1 61.5t-0.5 50.5v27.5q0 35 -0.5 79t-3.5 92t-8.5 97.5t-15.5 94.5q0 13 -1.5 21t-6.5 13.5t-15 8t-27 4.5
l159 23l333 -50l-9 -115q-8 24 -24 31.5t-48 7.5q-10 23 -20.5 39.5t-25 27t-34 15.5t-46.5 5q-17 0 -31 -2t-23 -10q-6 -7 -10.5 -18.5t-7 -25.5t-3.5 -29.5t-1 -29.5l44 -150q35 0 62 6.5t41 21.5q31 0 44.5 10.5t22.5 45.5l24 -67l-9 -145q-6 15 -18 21t-37 6
q-16 35 -40.5 45.5t-61.5 10.5l-72 -89q0 -42 -5 -86t-13 -82t-18.5 -65.5t-22.5 -36.5q-5 -49 -21 -80.5t-38.5 -50t-49.5 -25.5t-53 -7q-19 0 -43 5t-45 16t-35 27.5t-14 39.5z" />
    <glyph glyph-name="florin" unicode="&#x192;" horiz-adv-x="523" 
d="M-23 -57q0 20 16.5 34.5t35.5 14.5q14 0 22 -8.5t15 -22.5q14 -26 24 -37t19 -11q8 0 13.5 10.5t8.5 36.5l45 381h-95v42h101l8 44q5 31 15.5 70t32.5 73t58 57t93 23q32 0 56 -7.5t40.5 -19.5t25 -26.5t8.5 -28.5q0 -24 -19 -37t-39 -13q-17 0 -25 7.5t-13 18.5
q-17 40 -27.5 53t-21.5 13q-14 0 -23.5 -18.5t-16.5 -63.5l-21 -145h126v-42h-133l-21 -146q-12 -88 -27.5 -149t-38 -99.5t-53.5 -56t-75 -17.5q-54 0 -84 22.5t-30 47.5z" />
    <glyph glyph-name="uni0194" unicode="&#x194;" horiz-adv-x="580" 
d="M252 77q0 -21 11.5 -36t31.5 -15q14 0 24 9.5t10 36.5q0 23 -8 46.5t-24 51.5l-5 10q-17 -26 -28.5 -53t-11.5 -50zM194 75q0 62 68 160l-18 32q-42 75 -86.5 151t-89.5 148q-9 15 -18 25t-19.5 15.5t-24.5 8t-32 3.5v32h271v-32l-38 -6q-17 -3 -17 -15q0 -8 4 -15
q30 -54 61.5 -113.5t63.5 -120.5l9 -17q32 62 65.5 127t60.5 120q5 12 5 19q0 13 -18 16l-47 5v32h216v-32q-20 -2 -33.5 -4.5t-23 -8.5t-17.5 -16t-18 -26q-15 -25 -34.5 -61t-41 -76t-42.5 -80.5t-39 -76.5v-2q26 -50 48 -98t22 -82q0 -28 -11 -47.5t-28.5 -31t-40 -16.5
t-45.5 -5q-53 0 -82.5 22t-29.5 66z" />
    <glyph glyph-name="uni0196" unicode="&#x196;" horiz-adv-x="419" 
d="M31 618v32h207v-475q0 -37 5 -61t14 -38t21.5 -19t28.5 -5q17 0 38.5 7.5t45.5 22.5l18 -32q-39 -35 -76 -49.5t-72 -14.5q-76 0 -115 47t-39 150v378q0 18 -2 29t-9.5 16.5t-23 8t-41.5 3.5z" />
    <glyph glyph-name="uni0197" unicode="&#x197;" horiz-adv-x="371" 
d="M36 321v42h84v198q0 18 -2 29t-9.5 16.5t-23 8t-42.5 3.5v32h286v-32q-27 -1 -42.5 -3.5t-23.5 -8t-10 -16.5t-2 -29v-198h84v-42h-84v-231q0 -19 2 -29.5t10 -16t23.5 -7.5t42.5 -4v-33h-286v33q27 2 42.5 4t23 7.5t9.5 16t2 29.5v231h-84z" />
    <glyph glyph-name="uni019C" unicode="&#x19c;" horiz-adv-x="1074" 
d="M31 618v32h282v-32q-25 -2 -39.5 -4t-22 -8t-9.5 -16.5t-2 -28.5v-332q0 -51 6.5 -84t19 -52.5t31 -27.5t41.5 -8q65 0 98 35t33 125v344q0 18 -2 28.5t-9 16.5t-21.5 8t-39.5 4v32h276v-32q-25 -2 -39.5 -4t-21.5 -8t-9 -16.5t-2 -28.5v-355q0 -65 23 -107t69 -42
q29 0 54 11.5t44 34t29.5 55t10.5 73.5v330q0 18 -2 28.5t-9.5 16.5t-22 8t-39.5 4v32h283v-32q-27 -1 -43 -3.5t-24 -8t-10 -16.5t-2 -29v-471q0 -19 2 -29.5t10 -16t24 -7.5t43 -4v-33h-210v76q-38 -44 -80 -67t-101 -23q-25 0 -49 5t-45 16t-37.5 29t-25.5 45
q-44 -51 -88 -73t-103 -22q-44 0 -80 12.5t-61 40.5t-38.5 72.5t-13.5 107.5v342q0 18 -2 29t-10 16.5t-23.5 8t-42.5 3.5z" />
    <glyph glyph-name="uni019F" unicode="&#x19f;" horiz-adv-x="725" 
d="M191 324q0 -45 6.5 -97.5t25 -97t52 -74t88.5 -29.5t89 29.5t52.5 74t25 97t6.5 97.5h-345zM192 365h343q-2 44 -10.5 90.5t-27.5 84t-51.5 61.5t-82.5 24q-49 0 -81.5 -24t-51.5 -61.5t-27.5 -84t-10.5 -90.5zM45 325q0 159 79 249.5t239 90.5t239.5 -90.5t79.5 -249.5
q0 -79 -20 -141.5t-59.5 -106.5t-99.5 -67.5t-140 -23.5t-139.5 23.5t-99.5 67.5t-59.5 106.5t-19.5 141.5z" />
    <glyph glyph-name="Ohorn" unicode="&#x1a0;" horiz-adv-x="725" 
d="M45 326q0 78 19.5 140.5t59 107t99.5 68t140 23.5q75 0 132 -21t97 -59q20 19 33 36t13 29q0 11 -9 18t-19 13q-17 8 -28.5 18t-11.5 27q0 18 14 36t43 18q32 0 52 -23t20 -61q0 -43 -25.5 -77.5t-57.5 -60.5q66 -87 66 -232q0 -78 -19.5 -141t-59.5 -107.5t-99.5 -68
t-140.5 -23.5q-80 0 -140 23.5t-99.5 68t-59 107.5t-19.5 141zM191 328q0 -31 2.5 -65.5t9.5 -68t19 -64t31.5 -53.5t46.5 -37t63 -14q56 0 89.5 29.5t52.5 74.5t25 97.5t6 98.5q0 31 -2.5 65t-9.5 67t-19 63.5t-31.5 53.5t-46.5 36.5t-64 13.5q-55 0 -89 -29.5t-52.5 -74
t-24.5 -96.5t-6 -97z" />
    <glyph glyph-name="ohorn" unicode="&#x1a1;" horiz-adv-x="571" 
d="M40 230q0 113 57 177.5t180 64.5q60 0 104 -16t73 -45q18 18 29.5 34t11.5 27t-9.5 18.5t-23.5 15.5q-11 6 -22.5 15.5t-11.5 28.5q0 17 13 34.5t42 17.5q30 0 51 -23.5t21 -61.5q0 -21 -7 -40t-18 -35.5t-25 -31.5t-28 -27q38 -58 38 -153q0 -56 -14 -101t-43 -76
t-74 -47.5t-107 -16.5q-61 0 -106 16.5t-74 47.5t-43 76t-14 101zM172 230q0 -96 25 -148.5t80 -52.5q56 0 81 52.5t25 148.5t-25 149t-81 53q-55 0 -80 -53t-25 -149z" />
    <glyph glyph-name="uni01A7" unicode="&#x1a7;" horiz-adv-x="527" 
d="M32 185q0 44 15 76.5t40 56t58 41t68 31.5l23 10q22 9 43.5 20.5t38 26.5t26.5 34t10 43q0 45 -29 73t-78 28q-50 0 -87 -34.5t-54 -114.5h-32v147q33 21 79.5 31.5t92.5 10.5q107 0 166.5 -50.5t59.5 -133.5q0 -41 -14 -71.5t-37.5 -53.5t-53.5 -40t-62 -30l-21 -9
q-27 -11 -50 -24.5t-40.5 -31t-27.5 -38.5t-10 -47q0 -54 32 -82t80 -28q62 0 109 47t71 133h34l-12 -162q-17 -16 -41.5 -27t-51.5 -18t-55 -10t-54 -3q-66 0 -111 17.5t-73 45.5t-40 63.5t-12 72.5z" />
    <glyph glyph-name="uni01A8" unicode="&#x1a8;" horiz-adv-x="422" 
d="M29 138q0 60 36.5 93.5t105.5 57.5q18 6 35 13.5t30 17.5t21 22.5t8 29.5q0 26 -18 43t-48 17q-42 0 -69 -31.5t-38 -81.5h-32v120q28 18 63.5 25.5t70.5 7.5q83 0 132 -36.5t49 -102.5q0 -58 -38.5 -92t-99.5 -55q-17 -6 -34.5 -14t-31.5 -19.5t-22.5 -26t-8.5 -34.5
q0 -29 19 -46t51 -17q26 0 47.5 11t39 29.5t30.5 44t21 54.5h33l-10 -134q-13 -12 -31.5 -20.5t-39.5 -14t-43 -8t-43 -2.5q-85 0 -135 38.5t-50 110.5z" />
    <glyph glyph-name="uni01A9" unicode="&#x1a9;" horiz-adv-x="561" 
d="M15 19l197 298l-193 317l8 16h482v-170h-33q-7 35 -17 60t-27 41t-42.5 23.5t-64.5 7.5h-146v-2l139 -226l-191 -290v-2h191q38 0 68.5 5t53 18t37.5 36.5t22 60.5h34l-14 -212h-492z" />
    <glyph glyph-name="Uhorn" unicode="&#x1af;" horiz-adv-x="776" 
d="M107 221v340q0 18 -2 29t-9.5 16.5t-23 8t-41.5 3.5v32h284v-32q-26 -1 -41.5 -3.5t-23.5 -8t-10 -16.5t-2 -29v-343q0 -41 6.5 -76.5t22 -61t41.5 -40t65 -14.5t65.5 14.5t42 40t22.5 61t7 76.5v343q0 18 -2 29t-10 16.5t-23.5 8t-41.5 3.5v32h208v-82q11 9 22.5 20
t21 22t15.5 21.5t6 18.5q0 9 -7 16t-23 15q-14 8 -26 18t-12 28q0 17 14 35t44 18q33 0 52 -23.5t19 -65.5q0 -26 -12.5 -50.5t-31.5 -45.5t-41 -39t-41 -31v-303q0 -118 -65 -177t-208 -59q-72 0 -121.5 15t-80.5 45t-45 74t-14 101z" />
    <glyph glyph-name="uhorn" unicode="&#x1b0;" horiz-adv-x="624" 
d="M85 130v236q0 27 -5 35t-19 10l-34 5v30l175 26l7 -6v-307q0 -55 23 -79.5t65 -24.5q50 0 71 30.5t21 76.5v204q0 27 -5.5 35t-19.5 10l-34 5v30l176 26l8 -6v-73q25 20 42.5 41.5t17.5 37.5q0 15 -27 33q-16 11 -24.5 21.5t-8.5 25.5q0 7 2.5 15.5t8 16t15 13t23.5 5.5
q30 0 51 -23.5t21 -61.5q0 -26 -10.5 -49.5t-27.5 -44.5t-38.5 -39.5t-44.5 -33.5v-268q0 -16 2 -25t8.5 -14t19 -6.5t33.5 -3.5v-33h-180l-8 54q-13 -10 -29.5 -21.5t-37.5 -21.5t-45.5 -16t-53.5 -6q-27 0 -52 6.5t-44 23t-30.5 43.5t-11.5 68z" />
    <glyph glyph-name="uni01B2" unicode="&#x1b2;" horiz-adv-x="677" 
d="M31 618v32h284v-32q-26 -1 -41.5 -3.5t-23.5 -8t-10 -16.5t-2 -29v-344q0 -90 30.5 -140.5t101.5 -50.5q51 0 83.5 26t51.5 68t26 95.5t7 108.5q0 67 -25 123.5t-69 112.5q-10 12 -16.5 23.5t-6.5 25.5q0 22 23.5 39t64.5 17q19 0 40 -25.5t39 -67t30 -94t12 -107.5
q0 -42 -3 -87.5t-12.5 -88t-27 -80.5t-47.5 -67t-74 -45.5t-105 -16.5q-62 0 -109.5 12.5t-79.5 40t-48.5 71.5t-16.5 107v344q0 18 -2 29t-9.5 16.5t-23 8t-41.5 3.5z" />
    <glyph glyph-name="uni01B7" unicode="&#x1b7;" horiz-adv-x="578" 
d="M44 124q0 35 14 54t46 19q60 0 60 -49q0 -9 -1.5 -16t-3 -13.5t-3 -14.5t-1.5 -20q0 -25 28.5 -41.5t79.5 -16.5q54 0 92 38.5t38 110.5q0 67 -30 107t-84 40q-17 0 -35 -2.5t-34 -11.5l-25 31l4 18l190 201h-122q-40 0 -66 -4t-43 -16.5t-27.5 -36t-18.5 -62.5h-34v211
h412l11 -18l-3 -14q-4 -17 -15.5 -34.5t-37.5 -44.5l-165 -172l2 -1q8 4 19 5t23 1q43 0 83 -10.5t71 -33t49.5 -59t18.5 -87.5q0 -100 -73.5 -148t-205.5 -48q-47 0 -86 10t-67.5 28t-44 43.5t-15.5 56.5z" />
    <glyph glyph-name="uni01CD" unicode="&#x1cd;" horiz-adv-x="608" 
d="M267 532h-3l-79 -252h163zM-22 33q20 1 32.5 3.5t21 8.5t14 16t11.5 26q9 25 20.5 56t23.5 64.5t24 69.5t24 70l104 303h104l189 -568q5 -15 10.5 -24.5t14 -14.5t21 -7t31.5 -3v-33h-279v33l51 5q22 1 22 18q0 7 -3 17l-53 165h-189l-52 -165q-4 -9 -4 -18q0 -15 23 -18
l54 -4v-33h-215v33zM136 872l21 23l111 -82q9 -7 18 -12t16 -5t16 5t18 12l110 82l21 -23l-127 -147q-10 -11 -19.5 -19t-18.5 -8q-10 0 -19.5 7.5t-19.5 19.5z" />
    <glyph glyph-name="uni01CE" unicode="&#x1ce;" horiz-adv-x="511" 
d="M172 130q0 -35 16.5 -55.5t47.5 -20.5q13 0 27.5 4t26.5 13t20 23t8 34v135q-17 -11 -38.5 -21t-39.5 -18q-37 -14 -52.5 -36.5t-15.5 -57.5zM45 125q0 32 12 53t32 36t47.5 24.5t58.5 18.5q35 11 69.5 24t53.5 27v46q0 46 -19.5 62t-42.5 16t-46 -18t-42 -75
q-5 -16 -13 -25t-23 -9q-8 0 -20.5 3t-24.5 10t-20.5 18t-8.5 27q0 20 15.5 39.5t43.5 35t67.5 25t88.5 9.5q59 0 92 -12t49 -31t20 -42t4 -45v-221q0 -39 11 -58.5t47 -19.5q4 0 10.5 0.5t10.5 1.5l2 -28q-24 -11 -59 -19.5t-63 -8.5q-36 0 -51.5 16t-25.5 39
q-24 -21 -58.5 -38t-80.5 -17q-34 0 -59.5 11.5t-42.5 30t-25.5 43t-8.5 51.5zM91 671l21 23l111 -82q9 -7 18 -12t16 -5t16 5t18 12l110 82l21 -23l-127 -147q-10 -11 -19.5 -19t-18.5 -8q-10 0 -19.5 7.5t-19.5 19.5z" />
    <glyph glyph-name="uni01CF" unicode="&#x1cf;" horiz-adv-x="356" 
d="M35 0v33q27 2 42.5 4t23.5 7.5t10 16t2 29.5v471q0 18 -2 29t-10 16.5t-23.5 8t-42.5 3.5v32h287v-32q-27 -1 -42.5 -3.5t-23 -8t-9.5 -16.5t-2 -29v-471q0 -19 2 -29.5t9.5 -16t23 -7.5t42.5 -4v-33h-287zM13 872l21 23l111 -82q9 -7 18 -12t16 -5t16 5t18 12l110 82
l21 -23l-127 -147q-10 -11 -19.5 -19t-18.5 -8q-10 0 -19.5 7.5t-19.5 19.5z" />
    <glyph glyph-name="uni01D0" unicode="&#x1d0;" horiz-adv-x="296" 
d="M30 0v33q22 2 34.5 3.5t19 6.5t8.5 14t2 25v284q0 27 -6 35t-20 10l-33 5v30l176 26l6 -6v-384q0 -16 2 -25t9 -14t19.5 -6.5t34.5 -3.5v-33h-252zM-25 671l21 23l111 -82q9 -7 18 -12t16 -5t16 5t18 12l110 82l21 -23l-127 -147q-10 -11 -19.5 -19t-18.5 -8
q-10 0 -19.5 7.5t-19.5 19.5z" />
    <glyph glyph-name="uni01D1" unicode="&#x1d1;" horiz-adv-x="725" 
d="M191 328q0 -31 2.5 -65.5t9.5 -68t19 -64t31.5 -53.5t46.5 -37t63 -14q56 0 89.5 29.5t52.5 74.5t25 97.5t6 98.5q0 31 -2.5 65t-9.5 67t-19 63.5t-31.5 53.5t-46.5 36.5t-64 13.5q-55 0 -89 -29.5t-52.5 -74t-24.5 -96.5t-6 -97zM45 326q0 78 19.5 140.5t59 107t99.5 68
t140 23.5t140 -23.5t100 -68t59.5 -107t19.5 -140.5t-19.5 -141t-59.5 -107.5t-99.5 -68t-140.5 -23.5q-80 0 -140 23.5t-99.5 68t-59 107.5t-19.5 141zM202 872l21 23l111 -82q9 -7 18 -12t16 -5t16 5t18 12l110 82l21 -23l-127 -147q-10 -11 -19.5 -19t-18.5 -8
q-10 0 -19.5 7.5t-19.5 19.5z" />
    <glyph glyph-name="uni01D2" unicode="&#x1d2;" horiz-adv-x="553" 
d="M172 230q0 -96 25 -148.5t81 -52.5q55 0 80 52.5t25 148.5t-25 149t-80 53q-56 0 -81 -53t-25 -149zM40 230q0 56 14 101t43 76.5t74 48t107 16.5q123 0 180 -64.5t57 -177.5q0 -56 -14 -101t-43 -76t-73.5 -47.5t-106.5 -16.5t-107 16.5t-74 47.5t-43 76t-14 101z
M114 671l21 23l111 -82q9 -7 18 -12t16 -5t16 5t18 12l110 82l21 -23l-127 -147q-10 -11 -19.5 -19t-18.5 -8q-10 0 -19.5 7.5t-19.5 19.5z" />
    <glyph glyph-name="uni01D3" unicode="&#x1d3;" horiz-adv-x="746" 
d="M31 618v32h284v-32q-26 -1 -41.5 -3.5t-23.5 -8t-10 -16.5t-2 -29v-343q0 -41 6.5 -76.5t22 -61t41.5 -40t65 -14.5t65.5 14.5t42 40t22.5 61t7 76.5v343q0 18 -2 29t-10 16.5t-23.5 8t-41.5 3.5v32h283v-32q-26 -1 -41 -3.5t-22.5 -8t-9.5 -16.5t-2 -29v-339
q0 -125 -68 -180.5t-205 -55.5q-135 0 -198 55t-63 180v340q0 18 -2 29t-9.5 16.5t-23 8t-41.5 3.5zM207 872l21 23l111 -82q9 -7 18 -12t16 -5t16 5t18 12l110 82l21 -23l-127 -147q-10 -11 -19.5 -19t-18.5 -8q-10 0 -19.5 7.5t-19.5 19.5z" />
    <glyph glyph-name="uni01D4" unicode="&#x1d4;" horiz-adv-x="590" 
d="M27 416v30l174 26l7 -6v-307q0 -55 23.5 -79.5t64.5 -24.5q50 0 71.5 30.5t21.5 76.5v204q0 27 -5.5 35t-19.5 10l-34 5v30l174 26l8 -6v-384q0 -16 2 -25t8.5 -14t19 -6.5t34.5 -3.5v-33h-179l-8 54q-13 -10 -29.5 -21.5t-37.5 -21t-46 -16t-54 -6.5q-27 0 -51.5 6.5
t-43.5 23t-30.5 43.5t-11.5 68v236q0 27 -5 35t-19 10zM128 671l21 23l111 -82q9 -7 18 -12t16 -5t16 5t18 12l110 82l21 -23l-127 -147q-10 -11 -19.5 -19t-18.5 -8q-10 0 -19.5 7.5t-19.5 19.5z" />
    <glyph glyph-name="uni01DD" unicode="&#x1dd;" horiz-adv-x="492" 
d="M154 141q0 -13 2.5 -32t11 -37t23.5 -30.5t40 -12.5q27 0 44.5 15.5t27.5 38t14 48.5t4 48h-136q-18 0 -24.5 -7.5t-6.5 -30.5zM23 182q0 23 12 31t35 8h251q0 37 -6.5 70.5t-21.5 59.5t-40 41.5t-62 15.5q-48 0 -78.5 -24t-50.5 -65l-31 18q11 30 28 54.5t41 42.5
t56.5 28t74.5 10q62 0 104.5 -18.5t68.5 -51t38 -75.5t12 -92q0 -52 -12.5 -97t-40.5 -78t-71 -52t-105 -19q-66 0 -105.5 20.5t-61 50t-28.5 63t-7 59.5z" />
    <glyph glyph-name="uni01E2" unicode="&#x1e2;" horiz-adv-x="832" 
d="M224 362h133v244h-8q-34 -64 -67.5 -129.5t-57.5 -114.5zM-64 0v33q20 1 33 3.5t22 8t16 14.5t15 24q33 60 76 142t88 170l91 180q7 13 7 22q0 12 -18 15l-62 6v32h569v-167h-33q-9 36 -18.5 60.5t-24.5 39.5t-38.5 21.5t-61.5 6.5h-77q-21 0 -27.5 -7t-6.5 -27v-215h103
q25 0 40 4t24 13.5t14 25.5t10 40h33v-211h-33q-5 25 -10 41t-14 25.5t-24 13.5t-40 4h-103v-204q0 -23 6 -37.5t20 -22.5t36.5 -11t55.5 -3q39 0 66 8t45.5 25t31.5 44.5t24 67.5h34l-12 -185h-513v33q27 2 42.5 4t23 7.5t9.5 16t2 29.5v228h-154q-48 -98 -74 -156.5
t-38 -88.5q-5 -13 -5 -19q0 -13 20 -15l60 -6v-33h-230zM289 697v73h285v-73h-285z" />
    <glyph glyph-name="uni01E3" unicode="&#x1e3;" horiz-adv-x="761" 
d="M172 139q0 -39 21.5 -62t54.5 -23q11 0 23.5 3.5t22.5 12t17 22.5t7 36v135q-17 -8 -42.5 -18.5t-49.5 -22.5q-28 -13 -41 -31.5t-13 -51.5zM439 282h139q17 0 23.5 6.5t6.5 24.5q0 15 -2.5 35.5t-11 39t-23.5 31.5t-40 13q-28 0 -46 -15t-28 -37.5t-14 -48.5t-4 -49z
M45 124q0 38 20 67.5t74 48.5q25 9 51 17t50 16.5t44.5 17t33.5 17.5v47q0 23 -5.5 37.5t-14.5 23.5t-20 12.5t-22 3.5t-23 -4t-23.5 -14t-22 -28t-19.5 -47q-6 -16 -13.5 -25t-22.5 -9q-8 0 -20.5 3t-24.5 9.5t-20.5 17t-8.5 24.5q0 22 15 42.5t42.5 36t66 25t85.5 9.5
q50 0 81 -15t48 -41q29 26 65 41t80 15q69 0 108.5 -23t59.5 -54.5t25 -64t5 -52.5q0 -23 -11.5 -30.5t-34.5 -7.5h-254q0 -37 5.5 -71t20.5 -59.5t40.5 -41t64.5 -15.5q48 0 78.5 23.5t51.5 65.5l32 -18q-26 -71 -76.5 -103t-125.5 -32q-64 0 -105 21.5t-64 59.5l-41 -28
q-22 -15 -57 -33.5t-79 -19.5q-35 0 -61 11.5t-43.5 30t-26 43t-8.5 50.5zM257 496v73h285v-73h-285z" />
    <glyph glyph-name="Gcaron" unicode="&#x1e6;" horiz-adv-x="691" 
d="M45 313q0 63 16.5 126t57 113t109 81.5t173.5 31.5q54 0 110 -9.5t97 -31.5v-163h-33q-9 33 -23.5 63t-36 52.5t-51 35.5t-69.5 13q-63 0 -103 -30t-62.5 -75t-30.5 -97t-8 -96q0 -20 2.5 -50.5t9.5 -63.5t20.5 -66.5t36.5 -60.5t56.5 -43.5t79.5 -16.5q45 0 67.5 9
t22.5 41v130q0 17 -2 27t-11 16t-26.5 8.5t-47.5 4.5v33h276v-33q-19 -2 -30.5 -4.5t-17.5 -8t-7.5 -15.5t-1.5 -27v-178q-24 -10 -52.5 -18t-58 -13.5t-59 -8.5t-55.5 -3q-82 0 -146.5 19.5t-109.5 59.5t-68.5 101.5t-23.5 146.5zM217 872l21 23l111 -82q9 -7 18 -12t16 -5
t16 5t18 12l110 82l21 -23l-127 -147q-10 -11 -19.5 -19t-18.5 -8q-10 0 -19.5 7.5t-19.5 19.5z" />
    <glyph glyph-name="gcaron" unicode="&#x1e7;" horiz-adv-x="503" 
d="M171 315q0 -53 23 -82.5t56 -29.5q35 0 57.5 29.5t22.5 82.5q0 62 -24.5 89.5t-54.5 27.5q-32 0 -56 -27t-24 -90zM146 -83q0 -25 10 -44.5t27 -33t40 -20.5t49 -7q24 0 46 6t39 18t27 31t10 45q0 46 -36.5 63t-97.5 17q-21 0 -41 -2t-36.5 -9.5t-26.5 -22.5t-10 -41z
M33 -90q0 24 11.5 40t28 26.5t35 16.5t33.5 10v2q-16 3 -31 11t-27 19.5t-19.5 25t-7.5 27.5q0 29 26 51.5t70 35.5v2q-20 4 -40 14t-35.5 27t-25.5 41t-10 54q0 27 10.5 55t35 51t65 38t100.5 15q36 0 72 -8.5t58 -22.5l119 40l9 -9l-19 -68l-66 -11q10 -12 17.5 -33
t7.5 -45q0 -42 -17.5 -71t-46 -47t-65.5 -26t-76 -8h-19t-25 2q-10 -3 -25 -12t-15 -27q0 -13 13.5 -24t53.5 -11h83q38 0 71.5 -7t58.5 -24t40 -44.5t15 -68.5q0 -49 -22 -82.5t-56.5 -53.5t-77.5 -29t-84 -9q-47 0 -88 8.5t-71 25.5t-47 42.5t-17 60.5zM83 671l21 23
l111 -82q9 -7 18 -12t16 -5t16 5t18 12l110 82l21 -23l-127 -147q-10 -11 -19.5 -19t-18.5 -8q-10 0 -19.5 7.5t-19.5 19.5z" />
    <glyph glyph-name="uni01E8" unicode="&#x1e8;" horiz-adv-x="655" 
d="M35 0v33q27 2 42.5 4t23.5 7.5t10 16t2 29.5v471q0 18 -2 29t-10 16.5t-23.5 8t-42.5 3.5v32h287v-32q-27 -1 -42.5 -3.5t-23 -8t-9.5 -16.5t-2 -29v-222l175 194q20 23 34.5 42.5t14.5 29.5q0 7 -14 9l-39 5v31h248v-31q-24 -2 -41 -4.5t-30.5 -8t-25 -13.5t-26.5 -20
q-47 -38 -92.5 -83.5t-96.5 -101.5q21 -34 47 -72t55 -77.5t60 -77.5t61 -72q25 -27 43 -41t45 -22v-32l-62 3q-61 3 -102 18t-79 56q-24 26 -47.5 57.5t-45.5 65t-42 67t-37 62.5h-3v-233q0 -19 2 -29.5t9.5 -16t23 -7.5t42.5 -4v-33h-287zM180 872l21 23l111 -82
q9 -7 18 -12t16 -5t16 5t18 12l110 82l21 -23l-127 -147q-10 -11 -19.5 -19t-18.5 -8q-10 0 -19.5 7.5t-19.5 19.5z" />
    <glyph glyph-name="uni01E9" unicode="&#x1e9;" horiz-adv-x="543" 
d="M22 0v33q22 2 35 3.5t19.5 6.5t8 14t1.5 25v508q0 29 -5.5 37.5t-19.5 10.5l-33 4v31l174 24l8 -5v-437h3l70 98q10 14 24 33t29.5 35.5t32 28t31.5 11.5h123v-29q-64 -11 -110.5 -44t-86.5 -75l-17 -17q16 -24 44.5 -65t62 -83t67.5 -76t61 -45v-29l-80 1q-42 1 -71 12
t-55 41q-34 42 -66.5 91t-58.5 96h-3v-157q0 -16 1.5 -25t8 -14t19 -6.5t34.5 -3.5v-33h-251zM167 871l21 23l111 -82q9 -7 18 -12t16 -5t16 5t18 12l110 82l21 -23l-127 -147q-10 -11 -19.5 -19t-18.5 -8q-10 0 -19.5 7.5t-19.5 19.5z" />
    <glyph glyph-name="uni01EE" unicode="&#x1ee;" horiz-adv-x="578" 
d="M44 124q0 35 14 54t46 19q60 0 60 -49q0 -9 -1.5 -16t-3 -13.5t-3 -14.5t-1.5 -20q0 -25 28.5 -41.5t79.5 -16.5q54 0 92 38.5t38 110.5q0 67 -30 107t-84 40q-17 0 -35 -2.5t-34 -11.5l-25 31l4 18l190 201h-122q-40 0 -66 -4t-43 -16.5t-27.5 -36t-18.5 -62.5h-34v211
h412l11 -18l-3 -14q-4 -17 -15.5 -34.5t-37.5 -44.5l-165 -172l2 -1q8 4 19 5t23 1q43 0 83 -10.5t71 -33t49.5 -59t18.5 -87.5q0 -100 -73.5 -148t-205.5 -48q-47 0 -86 10t-67.5 28t-44 43.5t-15.5 56.5zM125 825l15 25l116 -56q9 -5 18 -9.5t15 -4.5q8 0 17 4.5t18 9.5
l116 56l15 -25l-125 -116q-9 -9 -20 -15.5t-21 -6.5q-9 0 -19 6t-21 17z" />
    <glyph glyph-name="uni01EF" unicode="&#x1ef;" horiz-adv-x="498" 
d="M41 -108q0 15 7 24.5t16.5 15.5t20.5 8t19 2q22 0 34 -15.5t12 -37.5q0 -13 5 -26.5t15 -24.5t25.5 -18t37.5 -7q30 0 49 15.5t30 38.5t15 49.5t4 49.5t-5 49t-16.5 48.5t-30 37.5t-46.5 15q-13 0 -31 -2.5t-32 -10.5l-23 32l5 19l177 214h-132q-33 0 -53 -4.5t-32 -16.5
t-18 -31.5t-10 -49.5h-34v195h377l10 -18l-5 -17q-4 -11 -12 -23.5t-26 -33.5l-172 -206l2 -2q5 2 23.5 3.5t26.5 1.5q42 0 76.5 -13t59 -38.5t38.5 -63t14 -85.5q0 -47 -17.5 -83t-46.5 -60.5t-68 -37t-82 -12.5q-37 0 -65 2.5t-49.5 9.5t-38 18.5t-30.5 28.5q-8 11 -16 26
t-8 34zM87 670l21 23l110 -82q9 -7 18 -12t16 -5t15.5 5t17.5 12l111 82l22 -23l-126 -147q-10 -11 -20.5 -19t-19.5 -8q-10 0 -19 7.5t-20 19.5z" />
    <glyph glyph-name="uni01F0" unicode="&#x1f0;" horiz-adv-x="292" 
d="M-14 -194q39 12 61.5 33t34 49.5t14 64.5t2.5 78v335q0 27 -5 35t-19 10l-34 5v30l175 26l7 -6v-447q0 -65 -13 -110.5t-41.5 -74t-72.5 -42t-107 -13.5zM-18 671l21 23l111 -82q9 -7 18 -12t16 -5t16 5t18 12l110 82l21 -23l-127 -147q-10 -11 -19.5 -19t-18.5 -8
q-10 0 -19.5 7.5t-19.5 19.5z" />
    <glyph glyph-name="uni01F4" unicode="&#x1f4;" horiz-adv-x="691" 
d="M45 313q0 63 16.5 126t57 113t109 81.5t173.5 31.5q54 0 110 -9.5t97 -31.5v-163h-33q-9 33 -23.5 63t-36 52.5t-51 35.5t-69.5 13q-63 0 -103 -30t-62.5 -75t-30.5 -97t-8 -96q0 -20 2.5 -50.5t9.5 -63.5t20.5 -66.5t36.5 -60.5t56.5 -43.5t79.5 -16.5q45 0 67.5 9
t22.5 41v130q0 17 -2 27t-11 16t-26.5 8.5t-47.5 4.5v33h276v-33q-19 -2 -30.5 -4.5t-17.5 -8t-7.5 -15.5t-1.5 -27v-178q-24 -10 -52.5 -18t-58 -13.5t-59 -8.5t-55.5 -3q-82 0 -146.5 19.5t-109.5 59.5t-68.5 101.5t-23.5 146.5zM262 723l127 131q25 25 38.5 34.5
t24.5 9.5q9 0 18 -5t15.5 -12.5t11 -16.5t4.5 -18q0 -17 -18 -30.5t-42 -27.5l-162 -91z" />
    <glyph glyph-name="uni01F5" unicode="&#x1f5;" horiz-adv-x="503" 
d="M171 315q0 -53 23 -82.5t56 -29.5q35 0 57.5 29.5t22.5 82.5q0 62 -24.5 89.5t-54.5 27.5q-32 0 -56 -27t-24 -90zM146 -83q0 -25 10 -44.5t27 -33t40 -20.5t49 -7q24 0 46 6t39 18t27 31t10 45q0 46 -36.5 63t-97.5 17q-21 0 -41 -2t-36.5 -9.5t-26.5 -22.5t-10 -41z
M33 -90q0 24 11.5 40t28 26.5t35 16.5t33.5 10v2q-16 3 -31 11t-27 19.5t-19.5 25t-7.5 27.5q0 29 26 51.5t70 35.5v2q-20 4 -40 14t-35.5 27t-25.5 41t-10 54q0 27 10.5 55t35 51t65 38t100.5 15q36 0 72 -8.5t58 -22.5l119 40l9 -9l-19 -68l-66 -11q10 -12 17.5 -33
t7.5 -45q0 -42 -17.5 -71t-46 -47t-65.5 -26t-76 -8h-19t-25 2q-10 -3 -25 -12t-15 -27q0 -13 13.5 -24t53.5 -11h83q38 0 71.5 -7t58.5 -24t40 -44.5t15 -68.5q0 -49 -22 -82.5t-56.5 -53.5t-77.5 -29t-84 -9q-47 0 -88 8.5t-71 25.5t-47 42.5t-17 60.5zM129 522l127 131
q25 25 38.5 34.5t24.5 9.5q9 0 18 -5t15.5 -12.5t11 -16.5t4.5 -18q0 -17 -18 -30.5t-42 -27.5l-162 -91z" />
    <glyph glyph-name="uni01F8" unicode="&#x1f8;" horiz-adv-x="714" 
d="M32 0v33l25 3q35 4 43 20.5t8 51.5v453q0 18 -2 29t-9.5 16.5t-23 8t-42.5 3.5v32h208q78 -118 158 -235t161 -236h3v361q0 17 -1 30.5t-6.5 22.5t-17 14.5t-32.5 6.5l-40 4v32h226v-32l-28 -4q-17 -2 -26.5 -7.5t-14 -15t-5.5 -22.5t-1 -29v-540h-90q-89 135 -178.5 270
t-181.5 270h-3v-432q0 -18 1 -31t6.5 -21.5t17 -13t31.5 -6.5l41 -3v-33h-227zM276 898q11 0 25 -9.5t38 -34.5l128 -131l-18 -26l-162 91q-24 14 -42.5 27.5t-18.5 30.5q0 9 4.5 18t11.5 16.5t16 12.5t18 5z" />
    <glyph glyph-name="uni01F9" unicode="&#x1f9;" horiz-adv-x="600" 
d="M342 0v33l20 2q22 2 29.5 9t7.5 33v234q0 48 -21.5 72t-60.5 24q-24 0 -43 -8.5t-31.5 -23.5t-19 -34.5t-6.5 -41.5v-222q0 -26 8 -33t29 -9l20 -2v-33h-244v33q22 2 34.5 3.5t19 6.5t8.5 14t2 25v283q0 28 -6 36t-20 10l-33 5v30l169 26l13 -67q43 32 81.5 49.5
t84.5 17.5q69 0 104 -39t35 -108v-243q0 -16 2 -25t9 -14t19.5 -6.5t34.5 -3.5v-33h-245zM231 698q11 0 25 -9.5t38 -34.5l128 -131l-18 -26l-162 91q-24 14 -42.5 27.5t-18.5 30.5q0 9 4.5 18t11.5 16.5t16 12.5t18 5z" />
    <glyph glyph-name="AEacute" unicode="&#x1fc;" horiz-adv-x="832" 
d="M224 362h133v244h-8q-34 -64 -67.5 -129.5t-57.5 -114.5zM-64 0v33q20 1 33 3.5t22 8t16 14.5t15 24q33 60 76 142t88 170l91 180q7 13 7 22q0 12 -18 15l-62 6v32h569v-167h-33q-9 36 -18.5 60.5t-24.5 39.5t-38.5 21.5t-61.5 6.5h-77q-21 0 -27.5 -7t-6.5 -27v-215h103
q25 0 40 4t24 13.5t14 25.5t10 40h33v-211h-33q-5 25 -10 41t-14 25.5t-24 13.5t-40 4h-103v-204q0 -23 6 -37.5t20 -22.5t36.5 -11t55.5 -3q39 0 66 8t45.5 25t31.5 44.5t24 67.5h34l-12 -185h-513v33q27 2 42.5 4t23 7.5t9.5 16t2 29.5v228h-154q-48 -98 -74 -156.5
t-38 -88.5q-5 -13 -5 -19q0 -13 20 -15l60 -6v-33h-230zM311 723l127 131q25 25 38.5 34.5t24.5 9.5q9 0 18 -5t15.5 -12.5t11 -16.5t4.5 -18q0 -17 -18 -30.5t-42 -27.5l-162 -91z" />
    <glyph glyph-name="aeacute" unicode="&#x1fd;" horiz-adv-x="761" 
d="M172 139q0 -39 21.5 -62t54.5 -23q11 0 23.5 3.5t22.5 12t17 22.5t7 36v135q-17 -8 -42.5 -18.5t-49.5 -22.5q-28 -13 -41 -31.5t-13 -51.5zM439 282h139q17 0 23.5 6.5t6.5 24.5q0 15 -2.5 35.5t-11 39t-23.5 31.5t-40 13q-28 0 -46 -15t-28 -37.5t-14 -48.5t-4 -49z
M45 124q0 38 20 67.5t74 48.5q25 9 51 17t50 16.5t44.5 17t33.5 17.5v47q0 23 -5.5 37.5t-14.5 23.5t-20 12.5t-22 3.5t-23 -4t-23.5 -14t-22 -28t-19.5 -47q-6 -16 -13.5 -25t-22.5 -9q-8 0 -20.5 3t-24.5 9.5t-20.5 17t-8.5 24.5q0 22 15 42.5t42.5 36t66 25t85.5 9.5
q50 0 81 -15t48 -41q29 26 65 41t80 15q69 0 108.5 -23t59.5 -54.5t25 -64t5 -52.5q0 -23 -11.5 -30.5t-34.5 -7.5h-254q0 -37 5.5 -71t20.5 -59.5t40.5 -41t64.5 -15.5q48 0 78.5 23.5t51.5 65.5l32 -18q-26 -71 -76.5 -103t-125.5 -32q-64 0 -105 21.5t-64 59.5l-41 -28
q-22 -15 -57 -33.5t-79 -19.5q-35 0 -61 11.5t-43.5 30t-26 43t-8.5 50.5zM279 522l127 131q25 25 38.5 34.5t24.5 9.5q9 0 18 -5t15.5 -12.5t11 -16.5t4.5 -18q0 -17 -18 -30.5t-42 -27.5l-162 -91z" />
    <glyph glyph-name="Oslashacute" unicode="&#x1fe;" horiz-adv-x="725" 
d="M129 -28l39 67q-63 43 -93 115.5t-30 171.5q0 78 19.5 140.5t59 107t99.5 68t140 23.5q88 0 154 -29l37 64l40 -23l-38 -63q64 -43 95 -116t31 -172q0 -78 -19.5 -141t-59.5 -107.5t-99.5 -68t-140.5 -23.5q-90 0 -155 30l-41 -71zM363 26q56 0 89.5 29.5t52.5 74.5
t25 97.5t6 98.5t-6 99t-26 98l-256 -440q20 -26 48 -41.5t67 -15.5zM191 328q0 -47 6 -99t25 -97l255 438q-19 25 -47 40t-67 15q-55 0 -89 -29.5t-52.5 -74t-24.5 -96.5t-6 -97zM247 723l127 131q25 25 38.5 34.5t24.5 9.5q9 0 18 -5t15.5 -12.5t11 -16.5t4.5 -18
q0 -17 -18 -30.5t-42 -27.5l-162 -91z" />
    <glyph glyph-name="oslashacute" unicode="&#x1ff;" horiz-adv-x="553" 
d="M168 227q0 -31 3 -58t10 -49l169 273q-27 39 -73 39q-57 0 -83 -53.5t-26 -151.5zM200 72q27 -43 77 -43q58 0 83.5 52.5t25.5 148.5q0 73 -15 119zM40 230q0 113 57 177.5t178 64.5q63 0 112 -19l31 49l34 -22l-28 -45q47 -29 68.5 -81t21.5 -123q0 -114 -56.5 -178
t-177.5 -64q-36 0 -65 5.5t-53 16.5l-34 -56l-33 25l31 49q-45 30 -65.5 81t-20.5 120zM160 522l127 131q25 25 38.5 34.5t24.5 9.5q9 0 18 -5t15.5 -12.5t11 -16.5t4.5 -18q0 -17 -18 -30.5t-42 -27.5l-162 -91z" />
    <glyph glyph-name="uni0200" unicode="&#x200;" horiz-adv-x="608" 
d="M267 532h-3l-79 -252h163zM-22 33q20 1 32.5 3.5t21 8.5t14 16t11.5 26q9 25 20.5 56t23.5 64.5t24 69.5t24 70l104 303h104l189 -568q5 -15 10.5 -24.5t14 -14.5t21 -7t31.5 -3v-33h-279v33l51 5q22 1 22 18q0 7 -3 17l-53 165h-189l-52 -165q-4 -9 -4 -18q0 -15 23 -18
l54 -4v-33h-215v33zM124 862q0 18 17.5 30.5t35.5 12.5q19 0 28.5 -14t17.5 -34l54 -143l-28 -17l-93 106q-32 36 -32 59zM296 862q0 9 5 17t13 13.5t17.5 9t18.5 3.5q20 0 29.5 -14t17.5 -34l53 -143l-27 -17l-95 106q-32 36 -32 59z" />
    <glyph glyph-name="uni0201" unicode="&#x201;" horiz-adv-x="511" 
d="M172 130q0 -35 16.5 -55.5t47.5 -20.5q13 0 27.5 4t26.5 13t20 23t8 34v135q-17 -11 -38.5 -21t-39.5 -18q-37 -14 -52.5 -36.5t-15.5 -57.5zM45 125q0 32 12 53t32 36t47.5 24.5t58.5 18.5q35 11 69.5 24t53.5 27v46q0 46 -19.5 62t-42.5 16t-46 -18t-42 -75
q-5 -16 -13 -25t-23 -9q-8 0 -20.5 3t-24.5 10t-20.5 18t-8.5 27q0 20 15.5 39.5t43.5 35t67.5 25t88.5 9.5q59 0 92 -12t49 -31t20 -42t4 -45v-221q0 -39 11 -58.5t47 -19.5q4 0 10.5 0.5t10.5 1.5l2 -28q-24 -11 -59 -19.5t-63 -8.5q-36 0 -51.5 16t-25.5 39
q-24 -21 -58.5 -38t-80.5 -17q-34 0 -59.5 11.5t-42.5 30t-25.5 43t-8.5 51.5zM93 662q0 18 17.5 30.5t35.5 12.5q19 0 28.5 -14t17.5 -34l54 -143l-28 -17l-93 106q-32 36 -32 59zM265 662q0 9 5 17t13 13.5t17.5 9t18.5 3.5q20 0 29.5 -14t17.5 -34l53 -143l-27 -17
l-95 106q-32 36 -32 59z" />
    <glyph glyph-name="uni0202" unicode="&#x202;" horiz-adv-x="608" 
d="M267 532h-3l-79 -252h163zM-22 33q20 1 32.5 3.5t21 8.5t14 16t11.5 26q9 25 20.5 56t23.5 64.5t24 69.5t24 70l104 303h104l189 -568q5 -15 10.5 -24.5t14 -14.5t21 -7t31.5 -3v-33h-279v33l51 5q22 1 22 18q0 7 -3 17l-53 165h-189l-52 -165q-4 -9 -4 -18q0 -15 23 -18
l54 -4v-33h-215v33zM448 709h-31q-1 8 -5.5 20t-16.5 23t-33.5 18.5t-56.5 7.5t-56.5 -7.5t-33.5 -18.5t-16 -23t-5 -20h-32q0 24 4.5 49.5t19.5 46t43.5 34t77.5 13.5q48 0 76 -13t42.5 -33.5t18.5 -46t4 -50.5z" />
    <glyph glyph-name="uni0203" unicode="&#x203;" horiz-adv-x="511" 
d="M172 130q0 -35 16.5 -55.5t47.5 -20.5q13 0 27.5 4t26.5 13t20 23t8 34v135q-17 -11 -38.5 -21t-39.5 -18q-37 -14 -52.5 -36.5t-15.5 -57.5zM45 125q0 32 12 53t32 36t47.5 24.5t58.5 18.5q35 11 69.5 24t53.5 27v46q0 46 -19.5 62t-42.5 16t-46 -18t-42 -75
q-5 -16 -13 -25t-23 -9q-8 0 -20.5 3t-24.5 10t-20.5 18t-8.5 27q0 20 15.5 39.5t43.5 35t67.5 25t88.5 9.5q59 0 92 -12t49 -31t20 -42t4 -45v-221q0 -39 11 -58.5t47 -19.5q4 0 10.5 0.5t10.5 1.5l2 -28q-24 -11 -59 -19.5t-63 -8.5q-36 0 -51.5 16t-25.5 39
q-24 -21 -58.5 -38t-80.5 -17q-34 0 -59.5 11.5t-42.5 30t-25.5 43t-8.5 51.5zM400 497h-31q-1 8 -5.5 20t-16.5 23t-33.5 18.5t-56.5 7.5t-56.5 -7.5t-33.5 -18.5t-16 -23t-5 -20h-32q0 24 4.5 49.5t19.5 46t43.5 34t77.5 13.5q48 0 76 -13t42.5 -33.5t18.5 -46t4 -50.5z
" />
    <glyph glyph-name="uni0204" unicode="&#x204;" horiz-adv-x="590" 
d="M35 0v33q27 2 42.5 4t23.5 7.5t10 16t2 29.5v470q0 19 -2 29.5t-10 16.5t-23.5 8.5t-42.5 3.5v32h497v-167h-34q-9 36 -18.5 60.5t-24.5 39.5t-38.5 21.5t-61.5 6.5h-77q-20 0 -26.5 -6.5t-6.5 -27.5v-215h102q25 0 40 4t24 13.5t14 25.5t10 40h33v-211h-33q-5 25 -10 41
t-14 25.5t-24 13.5t-40 4h-102v-206q0 -24 6 -38t20 -21.5t36.5 -10t54.5 -2.5q36 0 62 6t45 21.5t33 44t27 73.5h33l-11 -185h-516zM121 862q0 18 17.5 30.5t35.5 12.5q19 0 28.5 -14t17.5 -34l54 -143l-28 -17l-93 106q-32 36 -32 59zM293 862q0 9 5 17t13 13.5t17.5 9
t18.5 3.5q20 0 29.5 -14t17.5 -34l53 -143l-27 -17l-95 106q-32 36 -32 59z" />
    <glyph glyph-name="uni0205" unicode="&#x205;" horiz-adv-x="492" 
d="M172 282h137q17 0 23.5 7t6.5 30q0 13 -2.5 32.5t-11 37.5t-23.5 30.5t-40 12.5q-27 0 -44.5 -15.5t-27.5 -38t-14 -48.5t-4 -48zM40 228q0 51 12.5 95.5t40.5 77.5t71.5 52t104.5 19q66 0 105.5 -20.5t60.5 -50.5t28 -63.5t7 -59.5q0 -23 -11.5 -30.5t-34.5 -7.5h-252
q0 -37 6 -70.5t21 -59.5t40 -41.5t63 -15.5q48 0 78.5 24t50.5 65l32 -18q-22 -60 -69.5 -97.5t-133.5 -37.5q-60 0 -102 19t-68.5 51.5t-38 76t-11.5 92.5zM106 662q0 18 17.5 30.5t35.5 12.5q19 0 28.5 -14t17.5 -34l54 -143l-28 -17l-93 106q-32 36 -32 59zM278 662
q0 9 5 17t13 13.5t17.5 9t18.5 3.5q20 0 29.5 -14t17.5 -34l53 -143l-27 -17l-95 106q-32 36 -32 59z" />
    <glyph glyph-name="uni0206" unicode="&#x206;" horiz-adv-x="590" 
d="M35 0v33q27 2 42.5 4t23.5 7.5t10 16t2 29.5v470q0 19 -2 29.5t-10 16.5t-23.5 8.5t-42.5 3.5v32h497v-167h-34q-9 36 -18.5 60.5t-24.5 39.5t-38.5 21.5t-61.5 6.5h-77q-20 0 -26.5 -6.5t-6.5 -27.5v-215h102q25 0 40 4t24 13.5t14 25.5t10 40h33v-211h-33q-5 25 -10 41
t-14 25.5t-24 13.5t-40 4h-102v-206q0 -24 6 -38t20 -21.5t36.5 -10t54.5 -2.5q36 0 62 6t45 21.5t33 44t27 73.5h33l-11 -185h-516zM444 709h-31q-1 8 -5.5 20t-16.5 23t-33.5 18.5t-56.5 7.5t-56.5 -7.5t-33.5 -18.5t-16 -23t-5 -20h-32q0 24 4.5 49.5t19.5 46t43.5 34
t77.5 13.5q48 0 76 -13t42.5 -33.5t18.5 -46t4 -50.5z" />
    <glyph glyph-name="uni0207" unicode="&#x207;" horiz-adv-x="492" 
d="M172 282h137q17 0 23.5 7t6.5 30q0 13 -2.5 32.5t-11 37.5t-23.5 30.5t-40 12.5q-27 0 -44.5 -15.5t-27.5 -38t-14 -48.5t-4 -48zM40 228q0 51 12.5 95.5t40.5 77.5t71.5 52t104.5 19q66 0 105.5 -20.5t60.5 -50.5t28 -63.5t7 -59.5q0 -23 -11.5 -30.5t-34.5 -7.5h-252
q0 -37 6 -70.5t21 -59.5t40 -41.5t63 -15.5q48 0 78.5 24t50.5 65l32 -18q-22 -60 -69.5 -97.5t-133.5 -37.5q-60 0 -102 19t-68.5 51.5t-38 76t-11.5 92.5zM413 497h-31q-1 8 -5.5 20t-16.5 23t-33.5 18.5t-56.5 7.5t-56.5 -7.5t-33.5 -18.5t-16 -23t-5 -20h-32
q0 24 4.5 49.5t19.5 46t43.5 34t77.5 13.5q48 0 76 -13t42.5 -33.5t18.5 -46t4 -50.5z" />
    <glyph glyph-name="uni0208" unicode="&#x208;" horiz-adv-x="356" 
d="M35 0v33q27 2 42.5 4t23.5 7.5t10 16t2 29.5v471q0 18 -2 29t-10 16.5t-23.5 8t-42.5 3.5v32h287v-32q-27 -1 -42.5 -3.5t-23 -8t-9.5 -16.5t-2 -29v-471q0 -19 2 -29.5t9.5 -16t23 -7.5t42.5 -4v-33h-287zM2 862q0 18 17.5 30.5t35.5 12.5q19 0 28.5 -14t17.5 -34
l54 -143l-28 -17l-93 106q-32 36 -32 59zM174 862q0 9 5 17t13 13.5t17.5 9t18.5 3.5q20 0 29.5 -14t17.5 -34l53 -143l-27 -17l-95 106q-32 36 -32 59z" />
    <glyph glyph-name="uni0209" unicode="&#x209;" horiz-adv-x="296" 
d="M30 0v33q22 2 34.5 3.5t19 6.5t8.5 14t2 25v284q0 27 -6 35t-20 10l-33 5v30l176 26l6 -6v-384q0 -16 2 -25t9 -14t19.5 -6.5t34.5 -3.5v-33h-252zM-23 662q0 18 17.5 30.5t35.5 12.5q19 0 28.5 -14t17.5 -34l54 -143l-28 -17l-93 106q-32 36 -32 59zM149 662q0 9 5 17
t13 13.5t17.5 9t18.5 3.5q20 0 29.5 -14t17.5 -34l53 -143l-27 -17l-95 106q-32 36 -32 59z" />
    <glyph glyph-name="uni020A" unicode="&#x20a;" horiz-adv-x="356" 
d="M35 0v33q27 2 42.5 4t23.5 7.5t10 16t2 29.5v471q0 18 -2 29t-10 16.5t-23.5 8t-42.5 3.5v32h287v-32q-27 -1 -42.5 -3.5t-23 -8t-9.5 -16.5t-2 -29v-471q0 -19 2 -29.5t9.5 -16t23 -7.5t42.5 -4v-33h-287zM325 709h-31q-1 8 -5.5 20t-16.5 23t-33.5 18.5t-56.5 7.5
t-56.5 -7.5t-33.5 -18.5t-16 -23t-5 -20h-32q0 24 4.5 49.5t19.5 46t43.5 34t77.5 13.5q48 0 76 -13t42.5 -33.5t18.5 -46t4 -50.5z" />
    <glyph glyph-name="uni020B" unicode="&#x20b;" horiz-adv-x="296" 
d="M30 0v33q22 2 34.5 3.5t19 6.5t8.5 14t2 25v284q0 27 -6 35t-20 10l-33 5v30l176 26l6 -6v-384q0 -16 2 -25t9 -14t19.5 -6.5t34.5 -3.5v-33h-252zM284 497h-31q-1 8 -5.5 20t-16.5 23t-33.5 18.5t-56.5 7.5t-56.5 -7.5t-33.5 -18.5t-16 -23t-5 -20h-32q0 24 4.5 49.5
t19.5 46t43.5 34t77.5 13.5q48 0 76 -13t42.5 -33.5t18.5 -46t4 -50.5z" />
    <glyph glyph-name="uni020C" unicode="&#x20c;" horiz-adv-x="725" 
d="M191 328q0 -31 2.5 -65.5t9.5 -68t19 -64t31.5 -53.5t46.5 -37t63 -14q56 0 89.5 29.5t52.5 74.5t25 97.5t6 98.5q0 31 -2.5 65t-9.5 67t-19 63.5t-31.5 53.5t-46.5 36.5t-64 13.5q-55 0 -89 -29.5t-52.5 -74t-24.5 -96.5t-6 -97zM45 326q0 78 19.5 140.5t59 107t99.5 68
t140 23.5t140 -23.5t100 -68t59.5 -107t19.5 -140.5t-19.5 -141t-59.5 -107.5t-99.5 -68t-140.5 -23.5q-80 0 -140 23.5t-99.5 68t-59 107.5t-19.5 141zM190 862q0 18 17.5 30.5t35.5 12.5q19 0 28.5 -14t17.5 -34l54 -143l-28 -17l-93 106q-32 36 -32 59zM362 862q0 9 5 17
t13 13.5t17.5 9t18.5 3.5q20 0 29.5 -14t17.5 -34l53 -143l-27 -17l-95 106q-32 36 -32 59z" />
    <glyph glyph-name="uni020D" unicode="&#x20d;" horiz-adv-x="553" 
d="M172 230q0 -96 25 -148.5t81 -52.5q55 0 80 52.5t25 148.5t-25 149t-80 53q-56 0 -81 -53t-25 -149zM40 230q0 56 14 101t43 76.5t74 48t107 16.5q123 0 180 -64.5t57 -177.5q0 -56 -14 -101t-43 -76t-73.5 -47.5t-106.5 -16.5t-107 16.5t-74 47.5t-43 76t-14 101z
M116 662q0 18 17.5 30.5t35.5 12.5q19 0 28.5 -14t17.5 -34l54 -143l-28 -17l-93 106q-32 36 -32 59zM288 662q0 9 5 17t13 13.5t17.5 9t18.5 3.5q20 0 29.5 -14t17.5 -34l53 -143l-27 -17l-95 106q-32 36 -32 59z" />
    <glyph glyph-name="uni020E" unicode="&#x20e;" horiz-adv-x="725" 
d="M191 328q0 -31 2.5 -65.5t9.5 -68t19 -64t31.5 -53.5t46.5 -37t63 -14q56 0 89.5 29.5t52.5 74.5t25 97.5t6 98.5q0 31 -2.5 65t-9.5 67t-19 63.5t-31.5 53.5t-46.5 36.5t-64 13.5q-55 0 -89 -29.5t-52.5 -74t-24.5 -96.5t-6 -97zM45 326q0 78 19.5 140.5t59 107t99.5 68
t140 23.5t140 -23.5t100 -68t59.5 -107t19.5 -140.5t-19.5 -141t-59.5 -107.5t-99.5 -68t-140.5 -23.5q-80 0 -140 23.5t-99.5 68t-59 107.5t-19.5 141zM514 709h-31q-1 8 -5.5 20t-16.5 23t-33.5 18.5t-56.5 7.5t-56.5 -7.5t-33.5 -18.5t-16 -23t-5 -20h-32q0 24 4.5 49.5
t19.5 46t43.5 34t77.5 13.5q48 0 76 -13t42.5 -33.5t18.5 -46t4 -50.5z" />
    <glyph glyph-name="uni020F" unicode="&#x20f;" horiz-adv-x="553" 
d="M172 230q0 -96 25 -148.5t81 -52.5q55 0 80 52.5t25 148.5t-25 149t-80 53q-56 0 -81 -53t-25 -149zM40 230q0 56 14 101t43 76.5t74 48t107 16.5q123 0 180 -64.5t57 -177.5q0 -56 -14 -101t-43 -76t-73.5 -47.5t-106.5 -16.5t-107 16.5t-74 47.5t-43 76t-14 101z
M422 497h-31q-1 8 -5.5 20t-16.5 23t-33.5 18.5t-56.5 7.5t-56.5 -7.5t-33.5 -18.5t-16 -23t-5 -20h-32q0 24 4.5 49.5t19.5 46t43.5 34t77.5 13.5q48 0 76 -13t42.5 -33.5t18.5 -46t4 -50.5z" />
    <glyph glyph-name="uni0210" unicode="&#x210;" horiz-adv-x="636" 
d="M245 340h56q70 0 100 36.5t30 98.5q0 39 -10 65.5t-27 42t-39.5 22t-47.5 6.5q-41 0 -51.5 -8.5t-10.5 -31.5v-231zM35 0v33q27 2 42.5 4t23.5 7.5t10 16t2 29.5v471q0 18 -2 29t-10 16.5t-23.5 8t-42.5 3.5v32h309q51 0 92.5 -8.5t71 -28t46 -50.5t16.5 -77
q0 -32 -11.5 -59t-32.5 -47t-50 -33.5t-63 -19.5v-3q37 -9 60 -25t36.5 -37t20.5 -46t11 -52q3 -22 9 -44.5t16 -41t26.5 -31t40.5 -14.5v-33h-72q-48 0 -76.5 12t-45 35t-24.5 55.5t-16 72.5q-6 32 -13 55.5t-19 39t-29.5 23.5t-43.5 8h-49v-211q0 -19 2 -29.5t9.5 -16.5
t21.5 -8t39 -3v-33h-282zM124 862q0 18 17.5 30.5t35.5 12.5q19 0 28.5 -14t17.5 -34l54 -143l-28 -17l-93 106q-32 36 -32 59zM296 862q0 9 5 17t13 13.5t17.5 9t18.5 3.5q20 0 29.5 -14t17.5 -34l53 -143l-27 -17l-95 106q-32 36 -32 59z" />
    <glyph glyph-name="uni0211" unicode="&#x211;" horiz-adv-x="404" 
d="M30 0v33q22 2 34.5 3.5t19 6.5t8.5 14t2 25v283q0 28 -6 36t-20 10l-33 5v30l169 26l12 -80q22 21 39 36t31 25t27 14.5t27 4.5q29 0 44.5 -17.5t15.5 -43.5t-14 -47t-43 -21q-12 0 -21 4t-17 9q-29 19 -47 19t-29.5 -19t-11.5 -61v-213q0 -16 2.5 -25t11 -14t25.5 -6.5
t45 -3.5v-33h-271zM57 662q0 18 17.5 30.5t35.5 12.5q19 0 28.5 -14t17.5 -34l54 -143l-28 -17l-93 106q-32 36 -32 59zM229 662q0 9 5 17t13 13.5t17.5 9t18.5 3.5q20 0 29.5 -14t17.5 -34l53 -143l-27 -17l-95 106q-32 36 -32 59z" />
    <glyph glyph-name="uni0212" unicode="&#x212;" horiz-adv-x="636" 
d="M245 340h56q70 0 100 36.5t30 98.5q0 39 -10 65.5t-27 42t-39.5 22t-47.5 6.5q-41 0 -51.5 -8.5t-10.5 -31.5v-231zM35 0v33q27 2 42.5 4t23.5 7.5t10 16t2 29.5v471q0 18 -2 29t-10 16.5t-23.5 8t-42.5 3.5v32h309q51 0 92.5 -8.5t71 -28t46 -50.5t16.5 -77
q0 -32 -11.5 -59t-32.5 -47t-50 -33.5t-63 -19.5v-3q37 -9 60 -25t36.5 -37t20.5 -46t11 -52q3 -22 9 -44.5t16 -41t26.5 -31t40.5 -14.5v-33h-72q-48 0 -76.5 12t-45 35t-24.5 55.5t-16 72.5q-6 32 -13 55.5t-19 39t-29.5 23.5t-43.5 8h-49v-211q0 -19 2 -29.5t9.5 -16.5
t21.5 -8t39 -3v-33h-282zM448 709h-31q-1 8 -5.5 20t-16.5 23t-33.5 18.5t-56.5 7.5t-56.5 -7.5t-33.5 -18.5t-16 -23t-5 -20h-32q0 24 4.5 49.5t19.5 46t43.5 34t77.5 13.5q48 0 76 -13t42.5 -33.5t18.5 -46t4 -50.5z" />
    <glyph glyph-name="uni0213" unicode="&#x213;" horiz-adv-x="404" 
d="M30 0v33q22 2 34.5 3.5t19 6.5t8.5 14t2 25v283q0 28 -6 36t-20 10l-33 5v30l169 26l12 -80q22 21 39 36t31 25t27 14.5t27 4.5q29 0 44.5 -17.5t15.5 -43.5t-14 -47t-43 -21q-12 0 -21 4t-17 9q-29 19 -47 19t-29.5 -19t-11.5 -61v-213q0 -16 2.5 -25t11 -14t25.5 -6.5
t45 -3.5v-33h-271zM363 497h-31q-1 8 -5.5 20t-16.5 23t-33.5 18.5t-56.5 7.5t-56.5 -7.5t-33.5 -18.5t-16 -23t-5 -20h-32q0 24 4.5 49.5t19.5 46t43.5 34t77.5 13.5q48 0 76 -13t42.5 -33.5t18.5 -46t4 -50.5z" />
    <glyph glyph-name="uni0214" unicode="&#x214;" horiz-adv-x="746" 
d="M31 618v32h284v-32q-26 -1 -41.5 -3.5t-23.5 -8t-10 -16.5t-2 -29v-343q0 -41 6.5 -76.5t22 -61t41.5 -40t65 -14.5t65.5 14.5t42 40t22.5 61t7 76.5v343q0 18 -2 29t-10 16.5t-23.5 8t-41.5 3.5v32h283v-32q-26 -1 -41 -3.5t-22.5 -8t-9.5 -16.5t-2 -29v-339
q0 -125 -68 -180.5t-205 -55.5q-135 0 -198 55t-63 180v340q0 18 -2 29t-9.5 16.5t-23 8t-41.5 3.5zM196 862q0 18 17.5 30.5t35.5 12.5q19 0 28.5 -14t17.5 -34l54 -143l-28 -17l-93 106q-32 36 -32 59zM368 862q0 9 5 17t13 13.5t17.5 9t18.5 3.5q20 0 29.5 -14t17.5 -34
l53 -143l-27 -17l-95 106q-32 36 -32 59z" />
    <glyph glyph-name="uni0215" unicode="&#x215;" horiz-adv-x="590" 
d="M27 416v30l174 26l7 -6v-307q0 -55 23.5 -79.5t64.5 -24.5q50 0 71.5 30.5t21.5 76.5v204q0 27 -5.5 35t-19.5 10l-34 5v30l174 26l8 -6v-384q0 -16 2 -25t8.5 -14t19 -6.5t34.5 -3.5v-33h-179l-8 54q-13 -10 -29.5 -21.5t-37.5 -21t-46 -16t-54 -6.5q-27 0 -51.5 6.5
t-43.5 23t-30.5 43.5t-11.5 68v236q0 27 -5 35t-19 10zM130 662q0 18 17.5 30.5t35.5 12.5q19 0 28.5 -14t17.5 -34l54 -143l-28 -17l-93 106q-32 36 -32 59zM302 662q0 9 5 17t13 13.5t17.5 9t18.5 3.5q20 0 29.5 -14t17.5 -34l53 -143l-27 -17l-95 106q-32 36 -32 59z" />
    <glyph glyph-name="uni0216" unicode="&#x216;" horiz-adv-x="746" 
d="M31 618v32h284v-32q-26 -1 -41.5 -3.5t-23.5 -8t-10 -16.5t-2 -29v-343q0 -41 6.5 -76.5t22 -61t41.5 -40t65 -14.5t65.5 14.5t42 40t22.5 61t7 76.5v343q0 18 -2 29t-10 16.5t-23.5 8t-41.5 3.5v32h283v-32q-26 -1 -41 -3.5t-22.5 -8t-9.5 -16.5t-2 -29v-339
q0 -125 -68 -180.5t-205 -55.5q-135 0 -198 55t-63 180v340q0 18 -2 29t-9.5 16.5t-23 8t-41.5 3.5zM519 709h-31q-1 8 -5.5 20t-16.5 23t-33.5 18.5t-56.5 7.5t-56.5 -7.5t-33.5 -18.5t-16 -23t-5 -20h-32q0 24 4.5 49.5t19.5 46t43.5 34t77.5 13.5q48 0 76 -13t42.5 -33.5
t18.5 -46t4 -50.5z" />
    <glyph glyph-name="uni0217" unicode="&#x217;" horiz-adv-x="590" 
d="M27 416v30l174 26l7 -6v-307q0 -55 23.5 -79.5t64.5 -24.5q50 0 71.5 30.5t21.5 76.5v204q0 27 -5.5 35t-19.5 10l-34 5v30l174 26l8 -6v-384q0 -16 2 -25t8.5 -14t19 -6.5t34.5 -3.5v-33h-179l-8 54q-13 -10 -29.5 -21.5t-37.5 -21t-46 -16t-54 -6.5q-27 0 -51.5 6.5
t-43.5 23t-30.5 43.5t-11.5 68v236q0 27 -5 35t-19 10zM437 497h-31q-1 8 -5.5 20t-16.5 23t-33.5 18.5t-56.5 7.5t-56.5 -7.5t-33.5 -18.5t-16 -23t-5 -20h-32q0 24 4.5 49.5t19.5 46t43.5 34t77.5 13.5q48 0 76 -13t42.5 -33.5t18.5 -46t4 -50.5z" />
    <glyph glyph-name="uni0218" unicode="&#x218;" horiz-adv-x="527" 
d="M46 206h33q24 -86 71.5 -133t110.5 -47q48 0 79 27.5t31 79.5q0 27 -10 49t-27 39t-40 31t-50 25l-14 6q-32 14 -63.5 30.5t-56.5 39.5t-40.5 54.5t-15.5 73.5q0 83 59.5 133.5t167.5 50.5q46 0 93 -10.5t79 -31.5v-147h-32q-17 80 -54.5 114.5t-87.5 34.5q-48 0 -77 -28
t-29 -73q0 -25 10.5 -44.5t28 -34.5t39.5 -26.5t44 -20.5l21 -8q35 -13 67.5 -30.5t57.5 -41.5t39.5 -56.5t14.5 -76.5q0 -37 -12 -72.5t-39.5 -63.5t-72.5 -45.5t-111 -17.5q-25 0 -53.5 3t-55.5 10t-51.5 18t-41.5 27zM186 -250q20 22 30.5 40t10.5 42q0 11 -5 20t-11 18
t-11 19t-5 22q0 19 14.5 34t38.5 15q26 0 44.5 -20.5t18.5 -55.5q0 -24 -9.5 -45.5t-24.5 -40.5t-34.5 -35t-38.5 -31z" />
    <glyph glyph-name="uni0219" unicode="&#x219;" horiz-adv-x="441" 
d="M49 168h33q9 -29 22 -54.5t30.5 -44t39.5 -29.5t47 -11q32 0 51.5 17t19.5 46q0 20 -8.5 34.5t-22.5 26t-31.5 19.5t-35.5 14q-30 11 -55.5 24t-43.5 30.5t-28.5 40.5t-10.5 52q0 66 48.5 102.5t132.5 36.5q35 0 71 -7.5t63 -25.5v-120h-32q-11 50 -38 81.5t-69 31.5
q-31 0 -49 -17.5t-18 -43.5q0 -16 8 -29t21.5 -22.5t31 -17.5t35.5 -14q68 -23 105 -56.5t37 -93.5q0 -72 -50.5 -110.5t-135.5 -38.5q-21 0 -43 2.5t-43 8t-39.5 14t-31.5 20.5zM149 -250q20 22 30.5 40t10.5 42q0 11 -5 20t-11 18t-11 19t-5 22q0 19 14.5 34t38.5 15
q26 0 44.5 -20.5t18.5 -55.5q0 -24 -9.5 -45.5t-24.5 -40.5t-34.5 -35t-38.5 -31z" />
    <glyph glyph-name="uni021A" unicode="&#x21a;" horiz-adv-x="591" 
d="M20 481v169h553v-169h-33q-9 36 -18 61t-23 40.5t-36 22t-57 6.5h-45v-523q0 -15 1.5 -24.5t7.5 -15.5t17 -9t29 -4l40 -2v-33h-320v33l41 2q36 2 44.5 13t8.5 40v523h-44q-34 0 -55.5 -6.5t-35.5 -22t-23.5 -40.5t-18.5 -61h-33zM233 -250q20 22 30.5 40t10.5 42
q0 11 -5 20t-11 18t-11 19t-5 22q0 19 14.5 34t38.5 15q26 0 44.5 -20.5t18.5 -55.5q0 -24 -9.5 -45.5t-24.5 -40.5t-34.5 -35t-38.5 -31z" />
    <glyph glyph-name="uni021B" unicode="&#x21b;" horiz-adv-x="346" 
d="M33 417v44h64l74 118h44v-118h106v-44h-106v-276q0 -48 18 -68.5t47 -20.5t54 11l9 -27q-33 -21 -70.5 -34t-68.5 -13q-18 0 -37.5 5.5t-36 19t-27.5 36t-11 55.5v312h-59zM131 -250q20 22 30.5 40t10.5 42q0 11 -5 20t-11 18t-11 19t-5 22q0 19 14.5 34t38.5 15
q26 0 44.5 -20.5t18.5 -55.5q0 -24 -9.5 -45.5t-24.5 -40.5t-34.5 -35t-38.5 -31z" />
    <glyph glyph-name="uni021E" unicode="&#x21e;" horiz-adv-x="762" 
d="M35 0v33q27 2 42.5 4t23.5 7.5t10 16t2 29.5v471q0 18 -2 29t-10 16.5t-23.5 8t-42.5 3.5v32h287v-32q-27 -1 -42.5 -3.5t-23 -8t-9.5 -16.5t-2 -29v-198h274v198q0 18 -2 29t-10 16.5t-23.5 8t-42.5 3.5v32h286v-32q-27 -1 -42.5 -3.5t-23 -8t-9.5 -16.5t-2 -29v-471
q0 -19 2 -29.5t9.5 -16t23 -7.5t42.5 -4v-33h-286v33q27 2 42.5 4t23.5 7.5t10 16t2 29.5v231h-274v-231q0 -19 2 -29.5t9.5 -16t23 -7.5t42.5 -4v-33h-287zM218 872l21 23l111 -82q9 -7 18 -12t16 -5t16 5t18 12l110 82l21 -23l-127 -147q-10 -11 -19.5 -19t-18.5 -8
q-10 0 -19.5 7.5t-19.5 19.5z" />
    <glyph glyph-name="uni021F" unicode="&#x21f;" horiz-adv-x="589" 
d="M22 1v33q22 2 34.5 4t19 7t8.5 14t2 24v509q0 27 -5.5 36t-19.5 11l-33 4v31l172 25l7 -6v-287h2q43 31 79.5 49t83.5 18q69 0 104.5 -39.5t35.5 -107.5v-245q0 -15 2 -23.5t9 -13t19.5 -6.5t33.5 -4v-33h-244v33l20 2q22 2 29.5 9t7.5 33v233q0 97 -83 97
q-49 0 -73 -31.5t-24 -75.5v-223q0 -26 7 -33t28 -9l22 -2v-33h-244zM142 871l21 23l111 -82q9 -7 18 -12t16 -5t16 5t18 12l110 82l21 -23l-127 -147q-10 -11 -19.5 -19t-18.5 -8q-10 0 -19.5 7.5t-19.5 19.5z" />
    <glyph glyph-name="uni0226" unicode="&#x226;" horiz-adv-x="608" 
d="M267 532h-3l-79 -252h163zM-22 33q20 1 32.5 3.5t21 8.5t14 16t11.5 26q9 25 20.5 56t23.5 64.5t24 69.5t24 70l104 303h104l189 -568q5 -15 10.5 -24.5t14 -14.5t21 -7t31.5 -3v-33h-279v33l51 5q22 1 22 18q0 7 -3 17l-53 165h-189l-52 -165q-4 -9 -4 -18q0 -15 23 -18
l54 -4v-33h-215v33zM233 762q0 25 17.5 44.5t50.5 19.5t50.5 -19.5t17.5 -44.5t-17.5 -45t-50.5 -20t-50.5 20t-17.5 45z" />
    <glyph glyph-name="uni0227" unicode="&#x227;" horiz-adv-x="511" 
d="M172 130q0 -35 16.5 -55.5t47.5 -20.5q13 0 27.5 4t26.5 13t20 23t8 34v135q-17 -11 -38.5 -21t-39.5 -18q-37 -14 -52.5 -36.5t-15.5 -57.5zM45 125q0 32 12 53t32 36t47.5 24.5t58.5 18.5q35 11 69.5 24t53.5 27v46q0 46 -19.5 62t-42.5 16t-46 -18t-42 -75
q-5 -16 -13 -25t-23 -9q-8 0 -20.5 3t-24.5 10t-20.5 18t-8.5 27q0 20 15.5 39.5t43.5 35t67.5 25t88.5 9.5q59 0 92 -12t49 -31t20 -42t4 -45v-221q0 -39 11 -58.5t47 -19.5q4 0 10.5 0.5t10.5 1.5l2 -28q-24 -11 -59 -19.5t-63 -8.5q-36 0 -51.5 16t-25.5 39
q-24 -21 -58.5 -38t-80.5 -17q-34 0 -59.5 11.5t-42.5 30t-25.5 43t-8.5 51.5zM189 561q0 25 17.5 44.5t50.5 19.5t50.5 -19.5t17.5 -44.5t-17.5 -45t-50.5 -20t-50.5 20t-17.5 45z" />
    <glyph glyph-name="uni022E" unicode="&#x22e;" horiz-adv-x="725" 
d="M191 328q0 -31 2.5 -65.5t9.5 -68t19 -64t31.5 -53.5t46.5 -37t63 -14q56 0 89.5 29.5t52.5 74.5t25 97.5t6 98.5q0 31 -2.5 65t-9.5 67t-19 63.5t-31.5 53.5t-46.5 36.5t-64 13.5q-55 0 -89 -29.5t-52.5 -74t-24.5 -96.5t-6 -97zM45 326q0 78 19.5 140.5t59 107t99.5 68
t140 23.5t140 -23.5t100 -68t59.5 -107t19.5 -140.5t-19.5 -141t-59.5 -107.5t-99.5 -68t-140.5 -23.5q-80 0 -140 23.5t-99.5 68t-59 107.5t-19.5 141zM299 762q0 25 17.5 44.5t50.5 19.5t50.5 -19.5t17.5 -44.5t-17.5 -45t-50.5 -20t-50.5 20t-17.5 45z" />
    <glyph glyph-name="uni022F" unicode="&#x22f;" horiz-adv-x="553" 
d="M172 230q0 -96 25 -148.5t81 -52.5q55 0 80 52.5t25 148.5t-25 149t-80 53q-56 0 -81 -53t-25 -149zM40 230q0 56 14 101t43 76.5t74 48t107 16.5q123 0 180 -64.5t57 -177.5q0 -56 -14 -101t-43 -76t-73.5 -47.5t-106.5 -16.5t-107 16.5t-74 47.5t-43 76t-14 101z
M212 561q0 25 17.5 44.5t50.5 19.5t50.5 -19.5t17.5 -44.5t-17.5 -45t-50.5 -20t-50.5 20t-17.5 45z" />
    <glyph glyph-name="uni0232" unicode="&#x232;" horiz-adv-x="577" 
d="M-7 618v32h279v-32l-53 -6q-14 -2 -15.5 -10t4.5 -20q9 -21 25.5 -56.5t34.5 -74t35.5 -75t29.5 -60.5h2q16 34 33 70.5t33.5 71t30.5 66t23 54.5q13 32 -12 35l-50 5v32h219v-32q-21 -2 -34 -4.5t-23 -8.5t-18 -16t-17 -26q-15 -25 -32 -57t-35.5 -67t-37 -71t-35.5 -71
q-7 -16 -11 -30t-4 -33v-144q0 -19 2 -29.5t11 -16t27.5 -7.5t51.5 -4v-33h-318v33q33 2 52 4t28.5 7.5t12 16t2.5 29.5v136q0 17 -5.5 32t-12.5 29q-11 23 -30 60.5t-40 78.5t-41 79t-32 61q-8 16 -14.5 25.5t-15 15t-20 8t-30.5 3.5zM170 697v73h285v-73h-285z" />
    <glyph glyph-name="uni0233" unicode="&#x233;" horiz-adv-x="493" 
d="M-5 428v33h247v-33l-38 -6q-15 -1 -15 -13q0 -8 4 -17l101 -279h3l91 280q2 10 2 13q0 15 -16 16l-42 6v33h187v-33l-18 -2q-22 -3 -33 -15.5t-22 -41.5l-169 -432q-20 -51 -38 -83t-35 -50t-34.5 -24.5t-35.5 -6.5q-33 0 -56.5 16t-23.5 42q0 11 5 23t12.5 21.5t18 15.5
t20.5 6q9 0 16 -4.5t15 -11.5q13 -11 22 -14.5t16 -3.5q11 0 20 9.5t15 22.5t9.5 27.5t3.5 25.5q0 20 -8 42l-156 392q-8 23 -17.5 31t-26.5 11zM136 496v73h285v-73h-285z" />
    <glyph glyph-name="uni0237" unicode="&#x237;" horiz-adv-x="292" 
d="M-14 -194q39 12 61.5 33t34 49.5t14 64.5t2.5 78v335q0 27 -5 35t-19 10l-34 5v30l175 26l7 -6v-447q0 -65 -13 -110.5t-41.5 -74t-72.5 -42t-107 -13.5z" />
    <glyph glyph-name="uni0241" unicode="&#x241;" horiz-adv-x="501" 
d="M84 0v33q26 2 44 4t29 7.5t16 15.5t5 28v80q0 35 7 64t18 53t25 45t28 40q26 36 45.5 72.5t19.5 88.5q0 51 -19.5 72.5t-49.5 21.5q-35 0 -60.5 -25.5t-43.5 -73.5q-11 -28 -45 -28q-7 0 -18 4.5t-21.5 12.5t-17.5 19.5t-7 24.5q0 17 13.5 35.5t40.5 34.5t67 26t92 10
q100 0 154.5 -39t54.5 -108q0 -51 -23 -87.5t-52 -70.5q-15 -17 -28.5 -34.5t-24.5 -37t-17.5 -41.5t-6.5 -48v-111q0 -18 5 -28t16.5 -15.5t29.5 -7.5t44 -4v-33h-320z" />
    <glyph glyph-name="uni0244" unicode="&#x244;" horiz-adv-x="769" 
d="M373 26q39 0 65.5 14.5t42.5 40t22.5 61t6.5 76.5v103h-272v-103q0 -41 6.5 -76.5t22 -61t41.5 -40t65 -14.5zM729 363v-42h-88v-100q0 -124 -68.5 -179.5t-204.5 -55.5q-135 0 -198 55.5t-63 179.5v100h-79v42h79v198q0 18 -2 29t-10 16.5t-23 8t-42 3.5v32h285v-32
q-26 -1 -41.5 -3.5t-23.5 -8t-10 -16.5t-2 -29v-198h272v198q0 18 -2 29t-10 16.5t-23 8t-42 3.5v32h284v-32q-26 -1 -41.5 -3.5t-23 -8t-9.5 -16.5t-2 -29v-198h88z" />
    <glyph glyph-name="uni0245" unicode="&#x245;" horiz-adv-x="604" 
d="M-22 0v33q19 2 31.5 4t20.5 7.5t14 15.5t12 26q15 36 35.5 95.5t49.5 141.5l111 327h102l188 -566q5 -16 10.5 -26t14 -15t20.5 -7t31 -3v-33h-277v33l52 4q17 2 19 10t-3 24l-144 460h-3q-6 -20 -17.5 -56t-23.5 -75t-23.5 -74.5t-17.5 -53.5q-11 -33 -20.5 -64.5
t-17 -58.5t-13.5 -48t-9 -33q-4 -15 -0.5 -22t19.5 -9l54 -4v-33h-215z" />
    <glyph glyph-name="uni0250" unicode="&#x250;" horiz-adv-x="511" 
d="M193 197q17 8 43 19t50 23q27 13 40 31.5t13 51.5q0 39 -21 62t-54 23q-11 0 -23.5 -3.5t-23 -11.5t-17.5 -22.5t-7 -37.5v-135zM-8 444q25 11 61 19.5t69 8.5q31 0 45 -16t24 -39q12 8 26.5 17.5t31.5 18t36.5 14t41.5 5.5q35 0 61.5 -11t44 -30t26.5 -43.5t9 -50.5
q0 -38 -21 -67.5t-75 -48.5q-24 -8 -51 -16.5t-51.5 -17t-45 -17t-31.5 -17.5v-46q0 -23 6 -38t15 -24t20.5 -12.5t22.5 -3.5q23 0 46 18t41 75q6 16 13 25t22 9q9 0 21.5 -3t24.5 -10t20.5 -17t8.5 -24q0 -22 -15 -42t-43 -36t-67 -25.5t-87 -9.5q-59 0 -93 12t-51 31
t-21 42t-4 44v221q0 42 -10 57t-21 18t-23.5 3.5t-21.5 -1.5z" />
    <glyph glyph-name="uni0251" unicode="&#x251;" horiz-adv-x="563" 
d="M172 239q0 -88 30 -136.5t84 -48.5q38 0 57 26t19 69v179q0 46 -14 75t-57 29q-55 0 -87 -50.5t-32 -142.5zM40 218q0 59 17 106t48.5 80t76.5 50.5t100 17.5q37 0 69 -7.5t57 -21.5l41 29h38v-390q0 -16 1.5 -25t8 -14t19.5 -6.5t35 -3.5v-33h-179l-9 9l-1 47
q-35 -35 -64.5 -51t-64.5 -16q-45 0 -80.5 16t-60.5 46t-38.5 72.5t-13.5 94.5z" />
    <glyph glyph-name="uni0252" unicode="&#x252;" horiz-adv-x="563" 
d="M202 133q0 -23 3 -42t12 -33t24.5 -21.5t39.5 -7.5q49 0 80 50.5t31 143.5q0 87 -29 135.5t-79 48.5q-43 0 -62.5 -25.5t-19.5 -69.5v-179zM16 426v31l181 8l5 -53q17 17 33 28.5t32 18.5t33 10t36 3q43 0 77.5 -16.5t59 -46.5t38 -72t13.5 -93q0 -59 -17 -106.5
t-48.5 -80.5t-76.5 -50.5t-101 -17.5q-36 0 -67.5 7.5t-56.5 21.5l-40 -29h-38v390q0 14 -2 22.5t-7 13t-15 6.5t-27 3z" />
    <glyph glyph-name="uni0253" unicode="&#x253;" horiz-adv-x="562" 
d="M389 222q0 89 -29 136.5t-85 47.5q-41 0 -59 -24.5t-18 -65.5v-184q0 -20 3 -38.5t11 -32.5t22.5 -22.5t37.5 -8.5q55 0 86 49t31 143zM522 240q0 -118 -60.5 -184.5t-175.5 -66.5q-42 0 -75 8t-57 22l-41 -29h-40v478q0 103 56.5 158t164.5 55q48 0 85 -9.5t63 -25
t39.5 -35t13.5 -39.5q0 -17 -8.5 -28.5t-20.5 -19t-25 -10.5t-21 -3q-17 0 -26 10t-14 28q-9 29 -18 47t-19.5 28t-22 13t-24.5 3q-22 0 -40 -6.5t-31 -22t-20 -41.5t-7 -64v-89q36 32 69 44.5t68 12.5q43 0 77.5 -16.5t59 -46.5t37.5 -73.5t13 -97.5z" />
    <glyph glyph-name="uni0254" unicode="&#x254;" horiz-adv-x="471" 
d="M17 332q12 42 34 69t48 42.5t55.5 22t56.5 6.5q103 0 162 -58.5t59 -175.5q0 -54 -14 -99.5t-42.5 -78.5t-71.5 -52t-102 -19q-36 0 -68.5 7t-57 20t-39 31t-14.5 39q0 15 7 26t17.5 18t23 10t23.5 3q17 0 26 -7.5t14 -22.5q13 -41 29.5 -62.5t42.5 -21.5q18 0 35 10.5
t29.5 33t20.5 56.5t8 82q0 99 -34 148t-96 49q-40 0 -69 -21t-52 -70z" />
    <glyph glyph-name="uni0255" unicode="&#x255;" horiz-adv-x="466" 
d="M40 224q0 54 14.5 99.5t43 78.5t71.5 51.5t101 18.5q36 0 68.5 -7.5t57 -20.5t39 -31t14.5 -40q0 -15 -7 -25.5t-17.5 -17t-22.5 -9.5t-22 -3q-33 0 -42 31q-12 40 -28.5 61.5t-43.5 21.5q-18 0 -35 -10.5t-30 -33t-21 -56.5t-8 -82q0 -64 15 -109t46 -67
q20 73 50.5 103.5t70.5 30.5q26 0 42.5 -7.5t26 -19.5t13.5 -26.5t4 -29.5q0 -28 -12 -53t-34 -44t-52 -29.5t-66 -10.5h-12.5t-10.5 1q-4 -24 -6 -52t-4 -60l-39 4q2 32 5 59t7 52q-82 12 -129 70.5t-47 161.5zM272 60q6 -2 13 -2h15q19 0 37 4.5t32.5 13.5t23.5 22.5
t9 31.5q0 14 -9.5 29.5t-35.5 15.5q-32 0 -51 -29.5t-34 -85.5z" />
    <glyph glyph-name="uni0256" unicode="&#x256;" horiz-adv-x="572" 
d="M40 222q0 118 65 184t179 66q53 0 88 -16v134q0 26 -5.5 36t-20.5 12l-34 4v31l176 24l7 -5v-692q0 -41 -5 -73.5t-5 -61.5q0 -32 11.5 -42.5t21.5 -10.5t20 10.5t20 36.5q14 43 48 43q20 0 37 -14.5t17 -36.5q0 -16 -10.5 -30t-28.5 -24.5t-41.5 -17t-49.5 -6.5
q-75 0 -116.5 47.5t-41.5 144.5v84h-1q-75 -60 -141 -60q-43 0 -78 16.5t-60 47t-38.5 73.5t-13.5 96zM173 241q0 -89 30.5 -138t86.5 -49q39 0 60.5 24.5t21.5 70.5v191q0 44 -21.5 68t-59.5 24q-55 0 -86.5 -50t-31.5 -141z" />
    <glyph glyph-name="uni0257" unicode="&#x257;" horiz-adv-x="562" 
d="M378 0l-6 6v43q-77 -60 -142 -60q-43 0 -78 16.5t-60 47t-38.5 73.5t-13.5 96q0 118 65 184t179 66q59 0 95 -19v59q0 38 9.5 71.5t28.5 59t48 40t68 14.5q27 0 50 -6.5t39.5 -17.5t26 -25.5t9.5 -30.5q0 -14 -7 -24t-17 -16t-21 -9t-19 -3q-22 0 -33 22
q-17 38 -29.5 54.5t-26.5 16.5t-20.5 -11.5t-6.5 -29.5q0 -12 3 -29t6 -36t6 -37t3 -33v-400q0 -15 1.5 -24t8 -14t19.5 -7t35 -4v-33h-182zM173 241q0 -89 30.5 -138t86.5 -49q39 0 60.5 24.5t21.5 70.5v191q0 44 -21 68t-59 24q-56 0 -87.5 -50t-31.5 -141z" />
    <glyph glyph-name="uni0258" unicode="&#x258;" horiz-adv-x="492" 
d="M154 321q0 -23 6.5 -31t24.5 -8h137q0 67 -25 108.5t-65 41.5q-35 0 -56.5 -31t-21.5 -80zM23 278q0 90 55 142t152 52q107 0 166 -64t59 -182q0 -115 -57.5 -176t-164.5 -61q-152 0 -202 135l31 18q23 -45 54 -67t75 -22q65 0 98 47.5t33 139.5h-252q-26 0 -36.5 9
t-10.5 29z" />
    <glyph glyph-name="uni0259" unicode="&#x259;" horiz-adv-x="492" 
d="M154 141q0 -13 2.5 -32t11 -37t23.5 -30.5t40 -12.5q27 0 44.5 15.5t27.5 38t14 48.5t4 48h-136q-18 0 -24.5 -7.5t-6.5 -30.5zM23 182q0 23 12 31t35 8h251q0 37 -6.5 70.5t-21.5 59.5t-40 41.5t-62 15.5q-48 0 -78.5 -24t-50.5 -65l-31 18q11 30 28 54.5t41 42.5
t56.5 28t74.5 10q62 0 104.5 -18.5t68.5 -51t38 -75.5t12 -92q0 -52 -12.5 -97t-40.5 -78t-71 -52t-105 -19q-66 0 -105.5 20.5t-61 50t-28.5 63t-7 59.5z" />
    <glyph glyph-name="uni025A" unicode="&#x25a;" horiz-adv-x="623" 
d="M159 157q0 -19 3 -41.5t11.5 -41.5t24 -32t39.5 -13q32 0 50 21t27 50.5t11.5 61.5t2.5 55v19.5t-2 19.5l-142 -61q-25 -10 -25 -38zM29 143q0 23 11 34.5t36 22.5l242 105q-10 42 -38 72.5t-82 30.5q-47 0 -79 -24t-52 -65l-31 18q11 30 27.5 54.5t41 42.5t58 28
t76.5 10q79 0 127 -31.5t71 -84.5l148 64l23 -23q-10 -13 -19 -34t-9 -42t10.5 -31t27.5 -10q14 0 29.5 3.5t17.5 4.5l8 -17q-1 -1 -9 -7.5t-20 -14t-27 -13t-31 -5.5q-29 0 -44 17.5t-15 40.5q0 19 8.5 37t19.5 28l-103 -44q8 -38 8 -78q0 -51 -12.5 -95t-40 -77t-70.5 -52
t-104 -19q-57 0 -96 13t-63 34t-34.5 49t-10.5 58z" />
    <glyph glyph-name="uni025B" unicode="&#x25b;" horiz-adv-x="466" 
d="M40 117q0 28 10.5 49.5t29.5 38t44 27t55 15.5v2q-55 9 -83.5 34t-28.5 73q0 29 17 51t44.5 36.5t62.5 21.5t72 7q84 0 131 -24.5t47 -61.5q0 -15 -6.5 -27t-16 -20t-20.5 -12t-19 -4q-17 0 -25.5 8t-13.5 22q-12 35 -29.5 57t-46.5 22q-38 0 -55.5 -25t-17.5 -57
q0 -36 19.5 -61t61.5 -25h44v-39h-46q-45 0 -72 -26.5t-27 -65.5q0 -22 8.5 -38t23.5 -26.5t34.5 -15t41.5 -4.5q45 0 79.5 20t61.5 64l29 -17q-14 -37 -36.5 -61.5t-50 -39t-58 -20.5t-60.5 -6q-43 0 -80.5 8.5t-65 24.5t-43 40t-15.5 55z" />
    <glyph glyph-name="uni025C" unicode="&#x25c;" horiz-adv-x="466" 
d="M17 116l30 17q27 -44 61.5 -64t80.5 -20q44 0 75 19.5t31 63.5q0 40 -26 66.5t-71 26.5h-46v39h43q42 0 61 25t19 60q0 33 -17 58t-52 25q-31 0 -49 -20.5t-28 -49.5q-7 -21 -15.5 -30t-22.5 -9q-10 0 -21.5 4t-21.5 12t-16.5 19t-6.5 26q0 38 47.5 63t128.5 25
q38 0 73.5 -7t63 -21.5t44.5 -36.5t17 -52q0 -47 -28.5 -71.5t-82.5 -33.5v-3q29 -6 54.5 -16.5t44 -26t29 -36.5t10.5 -48q0 -32 -15.5 -56.5t-43 -41t-64.5 -25t-79 -8.5q-30 0 -61 6t-58.5 20.5t-50.5 39t-37 61.5z" />
    </font>
</defs>
</svg>
