<svg width="68" height="68" viewBox="0 0 68 68" fill="none" xmlns="http://www.w3.org/2000/svg">
<path d="M64.2223 33.9996C64.2223 17.3083 50.6913 3.77734 34.0001 3.77734C17.3088 3.77734 3.77783 17.3083 3.77783 33.9996C3.77783 49.0841 14.8296 61.5874 29.2778 63.8546V42.7357H21.6042V33.9996H29.2778V27.3412C29.2778 19.7668 33.7899 15.5829 40.6932 15.5829C44 15.5829 47.4584 16.1732 47.4584 16.1732V23.6107H43.6476C39.8934 23.6107 38.7223 25.9405 38.7223 28.3305V33.9996H47.1042L45.7643 42.7357H38.7223V63.8546C53.1705 61.5874 64.2223 49.0847 64.2223 33.9996Z" fill="#1877F2"/>
<path d="M45.7643 42.7358L47.1042 33.9997H38.7223V28.3306C38.7223 25.9406 39.8934 23.6108 43.6476 23.6108H47.4584V16.1733C47.4584 16.1733 44 15.583 40.6932 15.583C33.7899 15.583 29.2779 19.7669 29.2779 27.3413V33.9997H21.6042V42.7358H29.2779V63.8547C30.8167 64.0962 32.3933 64.2219 34.0001 64.2219C35.6068 64.2219 37.1834 64.0962 38.7223 63.8547V42.7358H45.7643Z" fill="white"/>
</svg>
