<svg width="68" height="68" viewBox="0 0 68 68" fill="none" xmlns="http://www.w3.org/2000/svg">
<g clip-path="url(#clip0_2_1587)">
<mask id="mask0_2_1587" style="mask-type:alpha" maskUnits="userSpaceOnUse" x="3" y="3" width="62" height="62">
<path d="M21.3477 3.85089C18.132 4.00266 15.9356 4.51773 14.0164 5.26977C12.0296 6.04431 10.3454 7.08231 8.66998 8.76459C6.99259 10.4479 5.96247 12.135 5.19382 14.1238C4.44962 16.048 3.94532 18.2454 3.80332 21.463C3.66233 24.6866 3.63 25.7148 3.64571 33.9216C3.66137 42.1274 3.69759 43.1575 3.85131 46.3821C4.00503 49.5969 4.51818 51.7923 5.27021 53.7125C6.04573 55.6993 7.08266 57.3826 8.7659 59.059C10.4482 60.7354 12.1363 61.7646 14.126 62.5343C16.0482 63.2775 18.2465 63.7837 21.4632 63.9247C24.6868 64.0667 25.7159 64.098 33.9206 64.0824C42.1293 64.0667 43.1584 64.0305 46.382 63.8777C49.5977 63.724 51.792 63.2089 53.7133 62.4589C55.7 61.6814 57.3842 60.6463 59.0597 58.9631C60.7351 57.2807 61.7652 55.5926 62.5339 53.6028C63.2781 51.6806 63.7843 49.4823 63.9244 46.2675C64.0653 43.042 64.0987 42.0119 64.083 33.806C64.0673 25.5992 64.0301 24.5711 63.8774 21.3485C63.7246 18.1308 63.2096 15.9364 62.4585 14.0151C61.682 12.0283 60.646 10.346 58.9637 8.66863C57.2815 6.9932 55.5933 5.96109 53.6036 5.19438C51.6804 4.45017 49.4831 3.94292 46.2664 3.80388C43.0429 3.66092 42.0138 3.6296 33.8061 3.64526C25.6004 3.66092 24.5712 3.69618 21.3477 3.85089ZM21.7002 58.4852C18.7538 58.3569 17.1538 57.8673 16.0874 57.457C14.6754 56.9106 13.6678 56.2555 12.6073 55.2029C11.5488 54.1463 10.8918 53.1416 10.3405 51.7325C9.92625 50.6661 9.42787 49.0681 9.2898 46.1216C9.13998 42.9362 9.10573 41.9805 9.09102 33.9108C9.07536 25.8431 9.10471 24.8873 9.24378 21.699C9.37007 18.7545 9.86265 17.1525 10.2719 16.0871C10.8183 14.6732 11.4714 13.6675 12.5261 12.607C13.5826 11.5465 14.5873 10.8914 15.9973 10.3401C17.0627 9.92396 18.6608 9.42945 21.6062 9.28945C24.7935 9.13863 25.7482 9.10633 33.8159 9.09067C41.8854 9.07498 42.8411 9.1034 46.0295 9.24343C48.9739 9.37169 50.5758 9.85935 51.6403 10.2716C53.0532 10.818 54.0608 11.4692 55.1204 12.5258C56.1798 13.5823 56.8369 14.585 57.3882 15.998C57.8043 17.0605 58.2988 18.6605 58.4379 21.605C58.5896 24.7924 58.624 25.7481 58.6386 33.8158C58.6543 41.8855 58.6249 42.8412 58.4849 46.0276C58.3566 48.9741 57.868 50.5751 57.4567 51.6424C56.9103 53.0535 56.2572 54.0611 55.2016 55.1216C54.1461 56.1782 53.1414 56.8371 51.7303 57.3885C50.6669 57.8036 49.0669 58.2991 46.1234 58.4392C42.9362 58.589 41.9814 58.6232 33.9108 58.6379C25.8432 58.6536 24.8885 58.6232 21.7002 58.4852ZM46.3379 17.7087C46.3418 19.7103 47.9692 21.3309 49.9707 21.3269C51.9732 21.323 53.5938 19.6965 53.5909 17.695C53.5869 15.6935 51.9595 14.072 49.957 14.0759C47.9546 14.0798 46.334 15.7072 46.3379 17.7087ZM18.3465 33.8932C18.3631 42.4643 25.3242 49.3971 33.8932 49.3804C42.4632 49.3638 49.3998 42.4045 49.3832 33.8335C49.3666 25.2653 42.4044 18.3286 33.8335 18.3452C25.2645 18.3619 18.3298 25.3241 18.3465 33.8932ZM23.7898 33.8824C23.78 28.3195 28.2824 23.8004 33.8443 23.7906C39.4071 23.7799 43.9271 28.2803 43.9379 33.8442C43.9487 39.4081 39.4463 43.9262 33.8825 43.937C28.3206 43.9478 23.8006 39.4463 23.7898 33.8824Z" fill="#000008"/>
</mask>
<g mask="url(#mask0_2_1587)">
<rect x="1.11084" y="1.11133" width="65.8089" height="65.8089" fill="url(#paint0_radial_2_1587)"/>
<g filter="url(#filter0_f_2_1587)">
<ellipse cx="13.4264" cy="-1.39355" rx="37.9667" ry="26.5767" transform="rotate(-14.9317 13.4264 -1.39355)" fill="#7334FF"/>
</g>
<g filter="url(#filter1_f_2_1587)">
<circle cx="64.8105" cy="1.53319" r="35.8574" fill="#B202F5"/>
</g>
<g filter="url(#filter2_f_2_1587)">
<circle cx="13.7665" cy="60.1698" r="20.2489" fill="#FFB401"/>
</g>
</g>
</g>
<defs>
<filter id="filter0_f_2_1587" x="-60.7487" y="-65.7304" width="148.35" height="128.674" filterUnits="userSpaceOnUse" color-interpolation-filters="sRGB">
<feFlood flood-opacity="0" result="BackgroundImageFix"/>
<feBlend mode="normal" in="SourceGraphic" in2="BackgroundImageFix" result="shape"/>
<feGaussianBlur stdDeviation="18.425" result="effect1_foregroundBlur_2_1587"/>
</filter>
<filter id="filter1_f_2_1587" x="-15.7135" y="-78.9909" width="161.048" height="161.048" filterUnits="userSpaceOnUse" color-interpolation-filters="sRGB">
<feFlood flood-opacity="0" result="BackgroundImageFix"/>
<feBlend mode="normal" in="SourceGraphic" in2="BackgroundImageFix" result="shape"/>
<feGaussianBlur stdDeviation="22.3333" result="effect1_foregroundBlur_2_1587"/>
</filter>
<filter id="filter2_f_2_1587" x="-42.2158" y="4.18756" width="111.964" height="111.964" filterUnits="userSpaceOnUse" color-interpolation-filters="sRGB">
<feFlood flood-opacity="0" result="BackgroundImageFix"/>
<feBlend mode="normal" in="SourceGraphic" in2="BackgroundImageFix" result="shape"/>
<feGaussianBlur stdDeviation="17.8667" result="effect1_foregroundBlur_2_1587"/>
</filter>
<radialGradient id="paint0_radial_2_1587" cx="0" cy="0" r="1" gradientUnits="userSpaceOnUse" gradientTransform="translate(27.2657 63.9673) rotate(-61.8868) scale(34.9145)">
<stop stop-color="#FFD502"/>
<stop offset="0.869374" stop-color="#FF1154"/>
</radialGradient>
<clipPath id="clip0_2_1587">
<rect width="68" height="68" fill="white"/>
</clipPath>
</defs>
</svg>
