<svg width="74" height="74" viewBox="0 0 74 74" fill="none" xmlns="http://www.w3.org/2000/svg">
<path d="M70.9975 38.9773C72.1575 36.8791 72.6483 34.1914 71.8872 32.0119C72.1347 31.1479 72.19 30.2402 71.8655 29.2908C71.3186 27.6875 69.9483 26.7706 69.0019 26.3077C68.9632 25.9181 68.9156 25.6691 68.9116 25.6509C68.8518 25.3968 68.7789 25.1315 68.7067 24.8898C68.6152 24.5838 68.2923 24.4111 67.9869 24.5019C67.9321 24.5184 67.8834 24.5442 67.8379 24.5741C67.4014 24.2013 66.6848 24.2251 66.2914 24.7321C66.2336 24.8131 66.1758 24.8824 66.1064 24.9518C66.1642 24.6743 66.1989 24.3852 66.2451 24.1077C66.6152 21.4599 67.8639 12.6377 62.0711 6.38243C61.2155 5.45743 57.0298 0.936494 50.6011 1.16774C45.3401 1.35274 41.9523 4.60181 41.2123 5.33024C39.7323 6.82181 38.7842 8.48681 38.1598 10.0015C37.7667 10.9727 36.4255 10.9381 36.0323 9.97837C35.4195 8.53306 34.4367 6.90274 32.8758 5.33024C32.1358 4.60181 28.748 1.35274 23.487 1.16774C17.0583 0.936494 12.8727 5.45743 12.017 6.38243C6.22421 12.6377 7.47296 21.4599 7.85453 24.1077C7.91234 24.5009 7.97015 24.894 8.05109 25.2756C7.88921 25.0906 7.7389 24.9171 7.60015 24.7321C7.20674 24.2251 6.49001 24.2013 6.05352 24.5743C6.00799 24.5444 5.95929 24.5185 5.90437 24.502C5.59608 24.4111 5.27652 24.5838 5.1846 24.8899C5.11233 25.1316 5.03949 25.397 4.9746 25.6742C4.9746 25.6742 4.92762 25.921 4.88961 26.3085C3.94322 26.7716 2.57408 27.6885 2.02746 29.2909C1.70342 30.2393 1.7582 31.1463 2.0052 32.0097C1.2428 34.1897 1.73377 36.8785 2.89421 38.9774C4.91765 42.608 8.52515 45.094 12.3177 46.8052C14.8845 47.9615 17.5555 48.8171 20.2148 49.7305C16.2027 51.4418 12.0748 52.9102 7.93546 54.159C7.0914 54.4133 6.40921 55.0377 6.08546 55.8587C4.61703 59.5471 4.29328 63.698 5.22984 67.5599C5.50734 68.7393 5.9814 69.884 6.75609 70.8205C9.45015 74.0465 13.2773 72.7862 16.353 71.2715C23.6373 67.664 30.147 62.6227 36.9458 58.1596C43.7445 62.6227 50.2542 67.664 57.5386 71.2715C60.6142 72.7862 64.4414 74.0465 67.1355 70.8205C67.9101 69.884 68.3842 68.7393 68.6617 67.5599C69.5983 63.698 69.2745 59.5471 67.8061 55.8587C67.4823 55.0377 66.8001 54.4133 65.9561 54.159C61.8167 52.9102 57.6889 51.4418 53.6767 49.7305C56.3361 48.8171 59.007 47.9615 61.5739 46.8052C65.3665 45.0938 68.974 42.6079 70.9975 38.9773Z" fill="#E96088"/>
<path d="M67.8061 55.8584C69.2745 59.5468 69.5983 63.6977 68.6617 67.5596C68.3842 68.739 67.9102 69.8837 67.1355 70.8202C64.4414 74.0462 60.6142 72.7859 57.5386 71.2712C50.2542 67.6637 43.7446 62.6224 36.9458 58.1593C41.0736 55.4537 45.3055 52.9562 49.8842 51.1177C51.133 50.6205 52.4049 50.1696 53.6767 49.7302C57.6889 51.4415 61.8167 52.9099 65.9561 54.1587C66.8002 54.413 67.4824 55.0374 67.8061 55.8584Z" fill="#E5AAAA"/>
<path d="M71.4715 31.0915C72.7781 33.3925 72.3272 36.5722 70.9975 38.9772C68.974 42.6078 65.3665 45.0937 61.574 46.805C59.0072 47.9612 56.3362 48.8168 53.6769 49.7303C52.405 50.1697 51.1331 50.6206 49.8843 51.1178C45.3056 52.9562 41.0737 55.4537 36.9459 58.1594C30.1472 62.6225 23.6375 67.6637 16.3531 71.2712C13.2775 72.7859 9.45029 74.0462 6.75623 70.8203C5.98154 69.8837 5.50748 68.739 5.22998 67.5597C4.29341 63.6978 4.61716 59.5469 6.0856 55.8584C6.40935 55.0375 7.09154 54.4131 7.9356 54.1587C12.075 52.91 16.2028 51.4415 20.215 49.7303C23.6606 48.285 27.0369 46.6662 30.2975 44.874C32.529 43.6484 34.7837 42.4112 36.9459 41.0584C39.1659 39.6709 41.305 38.1447 43.2359 36.3756C46.7509 33.1728 49.5953 28.9987 50.4509 24.3506C50.5897 23.6222 51.3181 23.1828 52.035 23.3331C52.4281 23.4256 52.8212 23.5297 53.1681 23.6453C53.9312 23.9112 54.6597 24.3853 55.0644 25.0906C55.3997 25.6687 55.4806 26.3509 55.5384 27.0215C55.735 29.2994 55.6194 31.6119 55.18 33.855C59.5506 31.82 63.1581 28.7212 66.1065 24.9519C66.1759 24.8825 66.2337 24.8131 66.2915 24.7322C66.8119 24.0615 67.8987 24.235 68.1531 25.0559C68.2225 25.2872 68.2919 25.5415 68.3497 25.7844C68.3497 25.7844 68.419 26.1428 68.4537 26.6862C69.0665 26.9522 70.7315 27.7731 71.3212 29.4728C71.5062 30.0162 71.5409 30.5481 71.4715 31.08V31.0915Z" fill="#E8CDBF"/>
<path d="M5.73853 25.0559C5.99291 24.235 7.07978 24.0615 7.60009 24.7322C7.73884 24.9172 7.88916 25.0906 8.05103 25.2756V25.2872C10.9532 28.8947 14.4798 31.8778 18.7117 33.855C18.2723 31.6119 18.1567 29.2994 18.3532 27.0215C18.411 26.3509 18.492 25.6687 18.8273 25.0906C19.232 24.3853 19.9604 23.9112 20.7235 23.6453C21.0704 23.5297 21.4635 23.4256 21.8567 23.3331C22.5735 23.1828 23.302 23.6222 23.4407 24.3506C24.2963 28.9987 27.1407 33.1728 30.6557 36.3756C32.5867 38.1447 34.7257 39.6709 36.9457 41.0584C34.7835 42.4112 32.5288 43.6484 30.2973 44.874C27.0367 46.6662 23.6604 48.285 20.2148 49.7303C17.5554 48.8168 14.8845 47.9612 12.3176 46.805C8.52509 45.0937 4.91759 42.6078 2.89416 38.9772C1.56447 36.5722 1.11353 33.3925 2.42009 31.0915V31.08C2.35072 30.5481 2.38541 30.0162 2.57041 29.4728C3.16009 27.7731 4.82509 26.9522 5.43791 26.6862C5.47259 26.1428 5.54197 25.7844 5.54197 25.7844C5.59978 25.5415 5.66916 25.2872 5.73853 25.0559Z" fill="#E8CDBF"/>
<path d="M31.5139 37.1169C29.0558 42.7515 22.0941 46.3275 15.3215 48.0184C16.94 48.6203 18.5781 49.1682 20.2148 49.7303C23.6604 48.285 27.0367 46.6663 30.2973 44.8741C32.5288 43.6485 34.7835 42.4113 36.9457 41.0585C35.0464 39.8714 33.2151 38.5722 31.5139 37.1169Z" fill="#E5AAAA"/>
<path d="M62.0711 6.38243C67.8639 12.6377 66.6151 21.4599 66.2451 24.1077C66.1989 24.3852 66.1642 24.6743 66.1064 24.9518C63.158 28.7212 59.5505 31.8199 55.1798 33.8549C55.6192 31.6118 55.7348 29.2993 55.5383 27.0215C55.4805 26.3509 55.3995 25.6687 55.0642 25.0906C54.6595 24.3852 53.9311 23.9112 53.168 23.6452C52.8211 23.5296 52.428 23.4256 52.0348 23.3331C51.318 23.1827 50.5895 23.6221 50.4508 24.3506C49.5951 28.9987 46.7508 33.1727 43.2358 36.3756C41.3048 38.1446 39.1658 39.6709 36.9458 41.0584C34.7258 39.6709 32.5867 38.1446 30.6558 36.3756C27.1408 33.1727 24.2964 28.9987 23.4408 24.3506C23.302 23.6221 22.5736 23.1827 21.8567 23.3331C21.4636 23.4256 21.0705 23.5296 20.7236 23.6452C19.9605 23.9112 19.232 24.3852 18.8273 25.0906C18.492 25.6687 18.4111 26.3509 18.3533 27.0215C18.1567 29.2993 18.2723 31.6118 18.7117 33.8549C14.4798 31.8777 10.9533 28.8946 8.05108 25.2871V25.2756C7.97014 24.894 7.91233 24.5009 7.85452 24.1077C7.47296 21.4599 6.22421 12.6377 12.017 6.38243C12.8726 5.45743 17.0583 0.936494 23.487 1.16774C28.748 1.35274 32.1358 4.60181 32.8758 5.33024C34.4367 6.90274 35.4195 8.53306 36.0323 9.97837C36.4255 10.9381 37.7667 10.9727 38.1598 10.0015C38.7842 8.48681 39.7323 6.82181 41.2123 5.33024C41.9523 4.60181 45.3401 1.35274 50.6011 1.16774C57.0298 0.936494 61.2155 5.45743 62.0711 6.38243Z" fill="#E96088"/>
<path d="M29.3408 35.0959C29.7666 35.5374 30.2053 35.9651 30.6559 36.3755C32.5868 38.1446 34.7259 39.6708 36.9459 41.0583C39.1659 39.6708 41.305 38.1446 43.2359 36.3755C43.8749 35.7934 44.481 35.1688 45.0677 34.5254C39.9571 35.4122 34.5624 35.6553 29.3408 35.0959Z" fill="#D6366B"/>
<path d="M65.7499 12.988C65.9422 16.5425 65.3082 20.09 63.1273 23.693C61.2647 26.77 58.606 29.1504 55.5572 30.9173C55.4872 31.9034 55.3697 32.8862 55.1799 33.8549C59.5506 31.8199 63.1581 28.7211 66.1065 24.9518C66.1643 24.6743 66.199 24.3852 66.2452 24.1077C66.495 22.3197 67.1376 17.7154 65.7499 12.988Z" fill="#D6366B"/>
<path d="M61.2716 21.9008C61.1665 21.9008 61.0598 21.8861 60.9543 21.8562C60.3401 21.6811 59.9838 21.0409 60.1588 20.4272C60.2717 20.0315 60.3604 19.6187 60.4219 19.2004C60.5151 18.5681 61.1061 18.1322 61.7339 18.2248C62.3657 18.318 62.8027 18.9051 62.7095 19.5369C62.6333 20.0552 62.5232 20.5678 62.3831 21.0607C62.2382 21.5688 61.7752 21.9008 61.2716 21.9008Z" fill="#D6366B"/>
<path d="M61.2717 15.8945C60.7646 15.8945 60.2994 15.5586 60.1578 15.0465C59.9071 14.1409 59.5361 13.2879 59.0551 12.5104C57.6149 10.1843 55.1489 8.49636 52.4586 7.99383C51.8307 7.8769 51.4169 7.27291 51.5343 6.64506C51.6512 6.0178 52.2502 5.60169 52.8831 5.72079C56.2017 6.3401 59.2442 8.42338 61.0209 11.2932C61.6177 12.2575 62.0773 13.3121 62.3866 14.4288C62.5571 15.0448 62.1964 15.6816 61.581 15.8521C61.4778 15.8803 61.3738 15.8945 61.2717 15.8945Z" fill="#D6366B"/>
<path d="M71.8656 29.2906C71.3187 27.6873 69.9484 26.7704 69.002 26.3075C68.9632 25.918 68.9157 25.6689 68.9116 25.6507C68.8518 25.3966 68.779 25.1313 68.7067 24.8896C68.6152 24.5837 68.2923 24.4109 67.9869 24.5017C67.681 24.5938 67.5077 24.9161 67.599 25.2215C67.6656 25.4427 67.7317 25.6856 67.7814 25.8932C67.7847 25.909 67.8451 26.2354 67.8774 26.7276C67.9061 27.1284 67.9242 27.7411 67.8457 28.3796C67.6075 30.1975 65.7652 33.1717 62.1865 35.7191C61.9262 35.9042 61.8657 36.265 62.0509 36.5253C62.1638 36.6834 62.3417 36.7681 62.5223 36.7681C62.6381 36.7681 62.7555 36.7331 62.8571 36.6608C66.2536 34.2433 68.6615 31.0517 68.9923 28.5253C69.0297 28.2227 69.045 27.9323 69.0518 27.6581C69.7203 28.0767 70.449 28.7201 70.7713 29.6641C71.2687 31.1212 70.5635 32.505 69.5129 34.3015C68.1698 36.5959 66.1181 38.5855 63.5786 40.0551C63.3025 40.2149 63.2077 40.5684 63.368 40.845C63.4752 41.0302 63.6689 41.1335 63.8688 41.1335C63.9671 41.1335 64.0664 41.1086 64.1579 41.0556C66.8701 39.4861 69.0669 37.3526 70.511 34.8854C71.4778 33.2336 72.573 31.3609 71.8656 29.2906Z" fill="#E5AAAA"/>
<path d="M6.04621 28.3847C5.96715 27.7372 5.98522 27.1268 6.01514 26.7231C6.04563 26.2415 6.10489 25.9175 6.10431 25.9175C6.15967 25.686 6.22572 25.4433 6.29235 25.222C6.38383 24.9166 6.21054 24.5942 5.90443 24.5023C5.59614 24.4113 5.27658 24.5841 5.18466 24.8902C5.11239 25.1318 5.03955 25.3972 4.97466 25.6744C4.97466 25.6744 4.92768 25.9213 4.88967 26.3087C3.94328 26.7718 2.57414 27.6887 2.02752 29.2912C1.32004 31.3614 2.41544 33.2341 3.38192 34.8861C4.82608 37.3532 7.02281 39.4868 9.73508 41.0563C9.82657 41.1093 9.92586 41.1342 10.0241 41.1342C10.224 41.1342 10.4177 41.0308 10.5249 40.8457C10.6852 40.5691 10.5904 40.2157 10.3144 40.0558C7.77495 38.5862 5.72318 36.5966 4.38005 34.3022C3.32931 32.5057 2.62429 31.1219 3.12162 29.6648C3.44364 28.7216 4.17164 28.0782 4.83966 27.6597C4.84631 27.934 4.86192 28.2249 4.8995 28.5305C5.23033 31.0524 7.63822 34.2439 11.0341 36.6615C11.1357 36.7338 11.2532 36.7688 11.3689 36.7688C11.5495 36.7688 11.7273 36.6841 11.8403 36.526C12.0255 36.2657 11.9651 35.9049 11.7048 35.7198C8.12659 33.1722 6.2844 30.1981 6.04621 28.3847Z" fill="#E5AAAA"/>
</svg>
