<svg width="74" height="74" viewBox="0 0 74 74" fill="none" xmlns="http://www.w3.org/2000/svg">
<g clip-path="url(#clip0_2_1788)">
<path d="M14.2111 41.2266L7.79796 59.4616L5.41797 61.8416L15.8475 72.2712L29.8358 58.2828L40.0959 39.9466L22.7715 36.384C19.1091 35.6305 15.4518 37.6994 14.2111 41.2266Z" fill="#FFCBBE"/>
<path d="M23.948 54.3296L24.3679 54.7495L35.0918 44.0256L31.5592 40.4929L23.9479 48.1042C22.2289 49.8233 22.2289 52.6106 23.948 54.3296Z" fill="#EAAC9D"/>
<path d="M61.9735 41.7861C71.1427 32.6168 70.7 17.3078 60.9846 7.59236C51.2691 -2.12305 35.9601 -2.56581 26.7909 6.60343C17.6216 15.7727 18.0644 31.0817 27.7798 40.7971C37.4952 50.5125 52.8042 50.9553 61.9735 41.7861Z" fill="#DD636E"/>
<path d="M48.6499 48.2127C41.3661 49.0881 33.5804 46.5912 27.7839 40.7964C18.0671 31.0795 17.625 15.7689 26.7953 6.59854C31.9187 1.47505 38.9569 -0.648115 45.8671 0.170799C40.9373 0.761932 36.2353 2.89709 32.5337 6.59854C23.3619 15.7689 23.8056 31.0795 33.5223 40.7964C37.8119 45.0859 43.1901 47.5665 48.6499 48.2127Z" fill="#DA4A54"/>
<path d="M48.357 24.1925L57.7527 14.7968C58.8482 13.7013 58.8482 11.925 57.7527 10.8293C56.6571 9.73359 54.8808 9.73374 53.7852 10.8293L44.3895 20.225L34.9938 10.8293C33.8982 9.73374 32.1219 9.73374 31.0263 10.8293C29.9307 11.9248 29.9307 13.7011 31.0263 14.7968L40.4219 24.1925L31.0263 33.5882C29.9307 34.6837 29.9307 36.46 31.0263 37.5557C31.574 38.1035 32.2921 38.3774 33.0099 38.3774C33.728 38.3774 34.4459 38.1035 34.9936 37.5557L44.3893 28.16L53.785 37.5557C54.3328 38.1035 55.0507 38.3774 55.7687 38.3774C56.4867 38.3774 57.2046 38.1035 57.7524 37.5557C58.8479 36.4602 58.8479 34.6839 57.7524 33.5882L48.357 24.1925Z" fill="#F9F6F9"/>
<path d="M39.9656 37.3858L10.4639 66.8877L17.5763 74L21.4714 70.1049L25.0124 70.1707C31.9098 70.2971 37.7385 65.0906 38.3899 58.2247L38.7504 54.4145L47.8723 45.2925C48.9637 44.2012 49.5087 42.7707 49.51 41.3405C49.51 39.9089 48.9637 38.4773 47.8723 37.3859C45.6895 35.2031 42.1484 35.2031 39.9656 37.3858Z" fill="#FFCBBE"/>
<path d="M36.2007 52.1734C35.3623 61.0297 27.8426 67.7451 18.9483 67.5819L15.0532 71.477L17.5763 74.0001L21.4714 70.105L25.0124 70.1708C31.9099 70.2972 37.7386 65.0906 38.39 58.2248L38.7504 54.4146L47.8724 45.2926C48.9637 44.2013 49.5088 42.7708 49.5101 41.3405C49.5101 39.909 48.965 38.4787 47.8724 37.386C47.431 36.9446 46.9352 36.5931 46.4067 36.3301C46.7936 37.1116 46.986 37.964 46.9858 38.8163C46.9858 40.2479 46.4408 41.6782 45.3494 42.7697L36.2275 51.8916L36.2007 52.1734Z" fill="#EAAC9D"/>
</g>
<defs>
<clipPath id="clip0_2_1788">
<rect width="74" height="74" fill="white"/>
</clipPath>
</defs>
</svg>
