<svg width="74" height="74" viewBox="0 0 74 74" fill="none" xmlns="http://www.w3.org/2000/svg">
<path d="M42.986 20.2387C39.5462 20.2387 36.7862 17.2873 37.0343 13.7981C37.2381 10.934 39.5069 8.59118 42.3633 8.2988C42.7654 8.25761 43.1601 8.25703 43.5443 8.29288C44.0686 8.34173 44.5522 8.01047 44.7238 7.51272C46.0137 3.77191 49.5628 1.08398 53.7418 1.08398C56.8772 1.08398 59.6581 2.59733 61.3968 4.9329C61.84 5.52835 62.5316 5.87768 63.2739 5.87291C63.2889 5.87276 63.3041 5.87276 63.3193 5.87276C67.3272 5.87276 70.5685 9.15527 70.5013 13.1785C70.4355 17.117 67.1401 20.2388 63.201 20.2388L42.986 20.2387Z" fill="#DDEAFB"/>
<path d="M63.3192 5.87262C63.3041 5.87262 63.289 5.87262 63.2739 5.87276C62.5316 5.87767 61.84 5.52821 61.3967 4.93275C59.6581 2.59733 56.8772 1.08398 53.7418 1.08398C53.1756 1.08398 52.6216 1.135 52.0825 1.22952C54.5262 1.65993 56.6489 3.02051 58.0725 4.93275C58.5157 5.52821 59.2073 5.87753 59.9496 5.87276C59.9646 5.87262 59.9798 5.87262 59.995 5.87262C64.0029 5.87262 67.2442 9.15513 67.177 13.1783C67.1112 17.1169 63.8158 20.2387 59.8767 20.2387H63.2009C67.14 20.2387 70.4354 17.1169 70.5011 13.1783C70.5683 9.15513 67.3271 5.87262 63.3192 5.87262Z" fill="#BED8FB"/>
<path d="M63.3378 25.0275H63.3345C63.158 25.0275 63.0062 24.9088 62.9568 24.7394C61.7968 20.7557 58.1186 17.8445 53.7604 17.8445C52.1308 17.8445 50.5971 18.2527 49.2542 18.971C48.7278 19.2526 48.0744 19.1055 47.7398 18.6112C46.4486 16.704 44.2654 15.4501 41.7887 15.4501C41.2095 15.4501 40.6465 15.519 40.1072 15.6486C39.5228 15.7891 38.9194 15.4752 38.7307 14.9046C36.996 9.65841 32.0532 5.8728 26.2256 5.8728C18.9527 5.8728 13.0566 11.7687 13.0566 19.0417C13.0566 19.2069 13.0608 19.371 13.0678 19.5344C13.0746 19.6961 13.0215 19.8548 12.9219 19.9825L12.9117 19.9956C12.787 20.1554 12.5981 20.2497 12.3956 20.2608C6.02336 20.608 0.9766 25.9347 1.08673 32.4189C1.19802 38.9735 6.65119 44.1821 13.207 44.1821H63.195C68.4585 44.1821 72.846 39.995 72.9143 34.7319C72.9837 29.3843 68.6696 25.0275 63.3378 25.0275Z" fill="#ECF4FF"/>
<path d="M63.3378 25.0275H63.3345C63.158 25.0275 63.0062 24.9088 62.9568 24.7394C61.7968 20.7557 58.1186 17.8445 53.7604 17.8445C52.1308 17.8445 50.5971 18.2527 49.2542 18.971C48.7278 19.2526 48.0744 19.1055 47.7398 18.6112C46.4486 16.704 44.2654 15.4501 41.7887 15.4501C41.2095 15.4501 40.6465 15.519 40.1072 15.6486C39.5228 15.7891 38.9194 15.4752 38.7307 14.9046C36.996 9.65841 32.0532 5.8728 26.2256 5.8728C18.9527 5.8728 13.0566 11.7687 13.0566 19.0417C13.0566 19.2069 13.0608 19.371 13.0678 19.5344C13.0746 19.6961 13.0215 19.8548 12.9219 19.9825L12.9117 19.9956C12.787 20.1554 12.5981 20.2497 12.3956 20.2608C6.02336 20.608 0.9766 25.9347 1.08673 32.4189C1.19802 38.9735 6.65119 44.1821 13.207 44.1821H63.195C68.4585 44.1821 72.846 39.995 72.9143 34.7319C72.9837 29.3843 68.6696 25.0275 63.3378 25.0275Z" fill="#ECF4FF"/>
<path d="M63.3377 25.0275H63.3344C63.158 25.0275 63.0061 24.9088 62.9567 24.7395C61.7967 20.7557 58.1185 17.8445 53.7603 17.8445C53.1936 17.8445 52.6389 17.8949 52.0994 17.9896C55.7091 18.6218 58.6236 21.2744 59.6326 24.7395C59.6819 24.9088 59.8338 25.0275 60.0102 25.0275H60.0136C65.3453 25.0275 69.6595 29.3843 69.5901 34.732C69.5219 39.9952 65.1345 44.1822 59.8708 44.1822H63.1949C68.4584 44.1822 72.8459 39.9952 72.9142 34.732C72.9836 29.3843 68.6695 25.0275 63.3377 25.0275Z" fill="#DDEAFB"/>
<path d="M33.2049 39.3936H42.522C43.3392 39.3936 43.9162 40.1941 43.6577 40.9693L39.9195 52.184C39.6611 52.9592 40.2381 53.7597 41.0552 53.7597H43.4219C44.3169 53.7597 44.8955 54.706 44.4875 55.5026L35.7272 72.607C35.3986 73.1912 34.5048 72.8763 34.6151 72.2152L36.7552 59.9513C36.883 59.2188 36.3194 58.5484 35.5759 58.5484H30.0625C29.3129 58.5484 28.7477 57.8674 28.8859 57.1306L32.0285 40.3701C32.1344 39.8039 32.6288 39.3936 33.2049 39.3936Z" fill="#FFE07D"/>
<path d="M43.422 53.7595H41.0553C40.2382 53.7595 39.6612 52.959 39.9196 52.1837L43.6579 40.9691C43.9163 40.1938 43.3393 39.3933 42.5222 39.3933H39.198C40.0152 39.3933 40.5921 40.1938 40.3337 40.9691L36.5955 52.1837C36.3371 52.959 36.9141 53.7595 37.7312 53.7595H40.0979C40.9929 53.7595 41.5715 54.7057 41.1635 55.5024L35.6545 66.2585L34.6151 72.2151C34.5049 72.8763 35.3985 73.1912 35.7272 72.6069L44.4876 55.5024C44.8956 54.7057 44.317 53.7595 43.422 53.7595Z" fill="#FFD064"/>
<path d="M63.8456 23.9553C63.5199 23.0042 63.0663 22.1207 62.5085 21.321L63.3378 21.3227C67.8962 21.3227 71.6047 17.6142 71.6047 13.0558C71.6047 8.49721 67.8962 4.78878 63.3378 4.78878C63.1123 4.78878 62.8845 4.79846 62.6562 4.81768C60.7024 1.82827 57.3585 0 53.7603 0C49.1421 0 45.1387 2.92032 43.6965 7.21698C43.4667 7.19444 43.2357 7.18316 43.0045 7.18316C40.7312 7.18316 38.6165 8.29863 37.3072 10.0834C36.6637 9.28676 35.9342 8.55676 35.129 7.91173C32.6149 5.89788 29.453 4.78878 26.2254 4.78878C23.1488 4.78878 20.2191 5.75364 17.7533 7.57903C17.2722 7.93529 17.1709 8.61399 17.5268 9.09526C17.8833 9.5764 18.5618 9.67757 19.0429 9.3216C21.133 7.77443 23.6165 6.95683 26.2252 6.95683C30.4781 6.95683 34.2769 9.13833 36.439 12.5633L36.5728 12.7819C37.0631 13.5963 37.4615 14.4779 37.7541 15.4147C35.1877 16.8482 33.5214 19.5836 33.5214 22.6334C33.5214 23.2321 34.0066 23.7174 34.6054 23.7174C35.2042 23.7174 35.6893 23.2321 35.6893 22.6334C35.6893 20.1412 37.1972 17.934 39.4445 17.0012C39.4411 17.0027 39.4478 16.9999 39.4445 17.0012C40.1859 16.6938 40.9811 16.5344 41.7884 16.5344C44.1348 16.5344 46.3001 17.9065 47.3046 20.0299C47.4409 20.3184 47.6977 20.5322 48.006 20.6141C48.3141 20.6959 48.6432 20.6381 48.9049 20.4551C50.3349 19.4566 52.0137 18.9288 53.7601 18.9288C57.6412 18.9288 61.0246 21.5506 61.9876 25.3048C62.1135 25.7963 62.5576 26.1336 63.0712 26.1189C63.0712 26.1189 63.2732 26.1118 63.3375 26.1118C68.0207 26.1118 71.8309 29.922 71.8309 34.6052C71.8309 39.2885 68.0209 43.0987 63.3375 43.0987C58.6541 43.0987 54.844 39.2885 54.844 34.6052C54.844 34.0066 54.3588 33.5213 53.7601 33.5213C53.1613 33.5213 52.6761 34.0066 52.6761 34.6052C52.6761 38.0684 54.3369 41.15 56.9027 43.0987H44.0903L44.6857 41.3125C44.917 40.6188 44.7998 39.8506 44.3723 39.2573C43.9448 38.6642 43.2529 38.3099 42.5216 38.3099H33.2045C32.1074 38.3099 31.1646 39.0925 30.9624 40.1706L30.4134 43.0986H19.7193C19.1206 43.0986 18.6354 43.5839 18.6354 44.1825C18.6354 44.7811 19.1206 45.2665 19.7193 45.2665H30.0074L27.8204 56.931C27.6948 57.6002 27.8721 58.2844 28.307 58.8083C28.7418 59.3322 29.3816 59.6327 30.0623 59.6327H35.5757C35.5889 59.6327 35.6285 59.6327 35.6626 59.673C35.6964 59.7133 35.6896 59.7523 35.6873 59.7653L33.546 72.0373C33.4091 72.8581 33.8616 73.6244 34.6463 73.9008C34.8372 73.9682 35.031 74.0006 35.2209 74.0006C35.8113 74.0006 36.3633 73.6875 36.672 73.139C36.6789 73.1268 36.6857 73.1142 36.6922 73.1016L45.4523 55.9971C45.8174 55.2843 45.7862 54.4506 45.3684 53.7673C44.9505 53.084 44.2231 52.676 43.4221 52.676H41.0555C41.041 52.676 40.9975 52.676 40.9636 52.629C40.9298 52.582 40.9435 52.5405 40.9481 52.527L43.3682 45.2666H63.3378C69.2164 45.2666 73.9991 40.4839 73.9991 34.6052C73.9991 28.8961 69.4896 24.2211 63.8456 23.9553ZM48.6704 18.054C47.1517 15.7815 44.5639 14.366 41.7887 14.366C41.1036 14.366 40.4301 14.449 39.7751 14.6135C39.483 13.7223 39.1005 12.8634 38.64 12.0483C39.4605 10.418 41.1552 9.35093 43.0045 9.35093C43.4104 9.35093 43.8148 9.40123 44.2064 9.50023C44.4882 9.57148 44.7875 9.52653 45.0359 9.37521C45.2845 9.22389 45.4617 8.97906 45.5278 8.69565C46.4246 4.85222 49.8097 2.16791 53.7603 2.16791C56.3475 2.16791 58.7698 3.35622 60.3606 5.34073C57.2196 6.54551 55.0706 9.57481 55.0706 13.0556C55.0706 13.6542 55.5558 14.1396 56.1546 14.1396C56.7534 14.1396 57.2385 13.6542 57.2385 13.0556C57.2385 10.0918 59.3488 7.5705 62.2589 7.05193C62.2662 7.05078 62.9909 6.95655 63.3376 6.95655C66.7008 6.95655 69.4367 9.6926 69.4367 13.0556C69.4367 16.4186 66.7006 19.1547 63.3398 19.1547L60.4877 19.1489C58.6354 17.6441 56.2821 16.7604 53.7602 16.7604C51.9653 16.7604 50.2271 17.2047 48.6704 18.054ZM38.8912 51.8409C38.66 52.5346 38.7772 53.3029 39.2047 53.8961C39.6322 54.4892 40.3241 54.8434 41.0554 54.8434H43.422C43.4411 54.8434 43.4853 54.8434 43.5185 54.8976C43.5516 54.9517 43.5314 54.9913 43.5226 55.0084L36.2348 69.238L37.8229 60.1378C37.9389 59.4727 37.7564 58.7947 37.3219 58.2779C36.8873 57.7609 36.251 57.4645 35.5756 57.4645H30.0622C30.049 57.4645 30.0091 57.4645 29.975 57.4235C29.9412 57.3826 29.9484 57.3433 29.9509 57.3303L32.375 44.4015C32.3752 44.4007 32.3753 44.4002 32.3755 44.3994L33.0935 40.5699C33.1033 40.5164 33.1503 40.4777 33.2048 40.4777H42.5219C42.5363 40.4777 42.5798 40.4777 42.6138 40.5247C42.6476 40.5716 42.6339 40.613 42.6293 40.6267L41.5522 43.858C41.552 43.8591 41.5515 43.8599 41.5512 43.8609L38.8912 51.8409Z" fill="#252525"/>
<path d="M15.3836 43.0982H13.0566C7.05305 43.0982 2.16889 38.214 2.16889 32.2105C2.16889 26.2106 7.04742 21.3286 13.0459 21.3226C13.0664 21.3234 13.0868 21.3239 13.1073 21.3241C13.1079 21.3241 13.1083 21.3239 13.1089 21.3239C19.0884 21.3523 23.9444 26.2244 23.9444 32.2103C23.9444 32.809 24.4296 33.2943 25.0284 33.2943C25.6272 33.2943 26.1123 32.809 26.1123 32.2103C26.1123 25.3776 20.8362 19.7549 14.1443 19.2002C14.1436 19.1475 14.1407 19.0936 14.1407 19.0414C14.1407 16.5675 14.8827 14.1896 16.2866 12.1646C16.6276 11.6727 16.5054 10.9973 16.0133 10.6562C15.5211 10.315 14.846 10.4374 14.5048 10.9295C12.8483 13.3188 11.9726 16.1238 11.9726 19.0413C11.9726 19.0936 11.9729 19.1462 11.9735 19.1989C5.27956 19.7512 0.000976562 25.3759 0.000976562 32.21C0.000976562 39.409 5.85767 45.2656 13.0566 45.2656H15.3838C15.9824 45.2656 16.4677 44.7803 16.4677 44.1817C16.4676 43.5835 15.9824 43.0982 15.3836 43.0982Z" fill="#252525"/>
<path d="M5.87351 47.8867C5.27473 47.8867 4.78955 48.372 4.78955 48.9707V58.5481C4.78955 59.1467 5.27473 59.632 5.87351 59.632C6.47229 59.632 6.95746 59.1467 6.95746 58.5481V48.9707C6.95746 48.372 6.47229 47.8867 5.87351 47.8867Z" fill="#252525"/>
<path d="M21.4367 47.8867C20.838 47.8867 20.3528 48.372 20.3528 48.9707V58.5481C20.3528 59.1467 20.838 59.632 21.4367 59.632C22.0355 59.632 22.5207 59.1467 22.5207 58.5481V48.9707C22.5207 48.372 22.0355 47.8867 21.4367 47.8867Z" fill="#252525"/>
<path d="M13.655 62.2527C13.0562 62.2527 12.571 62.738 12.571 63.3366V72.9141C12.571 73.5127 13.0562 73.998 13.655 73.998C14.2538 73.998 14.739 73.5127 14.739 72.9141V63.3366C14.739 62.738 14.2538 62.2527 13.655 62.2527Z" fill="#252525"/>
<path d="M52.5632 47.8867C51.9644 47.8867 51.4792 48.372 51.4792 48.9707V58.5481C51.4792 59.1467 51.9644 59.632 52.5632 59.632C53.162 59.632 53.6472 59.1467 53.6472 58.5481V48.9707C53.6472 48.372 53.162 47.8867 52.5632 47.8867Z" fill="#252525"/>
<path d="M68.1264 47.8867C67.5277 47.8867 67.0425 48.372 67.0425 48.9707V58.5481C67.0425 59.1467 67.5277 59.632 68.1264 59.632C68.7252 59.632 69.2104 59.1467 69.2104 58.5481V48.9707C69.2104 48.372 68.7251 47.8867 68.1264 47.8867Z" fill="#252525"/>
<path d="M60.3449 62.2527C59.7462 62.2527 59.261 62.738 59.261 63.3366V72.9141C59.261 73.5127 59.7462 73.998 60.3449 73.998C60.9437 73.998 61.4289 73.5127 61.4289 72.9141V63.3366C61.4289 62.738 60.9437 62.2527 60.3449 62.2527Z" fill="#252525"/>
</svg>
