<svg width="74" height="74" viewBox="0 0 74 74" fill="none" xmlns="http://www.w3.org/2000/svg">
<mask id="mask0_2_1606" style="mask-type:luminance" maskUnits="userSpaceOnUse" x="0" y="0" width="74" height="74">
<path d="M0 7.62939e-06H74V74H0V7.62939e-06Z" fill="white"/>
</mask>
<g mask="url(#mask0_2_1606)">
<path d="M60.7998 22.7976C60.0757 20.1164 57.6278 18.143 54.7176 18.143C52.7991 18.143 51.0822 19.0015 49.9264 20.354C49.6431 20.2487 49.3377 20.1881 49.0177 20.1881C47.6119 20.1881 46.4688 21.3007 46.4131 22.693C44.332 22.8524 42.6926 24.5904 42.6926 26.7124C42.6926 28.9396 44.4981 30.7451 46.7252 30.7451H59.8316C62.0587 30.7451 63.8641 28.9396 63.8641 26.7124C63.8641 24.8192 62.5592 23.2314 60.7998 22.7976Z" fill="#B2E5FB"/>
<path d="M13.2003 28.503C13.9244 25.8218 16.3725 23.8483 19.2826 23.8483C21.201 23.8483 22.918 24.7068 24.0737 26.0594C24.3571 25.954 24.6624 25.8934 24.9825 25.8934C26.3884 25.8934 27.5315 27.006 27.5871 28.3983C29.6682 28.5577 31.3076 30.2957 31.3076 32.4177C31.3076 34.645 29.5022 36.4504 27.2749 36.4504H14.1687C11.9416 36.4504 10.136 34.645 10.136 32.4177C10.136 30.5245 11.4411 28.9367 13.2003 28.503Z" fill="#B2E5FB"/>
<path d="M60.3602 72.916V66.2676C60.3602 60.9079 56.7126 56.2361 51.513 54.9362L42.8401 52.7681H31.1601L22.4873 54.9362C17.2878 56.2361 13.6401 60.9079 13.6401 66.2676V72.916H60.3602Z" fill="#62A4FB"/>
<path d="M47.4477 53.9199L42.84 52.768H31.16L26.5525 53.9199C27.1282 59.1761 31.5932 63.28 37.0001 63.28C42.407 63.28 46.872 59.1761 47.4477 53.9199Z" fill="#E6F7FE"/>
<path d="M51.5129 54.9362L51.3092 54.8853C49.7873 59.6504 46.9343 64.4015 42.8378 68.4981C41.1529 70.1831 39.3572 71.6577 37.4954 72.916H60.3601V66.2674C60.3601 60.9079 56.7125 56.2361 51.5129 54.9362Z" fill="#5392F9"/>
<path d="M37 58.6079C33.7746 58.6079 31.1599 55.9933 31.1599 52.768V46.0519H42.8399V52.768C42.8399 55.9933 40.2252 58.6079 37 58.6079Z" fill="#FFBD86"/>
<path d="M31.1602 50.5186C32.9984 51.1247 34.9615 51.4541 37.0002 51.4541C39.0388 51.4541 41.0019 51.1247 42.8402 50.5186V46.0521H31.1602V50.5186Z" fill="#F6A96C"/>
<path d="M22.4001 18.458V32.766C22.4001 40.8294 28.9369 47.366 37.0001 47.366C45.0635 47.366 51.6002 40.8294 51.6002 32.766V18.458H22.4001Z" fill="#FED2A4"/>
<path d="M45.7601 18.458V32.766C45.7601 39.8292 40.7443 45.7209 34.0801 47.0737C35.0236 47.2651 36.0002 47.366 37.0002 47.366C45.0636 47.366 51.6002 40.8294 51.6002 32.766V18.458H45.7601Z" fill="#FFBD86"/>
<path d="M19.4802 18.6038V25.4659H22.4002V32.7659L24.1197 29.4765C25.1268 27.5497 27.121 26.3419 29.2952 26.3419H32.0362C40.9735 26.3419 44.3001 19.6258 44.3001 19.6258H44.9468C46.0493 19.6258 47.0345 20.3141 47.4141 21.3492L51.6003 32.7659V25.4659H54.5202V18.6038C54.5202 8.9279 46.6762 1.0839 37.0003 1.0839C27.3242 1.0839 19.4802 8.92776 19.4802 18.6038Z" fill="#B36D3C"/>
<path d="M54.52 25.4659V18.6038C54.52 12.0378 50.9073 6.31636 45.5618 3.31618C45.7369 8.59909 44.315 17.7674 34.489 26.1625C41.589 25.0968 44.2999 19.6258 44.2999 19.6258H44.9466C46.0491 19.6258 47.0343 20.3141 47.4139 21.3492L51.6001 32.7659V25.4659H54.52Z" fill="#995E34"/>
<path d="M53.0602 32.7659H51.6001V24.006H53.0602C55.479 24.006 57.4402 25.9668 57.4402 28.3858C57.4402 30.8049 55.479 32.7659 53.0602 32.7659Z" fill="#EA9B58"/>
<path d="M20.9401 32.7659H22.4001V24.006H20.9401C18.5211 24.006 16.5601 25.9668 16.5601 28.3858C16.5601 30.8049 18.5211 32.7659 20.9401 32.7659Z" fill="#EA9B58"/>
<path d="M34.4534 7.33476C33.481 3.73405 30.1933 1.08378 26.2852 1.08378C23.7088 1.08378 21.4029 2.23685 19.8508 4.05303C19.4702 3.91154 19.0604 3.83031 18.6305 3.83031C16.7424 3.83031 15.2073 5.32447 15.1327 7.19427C12.3378 7.40833 10.136 9.74236 10.136 12.5921C10.136 15.5832 12.5608 18.0078 15.5517 18.0078H33.1529C36.1439 18.0078 38.5686 15.5832 38.5686 12.5921C38.5686 10.0496 36.8162 7.91736 34.4534 7.33476Z" fill="#E6F7FE"/>
<path d="M34.4535 7.33476C33.9294 5.39414 32.7321 3.73058 31.1282 2.6083C30.3126 5.97067 28.0116 9.88892 24.536 13.3643C22.6097 15.2908 20.5471 16.8552 18.5183 18.0078H33.153C36.144 18.0078 38.5687 15.5832 38.5687 12.5921C38.5687 10.0496 36.8161 7.91736 34.4535 7.33476Z" fill="#D3EFFD"/>
<path d="M60.7998 5.80154C60.0757 3.12034 57.6278 1.14691 54.7176 1.14691C52.7991 1.14691 51.0822 2.00543 49.9264 3.35795C49.6431 3.25259 49.3377 3.19203 49.0177 3.19203C47.6119 3.19203 46.4688 4.30463 46.4131 5.6969C44.332 5.85632 42.6926 7.59431 42.6926 9.71631C42.6926 11.9435 44.4981 13.749 46.7252 13.749H59.8316C62.0587 13.749 63.8641 11.9435 63.8641 9.71631C63.8641 7.8231 62.5592 6.23528 60.7998 5.80154Z" fill="#E6F7FE"/>
<path d="M60.7998 5.80154C60.4096 4.35652 59.5181 3.11788 58.3238 2.28206C57.7165 4.78578 56.0031 7.70343 53.4151 10.2913C51.9807 11.7257 50.4447 12.8907 48.9341 13.749H59.8316C62.0587 13.749 63.8642 11.9435 63.8642 9.71631C63.8642 7.8231 62.5592 6.23528 60.7998 5.80154Z" fill="#D3EFFD"/>
<path d="M42.7643 10.4787L36.7723 5.7731L30.2606 12.9116L32.5236 14.6889L26.7065 22.2534L39.8119 15.7911L37.2937 13.4931L42.7643 10.4787Z" fill="#F8E883"/>
<path d="M54.6079 18.144C54.6446 18.1431 54.6818 18.1427 54.7189 18.1427C57.6285 18.1427 60.077 20.1165 60.8012 22.7972C62.5605 23.2307 63.8643 24.8193 63.8643 26.7129C63.8643 28.9394 62.0598 30.7454 59.8317 30.7454H56.8941" stroke="#252525" stroke-width="2" stroke-miterlimit="10" stroke-linecap="round" stroke-linejoin="round"/>
<path d="M22.7231 36.4507H14.1686C11.9405 36.4507 10.136 34.6446 10.136 32.4181C10.136 30.5246 11.4398 28.9361 13.199 28.5025C13.9231 25.8219 16.3716 23.848 19.2815 23.848C19.3185 23.848 19.3555 23.8484 19.3923 23.8493" stroke="#252525" stroke-width="2" stroke-miterlimit="10" stroke-linecap="round" stroke-linejoin="round"/>
<path d="M26.5525 53.9199C27.1282 59.1761 31.5932 63.28 37.0001 63.28C42.407 63.28 46.872 59.1761 47.4477 53.9199" stroke="#252525" stroke-width="2" stroke-miterlimit="10" stroke-linecap="round" stroke-linejoin="round"/>
<path d="M42.8406 52.7683L51.5125 54.9363C53.0907 55.3308 54.5245 56.0347 55.7573 56.9756" stroke="#252525" stroke-width="2" stroke-miterlimit="10" stroke-linecap="round" stroke-linejoin="round"/>
<path d="M59.0095 60.8144C59.8766 62.4548 60.3608 64.315 60.3608 66.2676V72.916H13.6396V66.2676C13.6396 60.9084 17.2876 56.2357 22.4879 54.9363L31.1597 52.7684" stroke="#252525" stroke-width="2" stroke-miterlimit="10" stroke-linecap="round" stroke-linejoin="round"/>
<path d="M42.8402 46.1498V52.768C42.8402 55.9931 40.2253 58.6079 37.0002 58.6079C33.775 58.6079 31.1602 55.9931 31.1602 52.768V46.1498" stroke="#252525" stroke-width="2" stroke-miterlimit="10" stroke-linecap="round" stroke-linejoin="round"/>
<path d="M26.8728 43.2813C29.4975 45.812 33.0674 47.3657 37.0001 47.3657C45.0635 47.3657 51.6005 40.83 51.6005 32.7666" stroke="#252525" stroke-width="2" stroke-miterlimit="10" stroke-linecap="round" stroke-linejoin="round"/>
<path d="M23.8939 39.2056C22.9371 37.2631 22.3994 35.0778 22.3994 32.7667" stroke="#252525" stroke-width="2" stroke-miterlimit="10" stroke-linecap="round" stroke-linejoin="round"/>
<path d="M30.6248 2.28072C32.6005 1.50748 34.7497 1.084 37 1.084C40.7029 1.084 44.137 2.23303 46.9655 4.19287" stroke="#252525" stroke-width="2" stroke-miterlimit="10" stroke-linecap="round" stroke-linejoin="round"/>
<path d="M19.48 24.1526V18.604C19.48 18.4046 19.4829 18.2066 19.4915 18.0086" stroke="#252525" stroke-width="2" stroke-miterlimit="10" stroke-linecap="round" stroke-linejoin="round"/>
<path d="M53.8379 13.7492C54.283 15.2914 54.5201 16.9188 54.5201 18.604V24.1526" stroke="#252525" stroke-width="2" stroke-miterlimit="10" stroke-linecap="round" stroke-linejoin="round"/>
<path d="M22.4001 32.7659L24.1195 29.4765C25.1267 27.5497 27.121 26.3419 29.2952 26.3419H32.036C40.9734 26.3419 44.3001 19.6258 44.3001 19.6258H44.9467C46.0491 19.6258 47.0345 20.3141 47.414 21.3492L51.6002 32.7659" stroke="#252525" stroke-width="2" stroke-miterlimit="10" stroke-linecap="round" stroke-linejoin="round"/>
<path d="M53.0602 32.7659H51.6001V24.006H53.0602C55.479 24.006 57.4402 25.9668 57.4402 28.3859C57.4402 30.8049 55.479 32.7659 53.0602 32.7659Z" stroke="#252525" stroke-width="2" stroke-miterlimit="10" stroke-linecap="round" stroke-linejoin="round"/>
<path d="M20.9401 32.7659H22.4001V24.006H20.9401C18.5211 24.006 16.5601 25.9668 16.5601 28.3859C16.5601 30.8049 18.5211 32.7659 20.9401 32.7659Z" stroke="#252525" stroke-width="2" stroke-miterlimit="10" stroke-linecap="round" stroke-linejoin="round"/>
<path d="M50.1401 72.916V68.244" stroke="#252525" stroke-width="2" stroke-miterlimit="10" stroke-linecap="round" stroke-linejoin="round"/>
<path d="M23.8601 72.916V68.244" stroke="#252525" stroke-width="2" stroke-miterlimit="10" stroke-linecap="round" stroke-linejoin="round"/>
<path d="M33.7295 42.3967C35.5358 40.5904 38.4645 40.5904 40.2707 42.3967" stroke="#252525" stroke-width="2" stroke-miterlimit="10" stroke-linecap="round" stroke-linejoin="round"/>
<path d="M29.9716 18.0083H15.5513C12.5611 18.0083 10.136 15.5832 10.136 12.5917C10.136 9.74184 12.3378 7.40867 15.1321 7.19404C15.2066 5.32525 16.7425 3.83022 18.6304 3.83022C19.0611 3.83022 19.4698 3.91202 19.8509 4.05367C21.4029 2.23734 23.7082 1.08398 26.2852 1.08398C30.1936 1.08398 33.4815 3.73382 34.4538 7.33424C34.6903 7.39263 34.9225 7.46706 35.1458 7.55609" stroke="#252525" stroke-width="2" stroke-miterlimit="10" stroke-linecap="round" stroke-linejoin="round"/>
<path d="M59.576 3.43841C60.1395 4.1206 60.5615 4.92274 60.8001 5.80149C62.5591 6.23509 63.8642 7.82349 63.8642 9.71685C63.8642 11.9441 62.059 13.7493 59.8318 13.7493H46.7257C44.4985 13.7493 42.6931 11.9441 42.6931 9.71685C42.6931 7.59368 44.3322 5.85642 46.4135 5.69743C46.4684 4.30415 47.6117 3.19271 49.0179 3.19271C49.3374 3.19271 49.6438 3.25196 49.927 3.35747C51.0817 2.0061 52.7987 1.14759 54.7183 1.14759C54.8599 1.14759 55.0015 1.15192 55.1416 1.16349" stroke="#252525" stroke-width="2" stroke-miterlimit="10" stroke-linecap="round" stroke-linejoin="round"/>
<path d="M42.7643 10.4787L36.7723 5.7731L30.2606 12.9116L32.5236 14.6889L26.7065 22.2534L39.8119 15.7911L37.2937 13.4931L42.7643 10.4787Z" stroke="#252525" stroke-width="2" stroke-miterlimit="10" stroke-linecap="round" stroke-linejoin="round"/>
<path d="M33.7295 42.3967C35.5358 40.5904 38.4645 40.5904 40.2707 42.3967" stroke="#252525" stroke-width="2" stroke-miterlimit="10" stroke-linecap="round" stroke-linejoin="round"/>
<path d="M45.4305 31.4286C45.4305 32.7187 44.3847 33.7646 43.0945 33.7646C41.8044 33.7646 40.7585 32.7187 40.7585 31.4286" stroke="#252525" stroke-width="2" stroke-miterlimit="10" stroke-linecap="round" stroke-linejoin="round"/>
<path d="M28.5698 31.4286C28.5698 32.7187 29.6157 33.7646 30.9059 33.7646C32.196 33.7646 33.2418 32.7187 33.2418 31.4286" stroke="#252525" stroke-width="2" stroke-miterlimit="10" stroke-linecap="round" stroke-linejoin="round"/>
</g>
</svg>
