<svg width="74" height="74" viewBox="0 0 74 74" fill="none" xmlns="http://www.w3.org/2000/svg">
<g clip-path="url(#clip0_2_1722)">
<path d="M71.4223 57.3055L68.2899 62.0819L56.5955 73.3976C56.5955 73.3976 44.5082 62.781 40.2176 54.4619C35.9271 46.1443 38.3367 38.4327 38.242 36.5139C38.1475 34.593 31.2231 26.525 30.0949 24.4534C28.5706 21.3274 31.4472 19.8173 31.4472 19.8173C31.4472 19.8173 30.4457 18.6083 30.6366 16.56C30.878 13.9785 33.4568 13.4577 33.4568 13.4577C33.4568 13.4577 32.486 11.4064 33.215 8.38138C33.9425 5.35797 37.8483 6.16542 37.8483 6.16542C37.3134 4.96458 37.6468 2.29763 40.0239 1.20993C41.2919 0.629549 44.9064 4.2832 48.9278 8.22026C51.53 10.7681 54.3933 12.9222 56.5955 15.8534C58.882 18.8974 60.5325 21.6809 60.7882 23.4151C61.1969 26.1845 61.2631 31.0872 61.2616 35.7486C61.2584 41.1516 60.2288 48.4591 60.4639 49.5163C60.7446 50.7787 66.458 53.9018 71.4223 57.3055Z" fill="#FFB48D"/>
<path d="M57.8246 39.4364C57.8246 39.4364 56.4613 33.4811 56.4613 31.0636C56.4613 28.6462 56.4613 19.7827 55.737 19.7827C55.0111 19.7827 52.2717 21.3149 52.8351 27.357C53.4 33.4006 46.1065 37.5807 46.49 48.0601C39.7047 37.3408 49.9268 28.7992 50.5896 27.8714C51.2523 26.9451 49.5655 22.3232 50.8263 18.8453C52.0871 15.3675 56.1646 13.8005 57.984 15.2049C59.5068 16.3805 57.8246 39.4364 57.8246 39.4364Z" fill="#F5A27E"/>
<path d="M56.5955 15.8535C55.5682 16.5589 54.4684 16.9439 54.1244 15.7273C53.4269 13.2562 42.4678 3.21076 40.6421 3.21076C38.8148 3.21076 38.2846 6.82749 38.2846 6.82749C39.214 8.13722 40.8646 10.1018 43.5282 12.1721C45.0668 13.3682 45.5118 17.2185 50.1384 21.8672C50.6086 22.5284 49.5593 23.8933 48.592 24.0543C47.6247 24.2153 40.9104 13.8479 40.9104 13.8479C39.1919 13.2025 36.7208 9.28125 36.7208 9.28125C33.2288 8.31395 34.5432 14.629 34.5432 14.629C35.8498 16.0082 37.7875 17.8528 39.9541 19.2446C39.9541 19.2446 43.6955 24.4377 45.3145 26.7937C45.3145 26.7937 44.617 27.7073 43.8643 27.7073C43.1132 27.7073 38.7075 20.6159 37.5256 20.2403C36.7276 19.9858 35.1219 18.4831 34.1628 17.5336C33.7111 17.0866 32.948 17.3551 32.8682 17.9855C32.6561 19.6606 33.4513 22.0597 33.4513 22.0597C34.7468 23.3994 36.5678 25.0895 38.586 26.385C38.586 26.385 39.5044 29.38 41.125 31.7359C41.125 31.7359 40.8031 32.0578 40.265 32.0578C39.7285 32.0578 37.2037 26.9546 36.2364 26.6327C35.2707 26.3108 32.4224 23.6235 32.4224 23.6235C31.2721 24.1032 31.7044 26.4197 31.8102 26.9152C31.0101 25.8485 30.3742 24.9664 30.0949 24.4535C28.5706 21.3276 31.4472 19.8174 31.4472 19.8174C31.4472 19.8174 30.199 18.0185 30.39 15.9703C30.6314 13.3887 32.8295 12.6865 32.8295 12.6865C32.8295 12.6865 31.5529 11.0707 32.282 8.04569C33.0094 5.02228 37.3205 5.38206 37.3205 5.38206C36.7855 4.18122 36.6214 1.84265 39.5123 0.394069C41.5668 -0.633196 50.9905 8.39285 56.5955 15.8535Z" fill="#F5A27E"/>
<path d="M73.6172 56.9268L68.2899 62.0821C65.1056 58.6184 59.3097 52.1708 58.7605 50.525C58.1262 48.6219 60.4679 38.9174 61.2616 35.7488C61.2585 41.1518 61.1638 46.2313 61.3989 47.2885C61.6798 48.5509 68.6529 53.5231 73.6172 56.9268Z" fill="#F5A27E"/>
<path d="M29.7636 40.9102C29.7162 41.8949 30.5163 44.8441 30.1028 48.5965C29.9829 49.668 31.6067 55.2162 31.2406 56.3918C30.9518 57.3228 28.73 53.867 28.2329 54.8311C24.905 61.2835 15.1657 73.6864 15.1657 73.6864C15.0136 73.5214 3.59547 61.1377 3.45392 60.9837L2.55542 57.6548C6.3552 55.0795 12.2638 50.2845 12.5068 49.1941C12.7687 48.0185 11.7983 40.4952 11.9734 34.947C12.0271 33.2901 12.1186 31.8163 12.2764 30.7496C12.6267 28.3668 16.376 23.4293 20.2452 19.3392C21.5612 17.949 22.8899 16.6551 24.1049 15.5947C26.2762 13.6979 27.8427 13.45 28.5418 13.8004C30.7841 14.9239 29.6014 16.9571 29.1864 17.8897C29.1864 17.8897 33.033 16.5707 33.5979 18.9171C34.1628 21.262 32.7922 22.8856 32.7922 22.8856C32.7922 22.8856 34.9411 22.6156 35.129 24.618C35.2774 26.2055 34.2427 28.3447 34.2427 28.3447C34.2427 28.3447 36.5729 28.6187 35.391 31.044C34.5166 32.6487 29.8377 39.4206 29.7636 40.9102Z" fill="#FFEBD3"/>
<path d="M36.0833 31.556C35.2091 33.1608 29.8376 39.4206 29.7635 40.9102C29.1733 39.2723 31.4014 35.8986 32.0468 34.4074C32.6906 32.9178 31.6097 31.7296 31.6097 31.7296C30.6976 32.7742 29.6814 34.0397 28.58 35.6714C28.2707 36.1305 27.5969 36.2063 27.2324 35.7897C27.185 35.7345 27.1503 35.6777 27.1314 35.6161C27.0099 35.2137 28.0182 33.3612 28.9445 31.9915C29.8708 30.6202 32.8121 28.8482 33.377 27.1566C33.9404 25.4634 32.5044 24.07 32.5044 24.07C31.9064 24.6949 31.1521 25.4271 30.3015 26.1356C27.5753 28.404 26.9483 30.0784 24.9916 32.9288L25.1163 29.8549C25.8239 28.6766 27.1211 26.6362 27.9772 25.5439C29.1465 24.0543 31.7249 23.6108 31.8858 21.2739C32.0468 18.9369 29.107 18.7033 29.107 18.7033C28.3449 19.6407 27.2308 20.8115 25.6639 22.0281C24.9058 22.6188 24.5006 24.0178 23.3742 25.91L22.216 28.673C21.9925 28.8412 22.1726 25.5202 23.0223 22.5504C23.8808 19.5412 27.6411 18.3057 27.4801 16.5873C27.3649 15.3643 25.2899 15.4464 24.1048 15.5947C26.2761 13.698 28.0798 12.5429 28.7788 12.8932C31.0211 14.0167 30.8933 15.8298 30.4783 16.7624C30.4783 16.7624 33.822 16.4831 34.3869 18.8296C34.9519 21.1744 33.9625 22.4274 33.9625 22.4274C33.9625 22.4274 35.6667 22.9733 35.8545 24.9758C36.0028 26.5632 35.0339 27.9582 35.0339 27.9582C35.0339 27.9582 37.2652 29.1305 36.0833 31.556Z" fill="#FFD5B7"/>
<path d="M27.0036 29.5424C26.5713 32.3797 23.7072 34.9013 23.8145 35.7786C23.9502 36.867 27.6864 46.2657 19.1185 51.0519C22.4669 46.6777 22.0551 36.2473 21.8941 35.3889C21.7332 34.5289 22.7541 33.0787 23.8271 31.5749C24.9018 30.0711 23.6125 27.6536 22.9151 27.9219C22.2208 28.1885 14.7159 40.7745 14.5991 40.9718C15.1872 39.6715 22.0674 24.6335 23.4784 24.4077C25.2379 24.1252 27.4344 26.7052 27.0036 29.5424Z" fill="#FFD5B7"/>
<path d="M12.9911 50.9146C11.7224 52.7845 6.44092 58.055 3.45381 60.9837L0.383057 57.6542C4.18283 55.0789 11.5599 50.356 11.8029 49.2656C12.0648 48.09 11.7982 40.4952 11.9733 34.947C12.4988 37.5822 14.5691 48.5887 12.9911 50.9146Z" fill="#FFD5B7"/>
<path d="M42.6829 58.2727C42.6829 58.2727 42.1241 61.2939 40.0507 64.0207C37.9046 66.8453 36.8928 68.6307 35.9681 72.1589L32.8956 73.1453L23.4341 73.0822C23.4341 73.0822 28.2169 64.3623 28.1191 62.1232C28.0544 60.6304 25.1572 57.8595 24.0669 55.3915C23.524 54.1559 24.1768 52.8472 24.8214 52.5248C26.0826 51.8942 28.4205 52.7642 29.5598 54.6199C29.5598 54.6199 28.6367 48.6882 29.3136 44.6328C29.3136 44.6312 29.3136 44.6312 29.3136 44.6312C29.6371 42.6935 30.3573 42.0325 31.6707 41.7274C34.3297 41.1097 34.3837 50.4919 34.3079 51.0836C34.2944 51.1589 35.4687 46.9854 37.1704 43.989C38.1882 42.198 39.6126 41.9641 40.1581 42.1571C41.904 42.7749 39.1397 51.669 38.9188 52.1296C38.9085 52.1503 38.9103 52.15 38.9141 52.1423C38.9172 52.136 38.9235 52.1233 38.9346 52.1028C39.1476 51.7146 40.7729 48.797 42.6665 46.9255C43.6712 45.8962 45.342 45.7734 45.8523 46.159C47.061 47.0722 42.3888 53.927 42.2168 54.1195C42.8601 53.7294 44.9443 52.6909 46.5105 52.2085C47.7476 51.8251 48.4897 52.2133 48.6993 52.6052C49.3172 53.7603 46.0456 56.7973 42.6829 58.2727Z" fill="#FFD5B7"/>
<path d="M30.2732 56.4438C30.2053 56.3618 27.9472 53.6697 26.0032 53.8275C24.7455 53.9301 24.2563 54.7838 24.067 55.3913C23.5241 54.1557 23.431 52.9959 24.3715 52.1107C26.1878 50.3986 28.4206 52.764 29.5599 54.6197L30.2732 56.4438Z" fill="#FFC7A0"/>
<path d="M33.8457 53.1696C33.6241 47.0347 32.8091 39.6214 29.3137 44.6312C29.6372 42.6934 30.3236 41.1864 31.6523 40.9576C35.643 40.2712 34.3838 50.4918 34.308 51.0835C34.3031 51.1105 34.3697 50.8085 33.8457 53.1696Z" fill="#FFC7A0"/>
<path d="M37.1704 43.989C38.1882 42.198 39.3875 40.8473 40.6151 41.1297C43.7916 41.8619 39.1397 51.6691 38.9188 52.1298L38.9141 52.1425H38.9125C38.9073 52.1582 38.5448 53.0364 38.3855 53.1161C38.2245 53.1965 40.3737 44.4135 39.7015 43.2584C39.2833 42.5404 38.0462 43.3058 37.1704 43.989Z" fill="#FFC7A0"/>
<path d="M42.6683 46.9241C43.7918 45.8132 45.01 45.0715 46.0831 45.4486C49.056 46.4917 42.389 53.9271 42.217 54.1196C42.217 54.1196 41.5827 54.9149 41.3128 54.9149C41.0446 54.9149 45.2609 48.6835 44.8049 47.1797C44.5351 46.2881 43.4826 46.5564 42.6683 46.9241Z" fill="#FFC7A0"/>
<path d="M43.4588 58.5079C43.4588 58.5079 43.6165 60.9238 41.5431 63.6505C39.397 66.4751 37.7764 69.6437 36.8517 73.172L32.8958 73.1452L35.6998 66.1153C39.2455 64.7725 41.2117 58.541 41.2527 58.0376C41.2938 57.5343 46.55 55.9231 47.4368 53.8276C47.9134 52.7009 47.238 52.3206 46.5106 52.2086C47.7477 51.8251 48.8838 51.6957 49.3241 52.2749C50.9747 54.4477 46.8214 57.0325 43.4588 58.5079Z" fill="#FFC7A0"/>
<path d="M73.7943 56.6644C62.8607 49.1681 61.7776 47.538 61.7061 47.2169C61.2813 45.3118 61.9834 29.3584 61.1 23.3662C60.9317 22.2245 60.1959 20.6273 58.9131 18.6192C58.906 18.608 58.8972 18.5985 58.8888 18.5886C58.7552 15.4012 58.3794 15.1097 58.1757 14.9524C57.5867 14.4973 56.7754 14.3067 55.8695 14.3951C53.0754 10.8539 49.553 7.06551 46.4255 4.24077C42.8032 0.969141 40.4294 -0.42027 39.3705 0.109931C36.769 1.41255 36.3777 3.48902 36.861 5.05327C35.6603 5.06589 32.603 5.35924 31.9743 7.97016C31.4032 10.3411 32.01 11.8921 32.3642 12.5386C31.921 12.7582 31.1732 13.2365 30.6464 14.1276C30.3187 13.5646 29.7683 13.0345 28.9192 12.6094C26.244 11.2691 12.6306 26.1731 11.9632 30.7008C11.2788 35.3421 11.8194 47.7362 11.494 49.1952C11.2681 50.1403 3.39409 55.2302 0.219356 57.3815C0.0825449 57.4741 0.0255798 57.6568 0.104479 57.8021C0.195055 57.9689 0.406662 58.0171 0.55941 57.9135C5.25895 54.7279 11.8355 50.5647 12.1102 49.3326C12.4632 47.7499 11.9062 35.4157 12.5877 30.793C13.2702 26.1643 26.7567 12.2361 28.6367 13.1739C30.575 14.1445 30.5046 15.5558 30.3185 16.2602C30.2916 16.3625 30.2523 16.4603 30.2037 16.5542C29.9095 17.1217 28.6656 19.2936 25.4702 21.7773C24.8633 22.249 24.4524 23.182 23.9995 24.0845C23.0516 23.9723 22.5306 23.8931 18.2012 32.6365C16.1861 36.7061 14.3274 40.7994 14.309 40.8403C14.2325 41.0088 14.3166 41.2092 14.4964 41.27C14.6528 41.3228 14.8229 41.2351 14.8913 41.0847C18.4373 33.2685 22.6382 25.0122 23.5275 24.7165C25.0004 24.4798 27.1029 26.7805 26.6904 29.4924C26.2649 32.2901 23.3682 34.7294 23.5015 35.815C23.6798 37.2684 27.1892 46.197 18.9643 50.7737C18.6814 50.9311 18.793 51.3651 19.1182 51.3651C19.1701 51.3651 19.2228 51.3521 19.2714 51.3252C22.6391 49.4512 24.5573 46.6394 24.9722 42.9677C25.3766 39.3896 24.1794 36.16 24.1281 35.7382C24.0533 35.1302 26.5628 32.7197 27.2113 30.0914C29.682 26.3435 30.8704 26.662 34.0585 22.807C34.4713 23.0055 35.4093 23.6048 35.5399 25.0022C35.6666 26.3571 34.8955 27.5911 34.7872 27.7566C32.1839 30.7232 30.4776 32.166 27.9026 36.1177C27.8166 36.2498 27.8274 36.4322 27.9446 36.5376C28.0936 36.6717 28.3184 36.6361 28.4221 36.4767C31.2888 32.0735 33.5567 30.2381 35.0986 28.3687C35.5787 28.708 36.6369 29.6961 35.805 31.4021C34.9348 33.0009 29.5292 39.2618 29.4484 40.8914C29.4297 41.272 29.5258 41.9237 29.5968 42.4552C28.376 45.1871 28.7342 50.4192 29.0789 53.381C27.6904 51.6206 25.7713 50.3549 24.1546 51.8782C22.2757 53.6489 24.0375 56.3125 25.6745 58.5589C21.5394 65.0394 14.9823 73.405 14.916 73.4893C14.8084 73.6264 14.8322 73.8248 14.9694 73.9326C15.1057 74.0397 15.3044 74.0168 15.4125 73.8792C15.4781 73.7956 21.9166 65.5816 26.0744 59.1051C26.9587 60.3105 27.7728 61.4397 27.8031 62.1342C27.8799 63.8954 24.4877 70.5 23.1644 72.9148C23.089 73.0525 23.1141 73.231 23.2383 73.3273C23.3967 73.4503 23.6189 73.3991 23.7107 73.2313C23.9078 72.872 28.5342 64.4074 28.4338 62.1066C28.3304 59.7358 22.0277 54.75 24.5875 52.3376C26.1525 50.8628 28.1774 52.9708 29.29 54.7824C29.4702 55.0757 29.9234 54.907 29.8707 54.5687C29.3765 51.3891 28.5305 41.8114 31.7054 41.2655C34.7295 40.7458 34.3957 48.0414 33.9889 51.0662C33.9646 51.2483 34.1008 51.4168 34.2925 51.4238C34.4407 51.4292 34.5693 51.3204 34.61 51.1778C35.444 48.2618 38.1202 40.877 40.5435 41.435C42.9435 41.9879 39.7247 49.7246 38.6323 51.9917C38.5654 52.1307 38.5961 52.3041 38.72 52.3961C38.8789 52.514 39.0978 52.4597 39.1874 52.2929C40.3098 50.2021 43.7178 44.9492 45.9773 45.7432C48.1148 46.4934 43.5212 52.1967 41.9886 53.8959C41.8971 53.9973 41.8693 54.1472 41.9347 54.2672C42.0215 54.4265 42.2174 54.4786 42.3685 54.3931C44.7414 53.0515 48.3899 51.5661 49.0716 52.4635C50.6518 54.5433 45.7163 57.1698 43.3309 58.216C43.2097 58.2691 43.1346 58.3929 43.1426 58.525C43.144 58.548 43.2603 60.8675 41.2913 63.4576C39.0459 66.4116 37.4502 69.6472 36.5489 73.0754C36.5088 73.2277 36.5774 73.3962 36.722 73.4589C36.906 73.5387 37.1073 73.4341 37.1555 73.2503C38.035 69.8974 39.5955 66.7313 41.7938 63.8395C42.8524 62.4468 43.3489 61.1356 43.5797 60.1589C48.8226 66.9623 56.3096 73.5646 56.3866 73.6323C56.4466 73.6848 56.5209 73.7107 56.5947 73.7107C56.8854 73.7107 57.0205 73.3489 56.8032 73.1581C56.7249 73.0891 48.9442 66.2274 43.7312 59.317C43.7626 59.0588 43.7732 58.8521 43.7756 58.7093C46.7071 57.3972 51.5141 54.6361 49.574 52.0818C48.6351 50.8462 45.4927 52.1077 43.5258 53.0717C45.0543 51.2101 47.545 47.8391 47.1065 46.1163C46.904 45.3206 46.1064 44.9766 45.3224 45.0416C43.3022 39.6865 44.984 34.1624 50.328 28.619C50.5989 28.3379 50.7624 28.1683 50.8449 28.053C51.6312 26.9533 49.8721 22.3964 51.1214 18.9499C52.3386 15.5915 56.1976 14.2226 57.7885 15.4514C59.0693 16.5425 57.6338 37.6733 57.5078 39.4114C57.495 39.5853 57.6258 39.7365 57.7995 39.7491C57.9731 39.7624 58.1246 39.6311 58.1372 39.4573C58.5164 34.2942 59.0198 25.1053 58.9246 19.8443C59.813 21.3475 60.3462 22.586 60.4748 23.4582C61.3541 29.4215 60.6375 45.3276 61.0893 47.3542C61.1781 47.7526 61.4485 48.9653 73.4367 57.1848C73.5797 57.283 73.7764 57.2473 73.8754 57.1029C73.9746 56.9593 73.938 56.7629 73.7943 56.6644ZM27.3713 28.7528C27.3521 26.6025 26.0053 24.7873 24.6249 24.2448C24.9787 23.5361 25.3986 22.6321 25.8574 22.2755C28.8302 19.9647 30.1961 17.8355 30.6272 17.0683C31.2033 17.0503 33.6421 17.0838 34.0797 18.9004C34.5972 21.05 33.7495 22.1838 33.7145 22.2296C31.4129 25.2225 29.4233 25.9678 27.3713 28.7528ZM31.5986 40.6437C31.017 40.7437 30.5238 41.0524 30.1194 41.5668C30.0886 41.2965 30.0713 41.0757 30.0788 40.9228C30.1355 39.7796 34.171 34.8522 35.7252 32.6706C37.158 34.6873 37.8993 35.9853 37.9261 36.5272C37.9717 37.4481 37.394 39.8583 37.3401 43.0887C36.304 44.6686 35.4369 46.7665 34.8418 48.4236C34.9775 45.2529 34.7437 40.1035 31.5986 40.6437ZM50.3321 27.6859C49.6106 28.695 41.2167 35.7645 44.6971 45.1747C43.2654 45.6504 41.7999 47.2601 40.6672 48.7985C41.5694 46.3834 43.2056 41.4006 40.6854 40.8202C39.7359 40.6012 38.8269 41.1931 38.0009 42.1868C38.1341 39.4133 38.602 37.4146 38.5564 36.4958C38.5212 35.7865 37.7631 34.4324 36.1058 32.1174C37.2007 30.4485 36.8252 28.8601 35.4623 27.8606C35.7451 27.3631 36.2682 26.2531 36.1719 25.0057C36.8992 25.6008 37.6184 26.1307 38.3181 26.5856C38.5034 27.1593 39.3918 29.7707 40.8643 31.9119C40.9256 32.0009 41.0242 32.0487 41.1247 32.0487C41.375 32.0487 41.5296 31.7655 41.3844 31.5543C39.8117 29.2672 38.8955 26.3189 38.8863 26.2894C38.8644 26.2181 38.818 26.1569 38.7552 26.1165C37.8482 25.534 36.9046 24.8201 35.9502 23.9947C35.5792 23.0205 34.8562 22.5106 34.4181 22.2818C34.7011 21.7346 35.1229 20.5367 34.6933 18.7527C34.203 16.7166 31.935 16.4496 30.9295 16.4333C31.0603 15.9604 31.0892 15.434 30.962 14.9082C31.419 13.7776 32.3344 13.2482 32.7316 13.0644C33.4098 13.8847 36.2977 17.2547 39.7329 19.4751C40.1165 20.0079 43.5379 24.7646 45.0545 26.9698C45.1536 27.1141 45.3505 27.1494 45.4933 27.0511C45.6369 26.9523 45.6734 26.7559 45.5746 26.6123C45.0349 25.8275 40.2751 19.0733 40.1246 18.9766C36.1146 16.4018 33.1363 12.5817 33.0768 12.489C33.0768 12.489 31.9088 10.9377 32.588 8.11786C33.1818 5.65227 36.5258 5.66126 37.1823 5.68762C37.7024 6.62588 39.4478 9.39824 43.3331 12.4183C44.7763 13.5401 45.2664 17.4183 49.9134 22.088C49.9473 22.1221 50.03 22.2133 50.03 22.2133C50.0505 24.5988 50.6759 27.2051 50.3321 27.6859ZM50.5287 18.7347C50.2304 19.5574 50.0925 20.4405 50.0471 21.3216C45.7078 16.8092 45.3366 13.1762 43.7205 11.92C39.3094 8.49137 37.7871 5.57511 37.5392 5.061C37.5159 5.0124 37.4955 4.96348 37.4791 4.9122C37.0552 3.59095 37.3885 1.80831 39.6531 0.674216C40.2379 0.381343 42.2137 1.2871 46.0022 4.70895C49.0263 7.44012 52.4219 11.08 55.16 14.517C53.2283 14.9906 51.3276 16.5309 50.5287 18.7347Z" fill="#252525"/>
</g>
<defs>
<clipPath id="clip0_2_1722">
<rect width="74" height="74" fill="white"/>
</clipPath>
</defs>
</svg>
