<svg width="74" height="74" viewBox="0 0 74 74" fill="none" xmlns="http://www.w3.org/2000/svg">
<path d="M72.7039 66.2726L60.5105 54.085C58.0347 51.6107 55.7626 48.9397 53.7161 46.0997L50.236 41.268L48.6096 40.2882L48.1652 38.3931L41.0061 28.4539C39.6678 26.5981 38.1112 24.91 36.3681 23.4271L10.3177 1.51613C9.97803 1.22707 9.56034 1.08398 9.14409 1.08398C8.92339 1.08398 8.70341 1.12489 8.49514 1.20481C8.49514 1.20481 8.2571 1.49893 8.07282 1.68321C7.51059 2.24544 7.0705 2.88094 6.75253 3.56024C5.5879 6.03577 6.89648 9.34871 8.94348 11.3956L18.2887 20.2919L20.914 22.9861C20.914 22.9861 18.358 30.908 21.2283 33.7784L27.806 39.7779C28.8307 40.8041 29.6632 41.9907 30.2731 43.2813C30.883 44.5734 31.2733 45.9682 31.4149 47.4106C31.6982 50.2954 32.9744 52.9924 35.0238 55.0433H35.0253C36.3868 56.4048 37.9072 57.5827 39.552 58.5554C41.1953 59.5266 42.9601 60.2941 44.8086 60.8318C46.0921 61.2047 47.2613 61.8969 48.208 62.8422L56.9073 71.5749C57.0699 71.7375 57.2905 71.829 57.5206 71.829L62.5602 72.916H70.025H72.1929C72.592 72.916 72.9156 72.5924 72.9156 72.1934V66.7838C72.9156 66.592 72.8394 66.4082 72.7039 66.2726Z" fill="#FDD0BF"/>
<path d="M62.5604 72.916H57.194C56.9642 72.916 56.7445 72.825 56.5812 72.6617L47.6303 63.7094C46.6837 62.7642 45.5144 62.0719 44.231 61.699C42.3824 61.1613 40.6177 60.3939 38.9744 59.4226C37.3296 58.4499 35.8091 57.272 34.4476 55.9105H34.4462C32.3967 53.8596 31.1205 51.1626 30.8372 48.2778C30.6956 46.8354 30.3054 45.4406 29.6954 44.1485C29.0855 42.8579 28.253 41.6713 27.2283 40.6451L20.3616 33.7784C17.4927 30.9095 17.4305 26.2931 20.1723 23.349L20.1159 23.3028L7.86979 11.0567C5.82178 9.0101 5.38096 5.96627 6.54588 3.49045C6.86385 2.81115 7.30467 2.17522 7.8669 1.61299C8.05045 1.42944 8.26551 1.29155 8.49532 1.20483C7.94032 3.40894 8.52451 5.84197 10.2488 7.56623L22.3734 19.7784C22.4291 19.8346 22.4994 19.8734 22.576 19.8934C23.2296 20.0652 24.1113 20.4563 24.7639 21.1117L37.9105 34.2597C38.1937 34.5415 38.3339 34.9115 38.3339 35.2815C38.3339 35.6515 38.1937 36.0215 37.9105 36.3034C37.3468 36.8685 36.4305 36.8685 35.8653 36.3034L23.412 23.8485C23.3411 23.7777 23.22 23.798 23.1782 23.889C21.9081 26.6613 22.4145 30.0502 24.6974 32.3331L31.5641 39.1998C32.1625 39.7981 32.6943 40.4514 33.1554 41.1481C36.6415 37.993 40.2085 34.9043 42.9878 31.2058L50.2361 41.268L48.8153 42.6888C48.0291 43.4765 47.3903 44.3827 46.9176 45.3828C46.4436 46.3888 46.1473 47.4583 46.0389 48.5596C45.7469 51.5269 44.5921 54.3524 42.7436 56.6707C42.4704 57.0133 42.5499 57.5148 42.9214 57.7431C44.5676 58.7578 46.6416 59.7073 48.5667 60.2537C49.8502 60.6265 51.0194 61.3188 51.9661 62.2641L62.5604 72.916Z" fill="#FCC1AC"/>
<path d="M66.1198 2.31145C65.4534 1.64502 64.3864 1.60238 63.6683 2.21375L38.5558 23.7113C36.8132 25.1945 35.2562 26.8828 33.9187 28.7394L21.0839 46.4224C19.0377 49.2629 16.7657 51.9334 14.2897 54.408L2.53674 66.4845L2.45508 71.2621L3.97468 72.9161H16.8053C17.0352 72.9161 17.2559 72.8248 17.4185 72.662L26.3698 63.7095C27.3165 62.7642 28.4857 62.0719 29.7692 61.6991C31.6177 61.1614 33.3825 60.3939 35.0258 59.4227C36.6705 58.45 38.191 57.2721 39.5525 55.9106H39.5539C41.6034 53.8597 42.8796 51.1627 43.1629 48.2779C43.3045 46.8355 43.6948 45.4407 44.3047 44.1486C44.9146 42.858 45.7471 41.6714 46.7718 40.6452L53.6385 33.7785C56.5089 30.9081 56.5696 26.2903 53.825 23.3462C53.8235 23.3448 54.6495 21.8836 54.6495 21.8836L55.8773 21.3098L66.1306 11.0565C68.1776 9.00947 68.6182 5.96564 67.4535 3.49025C67.1341 2.81124 66.6809 2.87252 66.1198 2.31145Z" fill="#FEDECF"/>
<path d="M67.4536 3.49L40.5222 25.7396C38.7792 27.2225 37.2226 28.9106 35.8842 30.7664L23.1741 48.4122C21.1276 51.2522 18.8555 53.9232 16.3797 56.3975L4.80855 67.9629C4.27523 68.4963 3.97461 69.2218 3.97461 69.9762V72.916H1.80664C1.40759 72.916 1.08398 72.5924 1.08398 72.1934V66.7838C1.08398 66.5922 1.16015 66.4082 1.29572 66.2728L13.4891 54.085C15.9649 51.6107 18.237 48.9397 20.2835 46.0997L32.9936 28.4539C34.332 26.5981 35.8886 24.91 37.6316 23.4271L63.6819 1.51613C64.0216 1.22707 64.4393 1.08398 64.8555 1.08398C65.3195 1.08398 65.782 1.26176 66.1332 1.61297C66.6954 2.1752 67.1355 2.8107 67.4536 3.49Z" fill="#FDD0BF"/>
<path d="M55.8773 21.3098L53.8842 23.3029L53.8278 23.3491C53.8264 23.3477 53.8264 23.3462 53.8249 23.3462C53.7657 23.2812 53.7035 23.2176 53.6414 23.1554C53.3148 22.8302 52.8884 22.6669 52.462 22.6669C52.0342 22.6669 51.6064 22.8302 51.2812 23.1554L38.1339 36.304C37.5692 36.8689 36.6535 36.8689 36.0888 36.304C35.5241 35.7393 35.5241 34.8237 36.0888 34.2589L49.2361 21.1116C51.0153 19.3339 53.9073 19.3339 55.6851 21.1116C55.7501 21.1768 55.8137 21.2433 55.8773 21.3098Z" fill="#FDD0BF"/>
<path d="M48.5337 38.9048L53.7164 46.0994C55.7626 48.9397 58.0346 51.6104 60.5106 54.085L72.916 66.4844" stroke="#252525" stroke-width="2" stroke-miterlimit="10" stroke-linecap="round" stroke-linejoin="round"/>
<path d="M10.0074 13.1945L7.86935 11.0564C5.26085 8.44805 5.25955 4.22022 7.86632 1.61346C8.53275 0.947022 9.59968 0.904385 10.3179 1.51575L36.3686 23.4264C36.5789 23.6055 36.7866 23.7874 36.9915 23.9724" stroke="#252525" stroke-width="2" stroke-miterlimit="10" stroke-linecap="round" stroke-linejoin="round"/>
<path d="M20.1162 23.3033L13.5823 16.7693" stroke="#252525" stroke-width="2" stroke-miterlimit="10" stroke-linecap="round" stroke-linejoin="round"/>
<path d="M25.469 38.8857L20.362 33.7787C17.4275 30.8442 17.426 26.0879 20.3587 23.1553C21.0104 22.5036 22.0674 22.5039 22.7195 23.156L30.9065 31.343" stroke="#252525" stroke-width="2" stroke-miterlimit="10" stroke-linecap="round" stroke-linejoin="round"/>
<path d="M56.8357 72.916L47.6296 63.7099C46.6838 62.7641 45.5147 62.0724 44.2307 61.6988C41.6246 60.9405 39.1831 59.7271 37.0154 58.123" stroke="#252525" stroke-width="2" stroke-miterlimit="10" stroke-linecap="round" stroke-linejoin="round"/>
<path d="M50.1773 12.8743L37.6313 23.4265C35.8887 24.9097 34.3317 26.5979 32.9942 28.4546L20.2835 46.0995C18.2374 48.9399 15.9654 51.6105 13.4894 54.0852L1.08398 66.4845" stroke="#252525" stroke-width="2" stroke-miterlimit="10" stroke-linecap="round" stroke-linejoin="round"/>
<path d="M53.8838 23.3034L66.1306 11.0565C68.739 8.44815 68.7403 4.22047 66.1335 1.6137C65.4671 0.947266 64.4002 0.904629 63.682 1.516L54.0519 9.61567" stroke="#252525" stroke-width="2" stroke-miterlimit="10" stroke-linecap="round" stroke-linejoin="round"/>
<path d="M17.1643 72.9161L26.3704 63.7101C27.3162 62.7643 28.4853 62.0725 29.7693 61.6989C33.4654 60.6236 36.8307 58.6324 39.5531 55.9101L39.5534 55.9099C41.6034 53.8598 42.879 51.1623 43.1623 48.2776C43.4456 45.3929 44.7212 42.6955 46.7712 40.6453L53.6379 33.7787C56.5725 30.8442 56.5739 26.0879 53.6412 23.1553C52.9896 22.5036 51.9326 22.5039 51.2805 23.156L37.1105 37.326" stroke="#252525" stroke-width="2" stroke-miterlimit="10" stroke-linecap="round" stroke-linejoin="round"/>
</svg>
