<svg width="74" height="74" viewBox="0 0 74 74" fill="none" xmlns="http://www.w3.org/2000/svg">
<path d="M26.5938 48.5625L37.0335 54.8263C37.376 55.0318 37.6593 55.3224 37.8561 55.6699C38.0528 56.0174 38.1563 56.41 38.1562 56.8093V69.375H3.46875V56.8093C3.46875 56.41 3.57215 56.0174 3.7689 55.6699C3.96565 55.3224 4.24904 55.0318 4.59147 54.8263L15.0312 48.5625" fill="#3397E8"/>
<path d="M49.7188 24.2812C49.7188 24.2812 52.0313 21.9688 56.6563 21.9688C61.2813 21.9688 67.0625 25.4375 67.0625 37V58.9688H41.625V35.8438C41.625 32.375 41.4566 23.125 49.7188 24.2812Z" fill="#AD6643"/>
<path d="M70.5312 56.9293V69.375H38.1562V56.9293C38.1563 56.4998 38.2758 56.0788 38.5016 55.7135C38.7274 55.3482 39.0505 55.0529 39.4346 54.8609L49.7188 49.7188H58.9688L69.2529 54.8609C69.637 55.0529 69.9601 55.3482 70.1859 55.7135C70.4117 56.0788 70.5312 56.4998 70.5312 56.9293Z" fill="#FDA2C6"/>
<path d="M54.3438 45.0938H58.9688V49.7188C58.9688 50.9454 58.4815 52.1218 57.6141 52.9891C56.7468 53.8565 55.5704 54.3438 54.3438 54.3438C53.1171 54.3438 51.9407 53.8565 51.0734 52.9891C50.206 52.1218 49.7188 50.9454 49.7188 49.7188V45.0938H54.3438Z" fill="#F0C6A4"/>
<path d="M15.0312 43.9375V49.7188C15.0312 50.478 15.1808 51.2297 15.4713 51.9311C15.7619 52.6326 16.1877 53.2699 16.7245 53.8067C17.2614 54.3435 17.8987 54.7694 18.6001 55.0599C19.3015 55.3505 20.0533 55.5 20.8125 55.5C21.5717 55.5 22.3235 55.3505 23.0249 55.0599C23.7263 54.7694 24.3636 54.3435 24.9005 53.8067C25.4373 53.2699 25.8631 52.6326 26.1537 51.9311C26.4442 51.2297 26.5938 50.478 26.5938 49.7188V43.9375H15.0312Z" fill="#F0C6A4"/>
<path d="M62.4375 37V40.4688C62.4375 42.3087 61.7066 44.0733 60.4056 45.3743C59.1045 46.6753 57.3399 47.4062 55.5 47.4062H53.1875C51.3476 47.4062 49.583 46.6753 48.2819 45.3743C46.9809 44.0733 46.25 42.3087 46.25 40.4688V38.1562C49.7188 35.8438 50.875 28.9062 50.875 28.9062C50.875 28.9062 53.1875 34.6875 62.4375 37Z" fill="#F7CCA9"/>
<path d="M62.4375 69.375V63.5938C62.4375 63.2871 62.5593 62.993 62.7762 62.7762C62.993 62.5593 63.2871 62.4375 63.5938 62.4375C63.9004 62.4375 64.1945 62.5593 64.4113 62.7762C64.6282 62.993 64.75 63.2871 64.75 63.5938V69.375H62.4375Z" fill="#FD84B3"/>
<path d="M43.9375 69.375V63.5938C43.9375 63.2871 44.0593 62.993 44.2762 62.7762C44.493 62.5593 44.7871 62.4375 45.0938 62.4375C45.4004 62.4375 45.6945 62.5593 45.9113 62.7762C46.1282 62.993 46.25 63.2871 46.25 63.5938V69.375H43.9375Z" fill="#FD84B3"/>
<path d="M33.5313 18.5L25.6356 10.9844C25.2084 10.5861 24.8677 10.1042 24.6348 9.56855C24.4019 9.03295 24.2817 8.45515 24.2817 7.8711C24.2817 7.28706 24.4019 6.70926 24.6348 6.17366C24.8677 5.63806 25.2084 5.15612 25.6356 4.75783C26.5233 3.92945 27.6922 3.46875 28.9064 3.46875C30.1205 3.46875 31.2895 3.92945 32.1772 4.75783L33.5313 6.0469L31.2188 9.25L34.6875 11.5625L33.5313 18.5Z" fill="#EB423F"/>
<path d="M40.4688 18.5L41.625 11.5625L38.1562 9.25L41.8233 4.75783C42.711 3.92945 43.8799 3.46875 45.0941 3.46875C46.3083 3.46875 47.4772 3.92945 48.3649 4.75783C48.7921 5.15612 49.1327 5.63806 49.3656 6.17366C49.5986 6.70926 49.7187 7.28706 49.7187 7.8711C49.7187 8.45515 49.5986 9.03295 49.3656 9.56855C49.1327 10.1042 48.7921 10.5861 48.3649 10.9844L40.4688 18.5Z" fill="#EB423F"/>
<path d="M11.5625 30.0625H30.0625V40.4688C30.0625 42.3087 29.3316 44.0733 28.0306 45.3743C26.7295 46.6753 24.9649 47.4062 23.125 47.4062H18.5C16.6601 47.4062 14.8955 46.6753 13.5944 45.3743C12.2934 44.0733 11.5625 42.3087 11.5625 40.4688V30.0625Z" fill="#F7CCA9"/>
<path d="M25.4375 30.0769C25.4375 30.0769 18.5 35.8581 11.5625 35.8581C11.5625 35.8581 9.25 34.7019 9.25 28.9206C9.25 23.1394 20.8125 18.5144 26.5938 25.4519C26.5938 25.4519 32.375 24.2956 32.375 31.2331C32.375 31.2331 32.375 34.7019 30.0625 37.0144L25.4375 30.0769Z" fill="#AD6643"/>
<path d="M30.0625 69.375V63.5938C30.0625 63.2871 30.1843 62.993 30.4012 62.7762C30.618 62.5593 30.9121 62.4375 31.2188 62.4375C31.5254 62.4375 31.8195 62.5593 32.0363 62.7762C32.2532 62.993 32.375 63.2871 32.375 63.5938V69.375H30.0625Z" fill="#2D85CC"/>
<path d="M9.25 69.375V63.5938C9.25 63.2871 9.37182 62.993 9.58866 62.7762C9.8055 62.5593 10.0996 62.4375 10.4062 62.4375C10.7129 62.4375 11.007 62.5593 11.2238 62.7762C11.4407 62.993 11.5625 63.2871 11.5625 63.5938V69.375H9.25Z" fill="#2D85CC"/>
</svg>
