<svg width="74" height="74" viewBox="0 0 74 74" fill="none" xmlns="http://www.w3.org/2000/svg">
<path d="M39.694 33.7279L29.0449 19.7141L33.7856 13.4935C32.171 11.7844 30.2245 10.423 28.0653 9.49248C25.9062 8.56198 23.5798 8.08203 21.2287 8.08203C18.8776 8.08203 16.5512 8.56198 14.392 9.49248C12.2329 10.423 10.2864 11.7844 8.6718 13.4935C5.32919 17.0364 3.46729 21.723 3.46729 26.5938C3.46729 31.4646 5.32919 36.1512 8.6718 39.6941L33.8087 65.9063L38.8615 60.6454L29.0449 47.73L39.694 33.7279Z" fill="#D94452"/>
<path d="M65.3281 13.5167C63.708 11.813 61.7584 10.4564 59.5978 9.52946C57.4372 8.60251 55.1107 8.12451 52.7597 8.12451C50.4086 8.12451 48.0821 8.60251 45.9215 9.52946C43.7609 10.4564 41.8113 11.813 40.1912 13.5167L35.4622 19.7373L46.0997 33.7511L35.4622 47.7533L45.2672 60.6686L65.3281 39.7173C68.6707 36.1744 70.5326 31.4878 70.5326 26.617C70.5326 21.7462 68.6707 17.0596 65.3281 13.5167Z" fill="#D94452"/>
</svg>
