<svg width="74" height="74" viewBox="0 0 74 74" fill="none" xmlns="http://www.w3.org/2000/svg">
<path d="M67.8333 20.9667C67.8333 19.3312 67.1836 17.7627 66.0271 16.6062C64.8707 15.4497 63.3021 14.8 61.6666 14.8C60.0311 14.8 58.4626 15.4497 57.3062 16.6062C56.1497 17.7627 55.5 19.3312 55.5 20.9667C54.1916 20.9667 52.9368 21.4865 52.0116 22.4116C51.0864 23.3368 50.5667 24.5916 50.5667 25.9C50.5667 27.2084 51.0864 28.4632 52.0116 29.3884C52.9368 30.3136 54.1916 30.8334 55.5 30.8334H67.8333C69.1417 30.8334 70.3965 30.3136 71.3217 29.3884C72.2469 28.4632 72.7666 27.2084 72.7666 25.9C72.7666 24.5916 72.2469 23.3368 71.3217 22.4116C70.3965 21.4865 69.1417 20.9667 67.8333 20.9667Z" fill="#486CBC"/>
<path d="M37 17.2667H35.7666V13.5667C35.7666 12.5854 35.3768 11.6443 34.6829 10.9504C33.989 10.2565 33.0479 9.8667 32.0666 9.8667L30.9081 11.0252C30.4934 11.4399 30.001 11.7689 29.4591 11.9934C28.9173 12.2178 28.3365 12.3334 27.75 12.3334C27.1634 12.3334 26.5827 12.2178 26.0408 11.9934C25.4989 11.7689 25.0066 11.4399 24.5918 11.0252L23.4333 9.8667H17.2666L13.5667 13.5667V16.0334C13.5667 17.6689 14.2163 19.2374 15.3728 20.3938C16.5293 21.5503 18.0978 22.2 19.7333 22.2H24.6666L26.6224 24.1558C27.085 24.6184 27.7124 24.8783 28.3666 24.8783C29.0208 24.8783 29.6482 24.6184 30.1108 24.1558L30.8333 23.4334L37 18.8084V17.2667Z" fill="#FFE19E"/>
<path d="M32.0666 1.2334H31.0086C29.3889 1.2334 27.7851 1.5524 26.2888 2.17221C24.7924 2.79202 23.4328 3.70048 22.2876 4.84574L17.2666 9.86672H23.4333L24.5918 11.0252C25.0065 11.44 25.4989 11.769 26.0407 11.9934C26.5826 12.2179 27.1634 12.3334 27.7499 12.3334C28.3364 12.3334 28.9172 12.2179 29.4591 11.9934C30.001 11.769 30.4933 11.44 30.9081 11.0252L32.0666 9.86672C33.0479 9.86672 33.989 10.2565 34.6829 10.9504C35.3768 11.6443 35.7666 12.5854 35.7666 13.5667V18.5C35.7666 19.6338 35.9899 20.7564 36.4237 21.8039C36.8576 22.8513 37.4935 23.803 38.2952 24.6047C39.0969 25.4064 40.0486 26.0423 41.0961 26.4762C42.1435 26.9101 43.2661 27.1334 44.3999 27.1334L44.3999 13.5667C44.3999 11.9471 44.0809 10.3433 43.4611 8.84696C42.8413 7.35061 41.9328 5.991 40.7876 4.84574C39.6423 3.70049 38.2827 2.79202 36.7863 2.17221C35.29 1.55241 33.6862 1.2334 32.0666 1.2334Z" fill="#E5B13B"/>
<path d="M57.9667 61.6666L48.2752 42.2837C47.4814 40.696 46.2611 39.3608 44.7511 38.4275C43.2411 37.4943 41.501 37 39.7259 37C38.4707 37 37.2277 37.2472 36.0681 37.7276C34.9084 38.208 33.8547 38.912 32.9671 39.7996L20.9667 51.8H1.2334V55.5649C1.2334 60.1271 3.04572 64.5024 6.27165 67.7284C9.49759 70.9543 13.8729 72.7666 18.4351 72.7666C22.0454 72.7666 25.5642 71.6307 28.4931 69.5197C31.4219 67.4087 33.6124 64.4296 34.754 61.0046L38.1284 50.8815L48.1 67.8333L57.9667 61.6666Z" fill="#6E6E6E"/>
<path d="M41.6422 16.0334H39.7578C38.6993 16.0335 37.6841 16.4539 36.9356 17.2024C36.1871 17.9509 35.7667 18.9661 35.7666 20.0246C35.7666 20.6442 35.9109 21.2553 36.188 21.8095L36.6554 22.7442C36.8798 23.193 36.962 23.6995 36.891 24.1962L36.0692 29.9489C35.9852 30.5367 35.692 31.0745 35.2435 31.4635C34.7949 31.8526 34.2211 32.0668 33.6273 32.0668H32.0667V39.4668H35.8668C37.5775 39.4668 39.2353 38.874 40.5583 37.7895C41.8812 36.7049 42.7876 35.1955 43.1231 33.518L44.3352 27.4573C44.3782 27.2424 44.4497 27.0341 44.5477 26.838L45.2119 25.5095C45.489 24.9553 45.6333 24.3442 45.6333 23.7246V20.0246C45.6333 18.9661 45.2128 17.9509 44.4643 17.2024C43.7158 16.4539 42.7007 16.0335 41.6422 16.0334Z" fill="#FFE19E"/>
<path d="M20.9667 51.8H20.9667C20.2856 51.8 19.7334 52.3522 19.7334 53.0334V55.5C19.7334 56.1812 20.2856 56.7334 20.9667 56.7334H20.9667C21.6479 56.7334 22.2001 56.1812 22.2001 55.5V53.0334C22.2001 52.3522 21.6479 51.8 20.9667 51.8Z" fill="#575757"/>
<path d="M63.5168 61.6667H57.9668L48.1001 67.8334L49.2032 70.0397C49.6129 70.8591 50.2428 71.5483 51.0221 72.0299C51.8015 72.5116 52.6995 72.7667 53.6157 72.7667H63.5168C64.2456 72.7667 64.9673 72.6232 65.6406 72.3443C66.314 72.0654 66.9258 71.6565 67.4412 71.1412C67.9566 70.6258 68.3654 70.014 68.6443 69.3406C68.9232 68.6673 69.0667 67.9456 69.0667 67.2167C69.0667 66.4879 68.9232 65.7662 68.6443 65.0928C68.3654 64.4195 67.9566 63.8077 67.4412 63.2923C66.9258 62.7769 66.314 62.3681 65.6406 62.0892C64.9673 61.8103 64.2456 61.6667 63.5168 61.6667Z" fill="#575757"/>
<path d="M7.40001 12.3333H4.93335C4.93555 10.3714 5.7159 8.49048 7.10319 7.10319C8.49048 5.7159 10.3714 4.93555 12.3333 4.93335V7.40001C11.0254 7.4015 9.77145 7.92173 8.84659 8.84659C7.92173 9.77145 7.4015 11.0254 7.40001 12.3333Z" fill="#AAE5CF"/>
<path d="M3.70006 7.40006H1.2334C1.23526 5.76513 1.88555 4.19769 3.04162 3.04162C4.19769 1.88555 5.76513 1.23526 7.40006 1.2334V3.70006C6.4191 3.70117 5.47863 4.09135 4.78499 4.78499C4.09135 5.47863 3.70117 6.4191 3.70006 7.40006Z" fill="#AAE5CF"/>
<path d="M65.2936 25.8022C65.1225 25.5763 65.0348 25.2981 65.0456 25.0149C65.0563 24.7317 65.1648 24.4609 65.3526 24.2487C65.936 23.5985 66.3337 22.8033 66.5039 21.9464C66.561 21.669 66.7123 21.4198 66.9322 21.2412C67.1521 21.0626 67.4271 20.9657 67.7104 20.9668C67.8943 20.9675 68.0757 21.0091 68.2415 21.0887C68.4073 21.1682 68.5533 21.2837 68.6689 21.4267C68.7846 21.5697 68.8669 21.7367 68.9099 21.9155C68.9529 22.0943 68.9556 22.2804 68.9177 22.4604C68.6616 23.7282 68.0732 24.9051 67.2126 25.8707C67.0915 26.009 66.941 26.1186 66.7723 26.1915C66.6035 26.2644 66.4206 26.2989 66.2368 26.2923C66.0531 26.2857 65.8731 26.2384 65.71 26.1536C65.5468 26.0688 65.4046 25.9488 65.2936 25.8022Z" fill="#5B7BC3"/>
<path d="M60.2707 45.012L58.129 43.7882L62.0079 37.0001H57.2043L61.7968 27.8152L64.0029 28.9184L61.1954 34.5335H66.2585L60.2707 45.012Z" fill="#FFD168"/>
<path d="M35.7666 46.8666L35.7666 46.8666C35.1795 47.212 34.9836 47.9679 35.3289 48.555L36.545 50.6223C36.8903 51.2094 37.6462 51.4053 38.2333 51.06C38.8204 50.7147 39.0164 49.9588 38.671 49.3717L37.455 47.3044C37.1096 46.7173 36.3537 46.5213 35.7666 46.8666Z" fill="#575757"/>
<path d="M21.03 18.1099L19.6672 22.1983C19.6894 22.1985 19.7112 22.1999 19.7334 22.1999H22.2668L23.3701 18.89L21.03 18.1099Z" fill="#FFD168"/>
<path d="M30.5866 16.5266L28.6133 18.0066L32.0173 22.5452L33.9905 21.0653L30.5866 16.5266Z" fill="#FFD168"/>
<path d="M56.2269 20.7463L56.2064 20.7872C56.1312 20.9373 56.0881 21.1013 56.0798 21.2689C56.0716 21.4365 56.0983 21.604 56.1584 21.7607C56.2184 21.9174 56.3104 22.0599 56.4286 22.179C56.5467 22.2982 56.6884 22.3914 56.8446 22.4528C57.3904 22.667 57.8777 23.0073 58.2668 23.4459C58.6559 23.8845 58.9357 24.4089 59.0833 24.9764C59.1465 25.2377 59.2951 25.4704 59.5055 25.6377C59.716 25.805 59.9762 25.8973 60.245 25.9H60.3065C60.4915 25.8995 60.674 25.8567 60.8399 25.7748C61.0059 25.693 61.1509 25.5743 61.2639 25.4278C61.3769 25.2813 61.4549 25.1109 61.492 24.9296C61.529 24.7483 61.5241 24.5609 61.4776 24.3819C61.234 23.4324 60.7685 22.5543 60.1194 21.8198C59.4702 21.0853 58.656 20.5155 57.7436 20.1571C57.4629 20.0486 57.1517 20.0489 56.8711 20.1579C56.5906 20.2669 56.3608 20.4767 56.2269 20.7463Z" fill="#5B7BC3"/>
<path d="M19.7334 22.2C18.0979 22.2 16.5294 21.5503 15.3729 20.3938C14.2164 19.2373 13.5667 17.6688 13.5667 16.0333V13.5667L6.65191 20.4814C3.1825 23.9509 1.2334 28.6564 1.2334 33.5629V51.7999H20.9667V41.7088C21.2873 41.8559 21.6357 41.9324 21.9884 41.9333H32.0667V30.8333H24.8648C24.43 30.8333 24.0029 30.7183 23.6267 30.5001C23.2506 30.2818 22.9389 29.968 22.7232 29.5904L20.9667 26.5166V22.2H19.7334Z" fill="#31C292"/>
<path d="M63.5167 60.4333H58.7289L49.3784 41.7322C48.1332 39.2347 45.9666 37.3186 43.3357 36.3881C43.8103 35.5729 44.1472 34.6849 44.3325 33.7599L45.5445 27.6996C45.566 27.592 45.6018 27.4877 45.6508 27.3896L46.3151 26.061C46.6769 25.3352 46.8657 24.5355 46.8667 23.7245V20.0245C46.8676 18.7917 46.4305 17.5987 45.6334 16.6583V13.5667C45.6293 9.96985 44.1986 6.52148 41.6553 3.97812C39.1119 1.43476 35.6636 0.00411334 32.0667 5.04791e-05H31.0087C29.2264 -0.00482737 27.4608 0.343856 25.8141 1.02592C24.1675 1.70798 22.6724 2.70987 21.4156 3.9736L5.77981 19.6093C3.94167 21.4375 2.48438 23.6121 1.49228 26.0072C0.500191 28.4024 -0.00699757 30.9705 7.2918e-05 33.563V55.565C0.000100344 59.9424 1.55776 64.1769 4.39433 67.5109C7.23091 70.8449 11.1613 73.0607 15.4821 73.7619C19.803 74.4631 24.2324 73.6039 27.9777 71.338C31.723 69.0721 34.5398 65.5475 35.9241 61.3947L38.4407 53.8449L47.0158 68.4228L48.1 70.5911C48.6091 71.6179 49.3956 72.4815 50.3705 73.084C51.3454 73.6865 52.4696 74.0038 53.6156 74H63.5167C65.3157 74 67.0411 73.2853 68.3132 72.0132C69.5853 70.7411 70.3 69.0157 70.3 67.2166C70.3 65.4176 69.5853 63.6922 68.3132 62.4201C67.0411 61.148 65.3157 60.4333 63.5167 60.4333ZM44.4 20.0245V23.7245C44.3995 24.1525 44.2999 24.5746 44.1089 24.9577L43.4446 26.2863C43.2976 26.5805 43.1904 26.8929 43.1258 27.2154L41.9137 33.2761C41.6312 34.6725 40.8751 35.9286 39.7733 36.8319C38.6715 37.7351 37.2916 38.2302 35.8668 38.2333H33.3V33.3H33.6273C34.517 33.2963 35.3757 32.9737 36.0478 32.3908C36.7199 31.8079 37.1607 31.0033 37.2901 30.1232L38.1119 24.3707C38.2195 23.6256 38.0962 22.8654 37.7585 22.1925L37.2911 21.2577C37.0809 20.8372 36.9817 20.37 37.0028 19.9004C37.024 19.4308 37.1648 18.9744 37.4119 18.5746C37.6591 18.1747 38.0043 17.8446 38.4149 17.6157C38.8255 17.3868 39.2878 17.2667 39.7579 17.2667H41.6422C42.3734 17.2675 43.0743 17.5583 43.5914 18.0753C44.1084 18.5924 44.3992 19.2934 44.4 20.0245ZM24.8648 29.6C24.6475 29.5997 24.434 29.5421 24.246 29.4331C24.058 29.324 23.9021 29.1672 23.794 28.9787L20.6252 23.4334H24.1559L25.7505 25.028C26.094 25.3716 26.5019 25.6441 26.9508 25.8301C27.3997 26.016 27.8808 26.1117 28.3667 26.1117C28.8526 26.1117 29.3337 26.016 29.7826 25.8301C30.2315 25.6441 30.6394 25.3716 30.983 25.028L31.6435 24.3674L34.8953 21.9286C34.9526 22.0753 35.0145 22.2202 35.0849 22.361L35.5523 23.2957C35.6648 23.52 35.7059 23.7734 35.6701 24.0217L34.8483 29.7745C34.8051 30.0679 34.6582 30.336 34.4341 30.5303C34.2101 30.7246 33.9239 30.8321 33.6273 30.8333H33.3V29.6H24.8648ZM23.1597 5.71791C24.1881 4.68392 25.4113 3.86416 26.7586 3.30609C28.1058 2.74803 29.5504 2.46273 31.0087 2.46671H32.0667C35.0096 2.47003 37.831 3.64055 39.9119 5.72149C41.9928 7.80242 43.1634 10.6238 43.1667 13.5667V15.0275C42.6726 14.8765 42.1588 14.7998 41.6422 14.8H39.7579C38.7826 14.7991 37.8269 15.0729 37 15.5901V13.5667C36.9985 12.2588 36.4783 11.0048 35.5535 10.0799C34.6286 9.15509 33.3746 8.63486 32.0667 8.63337H31.5559L30.036 10.1532C29.4297 10.7595 28.6074 11.1001 27.75 11.1C26.8925 11.1 26.0702 10.7594 25.464 10.1531L23.9442 8.63337H20.2443L23.1597 5.71791ZM14.8001 14.0776L17.7776 11.1H22.9226L23.7197 11.8972C24.249 12.4265 24.8773 12.8463 25.5688 13.1328C26.2603 13.4192 27.0015 13.5667 27.75 13.5667C28.4985 13.5667 29.2396 13.4193 29.9312 13.1329C30.6227 12.8465 31.251 12.4266 31.7803 11.8974L32.5333 11.1443C33.0958 11.2535 33.603 11.5548 33.9678 11.9967C34.3327 12.4386 34.5326 12.9936 34.5334 13.5667V19.1167L33.2507 20.0787L30.5867 16.5267L28.6134 18.0067L31.2774 21.5587L30.0232 22.4993L29.2388 23.2837C29.0073 23.5146 28.6937 23.6444 28.3667 23.6444C28.0397 23.6444 27.7261 23.5146 27.4946 23.2837L25.1775 20.9667H22.6779L23.3701 18.8901L21.03 18.1099L20.0778 20.9667H19.7334C18.4254 20.9652 17.1715 20.445 16.2466 19.5201C15.3218 18.5953 14.8015 17.3413 14.8001 16.0334V14.0776ZM2.46674 33.563C2.46055 31.2946 2.90433 29.0475 3.77241 26.9518C4.64048 24.856 5.9156 22.9533 7.52397 21.3536L12.3516 16.526C12.4539 18.0286 13.0115 19.4645 13.95 20.6424C14.8885 21.8204 16.1635 22.6846 17.6053 23.1201L21.6523 30.2025C21.9766 30.7683 22.4444 31.2385 23.0084 31.5658C23.5724 31.8931 24.2127 32.0658 24.8648 32.0667H30.8334V40.7H21.9884C21.8264 40.7004 21.6659 40.6687 21.5162 40.6067C21.3665 40.5447 21.2305 40.4536 21.1163 40.3387L15.6721 34.8945L13.928 36.6388L19.3721 42.083C19.4857 42.1961 19.6063 42.3018 19.7334 42.3995V50.5667H2.46674V33.563ZM27.8558 43.1667L22.2 48.8224V43.1667H27.8558ZM48.5207 66.1159L36.8298 46.2413L34.7036 47.4919L36.781 51.0235L33.5841 60.6146C32.385 64.2117 29.9451 67.2648 26.7009 69.2275C23.4568 71.1902 19.62 71.9345 15.8773 71.3271C12.1346 70.7198 8.73009 68.8004 6.27305 65.9126C3.81601 63.0247 2.46676 59.3567 2.46674 55.565V53.0333H19.7334V56.7333H22.2V52.3108L31.3443 43.1667H33.3V40.7H35.8668C38.0078 40.6978 40.0715 39.8995 41.6567 38.4603C42.8404 38.7411 43.9479 39.2785 44.901 40.0345C45.8541 40.7905 46.6294 41.7467 47.1722 42.8354L56.362 61.2151L48.5207 66.1159ZM63.5167 71.5333H53.6156C52.928 71.5356 52.2534 71.3452 51.6685 70.9837C51.0836 70.6222 50.6116 70.104 50.3062 69.4879L49.7047 68.2848L58.3204 62.9H63.5167C64.6615 62.9 65.7595 63.3548 66.569 64.1643C67.3785 64.9738 67.8333 66.0718 67.8333 67.2166C67.8333 68.3615 67.3785 69.4594 66.569 70.269C65.7595 71.0785 64.6615 71.5333 63.5167 71.5333Z" fill="#252525"/>
<path d="M4.93335 12.3333H7.40001C7.4015 11.0254 7.92173 9.77145 8.84659 8.84659C9.77145 7.92173 11.0254 7.4015 12.3333 7.40001V4.93335C10.3714 4.93555 8.49048 5.7159 7.10319 7.10319C5.7159 8.49048 4.93555 10.3714 4.93335 12.3333Z" fill="#252525"/>
<path d="M7.40006 3.70006V1.2334C5.76513 1.23526 4.19769 1.88555 3.04162 3.04162C1.88555 4.19769 1.23526 5.76513 1.2334 7.40006H3.70006C3.70117 6.4191 4.09135 5.47863 4.78499 4.78499C5.47863 4.09135 6.4191 3.70117 7.40006 3.70006Z" fill="#252525"/>
<path d="M68.9813 19.8421C68.7125 18.0949 67.8272 16.5016 66.4855 15.3505C65.1438 14.1994 63.4344 13.5667 61.6666 13.5667C59.8988 13.5667 58.1894 14.1994 56.8477 15.3505C55.506 16.5016 54.6207 18.0949 54.3519 19.8421C52.8431 20.1279 51.4952 20.9664 50.572 22.1935C49.6488 23.4207 49.2167 24.9481 49.3603 26.4771C49.5039 28.006 50.2128 29.4263 51.3483 30.4601C52.4839 31.4939 53.9643 32.0668 55.4999 32.0666H57.9666V29.6H55.4999C54.7681 29.6 54.0528 29.383 53.4443 28.9764C52.8359 28.5698 52.3616 27.992 52.0816 27.3159C51.8015 26.6398 51.7283 25.8959 51.871 25.1781C52.0138 24.4604 52.3662 23.8011 52.8836 23.2837C53.4011 22.7662 54.0604 22.4138 54.7781 22.2711C55.4958 22.1283 56.2398 22.2016 56.9159 22.4816C57.5919 22.7617 58.1698 23.2359 58.5764 23.8444C58.9829 24.4528 59.1999 25.1682 59.1999 25.9H61.6666C61.6646 24.5004 61.1874 23.1431 60.313 22.0503C59.4387 20.9575 58.2192 20.194 56.8542 19.885C57.0285 19.1096 57.3876 18.3879 57.9009 17.7812C58.4142 17.1744 59.0664 16.7007 59.8022 16.4003C60.5379 16.0999 61.3354 15.9816 62.1266 16.0557C62.9179 16.1297 63.6795 16.3939 64.3467 16.8256C65.014 17.2573 65.567 17.8438 65.9588 18.5353C66.3506 19.2267 66.5695 20.0025 66.597 20.7968C66.6244 21.591 66.4596 22.3801 66.1165 23.0969C65.7734 23.8138 65.2621 24.4371 64.6263 24.9138L66.1079 26.8861C67.583 25.7873 68.5916 24.1744 68.9336 22.3671C69.7784 22.6302 70.501 23.1875 70.9702 23.9377C71.4394 24.6879 71.6242 25.5815 71.4911 26.4563C71.358 27.3311 70.9159 28.1293 70.2448 28.706C69.5737 29.2828 68.7181 29.5999 67.8332 29.6H65.3666V32.0666H67.8332C69.3689 32.0668 70.8493 31.4939 71.9849 30.4601C73.1204 29.4263 73.8293 28.006 73.9729 26.4771C74.1165 24.9481 73.6844 23.4207 72.7612 22.1935C71.838 20.9664 70.4901 20.1279 68.9813 19.8421Z" fill="#252525"/>
<path d="M61.7968 27.8152L57.2043 37.0001H62.0079L58.129 43.7882L60.2707 45.012L66.2585 34.5335H61.1954L64.0029 28.9184L61.7968 27.8152Z" fill="#252525"/>
</svg>
