<svg width="25" height="25" viewBox="0 0 25 25" fill="none" xmlns="http://www.w3.org/2000/svg">
<path d="M12.5 24.5C19.1274 24.5 24.5 19.1274 24.5 12.5C24.5 5.87258 19.1274 0.5 12.5 0.5C5.87258 0.5 0.5 5.87258 0.5 12.5C0.5 19.1274 5.87258 24.5 12.5 24.5Z" fill="url(#paint0_linear_38_19)"/>
<path fill-rule="evenodd" clip-rule="evenodd" d="M5.93201 12.3735C9.43026 10.8493 11.763 9.84452 12.9301 9.35905C16.2627 7.97294 16.9551 7.73216 17.4065 7.72421C17.5058 7.72246 17.7277 7.74706 17.8715 7.86372C17.9929 7.96223 18.0263 8.0953 18.0423 8.1887C18.0583 8.28209 18.0782 8.49485 18.0623 8.6611C17.8817 10.5586 17.1003 15.1633 16.7028 17.2885C16.5346 18.1877 16.2034 18.4893 15.8827 18.5188C15.1858 18.5829 14.6567 18.0582 13.9817 17.6158C12.9256 16.9235 12.3289 16.4925 11.3037 15.8169C10.119 15.0362 10.887 14.6071 11.5622 13.9058C11.7389 13.7222 14.8093 10.9295 14.8687 10.6761C14.8762 10.6444 14.8831 10.5263 14.8129 10.464C14.7427 10.4016 14.6392 10.4229 14.5644 10.4399C14.4585 10.4639 12.7713 11.5791 9.50276 13.7855C9.02385 14.1143 8.59007 14.2746 8.20141 14.2662C7.77295 14.2569 6.94876 14.0239 6.33606 13.8247C5.58456 13.5805 4.98728 13.4513 5.03929 13.0364C5.06638 12.8203 5.36395 12.5993 5.93201 12.3735Z" fill="white"/>
<defs>
<linearGradient id="paint0_linear_38_19" x1="1200.5" y1="0.5" x2="1200.5" y2="2382.7" gradientUnits="userSpaceOnUse">
<stop stop-color="#2AABEE"/>
<stop offset="1" stop-color="#229ED9"/>
</linearGradient>
</defs>
</svg>
