<svg width="68" height="68" viewBox="0 0 68 68" fill="none" xmlns="http://www.w3.org/2000/svg">
<path d="M32.7597 64.2218H35.2765C48.9394 64.2218 55.7722 64.2218 60.0154 59.9786C64.2586 55.7354 64.2223 48.9053 64.2223 35.276V32.723C64.2223 19.0964 64.2223 12.2638 60.0154 8.02056C55.8085 3.77736 48.9394 3.77734 35.2765 3.77734H32.7597C19.0944 3.77734 12.2642 3.77736 8.02101 8.02056C3.77783 12.2638 3.77783 19.0916 3.77783 32.723V35.276C3.77783 48.9053 3.77783 55.7354 8.02101 59.9786C12.2642 64.2218 19.0944 64.2218 32.7597 64.2218Z" fill="#1877F2"/>
<path d="M36.2145 47.3576C22.5855 47.3576 14.3143 37.9016 13.9927 22.1885H20.8954C21.1106 33.731 26.362 38.6294 30.3876 39.6279V22.1885H37.0052V32.1473C40.888 31.7169 44.95 27.186 46.3183 22.1885H52.8246C51.7825 28.3369 47.3604 32.8678 44.232 34.7368C47.3604 36.2479 52.3943 40.2034 54.3357 47.3576H47.1816C45.6705 42.5751 41.9665 38.8711 37.0052 38.3682V47.3576H36.2145Z" fill="white"/>
</svg>
