<svg width="40" height="40" viewBox="0 0 40 40" fill="none" xmlns="http://www.w3.org/2000/svg">
<path d="M20.9288 12.9799C20.9442 12.7008 21.1952 12.4864 21.4894 12.5009C22.5904 12.5554 23.5064 12.8715 24.1588 13.5112C24.8087 14.1485 25.1273 15.0387 25.1832 16.1079C25.1978 16.387 24.9711 16.6245 24.6768 16.6384C24.3824 16.6522 24.132 16.4372 24.1174 16.158C24.0695 15.2428 23.8048 14.6197 23.3918 14.2148C22.9813 13.8122 22.3548 13.5572 21.4339 13.5116C21.1396 13.497 20.9135 13.259 20.9288 12.9799Z" fill="#7360F2"/>
<path d="M20.9221 9.7863C20.6355 9.72108 20.3475 9.8885 20.2787 10.1602C20.21 10.432 20.3865 10.7052 20.673 10.7704C20.8862 10.8189 21.1023 10.8645 21.3201 10.9104C22.417 11.1418 23.555 11.3818 24.5555 12.0469C25.7043 12.8106 26.7216 14.1866 27.0035 16.9934C27.0314 17.2716 27.2919 17.4756 27.5852 17.4492C27.8786 17.4227 28.0937 17.1756 28.0658 16.8974C27.7618 13.8706 26.6311 12.1908 25.168 11.2182C23.9766 10.4262 22.5956 10.1385 21.4999 9.91016C21.2964 9.86778 21.1028 9.82744 20.9221 9.7863Z" fill="#7360F2"/>
<path d="M19.1786 7.66223C19.1807 7.38277 19.4212 7.1578 19.7159 7.15975C22.8123 7.1802 25.4295 8.15781 27.5309 10.1006C29.6499 12.0596 30.6978 14.7266 30.7244 18.039C30.7266 18.3185 30.4895 18.5468 30.1949 18.5489C29.9002 18.551 29.6595 18.3262 29.6573 18.0467C29.6324 14.9429 28.6587 12.5566 26.786 10.8253C24.8958 9.07769 22.5488 8.19051 19.7084 8.17175C19.4138 8.1698 19.1766 7.94168 19.1786 7.66223Z" fill="#7360F2"/>
<path d="M22.7215 22.4989C22.3177 22.9707 21.5677 22.9107 21.5677 22.9107C16.0859 21.5835 14.6188 16.3175 14.6188 16.3175C14.6188 16.3175 14.553 15.6063 15.053 15.2233L16.0435 14.4766C16.5347 14.1176 16.848 13.2467 16.348 12.3961C15.9644 11.7577 15.5475 11.1378 15.0986 10.5389C14.6625 9.9741 13.6466 8.81742 13.6429 8.81381C13.153 8.26579 12.4327 8.13853 11.6732 8.51369C11.6709 8.51369 11.6677 8.51466 11.6647 8.51559C11.6619 8.51646 11.6592 8.51729 11.6574 8.51729C10.902 8.93006 10.2208 9.45447 9.63962 10.0707C9.63764 10.0745 9.63565 10.0763 9.63367 10.0781C9.63186 10.0797 9.63004 10.0814 9.62822 10.0845C9.15902 10.6216 8.89045 11.148 8.82251 11.6638C8.80841 11.7399 8.80352 11.8172 8.80796 11.8943C8.80543 12.1221 8.84198 12.3487 8.91619 12.5654L8.94213 12.5822C9.17885 13.3793 9.77126 14.7071 11.0586 16.9208C11.795 18.2012 12.6442 19.4203 13.5973 20.5649C14.0748 21.1387 14.5866 21.686 15.1302 22.2042C15.1368 22.2104 15.1433 22.2166 15.1497 22.2228C15.1626 22.2352 15.1754 22.2474 15.1884 22.2594L15.3631 22.4251C15.9095 22.9407 16.4866 23.4261 17.0916 23.8789C18.2987 24.7829 19.5843 25.5883 20.9348 26.2865C23.2683 27.5074 24.6696 28.0693 25.5089 28.2938L25.5266 28.3184C25.755 28.3889 25.994 28.4238 26.2342 28.4216C26.3155 28.4253 26.3971 28.4205 26.4773 28.4072C27.022 28.346 27.5766 28.0917 28.1412 27.6443C28.1445 27.6426 28.1463 27.6408 28.148 27.6391C28.1499 27.6372 28.1518 27.6354 28.1558 27.6335C28.8056 27.0821 29.3587 26.4362 29.7944 25.7199C29.7944 25.7181 29.7951 25.7156 29.7959 25.7129C29.7967 25.71 29.7976 25.7071 29.7976 25.7049C30.1931 24.9846 30.059 24.3015 29.4779 23.8363C29.4772 23.8363 29.4298 23.7993 29.3496 23.7366C29.0203 23.4793 28.1379 22.7897 27.6589 22.4557C27.0281 22.03 26.3751 21.6346 25.7026 21.2708C24.8051 20.7966 23.8886 21.0937 23.5088 21.5595L22.7215 22.4989Z" fill="#7360F2"/>
<path fill-rule="evenodd" clip-rule="evenodd" d="M35.4849 3.90153C34.4368 2.98435 30.2012 0.0683276 20.7669 0.0287111C20.7669 0.0287111 9.64139 -0.607555 4.21787 4.11042C1.19883 6.97421 0.136788 11.1646 0.0247606 16.3597C-0.0872667 21.5549 -0.232208 31.291 9.66354 33.9309H9.67303L9.6667 37.9592C9.6667 37.9592 9.60341 39.59 10.7357 39.9226C11.8788 40.2592 12.6277 39.4516 13.6043 38.3985L13.6048 38.398C13.7982 38.1894 14.0006 37.9711 14.2168 37.7503C14.9345 37.0168 15.9257 35.9393 16.6725 35.1158C23.4404 35.656 28.6455 34.4213 29.2367 34.2388C29.3587 34.2013 29.5314 34.1596 29.7458 34.1079C31.9323 33.5807 38.4479 32.0095 39.5932 23.1438C40.8913 13.1094 38.9653 6.76232 35.4849 3.90153ZM36.6317 22.4241C35.676 29.7431 30.4962 30.8862 28.6298 31.298C28.4234 31.3436 28.2575 31.3802 28.1423 31.4152C27.6506 31.5653 23.079 32.6439 17.3301 32.288C17.3301 32.288 13.0465 37.189 11.7085 38.4634C11.4996 38.6627 11.2541 38.7431 11.0901 38.7035C10.8598 38.65 10.7965 38.3913 10.799 38.0132C10.8028 37.473 10.8357 31.3192 10.8357 31.3192C2.7413 29.1879 2.93008 21.3696 3.03723 16.9321C3.04089 16.7805 3.04446 16.6327 3.0476 16.4894C3.14254 12.1502 4.00205 8.59549 6.55526 6.20469C11.1427 2.26405 20.5928 2.85289 20.5928 2.85289C28.5734 2.88591 32.3975 5.16506 33.2842 5.92858C36.2286 8.31938 37.7286 14.0404 36.6317 22.4217V22.4241Z" fill="#7360F2"/>
</svg>
