<svg width="40" height="40" viewBox="0 0 40 40" fill="none" xmlns="http://www.w3.org/2000/svg">
<path fill-rule="evenodd" clip-rule="evenodd" d="M32.4516 7.3894C29.1257 4.05923 24.7022 2.22435 19.9891 2.22266C10.2773 2.22266 2.37339 10.1257 2.37001 19.8399C2.36832 22.9453 3.18017 25.9765 4.72193 28.6477L2.22217 37.7782L11.5623 35.3283C14.1355 36.7324 17.0332 37.4715 19.9816 37.4724H19.9891C29.6992 37.4724 37.6041 29.5685 37.6075 19.8543C37.6091 15.1463 35.7784 10.7204 32.4516 7.39024V7.3894ZM19.9891 34.4971H19.9832C17.3559 34.4963 14.7784 33.7899 12.5296 32.456L11.9948 32.1384L6.45209 33.5923L7.93133 28.1881L7.58327 27.6339C6.11754 25.3024 5.34286 22.6074 5.34455 19.8408C5.34793 11.7671 11.9171 5.19801 19.9951 5.19801C23.9065 5.1997 27.5831 6.72455 30.3481 9.49293C33.1131 12.2605 34.6346 15.9404 34.6329 19.8526C34.6295 27.9272 28.0604 34.4963 19.9891 34.4963V34.4971ZM28.0215 23.53C27.5813 23.3095 25.417 22.245 25.0131 22.0981C24.6094 21.951 24.3163 21.8776 24.023 22.3185C23.7299 22.7596 22.886 23.7513 22.6292 24.0444C22.3723 24.3384 22.1155 24.3748 21.6753 24.1542C21.2353 23.9338 19.8168 23.4691 18.1348 21.9696C16.8263 20.8021 15.9425 19.361 15.6858 18.9199C15.4289 18.479 15.6588 18.2407 15.8783 18.0219C16.076 17.8243 16.3185 17.5075 16.539 17.2506C16.7595 16.9938 16.8322 16.8097 16.9791 16.5165C17.1262 16.2225 17.0526 15.9658 16.9428 15.7452C16.833 15.5247 15.9527 13.3578 15.5852 12.4767C15.2278 11.6184 14.8646 11.735 14.5951 11.7206C14.3383 11.708 14.0452 11.7054 13.7512 11.7054C13.4572 11.7054 12.9807 11.8153 12.5769 12.2562C12.1731 12.6972 11.036 13.7625 11.036 15.9285C11.036 18.0946 12.6133 20.1889 12.8337 20.4828C13.0542 20.7768 15.9383 25.223 20.3541 27.1305C21.4042 27.5841 22.2245 27.8553 22.864 28.0581C23.9184 28.3934 24.878 28.3462 25.6366 28.2329C26.4823 28.1062 28.2412 27.1677 28.6078 26.1395C28.9744 25.1114 28.9744 24.2294 28.8646 24.0461C28.7548 23.8628 28.4609 23.7521 28.0207 23.5317L28.0215 23.53Z" fill="#25D366"/>
</svg>
